<?xml version="1.0" encoding="utf-8"?>
<svg xmlns="http://www.w3.org/2000/svg" xmlns:xlink="http://www.w3.org/1999/xlink">

  <symbol viewBox="0 0 135.467 135.467" id="ico-close">
  <path d="M23.9 1.79 1.79 23.901 45.62 67.73 1.79 111.56l22.11 22.117 43.832-43.834 43.825 43.834 22.119-22.117-43.832-43.827L133.678 23.9 111.557 1.791 67.734 45.613 23.9 1.79z"/>
  </symbol>

  <symbol viewBox="0 0 135.467 135.467" id="ico-connection">
  <g>
    <path d="M12.37 130.74c0-32.627 13.213-62.131 34.592-83.514 21.386-21.378 50.887-34.592 83.513-34.592V5.366C61.233 5.366 5.105 61.493 5.102 130.74h7.268"/>
    <path d="M49.023 130.74c0-22.506 9.11-42.846 23.857-57.596 14.75-14.747 35.09-23.857 57.595-23.857v-7.268c-49.001.003-88.717 39.72-88.72 88.72h7.268m39.272.001c0-11.662 4.713-22.183 12.352-29.829 7.646-7.638 18.17-12.352 29.828-12.352v-7.268c-27.313 0-49.448 22.135-49.448 49.448h7.268"/>
  </g>
  </symbol>

  <symbol viewBox="0 0 135.467 135.467" id="ico-line">
    <path fill="none" stroke="" stroke-width="6.219" d="m8.041 19.036 119.385 97.896M46.814 18.52l57.365 47.727"/>
  </symbol>

  <symbol viewBox="0 0 135.467 135.467" id="ico-love">
    <path d="M47.686 113.964S10.494 84.157 4.454 61.165C-.77 41.277 14.598 21.502 38.71 21.502c4.78 0 9.912.782 15.283 2.486 11.229 3.562 16.03 17.472 16.03 17.472s13.003-12.749 25.942-14.748c3.64-.563 6.99-.824 10.081-.824 28.674 0 33.496 22.894 15.073 42.852-19.69 21.324-73.433 45.224-73.433 45.224"/>
  </symbol>

  <symbol viewBox="0 0 135.467 135.467" id="ico-play">
    <path d="M131.235 82.017 42.648 10.879 4.23 124.588Z"/>
  </symbol>

<symbol viewBox="0 0 512 512" id="ico-diamond"></symbol>

</svg>