<?xml version="1.0" encoding="UTF-8" standalone="no"?>
<!-- Created with Inkscape (http://www.inkscape.org/) -->

<svg
   xmlns:dc="http://purl.org/dc/elements/1.1/"
   xmlns:cc="http://creativecommons.org/ns#"
   xmlns:rdf="http://www.w3.org/1999/02/22-rdf-syntax-ns#"
   xmlns:svg="http://www.w3.org/2000/svg"
   xmlns="http://www.w3.org/2000/svg"
   xmlns:xlink="http://www.w3.org/1999/xlink"
   xmlns:sodipodi="http://sodipodi.sourceforge.net/DTD/sodipodi-0.dtd"
   xmlns:inkscape="http://www.inkscape.org/namespaces/inkscape"
   width="512"
   height="512"
   viewBox="0 0 135.46667 135.46667"
   version="1.1"
   id="svg4005"
   inkscape:version="0.92.3 (unknown)"
   sodipodi:docname="logo512.svg">
  <defs
     id="defs3999">
    <linearGradient
       gradientTransform="matrix(2.0049526,0,0,2.0049526,0.02668945,220.05748)"
       id="1"
       x1="38.580002"
       y1="18.371"
       x2="1.6619999"
       y2="18.030001"
       gradientUnits="userSpaceOnUse">
      <stop
         stop-color="#00b6bf"
         stop-opacity="0.991"
         id="stop269" />
      <stop
         offset="0.687"
         stop-color="#00b6b6"
         id="stop271" />
      <stop
         offset="0.795"
         stop-color="#a02d6e"
         id="stop273" />
      <stop
         offset="0.89"
         stop-color="#f3506f"
         id="stop275" />
      <stop
         offset="0.985"
         stop-color="#fcb450"
         id="stop277" />
    </linearGradient>
    <linearGradient
       inkscape:collect="always"
       xlink:href="#0"
       id="linearGradient3958"
       gradientUnits="userSpaceOnUse"
       x1="43.130001"
       y1="149.56"
       x2="58.889"
       y2="129.69" />
    <linearGradient
       id="0"
       x1="43.130001"
       y1="149.56"
       x2="58.889"
       y2="129.69"
       gradientUnits="userSpaceOnUse">
      <stop
         stop-color="#8c42a1"
         id="stop280" />
      <stop
         offset="0.389"
         stop-color="#922c88"
         id="stop282" />
      <stop
         offset="0.731"
         stop-color="#a02d6e"
         id="stop284" />
      <stop
         offset="0.86"
         stop-color="#f3506f"
         id="stop286" />
      <stop
         offset="0.985"
         stop-color="#fcb450"
         id="stop288" />
    </linearGradient>
    <linearGradient
       id="5"
       gradientUnits="userSpaceOnUse"
       x1="47.571999"
       y1="143.75"
       x2="38.049999"
       y2="143.78">
      <stop
         stop-color="#8c42a1"
         id="stop225" />
      <stop
         offset="0.281"
         stop-color="#922c88"
         id="stop227" />
      <stop
         offset="0.514"
         stop-color="#a02d6e"
         id="stop229" />
      <stop
         offset="0.559"
         stop-color="#f3506f"
         id="stop231" />
      <stop
         offset="0.747"
         stop-color="#fcb450"
         id="stop233" />
    </linearGradient>
    <linearGradient
       id="6"
       x1="43.41"
       x2="47.619999"
       gradientUnits="userSpaceOnUse">
      <stop
         stop-color="#8c42a1"
         id="stop247" />
      <stop
         offset="0.141"
         stop-color="#922c88"
         id="stop249" />
      <stop
         offset="0.325"
         stop-color="#a02d6e"
         id="stop251" />
      <stop
         offset="0.665"
         stop-color="#f3506f"
         id="stop253" />
      <stop
         offset="0.985"
         stop-color="#fcb450"
         id="stop255" />
    </linearGradient>
    <linearGradient
       inkscape:collect="always"
       xlink:href="#0"
       id="linearGradient4752"
       gradientUnits="userSpaceOnUse"
       x1="43.130001"
       y1="149.56"
       x2="58.889"
       y2="129.69" />
    <linearGradient
       inkscape:collect="always"
       xlink:href="#0"
       id="linearGradient4754"
       gradientUnits="userSpaceOnUse"
       x1="43.130001"
       y1="149.56"
       x2="58.889"
       y2="129.69" />
  </defs>
  <sodipodi:namedview
     id="base"
     pagecolor="#ffffff"
     bordercolor="#666666"
     borderopacity="1.0"
     inkscape:pageopacity="0.0"
     inkscape:pageshadow="2"
     inkscape:zoom="0.62065193"
     inkscape:cx="264.36007"
     inkscape:cy="330.87466"
     inkscape:document-units="mm"
     inkscape:current-layer="layer1"
     showgrid="false"
     units="px"
     inkscape:window-width="1301"
     inkscape:window-height="744"
     inkscape:window-x="65"
     inkscape:window-y="24"
     inkscape:window-maximized="1" />
  <metadata
     id="metadata4002">
    <rdf:RDF>
      <cc:Work
         rdf:about="">
        <dc:format>image/svg+xml</dc:format>
        <dc:type
           rdf:resource="http://purl.org/dc/dcmitype/StillImage" />
        <dc:title></dc:title>
      </cc:Work>
    </rdf:RDF>
  </metadata>
  <g
     inkscape:label="Layer 1"
     inkscape:groupmode="layer"
     id="layer1"
     transform="translate(0,-161.53331)">
    <rect
       style="opacity:0.95;fill:#fafafa;fill-opacity:1;stroke:none;stroke-width:2.01580667;stroke-miterlimit:4;stroke-dasharray:none;stroke-opacity:1"
       id="rect4587"
       width="135.46666"
       height="135.46666"
       x="3.5603841e-06"
       y="161.53331" />
    <g
       id="g4834"
       transform="matrix(1.9813266,0,0,1.9813266,-11.715186,-276.71662)">
      <path
         sodipodi:nodetypes="cccscccccccccscsccccsscccsccccccccccccccccccccccccccccccccccccccccccccccccccccccccccsccccccccscscccccccccccccccccccccccccccccccccccccc"
         inkscape:connector-curvature="0"
         id="path340"
         d="m 40.137126,229.21807 -22.6596,0.0139 v 1.69809 c 5.487597,0 8.232572,1.69832 8.232572,5.09271 v 5.41569 h -2.201415 -2.708879 v 2.70836 2.70888 h 2.708879 2.201415 v 0.54829 h 8.567436 v -12.31553 c 0,-0.96237 0.338306,-1.61401 1.018026,-1.95285 0.679728,-0.33888 1.838897,-0.50901 3.480925,-0.50901 1.583899,0 2.94341,0.0562 4.07417,0.17053 1.18895,0.0561 2.573975,0.31065 4.157885,0.76378 1.642028,0.397 2.971403,0.96227 3.989938,1.69809 1.018524,0.7358 1.89452,1.83876 2.630328,3.31039 0.735801,1.47164 1.102776,3.22563 1.102776,5.26066 v 0.002 c 0,3.39439 -1.188776,5.99681 -3.564639,7.80728 -0.124499,0.0972 -0.253238,0.1902 -0.383439,0.28215 h 9.420095 c 2.182215,-2.13078 3.275253,-4.91719 3.275253,-8.36021 0,-9.56162 -7.779255,-14.34331 -23.341726,-14.34331 z m -20.958929,3.47886 v 1.37769 1.37718 h 1.377178 1.377177 v -1.37718 -1.37769 h -1.377177 z m 7.887374,2.17764 h 1.661915 1.662429 v 1.66192 1.66243 h -1.662429 -1.661915 v -1.66243 z m -16.344221,2.95331 v 1.42524 1.42575 h 1.425236 1.425752 v -1.42575 -1.42524 h -1.425752 z m 2.469616,24.59798 v 2.47634 h 2.518193 2.518709 v -2.47634 z m 12.519132,0 v 4.84208 h -1.108459 v -1.45727 -1.47175 h -1.471745 -1.473811 v 1.47175 1.47329 h 1.473811 1.471745 v 1.69447 1.70998 h 1.108459 v 3.50883 h 2.313554 0.902271 v 4.08605 4.08606 h -0.902271 -4.086056 v -0.13436 c -1.365361,0.98043 -3.512351,1.47381 -6.46162,1.47381 v 1.69809 h 26.735836 c 6.786729,0 12.150101,-1.32937 16.119946,-3.98994 4.029937,-2.71671 6.034773,-6.56416 6.034773,-11.54245 h 0.0036 c 0,-1.03238 -0.1046,-2.008 -0.305924,-2.93108 h -9.757026 c 0.193471,0.88749 0.290938,1.8389 0.290938,2.85512 l -0.0016,0.002 c 0,4.58333 -1.357464,7.80928 -4.074171,9.67589 -2.658504,1.86661 -6.421691,2.80086 -11.287683,2.80086 -2.885157,0 -4.781706,-0.33882 -5.685957,-1.01854 -0.848108,-0.67964 -1.273307,-1.86896 -1.273307,-3.56516 v -15.2678 z m -17.9343052,8.84236 v 1.33118 1.33119 h 1.3291179 1.3317013 v -1.33119 -1.33118 H 9.1049107 Z m 7.0316122,0.4749 v 2.70888 2.70836 h 2.708362 2.708878 v -2.70836 -2.70888 h -2.708878 z m 0,5.41724 h -1.804541 -1.806608 v 1.80455 1.8066 h 1.806608 1.804541 v -1.8066 z m 6.937044,0.28474 v 1.66243 1.66192 h 1.661914 1.661914 v -1.66192 -1.66243 h -1.661914 z"
         style="fill:url(#1);stroke-width:2.00495267" />
      <g
         style="fill:url(#linearGradient3958);stroke-width:0.26499999"
         transform="matrix(1.5023692,0,0,1.5023692,-23.688058,38.76304)"
         id="g330">
        <g
           style="fill:url(#linearGradient4752)"
           aria-label="mark"
           id="g314">
          <g
             style="fill:#8c42a1"
             id="g310">
            <path
               inkscape:connector-curvature="0"
               d="m 25.937,142.51 q 0.011,0 0.222,-0.19 0.222,-0.201 0.603,-0.402 0.381,-0.201 0.773,-0.201 0.392,0 0.688,0.254 0.307,0.254 0.402,0.646 0.328,-0.37 0.773,-0.635 0.455,-0.265 0.868,-0.265 0.36,0 0.614,0.127 0.265,0.127 0.402,0.307 0.138,0.18 0.212,0.476 0.074,0.296 0.085,0.529 0.021,0.233 0.021,0.582 v 1.979 q 0,0.349 0.148,0.508 0.148,0.159 0.519,0.19 v 0.148 h -2.222 v -0.148 q 0.37,-0.032 0.519,-0.19 0.148,-0.159 0.148,-0.508 v -2.148 q 0,-0.762 -0.169,-1.016 -0.159,-0.265 -0.656,-0.265 -0.751,0 -1.143,0.635 v 2.794 q 0,0.349 0.148,0.508 0.148,0.159 0.519,0.19 v 0.148 h -2.223 v -0.148 q 0.37,-0.032 0.519,-0.19 0.148,-0.159 0.148,-0.508 v -2.191 q 0,-0.265 -0.021,-0.434 -0.011,-0.169 -0.085,-0.381 -0.064,-0.212 -0.222,-0.317 -0.159,-0.106 -0.413,-0.106 -0.339,0 -0.688,0.169 -0.349,0.169 -0.529,0.445 v 2.815 q 0,0.349 0.148,0.508 0.148,0.159 0.519,0.19 v 0.148 h -2.223 v -0.148 q 0.37,-0.032 0.519,-0.19 0.148,-0.159 0.148,-0.508 v -2.572 q 0,-0.445 -0.127,-0.571 -0.116,-0.127 -0.54,-0.127 v -0.18 l 1.556,-0.55 v 0.698 q 0,0.095 0.042,0.095 z"
               id="path304" />
            <path
               inkscape:connector-curvature="0"
               d="m 32.999,142.91 q 0,-0.116 0.074,-0.286 0.074,-0.18 0.243,-0.392 0.18,-0.222 0.561,-0.37 0.381,-0.148 0.91,-0.148 0.868,0 1.185,0.413 0.328,0.402 0.328,1.397 v 2.222 q 0,0.328 0.243,0.328 0.191,0 0.55,-0.243 v 0.275 q -0.159,0.19 -0.423,0.381 -0.254,0.19 -0.455,0.19 -0.381,0 -0.561,-0.233 -0.18,-0.233 -0.201,-0.582 -0.878,0.815 -1.524,0.815 -0.476,0 -0.804,-0.328 -0.318,-0.328 -0.318,-0.794 0,-0.233 0.074,-0.434 0.085,-0.212 0.201,-0.37 0.116,-0.159 0.318,-0.307 0.201,-0.159 0.37,-0.265 0.169,-0.106 0.423,-0.212 0.265,-0.116 0.423,-0.18 0.169,-0.064 0.423,-0.159 0.265,-0.095 0.37,-0.138 0,-0.889 -0.148,-1.207 -0.148,-0.328 -0.624,-0.328 -0.18,0 -0.402,0.085 -0.212,0.085 -0.296,0.212 -0.021,0.085 -0.021,0.159 0,0.053 0.011,0.212 0.011,0.148 0.011,0.243 0,0.18 -0.148,0.328 -0.138,0.148 -0.318,0.148 -0.233,0 -0.36,-0.116 -0.116,-0.127 -0.116,-0.317 z m 2.413,2.656 v -1.799 q -0.106,0.042 -0.349,0.138 -0.243,0.085 -0.392,0.148 -0.148,0.053 -0.349,0.169 -0.201,0.106 -0.318,0.233 -0.106,0.116 -0.191,0.307 -0.085,0.18 -0.085,0.413 0,0.37 0.191,0.624 0.201,0.243 0.561,0.243 0.191,0 0.519,-0.148 0.339,-0.159 0.413,-0.328 z"
               id="path306" />
            <path
               inkscape:connector-curvature="0"
               d="m 40.644,142.28 q 0,0.466 -0.434,0.466 -0.201,0 -0.402,-0.18 -0.191,-0.19 -0.307,-0.19 -0.159,0 -0.413,0.307 -0.243,0.296 -0.243,0.519 v 2.519 q 0,0.349 0.169,0.508 0.169,0.159 0.635,0.19 v 0.148 h -2.487 v -0.148 q 0.466,-0.032 0.624,-0.19 0.169,-0.159 0.169,-0.508 v -2.307 q 0,-0.582 -0.095,-0.804 -0.085,-0.222 -0.328,-0.222 -0.148,0 -0.37,0.064 v -0.159 l 1.683,-0.571 v 0.963 q 0.212,-0.37 0.529,-0.667 0.318,-0.296 0.677,-0.296 0.593,0 0.593,0.561 z"
               id="path308" />
          </g>
          <path
             inkscape:connector-curvature="0"
             style="fill:url(#5)"
             d="m 45.925,146.57 h -2.286 v -0.148 q 0.37,0 0.37,-0.19 0,-0.095 -0.085,-0.201 l -1.577,-2.074 v 1.767 q 0,0.349 0.169,0.508 0.169,0.159 0.635,0.19 v 0.148 h -2.487 v -0.148 q 0.455,-0.032 0.624,-0.19 0.169,-0.159 0.169,-0.508 v -5.281 q 0,-0.275 -0.063,-0.349 -0.063,-0.074 -0.286,-0.074 h -0.349 v -0.19 q 0.148,-0.042 0.339,-0.085 0.201,-0.042 0.328,-0.074 0.138,-0.042 0.254,-0.085 l 0.667,-0.233 v 4.434 l 1.334,-1.164 q 0.36,-0.307 0.36,-0.445 0,-0.19 -0.54,-0.19 v -0.148 h 2.17 v 0.148 q -0.318,0 -0.582,0.074 -0.265,0.074 -0.54,0.254 -0.265,0.18 -0.444,0.328 -0.169,0.148 -0.508,0.455 -0.328,0.307 -0.519,0.476 l 1.535,1.958 q 0.656,0.847 1.312,0.889 z"
             id="path312" />
        </g>
        <g
           style="fill:url(#linearGradient4754)"
           aria-label="eting"
           id="g328">
          <path
             inkscape:connector-curvature="0"
             style="fill:url(#6)"
             d="m 47.62,147.8 q -0.265,0.762 -0.857,1.281 -0.593,0.508 -1.355,0.508 -0.889,0 -1.45,-0.698 -0.55,-0.709 -0.55,-1.683 0,-1.143 0.593,-1.863 0.593,-0.72 1.556,-0.72 0.825,0 1.334,0.55 0.508,0.54 0.529,1.376 h -3.291 q 0.011,0.54 0.18,1.048 0.169,0.508 0.572,0.889 0.402,0.381 0.963,0.381 0.487,0 0.9,-0.317 0.423,-0.328 0.699,-0.815 z m -1.281,-1.577 q -0.032,-0.529 -0.286,-0.868 -0.243,-0.349 -0.73,-0.349 -0.995,0 -1.164,1.217 z"
             id="path316" />
          <g
             style="fill:#8c42a1"
             id="g326">
            <path
               inkscape:connector-curvature="0"
               d="m 49.973,149.01 q 0.402,0 0.698,-0.392 l 0.148,0.127 q -0.646,0.836 -1.365,0.836 -0.508,0 -0.677,-0.328 -0.169,-0.328 -0.169,-1.154 v -3.037 H 48.29 q -0.021,0 -0.085,0.011 -0.063,0 -0.095,0 -0.032,0 -0.085,-0.011 -0.042,-0.021 -0.032,-0.053 0.011,-0.032 0.021,-0.095 0.212,-0.138 0.423,-0.339 0.212,-0.212 0.349,-0.37 0.138,-0.159 0.37,-0.434 0.233,-0.286 0.36,-0.434 v 1.397 h 1.037 v 0.328 h -1.037 v 2.857 q 0,0.55 0.085,0.826 0.095,0.265 0.37,0.265 z"
               id="path318" />
            <path
               inkscape:connector-curvature="0"
               d="m 52.739,142.8 q 0,0.222 -0.159,0.381 -0.159,0.159 -0.37,0.159 -0.233,0 -0.392,-0.159 -0.148,-0.159 -0.148,-0.381 0,-0.233 0.148,-0.392 0.159,-0.159 0.392,-0.159 0.212,0 0.37,0.159 0.159,0.159 0.159,0.392 z m 0.804,6.667 h -2.508 v -0.148 q 0.466,-0.032 0.624,-0.19 0.169,-0.159 0.169,-0.508 v -2.572 q 0,-0.455 -0.074,-0.624 -0.063,-0.169 -0.275,-0.169 -0.138,0 -0.444,0.085 v -0.148 l 1.693,-0.571 v 4 q 0,0.36 0.169,0.519 0.169,0.148 0.646,0.18 z"
               id="path320" />
            <path
               inkscape:connector-curvature="0"
               d="m 58.913,149.47 h -2.222 v -0.148 q 0.37,-0.032 0.519,-0.19 0.148,-0.159 0.148,-0.508 v -2.275 q 0,-0.36 -0.042,-0.582 -0.042,-0.222 -0.233,-0.392 -0.191,-0.18 -0.54,-0.18 -0.55,0 -1.154,0.603 v 2.826 q 0,0.349 0.148,0.508 0.148,0.159 0.519,0.19 v 0.148 h -2.233 v -0.148 q 0.37,-0.032 0.519,-0.19 0.148,-0.159 0.148,-0.508 v -2.582 q 0,-0.497 -0.074,-0.624 -0.074,-0.138 -0.328,-0.138 h -0.265 v -0.148 l 1.566,-0.508 v 0.847 q 0.381,-0.392 0.751,-0.614 0.37,-0.233 0.868,-0.233 1.238,0 1.238,1.714 v 2.286 q 0,0.349 0.148,0.508 0.148,0.159 0.519,0.19 z"
               id="path322" />
            <path
               inkscape:connector-curvature="0"
               d="m 63.972,145.38 h -0.878 q 0.201,0.434 0.201,0.91 0,0.741 -0.497,1.185 -0.497,0.434 -1.217,0.434 -0.074,0 -0.572,-0.074 -0.169,0.042 -0.392,0.275 -0.212,0.222 -0.212,0.402 0,0.074 0.063,0.127 0.074,0.042 0.201,0.074 0.127,0.032 0.222,0.042 0.106,0.011 0.265,0.032 0.159,0.011 0.201,0.011 0.159,0.011 0.455,0.021 0.296,0 0.434,0.011 0.138,0.011 0.381,0.032 0.243,0.021 0.36,0.053 0.127,0.032 0.296,0.085 0.169,0.053 0.254,0.138 0.085,0.085 0.169,0.201 0.095,0.116 0.127,0.275 0.042,0.169 0.042,0.37 0,0.561 -0.497,0.984 -0.497,0.434 -1.111,0.614 -0.614,0.18 -1.154,0.18 -0.836,0 -1.334,-0.36 -0.487,-0.349 -0.487,-0.73 0,-0.148 0.095,-0.317 0.106,-0.159 0.201,-0.254 0.095,-0.095 0.36,-0.328 0.265,-0.222 0.381,-0.328 -0.55,-0.222 -0.55,-0.55 0,-0.466 0.942,-1.154 -0.995,-0.402 -0.995,-1.408 0,-0.762 0.54,-1.238 0.54,-0.476 1.312,-0.476 0.381,0 0.889,0.201 0.508,0.19 0.984,0.19 0.222,0 0.519,-0.032 z m -1.492,1.207 q 0,-0.54 -0.286,-1.101 -0.275,-0.571 -0.762,-0.571 -0.825,0 -0.825,1.01 0,0.635 0.254,1.175 0.265,0.529 0.836,0.529 0.783,0 0.783,-1.037 z m 1.101,3.598 q 0,-0.19 -0.116,-0.317 -0.106,-0.116 -0.349,-0.169 -0.243,-0.053 -0.434,-0.074 -0.191,-0.011 -0.529,-0.011 -0.995,0 -1.598,-0.116 -0.519,0.571 -0.519,0.931 0,0.307 0.37,0.519 0.37,0.222 1.132,0.222 0.931,0 1.482,-0.275 0.561,-0.265 0.561,-0.709 z"
               id="path324" />
          </g>
        </g>
      </g>
    </g>
    <g
       id="g4793"
       transform="translate(-0.74066447,0.38342741)" />
  </g>
</svg>
