<?xml version="1.0" encoding="utf-8"?>
<!-- Uploaded to: SVG Repo, www.svgrepo.com, Generator: SVG Repo Mixer Tools -->
<svg width="800px" height="800px" viewBox="0 0 1024 1024" class="icon"  version="1.1" xmlns="http://www.w3.org/2000/svg"><path d="M416.488 64.058c-4.414 0-8.076-3.578-8.076-8s3.5-8 7.92-8h0.156c4.422 0 8 3.578 8 8s-3.578 8-8 8z" fill="#231F20" /><path d="M719.972 1023.934H288.03c-39.7 0-71.992-32.292-71.992-71.992V72.056c0-39.698 32.292-71.99 71.992-71.99h447.942c39.698 0 71.99 32.292 71.99 71.99V951.94c-0.002 39.888-48.136 71.994-87.99 71.994zM288.03 16.064c-30.872 0-55.994 25.122-55.994 55.992V951.94c0 30.872 25.124 55.994 55.994 55.994h431.944c31.73 0 71.99-26.358 71.99-55.994V72.056c0-30.872-25.122-55.992-55.992-55.992H288.03z" fill="" /><path d="M767.966 112.05H256.034c-4.422 0-8-3.578-8-7.998 0-4.422 3.578-8 8-8h511.934a7.994 7.994 0 0 1 7.998 8 7.996 7.996 0 0 1-8 7.998zM767.966 879.952H256.034c-4.422 0-8-3.576-8-7.998s3.578-8 8-8h511.934c4.42 0 7.998 3.578 7.998 8s-3.58 7.998-8 7.998zM504 991.938c-26.464 0-47.994-21.53-47.994-47.994s21.528-47.994 47.994-47.994 47.994 21.53 47.994 47.994-21.53 47.994-47.994 47.994z m0-79.99c-17.646 0-31.996 14.358-31.996 31.996S486.354 975.94 504 975.94s31.996-14.358 31.996-31.996-14.35-31.996-31.996-31.996zM607.986 64.058h-143.98c-4.422 0-8-3.578-8-8s3.578-8 8-8h143.98c4.422 0 8 3.578 8 8s-3.578 8-8 8z" fill="" /><path d="M216.038 160.044c-4.42 0-8-3.578-8-7.998v-15.998c0-4.422 3.578-8 8-8s8 3.578 8 8v15.998c0 4.42-3.58 7.998-8 7.998zM216.038 224.038c-4.42 0-8-3.578-8-8V184.042c0-4.42 3.578-8 8-8s8 3.578 8 8v31.996c0 4.42-3.58 8-8 8zM216.038 288.03c-4.42 0-8-3.578-8-8v-31.996c0-4.42 3.578-7.998 8-7.998s8 3.578 8 7.998v31.996c0 4.422-3.58 8-8 8zM807.96 320.024a7.994 7.994 0 0 1-7.998-8v-47.994c0-4.42 3.576-7.998 7.998-7.998s8 3.578 8 7.998v47.994c0 4.424-3.578 8-8 8z" fill="#231F20" /><path d="M320.024 639.888c-4.42 0-8-3.576-8-7.998v-53.306c0-31.182 16.568-43.478 45.19-54.18 8.554-3.172 34.536-12.826 55.352-22.762a7.974 7.974 0 0 1 10.664 3.764c1.906 4 0.218 8.766-3.774 10.672-21.458 10.248-47.948 20.09-56.648 23.324-27.302 10.202-34.786 18.624-34.786 39.182v53.306a7.99 7.99 0 0 1-7.998 7.998zM703.974 639.888a7.992 7.992 0 0 1-7.998-7.998v-53.306c0-20.558-7.484-28.98-34.792-39.182-23.59-8.766-42.134-16.42-56.68-23.386a8.006 8.006 0 0 1-3.766-10.672 8.02 8.02 0 0 1 10.67-3.764c14.108 6.764 32.214 14.234 55.354 22.826 28.652 10.702 45.21 22.998 45.21 54.18v53.306a7.992 7.992 0 0 1-7.998 7.996zM512.484 514.11c-45.206 0-119.984-71.944-119.984-153.934 0-4.422 3.578-8 7.998-8 4.422 0 8 3.578 8 8 0 71.13 64.874 137.936 103.988 137.936 39.104 0 103.986-66.804 103.986-137.936 0-4.422 3.576-8 7.998-8s8 3.578 8 8c-0.002 81.99-74.788 153.934-119.986 153.934zM400.014 351.942c-0.648 0-1.304-0.078-1.96-0.25a7.992 7.992 0 0 1-6.006-7c-4.226-45.198 5.56-81.224 29.114-107.08 34.238-37.588 89.746-45.478 130.272-45.478 24.186 0 41.292 2.812 41.994 2.938a8.02 8.02 0 0 1 6.64 6.998 8.028 8.028 0 0 1-4.906 8.296c-6.826 2.796-11.202 6.78-13.388 12.186-2.5 6.234-1.624 13.186-0.5 17.732 8.154 0.328 24.592 2.952 37.09 17.56 15.248 17.794 19.778 47.166 13.53 87.332a7.996 7.996 0 0 1-6.188 6.578 7.998 7.998 0 0 1-8.374-3.376l-28.45-42.666c-12.732 4.608-43.244 14.232-76.396 14.232-33.262 0-64.454-9.686-77.342-14.28l-28.472 42.712a7.988 7.988 0 0 1-6.658 3.566z m191.974-63.99c2.61 0 5.124 1.28 6.656 3.562l19.748 29.606c1.216-23.966-2.906-42.026-12.17-52.868-8.954-10.436-20.686-11.998-26.888-11.998-1.56 0-2.56 0.11-2.78 0.124a7.97 7.97 0 0 1-8.39-4.704c-0.328-0.75-7.938-18.466-1.218-35.106a34.838 34.838 0 0 1 4.328-7.764 292.894 292.894 0 0 0-19.842-0.672c-37.298 0-88.136 6.984-118.446 40.244-16.092 17.686-24.722 41.276-25.786 70.366l18.154-27.23c2.116-3.172 6.132-4.452 9.694-2.968 0.376 0.156 38.048 15.404 77.436 15.404 39.354 0 76.038-15.216 76.412-15.374a7.95 7.95 0 0 1 3.092-0.622z" fill="" /><path d="M624.468 368.174a7.994 7.994 0 0 1-7.998-7.998v-16.232c0-4.422 3.576-8 7.998-8s8 3.578 8 8v16.232a7.994 7.994 0 0 1-8 7.998zM400.498 368.174a7.994 7.994 0 0 1-7.998-7.998v-16.232c0-4.422 3.578-8 7.998-8 4.422 0 8 3.578 8 8v16.232a7.994 7.994 0 0 1-8 7.998zM480.254 543.902a8.02 8.02 0 0 1-5.656-2.344l-47.994-47.978a8 8 0 0 1 11.312-11.31l43.932 43.916 27.082-13.436c3.96-1.938 8.756-0.344 10.716 3.624a7.99 7.99 0 0 1-3.608 10.716l-32.232 15.982a7.922 7.922 0 0 1-3.552 0.83z" fill="" /><path d="M544.23 543.902a7.92 7.92 0 0 1-3.546-0.828l-32.238-15.982a7.99 7.99 0 0 1-3.61-10.716c1.96-3.968 6.758-5.562 10.718-3.624l27.082 13.436 43.932-43.916a7.996 7.996 0 1 1 11.31 11.31l-47.994 47.978a8.022 8.022 0 0 1-5.654 2.342zM512.86 559.898a7.982 7.982 0 0 1-5.656-2.342l-15.998-15.998a8 8 0 1 1 11.312-11.312l15.998 16a7.996 7.996 0 0 1-5.656 13.652z" fill="" /><path d="M512.86 559.898a7.996 7.996 0 0 1-5.656-13.652l15.998-16a8 8 0 0 1 11.31 11.312l-15.998 15.998a7.966 7.966 0 0 1-5.654 2.342z" fill="" /><path d="M496.87 623.89a8.004 8.004 0 0 1-7.96-8.888l8-71.99c0.484-4.376 4.578-7.5 8.834-7.062a8.004 8.004 0 0 1 7.07 8.844l-8 71.99a8.006 8.006 0 0 1-7.944 7.106z" fill="" /><path d="M528.842 623.89a8.006 8.006 0 0 1-7.938-7.108l-7.998-71.99a8.004 8.004 0 0 1 7.068-8.844c4.454-0.438 8.352 2.704 8.836 7.062l7.998 71.99a8.008 8.008 0 0 1-7.966 8.89z" fill="" /><path d="M703.974 639.888H320.024c-4.42 0-8-3.576-8-7.998s3.578-8 8-8h383.95c4.422 0 7.998 3.578 7.998 8s-3.576 7.998-7.998 7.998z" fill="" /><path d="M376.018 815.96c-35.286 0-63.992-28.7-63.992-63.992s28.708-63.992 63.992-63.992 63.992 28.7 63.992 63.992-28.708 63.992-63.992 63.992z m0-111.986c-26.466 0-47.994 21.53-47.994 47.994s21.528 47.994 47.994 47.994c26.464 0 47.994-21.53 47.994-47.994s-21.53-47.994-47.994-47.994z" fill="" /><path d="M400.014 767.966a7.988 7.988 0 0 1-7.538-5.328 17.298 17.298 0 0 0-16.458-10.67c-12.538 0-16.42 10.56-16.458 10.67-1.468 4.156-6.024 6.376-10.202 4.876a8.008 8.008 0 0 1-4.874-10.216c0.304-0.86 7.81-21.326 31.536-21.326 23.722 0 31.23 20.466 31.536 21.326a8.008 8.008 0 0 1-4.876 10.216 7.996 7.996 0 0 1-2.666 0.452z" fill="" /><path d="M360.02 767.966h-8a7.994 7.994 0 0 1-7.998-8 7.994 7.994 0 0 1 7.998-7.998h8a7.994 7.994 0 0 1 7.998 7.998c0 4.422-3.578 8-7.998 8z" fill="" /><path d="M400.014 767.966h-7.998c-4.422 0-8-3.578-8-8a7.994 7.994 0 0 1 8-7.998h7.998c4.422 0 8 3.578 8 7.998 0 4.422-3.578 8-8 8z" fill="" /><path d="M647.998 815.96c-17.108 0-33.168-6.656-45.244-18.748-12.094-12.092-18.748-28.152-18.748-45.244s6.654-33.168 18.748-45.244c24.152-24.186 66.302-24.186 90.488 0 12.092 12.076 18.746 28.152 18.746 45.244s-6.654 33.168-18.746 45.244c-12.078 12.092-28.136 18.748-45.244 18.748z m-0.016-111.986c-12.81 0-24.858 5-33.918 14.06-9.076 9.062-14.06 21.108-14.06 33.934 0 12.81 4.984 24.872 14.06 33.934 18.124 18.122 49.744 18.122 67.866 0 9.078-9.062 14.062-21.108 14.062-33.934s-4.984-24.872-14.062-33.934c-9.076-9.06-21.122-14.06-33.948-14.06z" fill="" /><path d="M660.2 773.34c-6.968 0-15.576-2.124-23.512-10.06-16.766-16.78-7.61-36.542-7.218-37.384a7.976 7.976 0 0 1 10.67-3.766 8 8 0 0 1 3.766 10.67 17.27 17.27 0 0 0 4.094 19.17c8.842 8.858 19.076 4.124 19.186 4.094a8.01 8.01 0 0 1 10.67 3.78 8.008 8.008 0 0 1-3.796 10.654c-0.44 0.216-6.142 2.842-13.86 2.842z" fill="" /><path d="M670.62 771.278a7.98 7.98 0 0 1-5.654-2.342l-5.656-5.656a7.996 7.996 0 1 1 11.31-11.31l5.656 5.656a7.996 7.996 0 0 1-5.656 13.652zM642.342 743a7.968 7.968 0 0 1-5.654-2.344l-5.656-5.654a7.996 7.996 0 1 1 11.31-11.31l5.656 5.654a7.996 7.996 0 0 1-5.656 13.654z" fill="" /></svg>