<svg xmlns="http://www.w3.org/2000/svg" viewBox="0 0 16 16">
  <defs>
    <linearGradient id="a" x1="-13.986" x2="490.99" y1="161.51" y2="666.49" gradientUnits="userSpaceOnUse">
      <stop stop-color="#ccc"/>
      <stop offset="1" stop-color="gray"/>
    </linearGradient>
    <linearGradient id="b" x1="-9.182" x2="485.18" y1="166.32" y2="660.68" gradientUnits="userSpaceOnUse">
      <stop stop-color="#666"/>
      <stop offset="1"/>
    </linearGradient>
  </defs>
  <path fill="url(#a)" d="M415 107.1c0-28.8-23.3-52.1-52.1-52.1H114.1C85.3 55 62 78.3 62 107.1v613.8c0 28.8 23.3 52.1 52.1 52.1h248.8c28.8 0 52.1-23.3 52.1-52.1zm-8 613.3c0 24.6-20 44.6-44.6 44.6H113.6C89 765 69 745 69 720.4V106.6C69 82 89 62 113.6 62h248.8C387 62 407 82 407 106.6Z" transform="translate(3.018 -.649) scale(.02089)"/>
  <path fill="url(#b)" d="M407 106.6C407 82 387 62 362.4 62H113.6C89 62 69 82 69 106.6v613.8C69 745 89 765 113.6 765h248.8c24.6 0 44.6-20 44.6-44.6ZM281.4 79.1c0 2.4-2 4.4-4.4 4.4-2.4 0-4.4-2-4.4-4.4 0-2.4 2-4.4 4.4-4.4 2.5 0 4.4 1.9 4.4 4.4zM221.9 77h39c1.7 0 3 1 3 2.5s-1.3 2.5-3 2.5h-39c-1.7 0-3-1-3-2.5s1.4-2.5 3-2.5zM396 718.7c0 17.5-12.9 31.3-30.4 31.3h-249C99.2 750 84 736.2 84 718.7V105.4C84 88 99.2 74 116.6 74h28.8c6.1 0 8.3-.2 8.7 7.5.4 8 5.9 12.5 13.3 14.8 2.5.8 5.3.7 8 .7h131.5c2.7 0 5.5.2 8-.6 7.4-2.3 13-7 13.3-15 .4-7.7 2.6-7.4 8.7-7.4h28.5c17.5 0 30.4 14 30.4 31.4v613.3z" transform="translate(3.018 -.649) scale(.02089)"/>
  <g fill="#333" transform="translate(3.018 -.649) scale(.02089)">
    <circle cx="277.1" cy="79.1" r="4.4"/>
    <path d="M221.9 82h39c1.7 0 3-1 3-2.5s-1.3-2.5-3-2.5h-39c-1.7 0-3 1-3 2.5s1.4 2.5 3 2.5z"/>
  </g>
  <path fill="#00a7ff" d="m6.007 5.842 3.788.005-.333 3.865-1.554.446-1.553-.449"/>
  <path fill="#55c1ff" d="m7.912 6.17 1.55-.001-.306 3.303-1.239.344z"/>
  <path fill-opacity=".995" d="m10.176 8.616-.796.002.171-.425.485.002s-.147-.428-.229-.66c.09-.237.28-.706.28-.706l.818 2.174-.592.006-.137-.393zm-3.282.28-.307-.522.298-.91.327.63.462-1.395h.446l.44 1.407.605-1.409.577.008-.885 2.188h-.575l-.393-1.26-.426 1.266zM5.098 6.7l.495-.004c.619 0 .647.01.808.083a.666.666 0 0 1 .252.234s-.166.528-.275.865c-.074.232-.065.23-.189.244-.202.018-.547.006-.547.006v.76h-.547m.964-1.2c.222-.077.196-.469-.01-.542-.158-.042-.406-.027-.406-.027v.597c.171-.003.285.003.416-.029z"/>
</svg>
