<svg xmlns="http://www.w3.org/2000/svg" width="670" height="450" viewBox="0 0 177.27083 119.0625"><g transform="translate(0 -177.94)"><g stroke-width="0.308"><path d="m 135.73 225.79 c -0.6 0 -1.113 0.222 -1.547 0.65 -0.435 0.447 -0.659 0.968 -0.659 1.548 v 5.359 c 0 0.201 0.069 0.383 0.224 0.529 0.144 0.145 0.322 0.211 0.524 0.211 0.233 0 0.411 -0.066 0.555 -0.211 0.124 -0.147 0.19 -0.328 0.19 -0.529 v -4.792 h 0.387 v 13.266 c 0 0.255 0.112 0.492 0.324 0.673 0.199 0.201 0.432 0.287 0.7 0.287 0.29 0 0.523 -0.086 0.713 -0.287 0.201 -0.182 0.292 -0.418 0.292 -0.673 v -7.69 h 0.434 v 7.69 c 0 0.255 0.1 0.492 0.289 0.673 0.19 0.201 0.435 0.287 0.735 0.287 0.255 0 0.479 -0.086 0.679 -0.287 0.188 -0.182 0.274 -0.418 0.274 -0.673 v -13.266 h 0.405 v 4.792 c 0 0.201 0.064 0.383 0.198 0.529 0.16 0.145 0.344 0.211 0.545 0.211 0.236 0 0.415 -0.066 0.549 -0.211 0.121 -0.147 0.198 -0.328 0.198 -0.529 v -5.358 c 0 -0.578 -0.211 -1.1 -0.646 -1.546 -0.424 -0.43 -0.933 -0.65 -1.557 -0.65 h -3.806 z m 1.913 -0.441 c 0.468 0 0.88 -0.154 1.212 -0.475 0.332 -0.33 0.501 -0.738 0.501 -1.23 0 -0.469 -0.171 -0.871 -0.502 -1.202 -0.333 -0.341 -0.745 -0.511 -1.211 -0.511 -0.491 0 -0.904 0.17 -1.215 0.511 -0.332 0.332 -0.488 0.734 -0.488 1.202 0 0.493 0.156 0.901 0.488 1.23 0.313 0.321 0.726 0.475 1.215 0.475 z" fill="#bddae8"/><path d="m 159.48 243.01 v 5.971 c 0 0.235 -0.077 0.429 -0.223 0.57 -0.145 0.147 -0.335 0.217 -0.568 0.217 -0.235 0 -0.436 -0.07 -0.592 -0.217 -0.167 -0.14 -0.243 -0.335 -0.243 -0.57 v -5.971 h -2.237 l 2.328 -7.86 h -0.4 c -0.255 0.881 -0.47 1.59 -0.639 2.152 -0.152 0.56 -0.32 1.091 -0.466 1.602 -0.166 0.505 -0.278 0.824 -0.289 0.933 -0.101 0.334 -0.322 0.495 -0.668 0.495 l -0.176 -0.042 c -0.323 -0.119 -0.48 -0.328 -0.48 -0.626 0 -0.081 0.012 -0.148 0.044 -0.215 0.023 -0.058 0.09 -0.255 0.168 -0.59 0.09 -0.332 0.211 -0.746 0.356 -1.226 0.145 -0.488 0.302 -1.017 0.467 -1.584 0.168 -0.57 0.322 -1.119 0.511 -1.647 0.112 -0.405 0.356 -0.774 0.735 -1.093 0.377 -0.331 0.77 -0.481 1.179 -0.481 h 2.738 c 0.423 0 0.835 0.151 1.202 0.481 0.357 0.321 0.614 0.688 0.757 1.093 0.153 0.529 0.31 1.077 0.465 1.647 0.159 0.567 0.325 1.095 0.459 1.584 0.142 0.481 0.266 0.894 0.354 1.226 0.089 0.335 0.146 0.532 0.177 0.59 l 0.044 0.176 c 0 0.36 -0.168 0.57 -0.49 0.662 l -0.164 0.045 c -0.355 0 -0.578 -0.162 -0.667 -0.495 -0.025 -0.109 -0.124 -0.429 -0.256 -0.934 -0.156 -0.511 -0.314 -1.042 -0.492 -1.602 -0.178 -0.561 -0.387 -1.271 -0.642 -2.154 h -0.402 l 2.324 7.862 h -2.201 v 5.971 c 0 0.235 -0.067 0.429 -0.245 0.57 -0.157 0.147 -0.346 0.217 -0.578 0.217 -0.245 0 -0.425 -0.07 -0.578 -0.217 -0.145 -0.14 -0.211 -0.335 -0.211 -0.57 v -5.971 z m 0.22 -10.674 c 0.469 0 0.871 -0.154 1.182 -0.475 0.321 -0.329 0.489 -0.737 0.489 -1.23 0 -0.469 -0.168 -0.871 -0.489 -1.202 -0.31 -0.341 -0.714 -0.511 -1.182 -0.511 -0.499 0 -0.913 0.17 -1.257 0.511 -0.334 0.33 -0.498 0.734 -0.498 1.202 0 0.493 0.164 0.901 0.499 1.23 0.345 0.321 0.758 0.475 1.256 0.475 z" fill="#fccc00"/><g fill="#bddae8"><path d="m 113.17 204.66 c -0.6 0 -1.113 0.222 -1.547 0.65 -0.435 0.447 -0.659 0.968 -0.659 1.548 v 5.359 c 0 0.201 0.069 0.383 0.224 0.529 0.144 0.145 0.322 0.211 0.524 0.211 0.233 0 0.411 -0.066 0.555 -0.211 0.124 -0.147 0.19 -0.328 0.19 -0.529 v -4.792 h 0.387 v 13.266 c 0 0.255 0.112 0.492 0.324 0.673 0.199 0.201 0.432 0.287 0.7 0.287 0.29 0 0.523 -0.086 0.713 -0.287 0.201 -0.182 0.292 -0.418 0.292 -0.673 v -7.69 h 0.434 v 7.69 c 0 0.255 0.1 0.492 0.289 0.673 0.19 0.201 0.435 0.287 0.735 0.287 0.255 0 0.479 -0.086 0.679 -0.287 0.188 -0.182 0.274 -0.418 0.274 -0.673 v -13.266 h 0.405 v 4.792 c 0 0.201 0.064 0.383 0.198 0.529 0.16 0.145 0.344 0.211 0.545 0.211 0.236 0 0.415 -0.066 0.549 -0.211 0.121 -0.147 0.198 -0.328 0.198 -0.529 v -5.358 c 0 -0.578 -0.211 -1.1 -0.646 -1.546 -0.424 -0.43 -0.933 -0.65 -1.557 -0.65 h -3.806 z m 1.913 -0.441 c 0.468 0 0.88 -0.154 1.212 -0.475 0.332 -0.33 0.501 -0.738 0.501 -1.23 0 -0.469 -0.171 -0.871 -0.502 -1.202 -0.333 -0.341 -0.745 -0.511 -1.211 -0.511 -0.491 0 -0.904 0.17 -1.215 0.511 -0.332 0.332 -0.488 0.734 -0.488 1.202 0 0.493 0.156 0.901 0.488 1.23 0.313 0.321 0.726 0.475 1.215 0.475 z"/><path d="m 154.24 240.28 c -0.6 0 -1.113 0.222 -1.547 0.65 -0.435 0.448 -0.659 0.968 -0.659 1.548 v 5.359 c 0 0.201 0.069 0.383 0.224 0.529 0.144 0.145 0.322 0.211 0.524 0.211 0.233 0 0.411 -0.066 0.555 -0.211 0.124 -0.147 0.19 -0.328 0.19 -0.529 v -4.792 h 0.387 v 13.266 c 0 0.255 0.112 0.492 0.324 0.673 0.199 0.201 0.432 0.287 0.7 0.287 0.29 0 0.523 -0.086 0.713 -0.287 0.201 -0.182 0.292 -0.418 0.292 -0.673 v -7.69 h 0.434 v 7.69 c 0 0.255 0.1 0.492 0.289 0.673 0.19 0.201 0.435 0.287 0.735 0.287 0.255 0 0.479 -0.086 0.679 -0.287 0.188 -0.182 0.274 -0.418 0.274 -0.673 v -13.266 h 0.405 v 4.792 c 0 0.201 0.064 0.383 0.198 0.529 0.16 0.145 0.344 0.211 0.545 0.211 0.236 0 0.415 -0.066 0.549 -0.211 0.121 -0.147 0.198 -0.328 0.198 -0.529 v -5.358 c 0 -0.578 -0.211 -1.1 -0.646 -1.546 -0.424 -0.43 -0.933 -0.65 -1.557 -0.65 h -3.806 z m 1.913 -0.441 c 0.468 0 0.88 -0.154 1.212 -0.475 0.332 -0.33 0.501 -0.738 0.501 -1.23 0 -0.469 -0.171 -0.871 -0.502 -1.202 -0.333 -0.341 -0.745 -0.511 -1.211 -0.511 -0.491 0 -0.904 0.17 -1.215 0.511 -0.332 0.332 -0.488 0.734 -0.488 1.202 0 0.493 0.156 0.901 0.488 1.23 0.313 0.321 0.726 0.475 1.215 0.475 z"/></g><path d="m 90.02 251.84 v 5.971 c 0 0.235 -0.077 0.429 -0.223 0.57 -0.145 0.147 -0.335 0.217 -0.568 0.217 -0.235 0 -0.436 -0.07 -0.592 -0.217 -0.167 -0.14 -0.243 -0.335 -0.243 -0.57 v -5.971 h -2.237 l 2.328 -7.86 h -0.4 c -0.255 0.881 -0.47 1.59 -0.639 2.152 -0.152 0.56 -0.32 1.091 -0.466 1.602 -0.166 0.505 -0.277 0.824 -0.289 0.934 -0.101 0.334 -0.322 0.495 -0.668 0.495 l -0.176 -0.042 c -0.323 -0.119 -0.48 -0.328 -0.48 -0.626 0 -0.081 0.012 -0.148 0.044 -0.215 0.023 -0.058 0.09 -0.255 0.168 -0.59 0.09 -0.332 0.211 -0.746 0.356 -1.226 0.145 -0.488 0.302 -1.017 0.467 -1.584 0.168 -0.57 0.322 -1.119 0.511 -1.647 0.112 -0.405 0.356 -0.774 0.735 -1.093 0.377 -0.331 0.77 -0.481 1.179 -0.481 h 2.738 c 0.423 0 0.835 0.151 1.202 0.481 0.357 0.321 0.614 0.688 0.757 1.093 0.153 0.529 0.31 1.077 0.465 1.647 0.159 0.567 0.325 1.095 0.459 1.584 0.142 0.481 0.266 0.894 0.354 1.226 0.089 0.335 0.146 0.532 0.177 0.59 l 0.044 0.176 c 0 0.36 -0.168 0.57 -0.49 0.662 l -0.164 0.045 c -0.355 0 -0.578 -0.162 -0.667 -0.495 -0.025 -0.109 -0.124 -0.429 -0.256 -0.933 -0.156 -0.511 -0.314 -1.042 -0.492 -1.602 -0.178 -0.561 -0.387 -1.271 -0.642 -2.154 h -0.402 l 2.324 7.862 h -2.201 v 5.971 c 0 0.235 -0.067 0.429 -0.245 0.57 -0.157 0.147 -0.346 0.217 -0.578 0.217 -0.245 0 -0.425 -0.07 -0.578 -0.217 -0.145 -0.14 -0.211 -0.335 -0.211 -0.57 v -5.971 z m 0.22 -10.674 c 0.469 0 0.871 -0.154 1.182 -0.475 0.321 -0.329 0.489 -0.737 0.489 -1.23 0 -0.469 -0.168 -0.871 -0.489 -1.202 -0.31 -0.341 -0.714 -0.511 -1.182 -0.511 -0.499 0 -0.913 0.17 -1.257 0.511 -0.334 0.33 -0.498 0.734 -0.498 1.202 0 0.493 0.164 0.901 0.499 1.23 0.345 0.321 0.758 0.475 1.256 0.475 z" fill="#6a73ac"/><path d="m 116.11 229.23 v 5.971 c 0 0.235 -0.077 0.429 -0.223 0.57 -0.145 0.147 -0.335 0.217 -0.568 0.217 -0.235 0 -0.436 -0.07 -0.592 -0.217 -0.167 -0.14 -0.243 -0.335 -0.243 -0.57 v -5.971 h -2.237 l 2.328 -7.86 h -0.4 c -0.255 0.881 -0.47 1.59 -0.639 2.152 -0.152 0.56 -0.32 1.091 -0.466 1.602 -0.166 0.505 -0.278 0.824 -0.289 0.934 -0.101 0.334 -0.322 0.495 -0.668 0.495 l -0.176 -0.042 c -0.323 -0.119 -0.48 -0.328 -0.48 -0.626 0 -0.081 0.012 -0.148 0.044 -0.215 0.023 -0.058 0.09 -0.255 0.168 -0.59 0.09 -0.332 0.211 -0.746 0.356 -1.226 0.145 -0.488 0.302 -1.017 0.467 -1.584 0.168 -0.57 0.322 -1.119 0.511 -1.647 0.112 -0.405 0.356 -0.774 0.735 -1.093 0.377 -0.331 0.77 -0.481 1.179 -0.481 h 2.738 c 0.423 0 0.835 0.151 1.202 0.481 0.357 0.321 0.614 0.688 0.757 1.093 0.153 0.529 0.31 1.077 0.465 1.647 0.159 0.567 0.325 1.096 0.459 1.584 0.142 0.481 0.266 0.894 0.354 1.226 0.089 0.335 0.146 0.532 0.177 0.59 l 0.044 0.176 c 0 0.36 -0.168 0.57 -0.49 0.662 l -0.164 0.045 c -0.355 0 -0.578 -0.162 -0.667 -0.495 -0.025 -0.109 -0.124 -0.429 -0.256 -0.933 -0.156 -0.511 -0.314 -1.042 -0.492 -1.602 -0.178 -0.561 -0.387 -1.271 -0.642 -2.154 h -0.402 l 2.324 7.862 h -2.201 v 5.971 c 0 0.235 -0.067 0.429 -0.245 0.57 -0.157 0.147 -0.346 0.217 -0.578 0.217 -0.245 0 -0.425 -0.07 -0.578 -0.217 -0.145 -0.14 -0.211 -0.335 -0.211 -0.57 v -5.971 z m 0.22 -10.674 c 0.469 0 0.871 -0.154 1.182 -0.475 0.321 -0.329 0.489 -0.737 0.489 -1.23 0 -0.469 -0.168 -0.871 -0.489 -1.202 -0.31 -0.341 -0.714 -0.511 -1.182 -0.511 -0.499 0 -0.913 0.17 -1.257 0.511 -0.334 0.33 -0.498 0.734 -0.498 1.202 0 0.493 0.164 0.901 0.499 1.23 0.345 0.321 0.758 0.475 1.256 0.475 z" fill="#fccc00"/><path d="m 113.64 227.59 c -0.6 0 -1.113 0.222 -1.547 0.65 -0.435 0.448 -0.659 0.968 -0.659 1.548 v 5.359 c 0 0.201 0.069 0.383 0.224 0.529 0.144 0.145 0.322 0.211 0.524 0.211 0.233 0 0.411 -0.066 0.555 -0.211 0.124 -0.147 0.19 -0.328 0.19 -0.529 v -4.792 h 0.387 v 13.266 c 0 0.255 0.112 0.492 0.324 0.673 0.199 0.201 0.432 0.287 0.7 0.287 0.29 0 0.523 -0.086 0.713 -0.287 0.201 -0.182 0.292 -0.418 0.292 -0.673 v -7.69 h 0.434 v 7.69 c 0 0.255 0.1 0.492 0.289 0.673 0.19 0.201 0.435 0.287 0.735 0.287 0.255 0 0.479 -0.086 0.679 -0.287 0.188 -0.182 0.274 -0.418 0.274 -0.673 v -13.266 h 0.405 v 4.792 c 0 0.201 0.064 0.383 0.198 0.529 0.16 0.145 0.344 0.211 0.545 0.211 0.236 0 0.415 -0.066 0.549 -0.211 0.121 -0.147 0.198 -0.328 0.198 -0.529 v -5.358 c 0 -0.578 -0.211 -1.1 -0.646 -1.546 -0.424 -0.43 -0.933 -0.65 -1.557 -0.65 h -3.806 z m 1.913 -0.441 c 0.468 0 0.88 -0.154 1.212 -0.475 0.332 -0.33 0.501 -0.738 0.501 -1.23 0 -0.469 -0.171 -0.871 -0.502 -1.202 -0.333 -0.341 -0.745 -0.511 -1.211 -0.511 -0.491 0 -0.904 0.17 -1.215 0.511 -0.332 0.332 -0.488 0.734 -0.488 1.202 0 0.493 0.156 0.901 0.488 1.23 0.313 0.321 0.726 0.475 1.215 0.475 z" fill="#ff8e02"/><path d="m 73.71 256.55 c -0.6 0 -1.113 0.222 -1.547 0.65 -0.435 0.447 -0.659 0.968 -0.659 1.548 v 5.359 c 0 0.201 0.069 0.383 0.224 0.529 0.144 0.145 0.322 0.211 0.524 0.211 0.233 0 0.411 -0.066 0.555 -0.211 0.124 -0.147 0.19 -0.328 0.19 -0.529 v -4.792 h 0.387 v 13.266 c 0 0.255 0.112 0.492 0.324 0.673 0.199 0.201 0.432 0.287 0.7 0.287 0.29 0 0.523 -0.086 0.713 -0.287 0.201 -0.182 0.292 -0.418 0.292 -0.673 v -7.69 h 0.434 v 7.69 c 0 0.255 0.1 0.492 0.289 0.673 0.19 0.201 0.435 0.287 0.735 0.287 0.255 0 0.479 -0.086 0.679 -0.287 0.188 -0.182 0.274 -0.418 0.274 -0.673 v -13.266 h 0.405 v 4.792 c 0 0.201 0.064 0.383 0.198 0.529 0.16 0.145 0.344 0.211 0.545 0.211 0.236 0 0.415 -0.066 0.549 -0.211 0.121 -0.147 0.198 -0.328 0.198 -0.529 v -5.358 c 0 -0.578 -0.211 -1.1 -0.646 -1.546 -0.424 -0.43 -0.933 -0.65 -1.557 -0.65 h -3.806 z m 1.913 -0.441 c 0.468 0 0.88 -0.154 1.212 -0.475 0.332 -0.33 0.501 -0.738 0.501 -1.23 0 -0.469 -0.171 -0.871 -0.502 -1.202 -0.333 -0.341 -0.745 -0.511 -1.211 -0.511 -0.491 0 -0.904 0.17 -1.215 0.511 -0.332 0.332 -0.488 0.734 -0.488 1.202 0 0.493 0.156 0.901 0.488 1.23 0.313 0.321 0.726 0.475 1.215 0.475 z" fill="#bddae8"/><path d="m 136.92 253.17 v 5.971 c 0 0.235 -0.077 0.429 -0.223 0.57 -0.145 0.147 -0.335 0.217 -0.568 0.217 -0.235 0 -0.436 -0.07 -0.592 -0.217 -0.167 -0.14 -0.243 -0.335 -0.243 -0.57 v -5.971 h -2.237 l 2.328 -7.86 h -0.4 c -0.255 0.881 -0.47 1.59 -0.639 2.152 -0.152 0.56 -0.32 1.091 -0.466 1.602 -0.166 0.505 -0.277 0.824 -0.289 0.934 -0.101 0.334 -0.322 0.495 -0.668 0.495 l -0.176 -0.042 c -0.323 -0.119 -0.48 -0.328 -0.48 -0.626 0 -0.081 0.012 -0.148 0.044 -0.215 0.023 -0.058 0.09 -0.255 0.168 -0.59 0.09 -0.332 0.211 -0.746 0.356 -1.226 0.145 -0.488 0.302 -1.017 0.467 -1.584 0.168 -0.57 0.322 -1.119 0.511 -1.647 0.112 -0.405 0.356 -0.774 0.735 -1.093 0.377 -0.331 0.77 -0.481 1.179 -0.481 h 2.738 c 0.423 0 0.835 0.151 1.202 0.481 0.357 0.321 0.614 0.688 0.757 1.093 0.153 0.529 0.31 1.077 0.465 1.647 0.159 0.567 0.325 1.095 0.459 1.584 0.142 0.481 0.266 0.894 0.354 1.226 0.089 0.335 0.146 0.532 0.177 0.59 l 0.044 0.176 c 0 0.36 -0.168 0.57 -0.49 0.662 l -0.164 0.045 c -0.355 0 -0.578 -0.162 -0.667 -0.495 -0.025 -0.109 -0.124 -0.429 -0.256 -0.933 -0.156 -0.511 -0.314 -1.042 -0.492 -1.602 -0.178 -0.561 -0.387 -1.271 -0.642 -2.154 h -0.402 l 2.324 7.862 h -2.201 v 5.971 c 0 0.235 -0.067 0.429 -0.245 0.57 -0.157 0.147 -0.346 0.217 -0.578 0.217 -0.245 0 -0.425 -0.07 -0.578 -0.217 -0.145 -0.14 -0.211 -0.335 -0.211 -0.57 v -5.971 z m 0.22 -10.674 c 0.469 0 0.871 -0.154 1.182 -0.475 0.321 -0.329 0.489 -0.737 0.489 -1.23 0 -0.469 -0.168 -0.871 -0.489 -1.202 -0.31 -0.341 -0.714 -0.511 -1.182 -0.511 -0.499 0 -0.913 0.17 -1.257 0.511 -0.334 0.33 -0.498 0.734 -0.498 1.202 0 0.493 0.164 0.901 0.499 1.23 0.345 0.321 0.758 0.475 1.256 0.475 z" fill="#fccc00"/><g fill="#ff8e02"><path d="m 99.8 235.33 c -0.6 0 -1.113 0.222 -1.547 0.65 -0.435 0.447 -0.659 0.968 -0.659 1.548 v 5.359 c 0 0.201 0.069 0.383 0.224 0.529 0.144 0.145 0.322 0.211 0.524 0.211 0.233 0 0.411 -0.066 0.555 -0.211 0.124 -0.147 0.19 -0.328 0.19 -0.529 v -4.792 h 0.387 v 13.266 c 0 0.255 0.112 0.492 0.324 0.673 0.199 0.201 0.432 0.287 0.7 0.287 0.29 0 0.523 -0.086 0.713 -0.287 0.201 -0.182 0.292 -0.418 0.292 -0.673 v -7.69 h 0.434 v 7.69 c 0 0.255 0.1 0.492 0.289 0.673 0.19 0.201 0.435 0.287 0.735 0.287 0.255 0 0.479 -0.086 0.679 -0.287 0.188 -0.182 0.274 -0.418 0.274 -0.673 v -13.266 h 0.405 v 4.792 c 0 0.201 0.064 0.383 0.198 0.529 0.16 0.145 0.344 0.211 0.545 0.211 0.236 0 0.415 -0.066 0.549 -0.211 0.121 -0.147 0.198 -0.328 0.198 -0.529 v -5.358 c 0 -0.578 -0.211 -1.1 -0.646 -1.546 -0.424 -0.43 -0.933 -0.65 -1.557 -0.65 h -3.806 z m 1.913 -0.441 c 0.468 0 0.88 -0.154 1.212 -0.475 0.332 -0.33 0.501 -0.738 0.501 -1.23 0 -0.469 -0.171 -0.871 -0.502 -1.202 -0.333 -0.341 -0.745 -0.511 -1.211 -0.511 -0.491 0 -0.904 0.17 -1.215 0.511 -0.332 0.332 -0.488 0.734 -0.488 1.202 0 0.493 0.156 0.901 0.488 1.23 0.313 0.321 0.726 0.475 1.215 0.475 z"/><path d="m 165.47 256.73 c -0.6 0 -1.113 0.222 -1.547 0.65 -0.435 0.447 -0.659 0.968 -0.659 1.548 v 5.359 c 0 0.201 0.069 0.383 0.224 0.529 0.144 0.145 0.322 0.211 0.524 0.211 0.233 0 0.411 -0.066 0.555 -0.211 0.124 -0.147 0.19 -0.328 0.19 -0.529 v -4.792 h 0.387 v 13.266 c 0 0.255 0.112 0.492 0.324 0.673 0.199 0.201 0.432 0.287 0.7 0.287 0.29 0 0.523 -0.086 0.713 -0.287 0.201 -0.182 0.292 -0.418 0.292 -0.673 v -7.69 h 0.434 v 7.69 c 0 0.255 0.1 0.492 0.289 0.673 0.19 0.201 0.435 0.287 0.735 0.287 0.255 0 0.479 -0.086 0.679 -0.287 0.188 -0.182 0.274 -0.418 0.274 -0.673 v -13.266 h 0.405 v 4.792 c 0 0.201 0.064 0.383 0.198 0.529 0.16 0.145 0.344 0.211 0.545 0.211 0.236 0 0.415 -0.066 0.549 -0.211 0.121 -0.147 0.198 -0.328 0.198 -0.529 v -5.358 c 0 -0.578 -0.211 -1.1 -0.646 -1.546 -0.424 -0.43 -0.933 -0.65 -1.557 -0.65 h -3.806 z m 1.913 -0.441 c 0.468 0 0.88 -0.154 1.212 -0.475 0.332 -0.33 0.501 -0.738 0.501 -1.23 0 -0.469 -0.171 -0.871 -0.502 -1.202 -0.333 -0.341 -0.745 -0.511 -1.211 -0.511 -0.491 0 -0.904 0.17 -1.215 0.511 -0.332 0.332 -0.488 0.734 -0.488 1.202 0 0.493 0.156 0.901 0.488 1.23 0.313 0.321 0.726 0.475 1.215 0.475 z"/></g><path d="m 91.59 252.59 v 5.971 c 0 0.235 -0.077 0.429 -0.223 0.57 -0.145 0.147 -0.335 0.217 -0.568 0.217 -0.235 0 -0.436 -0.07 -0.592 -0.217 -0.167 -0.14 -0.243 -0.335 -0.243 -0.57 v -5.971 h -2.237 l 2.328 -7.86 h -0.4 c -0.255 0.881 -0.47 1.59 -0.639 2.152 -0.152 0.56 -0.32 1.091 -0.466 1.602 -0.166 0.505 -0.277 0.824 -0.289 0.933 -0.101 0.334 -0.322 0.495 -0.668 0.495 l -0.176 -0.042 c -0.323 -0.119 -0.48 -0.328 -0.48 -0.626 0 -0.081 0.012 -0.148 0.044 -0.215 0.023 -0.058 0.09 -0.255 0.168 -0.59 0.09 -0.332 0.211 -0.746 0.356 -1.226 0.145 -0.488 0.302 -1.017 0.467 -1.584 0.168 -0.57 0.322 -1.119 0.511 -1.647 0.112 -0.405 0.356 -0.774 0.735 -1.093 0.377 -0.331 0.77 -0.481 1.179 -0.481 h 2.738 c 0.423 0 0.835 0.151 1.202 0.481 0.357 0.321 0.614 0.688 0.757 1.093 0.153 0.529 0.31 1.077 0.465 1.647 0.159 0.567 0.325 1.096 0.459 1.584 0.142 0.481 0.266 0.894 0.354 1.226 0.089 0.335 0.146 0.532 0.177 0.59 l 0.044 0.176 c 0 0.36 -0.168 0.57 -0.49 0.662 l -0.164 0.045 c -0.355 0 -0.578 -0.162 -0.667 -0.495 -0.025 -0.109 -0.124 -0.429 -0.256 -0.933 -0.156 -0.511 -0.314 -1.042 -0.492 -1.602 -0.178 -0.561 -0.387 -1.271 -0.642 -2.154 h -0.402 l 2.324 7.862 h -2.201 v 5.971 c 0 0.235 -0.067 0.429 -0.245 0.57 -0.157 0.147 -0.346 0.217 -0.578 0.217 -0.245 0 -0.425 -0.07 -0.578 -0.217 -0.145 -0.14 -0.211 -0.335 -0.211 -0.57 v -5.971 z m 0.22 -10.674 c 0.469 0 0.871 -0.154 1.182 -0.475 0.321 -0.329 0.489 -0.737 0.489 -1.23 0 -0.469 -0.168 -0.871 -0.489 -1.202 -0.31 -0.341 -0.714 -0.511 -1.182 -0.511 -0.499 0 -0.913 0.17 -1.257 0.511 -0.334 0.33 -0.498 0.734 -0.498 1.202 0 0.493 0.164 0.901 0.499 1.23 0.345 0.321 0.758 0.475 1.256 0.475 z" fill="#fccc00"/><path d="m 76.47 238.94 c -0.6 0 -1.113 0.222 -1.547 0.65 -0.435 0.447 -0.659 0.968 -0.659 1.548 v 5.359 c 0 0.201 0.069 0.383 0.224 0.529 0.144 0.145 0.322 0.211 0.524 0.211 0.233 0 0.411 -0.066 0.555 -0.211 0.124 -0.147 0.19 -0.328 0.19 -0.529 v -4.792 h 0.387 v 13.266 c 0 0.255 0.112 0.492 0.324 0.673 0.199 0.201 0.432 0.287 0.7 0.287 0.29 0 0.523 -0.086 0.713 -0.287 0.201 -0.182 0.292 -0.418 0.292 -0.673 v -7.69 h 0.434 v 7.69 c 0 0.255 0.1 0.492 0.289 0.673 0.19 0.201 0.435 0.287 0.735 0.287 0.255 0 0.479 -0.086 0.679 -0.287 0.188 -0.182 0.274 -0.418 0.274 -0.673 v -13.266 h 0.405 v 4.792 c 0 0.201 0.064 0.383 0.198 0.529 0.16 0.145 0.344 0.211 0.545 0.211 0.236 0 0.415 -0.066 0.549 -0.211 0.121 -0.147 0.198 -0.328 0.198 -0.529 v -5.358 c 0 -0.578 -0.211 -1.1 -0.646 -1.546 -0.424 -0.43 -0.933 -0.65 -1.557 -0.65 h -3.806 z m 1.913 -0.441 c 0.468 0 0.88 -0.154 1.212 -0.475 0.332 -0.33 0.501 -0.738 0.501 -1.23 0 -0.469 -0.171 -0.871 -0.502 -1.202 -0.333 -0.341 -0.745 -0.511 -1.211 -0.511 -0.491 0 -0.904 0.17 -1.215 0.511 -0.332 0.332 -0.488 0.734 -0.488 1.202 0 0.493 0.156 0.901 0.488 1.23 0.313 0.321 0.726 0.475 1.215 0.475 z" fill="#ff8e02"/><path d="m 99.75 265.25 v 5.971 c 0 0.235 -0.077 0.429 -0.223 0.57 -0.145 0.147 -0.335 0.217 -0.568 0.217 -0.235 0 -0.436 -0.07 -0.592 -0.217 -0.167 -0.14 -0.243 -0.335 -0.243 -0.57 v -5.971 h -2.237 l 2.328 -7.86 h -0.4 c -0.255 0.881 -0.47 1.59 -0.639 2.152 -0.152 0.56 -0.32 1.091 -0.466 1.602 -0.166 0.505 -0.277 0.824 -0.289 0.933 -0.101 0.334 -0.322 0.495 -0.668 0.495 l -0.176 -0.043 c -0.323 -0.12 -0.48 -0.328 -0.48 -0.626 0 -0.081 0.012 -0.148 0.044 -0.215 0.023 -0.058 0.09 -0.255 0.168 -0.59 0.09 -0.332 0.211 -0.746 0.356 -1.226 0.145 -0.488 0.302 -1.017 0.467 -1.584 0.168 -0.57 0.322 -1.119 0.511 -1.647 0.112 -0.405 0.356 -0.774 0.735 -1.093 0.377 -0.331 0.77 -0.481 1.179 -0.481 h 2.738 c 0.423 0 0.835 0.151 1.202 0.481 0.357 0.321 0.614 0.688 0.757 1.093 0.153 0.529 0.31 1.077 0.465 1.647 0.159 0.567 0.325 1.096 0.459 1.584 0.142 0.481 0.266 0.894 0.354 1.226 0.089 0.335 0.146 0.533 0.177 0.59 l 0.044 0.176 c 0 0.36 -0.168 0.57 -0.49 0.662 l -0.164 0.045 c -0.355 0 -0.578 -0.162 -0.667 -0.495 -0.025 -0.109 -0.124 -0.429 -0.256 -0.933 -0.156 -0.511 -0.314 -1.042 -0.492 -1.602 -0.178 -0.561 -0.387 -1.271 -0.642 -2.154 h -0.402 l 2.324 7.862 h -2.201 v 5.971 c 0 0.235 -0.067 0.429 -0.245 0.57 -0.157 0.147 -0.346 0.217 -0.578 0.217 -0.245 0 -0.425 -0.07 -0.578 -0.217 -0.145 -0.14 -0.211 -0.335 -0.211 -0.57 v -5.971 z m 0.22 -10.674 c 0.469 0 0.871 -0.154 1.182 -0.475 0.321 -0.329 0.489 -0.737 0.489 -1.23 0 -0.469 -0.168 -0.871 -0.489 -1.202 -0.31 -0.341 -0.714 -0.511 -1.182 -0.511 -0.499 0 -0.913 0.17 -1.257 0.511 -0.334 0.33 -0.498 0.734 -0.498 1.202 0 0.493 0.164 0.901 0.499 1.23 0.345 0.321 0.758 0.475 1.256 0.475 z" fill="#bddae8"/><path d="m 86.03 248.6 c -0.6 0 -1.113 0.222 -1.547 0.65 -0.435 0.447 -0.659 0.968 -0.659 1.548 v 5.359 c 0 0.201 0.069 0.383 0.224 0.529 0.144 0.145 0.322 0.211 0.524 0.211 0.233 0 0.411 -0.066 0.555 -0.211 0.124 -0.147 0.19 -0.328 0.19 -0.529 v -4.792 h 0.387 v 13.266 c 0 0.255 0.112 0.492 0.324 0.673 0.199 0.201 0.432 0.287 0.7 0.287 0.29 0 0.523 -0.086 0.713 -0.287 0.201 -0.182 0.292 -0.418 0.292 -0.673 v -7.69 h 0.434 v 7.69 c 0 0.255 0.1 0.492 0.289 0.673 0.19 0.201 0.435 0.287 0.735 0.287 0.255 0 0.479 -0.086 0.679 -0.287 0.188 -0.182 0.274 -0.418 0.274 -0.673 v -13.266 h 0.405 v 4.792 c 0 0.201 0.064 0.383 0.198 0.529 0.16 0.145 0.344 0.211 0.545 0.211 0.236 0 0.415 -0.066 0.549 -0.211 0.121 -0.147 0.198 -0.328 0.198 -0.529 v -5.358 c 0 -0.578 -0.211 -1.1 -0.646 -1.546 -0.424 -0.43 -0.933 -0.65 -1.557 -0.65 h -3.806 z m 1.913 -0.441 c 0.468 0 0.88 -0.154 1.212 -0.475 0.332 -0.33 0.501 -0.738 0.501 -1.23 0 -0.469 -0.171 -0.871 -0.502 -1.202 -0.333 -0.341 -0.745 -0.511 -1.211 -0.511 -0.491 0 -0.904 0.17 -1.215 0.511 -0.332 0.332 -0.488 0.734 -0.488 1.202 0 0.493 0.156 0.901 0.488 1.23 0.313 0.321 0.726 0.475 1.215 0.475 z" fill="#ff8e02"/><path d="m 110.77 260.09 v 5.971 c 0 0.235 -0.077 0.429 -0.223 0.57 -0.145 0.147 -0.335 0.217 -0.568 0.217 -0.235 0 -0.436 -0.07 -0.592 -0.217 -0.167 -0.14 -0.243 -0.335 -0.243 -0.57 v -5.971 h -2.237 l 2.328 -7.86 h -0.4 c -0.255 0.881 -0.47 1.59 -0.639 2.152 -0.152 0.56 -0.32 1.091 -0.466 1.602 -0.166 0.505 -0.277 0.824 -0.289 0.933 -0.101 0.334 -0.322 0.495 -0.668 0.495 l -0.176 -0.043 c -0.323 -0.12 -0.48 -0.328 -0.48 -0.626 0 -0.081 0.012 -0.148 0.044 -0.215 0.023 -0.058 0.09 -0.255 0.168 -0.59 0.09 -0.332 0.211 -0.746 0.356 -1.226 0.145 -0.488 0.302 -1.017 0.467 -1.584 0.168 -0.57 0.322 -1.119 0.511 -1.647 0.112 -0.405 0.356 -0.774 0.735 -1.093 0.377 -0.331 0.77 -0.481 1.179 -0.481 h 2.738 c 0.423 0 0.835 0.151 1.202 0.481 0.357 0.321 0.614 0.688 0.757 1.093 0.153 0.529 0.31 1.077 0.465 1.647 0.159 0.567 0.325 1.095 0.459 1.584 0.142 0.481 0.266 0.894 0.354 1.226 0.089 0.335 0.146 0.532 0.177 0.59 l 0.044 0.176 c 0 0.36 -0.168 0.57 -0.49 0.662 l -0.164 0.045 c -0.355 0 -0.578 -0.162 -0.667 -0.495 -0.025 -0.109 -0.124 -0.429 -0.256 -0.934 -0.156 -0.511 -0.314 -1.042 -0.492 -1.602 -0.178 -0.561 -0.387 -1.271 -0.642 -2.154 h -0.402 l 2.324 7.862 h -2.201 v 5.971 c 0 0.235 -0.067 0.429 -0.245 0.57 -0.157 0.147 -0.346 0.217 -0.578 0.217 -0.245 0 -0.425 -0.07 -0.578 -0.217 -0.145 -0.14 -0.211 -0.335 -0.211 -0.57 v -5.971 z m 0.22 -10.674 c 0.469 0 0.871 -0.154 1.182 -0.475 0.321 -0.329 0.489 -0.737 0.489 -1.23 0 -0.469 -0.168 -0.871 -0.489 -1.202 -0.31 -0.341 -0.714 -0.511 -1.182 -0.511 -0.499 0 -0.913 0.17 -1.257 0.511 -0.334 0.33 -0.498 0.734 -0.498 1.202 0 0.493 0.164 0.901 0.499 1.23 0.345 0.321 0.758 0.475 1.256 0.475 z" fill="#6a73ac"/><g fill="#ff8e02"><path d="m 123.74 215.17 c -0.6 0 -1.113 0.222 -1.547 0.65 -0.435 0.447 -0.659 0.968 -0.659 1.548 v 5.359 c 0 0.201 0.069 0.383 0.224 0.529 0.144 0.145 0.322 0.211 0.524 0.211 0.233 0 0.411 -0.066 0.555 -0.211 0.124 -0.147 0.19 -0.328 0.19 -0.529 v -4.792 h 0.387 v 13.266 c 0 0.255 0.112 0.492 0.324 0.673 0.199 0.201 0.432 0.287 0.7 0.287 0.29 0 0.523 -0.086 0.713 -0.287 0.201 -0.182 0.292 -0.418 0.292 -0.673 v -7.69 h 0.434 v 7.69 c 0 0.255 0.1 0.492 0.289 0.673 0.19 0.201 0.435 0.287 0.735 0.287 0.255 0 0.479 -0.086 0.679 -0.287 0.188 -0.182 0.274 -0.418 0.274 -0.673 v -13.266 h 0.405 v 4.792 c 0 0.201 0.064 0.383 0.198 0.529 0.16 0.145 0.344 0.211 0.545 0.211 0.236 0 0.415 -0.066 0.549 -0.211 0.121 -0.147 0.198 -0.328 0.198 -0.529 v -5.358 c 0 -0.578 -0.211 -1.1 -0.646 -1.546 -0.424 -0.43 -0.933 -0.65 -1.557 -0.65 h -3.806 z m 1.913 -0.441 c 0.468 0 0.88 -0.154 1.212 -0.475 0.332 -0.33 0.501 -0.738 0.501 -1.23 0 -0.469 -0.171 -0.871 -0.502 -1.202 -0.333 -0.341 -0.745 -0.511 -1.211 -0.511 -0.491 0 -0.904 0.17 -1.215 0.511 -0.332 0.332 -0.488 0.734 -0.488 1.202 0 0.493 0.156 0.901 0.488 1.23 0.313 0.321 0.726 0.475 1.215 0.475 z"/><path d="m 104.68 262.48 c -0.6 0 -1.113 0.222 -1.547 0.65 -0.435 0.447 -0.659 0.968 -0.659 1.548 v 5.359 c 0 0.201 0.069 0.383 0.224 0.529 0.144 0.145 0.322 0.211 0.524 0.211 0.233 0 0.411 -0.066 0.555 -0.211 0.124 -0.147 0.19 -0.328 0.19 -0.529 v -4.792 h 0.387 v 13.266 c 0 0.255 0.112 0.492 0.324 0.673 0.199 0.201 0.432 0.287 0.7 0.287 0.29 0 0.523 -0.086 0.713 -0.287 0.201 -0.182 0.292 -0.418 0.292 -0.673 v -7.69 h 0.434 v 7.69 c 0 0.255 0.1 0.492 0.289 0.673 0.19 0.201 0.435 0.287 0.735 0.287 0.255 0 0.479 -0.086 0.679 -0.287 0.188 -0.182 0.274 -0.418 0.274 -0.673 v -13.266 h 0.405 v 4.792 c 0 0.201 0.064 0.383 0.198 0.529 0.16 0.145 0.344 0.211 0.545 0.211 0.236 0 0.415 -0.066 0.549 -0.211 0.121 -0.147 0.198 -0.328 0.198 -0.529 v -5.358 c 0 -0.578 -0.211 -1.1 -0.646 -1.546 -0.424 -0.43 -0.933 -0.65 -1.557 -0.65 h -3.806 z m 1.913 -0.441 c 0.468 0 0.88 -0.154 1.212 -0.475 0.332 -0.33 0.501 -0.738 0.501 -1.23 0 -0.469 -0.171 -0.871 -0.502 -1.202 -0.333 -0.341 -0.745 -0.511 -1.211 -0.511 -0.491 0 -0.904 0.17 -1.215 0.511 -0.332 0.332 -0.488 0.734 -0.488 1.202 0 0.493 0.156 0.901 0.488 1.23 0.313 0.321 0.726 0.475 1.215 0.475 z"/></g><path d="m 125.27 239.74 v 5.971 c 0 0.235 -0.077 0.429 -0.223 0.57 -0.145 0.147 -0.335 0.217 -0.568 0.217 -0.235 0 -0.436 -0.07 -0.592 -0.217 -0.167 -0.14 -0.243 -0.335 -0.243 -0.57 v -5.971 h -2.237 l 2.328 -7.86 h -0.4 c -0.255 0.881 -0.47 1.59 -0.639 2.152 -0.152 0.56 -0.32 1.091 -0.466 1.602 -0.166 0.505 -0.277 0.824 -0.289 0.933 -0.101 0.334 -0.322 0.495 -0.668 0.495 l -0.176 -0.042 c -0.323 -0.119 -0.48 -0.328 -0.48 -0.626 0 -0.081 0.012 -0.148 0.044 -0.215 0.023 -0.058 0.09 -0.255 0.168 -0.59 0.09 -0.332 0.211 -0.746 0.356 -1.226 0.145 -0.488 0.302 -1.017 0.467 -1.584 0.168 -0.57 0.322 -1.119 0.511 -1.647 0.112 -0.405 0.356 -0.774 0.735 -1.093 0.377 -0.331 0.77 -0.481 1.179 -0.481 h 2.738 c 0.423 0 0.835 0.151 1.202 0.481 0.357 0.321 0.614 0.688 0.757 1.093 0.153 0.529 0.31 1.077 0.465 1.647 0.159 0.567 0.325 1.095 0.459 1.584 0.142 0.481 0.266 0.894 0.354 1.226 0.089 0.335 0.146 0.532 0.177 0.59 l 0.044 0.176 c 0 0.36 -0.168 0.57 -0.49 0.662 l -0.164 0.045 c -0.355 0 -0.578 -0.162 -0.667 -0.495 -0.025 -0.109 -0.124 -0.429 -0.256 -0.934 -0.156 -0.511 -0.314 -1.042 -0.492 -1.602 -0.178 -0.561 -0.387 -1.271 -0.642 -2.154 h -0.402 l 2.324 7.862 h -2.201 v 5.971 c 0 0.235 -0.067 0.429 -0.245 0.57 -0.157 0.147 -0.346 0.217 -0.578 0.217 -0.245 0 -0.425 -0.07 -0.578 -0.217 -0.145 -0.14 -0.211 -0.335 -0.211 -0.57 v -5.971 z m 0.22 -10.674 c 0.469 0 0.871 -0.154 1.182 -0.475 0.321 -0.329 0.489 -0.737 0.489 -1.23 0 -0.469 -0.168 -0.871 -0.489 -1.202 -0.31 -0.341 -0.714 -0.511 -1.182 -0.511 -0.499 0 -0.913 0.17 -1.257 0.511 -0.334 0.33 -0.498 0.734 -0.498 1.202 0 0.493 0.164 0.901 0.499 1.23 0.345 0.321 0.758 0.475 1.256 0.475 z" fill="#fccc00"/><path d="m 119.5 240.18 c -0.6 0 -1.113 0.222 -1.547 0.65 -0.435 0.447 -0.659 0.968 -0.659 1.548 v 5.359 c 0 0.201 0.069 0.383 0.224 0.529 0.144 0.145 0.322 0.211 0.524 0.211 0.233 0 0.411 -0.066 0.555 -0.211 0.124 -0.147 0.19 -0.328 0.19 -0.529 v -4.792 h 0.387 v 13.266 c 0 0.255 0.112 0.492 0.324 0.673 0.199 0.201 0.432 0.287 0.7 0.287 0.29 0 0.523 -0.086 0.713 -0.287 0.201 -0.182 0.292 -0.418 0.292 -0.673 v -7.69 h 0.434 v 7.69 c 0 0.255 0.1 0.492 0.289 0.673 0.19 0.201 0.435 0.287 0.735 0.287 0.255 0 0.479 -0.086 0.679 -0.287 0.188 -0.182 0.274 -0.418 0.274 -0.673 v -13.266 h 0.405 v 4.792 c 0 0.201 0.064 0.383 0.198 0.529 0.16 0.145 0.344 0.211 0.545 0.211 0.236 0 0.415 -0.066 0.549 -0.211 0.121 -0.147 0.198 -0.328 0.198 -0.529 v -5.358 c 0 -0.578 -0.211 -1.1 -0.646 -1.546 -0.424 -0.43 -0.933 -0.65 -1.557 -0.65 h -3.806 z m 1.913 -0.441 c 0.468 0 0.88 -0.154 1.212 -0.475 0.332 -0.33 0.501 -0.738 0.501 -1.23 0 -0.469 -0.171 -0.871 -0.502 -1.202 -0.333 -0.341 -0.745 -0.511 -1.211 -0.511 -0.491 0 -0.904 0.17 -1.215 0.511 -0.332 0.332 -0.488 0.734 -0.488 1.202 0 0.493 0.156 0.901 0.488 1.23 0.313 0.321 0.726 0.475 1.215 0.475 z" fill="#ff8e02"/><path d="m 127.32 256.87 v 5.971 c 0 0.235 -0.077 0.429 -0.223 0.57 -0.145 0.147 -0.335 0.217 -0.568 0.217 -0.235 0 -0.436 -0.07 -0.592 -0.217 -0.167 -0.14 -0.243 -0.335 -0.243 -0.57 v -5.971 h -2.237 l 2.328 -7.86 h -0.4 c -0.255 0.881 -0.47 1.59 -0.639 2.152 -0.152 0.56 -0.32 1.091 -0.466 1.602 -0.166 0.505 -0.277 0.824 -0.289 0.933 -0.101 0.334 -0.322 0.495 -0.668 0.495 l -0.176 -0.042 c -0.323 -0.119 -0.48 -0.328 -0.48 -0.626 0 -0.081 0.012 -0.148 0.044 -0.215 0.023 -0.058 0.09 -0.255 0.168 -0.59 0.09 -0.332 0.211 -0.746 0.356 -1.226 0.145 -0.488 0.302 -1.017 0.467 -1.584 0.168 -0.57 0.322 -1.119 0.511 -1.647 0.112 -0.405 0.356 -0.774 0.735 -1.093 0.377 -0.331 0.77 -0.481 1.179 -0.481 h 2.738 c 0.423 0 0.835 0.151 1.202 0.481 0.357 0.321 0.614 0.688 0.757 1.093 0.153 0.529 0.31 1.077 0.465 1.647 0.159 0.567 0.325 1.096 0.459 1.584 0.142 0.481 0.266 0.894 0.354 1.226 0.089 0.335 0.146 0.532 0.177 0.59 l 0.044 0.176 c 0 0.36 -0.168 0.57 -0.49 0.662 l -0.164 0.045 c -0.355 0 -0.578 -0.162 -0.667 -0.495 -0.025 -0.109 -0.124 -0.429 -0.256 -0.934 -0.156 -0.511 -0.314 -1.042 -0.492 -1.602 -0.178 -0.561 -0.387 -1.271 -0.642 -2.154 h -0.402 l 2.324 7.862 h -2.201 v 5.971 c 0 0.235 -0.067 0.429 -0.245 0.57 -0.157 0.147 -0.346 0.217 -0.578 0.217 -0.245 0 -0.425 -0.07 -0.578 -0.217 -0.145 -0.14 -0.211 -0.335 -0.211 -0.57 v -5.971 z m 0.22 -10.674 c 0.469 0 0.871 -0.154 1.182 -0.475 0.321 -0.329 0.489 -0.737 0.489 -1.23 0 -0.469 -0.168 -0.871 -0.489 -1.202 -0.31 -0.341 -0.714 -0.511 -1.182 -0.511 -0.499 0 -0.913 0.17 -1.257 0.511 -0.334 0.33 -0.498 0.734 -0.498 1.202 0 0.493 0.164 0.901 0.499 1.23 0.345 0.321 0.758 0.475 1.256 0.475 z" fill="#bddae8"/><path d="m 120.67 268.39 v 5.971 c 0 0.235 -0.077 0.429 -0.223 0.57 -0.145 0.147 -0.335 0.217 -0.568 0.217 -0.235 0 -0.436 -0.07 -0.592 -0.217 -0.167 -0.14 -0.243 -0.335 -0.243 -0.57 v -5.971 h -2.237 l 2.328 -7.86 h -0.4 c -0.255 0.881 -0.47 1.59 -0.639 2.152 -0.152 0.56 -0.32 1.091 -0.466 1.602 -0.166 0.505 -0.277 0.824 -0.289 0.933 -0.101 0.334 -0.322 0.495 -0.668 0.495 l -0.176 -0.043 c -0.323 -0.12 -0.48 -0.328 -0.48 -0.626 0 -0.081 0.012 -0.148 0.044 -0.215 0.023 -0.058 0.09 -0.255 0.168 -0.59 0.09 -0.332 0.211 -0.746 0.356 -1.226 0.145 -0.488 0.302 -1.017 0.467 -1.584 0.168 -0.57 0.322 -1.119 0.511 -1.647 0.112 -0.405 0.356 -0.774 0.735 -1.093 0.377 -0.331 0.77 -0.481 1.179 -0.481 h 2.738 c 0.423 0 0.835 0.151 1.202 0.481 0.357 0.321 0.614 0.688 0.757 1.093 0.153 0.529 0.31 1.077 0.465 1.647 0.159 0.567 0.325 1.096 0.459 1.584 0.142 0.481 0.266 0.894 0.354 1.226 0.089 0.335 0.146 0.532 0.177 0.59 l 0.044 0.176 c 0 0.36 -0.168 0.57 -0.49 0.662 l -0.164 0.045 c -0.355 0 -0.578 -0.162 -0.667 -0.495 -0.025 -0.109 -0.124 -0.429 -0.256 -0.933 -0.156 -0.511 -0.314 -1.042 -0.492 -1.602 -0.178 -0.561 -0.387 -1.271 -0.642 -2.154 h -0.402 l 2.324 7.862 h -2.201 v 5.971 c 0 0.235 -0.067 0.429 -0.245 0.57 -0.157 0.147 -0.346 0.217 -0.578 0.217 -0.245 0 -0.425 -0.07 -0.578 -0.217 -0.145 -0.14 -0.211 -0.335 -0.211 -0.57 v -5.971 z m 0.22 -10.674 c 0.469 0 0.871 -0.154 1.182 -0.475 0.321 -0.329 0.489 -0.737 0.489 -1.23 0 -0.469 -0.168 -0.871 -0.489 -1.202 -0.31 -0.341 -0.714 -0.511 -1.182 -0.511 -0.499 0 -0.913 0.17 -1.257 0.511 -0.334 0.33 -0.498 0.734 -0.498 1.202 0 0.493 0.164 0.901 0.499 1.23 0.345 0.321 0.758 0.475 1.256 0.475 z" fill="#fccc00"/><path d="m 125.6 265.62 c -0.6 0 -1.113 0.222 -1.547 0.65 -0.435 0.447 -0.659 0.968 -0.659 1.548 v 5.359 c 0 0.201 0.069 0.383 0.224 0.529 0.144 0.145 0.322 0.211 0.525 0.211 0.233 0 0.411 -0.066 0.555 -0.211 0.124 -0.147 0.19 -0.328 0.19 -0.529 v -4.792 h 0.387 v 13.266 c 0 0.255 0.112 0.492 0.324 0.673 0.199 0.201 0.432 0.287 0.7 0.287 0.29 0 0.523 -0.086 0.713 -0.287 0.201 -0.182 0.292 -0.418 0.292 -0.673 v -7.69 h 0.434 v 7.69 c 0 0.255 0.1 0.492 0.289 0.673 0.19 0.201 0.435 0.287 0.735 0.287 0.255 0 0.479 -0.086 0.679 -0.287 0.188 -0.182 0.274 -0.418 0.274 -0.673 v -13.266 h 0.405 v 4.792 c 0 0.201 0.064 0.383 0.198 0.529 0.16 0.145 0.344 0.211 0.545 0.211 0.236 0 0.415 -0.066 0.549 -0.211 0.121 -0.147 0.198 -0.328 0.198 -0.529 v -5.358 c 0 -0.578 -0.211 -1.1 -0.646 -1.546 -0.424 -0.43 -0.933 -0.65 -1.557 -0.65 h -3.806 z m 1.913 -0.441 c 0.468 0 0.88 -0.154 1.212 -0.475 0.332 -0.33 0.501 -0.738 0.501 -1.23 0 -0.469 -0.171 -0.871 -0.502 -1.202 -0.333 -0.341 -0.745 -0.511 -1.211 -0.511 -0.491 0 -0.904 0.17 -1.215 0.511 -0.332 0.332 -0.488 0.734 -0.488 1.202 0 0.493 0.156 0.901 0.488 1.23 0.313 0.321 0.726 0.475 1.215 0.475 z" fill="#ff8e02"/><path d="m 136.78 260.15 c -0.6 0 -1.113 0.222 -1.547 0.65 -0.435 0.447 -0.659 0.968 -0.659 1.548 v 5.359 c 0 0.201 0.069 0.383 0.224 0.529 0.144 0.145 0.322 0.211 0.524 0.211 0.233 0 0.411 -0.066 0.555 -0.211 0.124 -0.147 0.19 -0.328 0.19 -0.529 v -4.792 h 0.387 v 13.266 c 0 0.255 0.112 0.492 0.324 0.673 0.199 0.201 0.432 0.287 0.7 0.287 0.29 0 0.523 -0.086 0.713 -0.287 0.201 -0.182 0.292 -0.418 0.292 -0.673 v -7.69 h 0.434 v 7.69 c 0 0.255 0.1 0.492 0.289 0.673 0.19 0.201 0.435 0.287 0.735 0.287 0.255 0 0.479 -0.086 0.679 -0.287 0.188 -0.182 0.274 -0.418 0.274 -0.673 v -13.266 h 0.405 v 4.792 c 0 0.201 0.064 0.383 0.198 0.529 0.16 0.145 0.344 0.211 0.545 0.211 0.236 0 0.415 -0.066 0.549 -0.211 0.121 -0.147 0.198 -0.328 0.198 -0.529 v -5.358 c 0 -0.578 -0.211 -1.1 -0.646 -1.546 -0.424 -0.43 -0.933 -0.65 -1.557 -0.65 h -3.806 z m 1.913 -0.441 c 0.468 0 0.88 -0.154 1.212 -0.475 0.332 -0.33 0.501 -0.738 0.501 -1.23 0 -0.469 -0.171 -0.871 -0.502 -1.202 -0.333 -0.341 -0.745 -0.511 -1.211 -0.511 -0.491 0 -0.904 0.17 -1.215 0.511 -0.332 0.332 -0.488 0.734 -0.488 1.202 0 0.493 0.156 0.901 0.488 1.23 0.313 0.321 0.726 0.475 1.215 0.475 z" fill="#6a73ac"/><path d="m 141.29 285.46 v 5.971 c 0 0.235 -0.077 0.429 -0.223 0.57 -0.145 0.147 -0.335 0.217 -0.568 0.217 -0.235 0 -0.436 -0.07 -0.592 -0.217 -0.167 -0.14 -0.243 -0.335 -0.243 -0.57 v -5.971 h -2.237 l 2.328 -7.86 h -0.4 c -0.255 0.881 -0.47 1.59 -0.639 2.152 -0.152 0.56 -0.32 1.091 -0.466 1.602 -0.166 0.505 -0.278 0.824 -0.289 0.933 -0.101 0.334 -0.322 0.495 -0.668 0.495 l -0.176 -0.043 c -0.323 -0.12 -0.48 -0.328 -0.48 -0.626 0 -0.081 0.012 -0.148 0.044 -0.215 0.023 -0.058 0.09 -0.255 0.168 -0.59 0.09 -0.332 0.211 -0.746 0.356 -1.226 0.145 -0.488 0.302 -1.017 0.467 -1.584 0.168 -0.57 0.322 -1.119 0.511 -1.647 0.112 -0.405 0.356 -0.774 0.735 -1.093 0.377 -0.331 0.77 -0.481 1.179 -0.481 h 2.738 c 0.423 0 0.835 0.151 1.202 0.481 0.357 0.321 0.614 0.688 0.757 1.093 0.153 0.529 0.31 1.077 0.465 1.647 0.159 0.567 0.325 1.096 0.459 1.584 0.142 0.481 0.266 0.894 0.354 1.226 0.089 0.335 0.146 0.533 0.177 0.59 l 0.044 0.176 c 0 0.36 -0.168 0.57 -0.49 0.662 l -0.164 0.045 c -0.355 0 -0.578 -0.162 -0.667 -0.495 -0.025 -0.109 -0.124 -0.429 -0.256 -0.933 -0.156 -0.511 -0.314 -1.042 -0.492 -1.602 -0.178 -0.561 -0.387 -1.271 -0.642 -2.154 h -0.402 l 2.324 7.862 h -2.201 v 5.971 c 0 0.235 -0.067 0.429 -0.245 0.57 -0.157 0.147 -0.346 0.217 -0.578 0.217 -0.245 0 -0.425 -0.07 -0.578 -0.217 -0.145 -0.14 -0.211 -0.335 -0.211 -0.57 v -5.971 z m 0.22 -10.674 c 0.469 0 0.871 -0.154 1.182 -0.475 0.321 -0.329 0.489 -0.737 0.489 -1.23 0 -0.469 -0.168 -0.871 -0.489 -1.202 -0.31 -0.341 -0.714 -0.511 -1.182 -0.511 -0.499 0 -0.913 0.17 -1.257 0.511 -0.334 0.33 -0.498 0.734 -0.498 1.202 0 0.493 0.164 0.901 0.499 1.23 0.345 0.321 0.758 0.475 1.256 0.475 z" fill="#fccc00"/><path d="m 144.71 235.05 c -0.6 0 -1.113 0.222 -1.547 0.65 -0.435 0.447 -0.659 0.968 -0.659 1.548 v 5.359 c 0 0.201 0.069 0.383 0.224 0.529 0.144 0.145 0.322 0.211 0.524 0.211 0.233 0 0.411 -0.066 0.555 -0.211 0.124 -0.147 0.19 -0.328 0.19 -0.529 v -4.792 h 0.387 v 13.266 c 0 0.255 0.112 0.492 0.324 0.673 0.199 0.201 0.432 0.287 0.7 0.287 0.29 0 0.523 -0.086 0.713 -0.287 0.201 -0.182 0.292 -0.418 0.292 -0.673 v -7.69 h 0.434 v 7.69 c 0 0.255 0.1 0.492 0.289 0.673 0.19 0.201 0.435 0.287 0.735 0.287 0.255 0 0.479 -0.086 0.679 -0.287 0.188 -0.182 0.274 -0.418 0.274 -0.673 v -13.266 h 0.405 v 4.792 c 0 0.201 0.064 0.383 0.198 0.529 0.16 0.145 0.344 0.211 0.545 0.211 0.236 0 0.415 -0.066 0.549 -0.211 0.121 -0.147 0.198 -0.328 0.198 -0.529 v -5.358 c 0 -0.578 -0.211 -1.1 -0.646 -1.546 -0.424 -0.43 -0.933 -0.65 -1.557 -0.65 h -3.806 z m 1.913 -0.441 c 0.468 0 0.88 -0.154 1.212 -0.475 0.332 -0.33 0.501 -0.738 0.501 -1.23 0 -0.469 -0.171 -0.871 -0.502 -1.202 -0.333 -0.341 -0.745 -0.511 -1.211 -0.511 -0.491 0 -0.904 0.17 -1.215 0.511 -0.332 0.332 -0.488 0.734 -0.488 1.202 0 0.493 0.156 0.901 0.488 1.23 0.313 0.321 0.726 0.475 1.215 0.475 z" fill="#6a73ac"/><path d="m 149.23 260.37 v 5.971 c 0 0.235 -0.077 0.429 -0.223 0.57 -0.145 0.147 -0.335 0.217 -0.568 0.217 -0.235 0 -0.436 -0.07 -0.592 -0.217 -0.167 -0.14 -0.243 -0.335 -0.243 -0.57 v -5.971 h -2.237 l 2.328 -7.86 h -0.4 c -0.255 0.881 -0.47 1.59 -0.639 2.152 -0.152 0.56 -0.32 1.091 -0.466 1.602 -0.166 0.505 -0.278 0.824 -0.289 0.933 -0.101 0.334 -0.322 0.495 -0.668 0.495 l -0.176 -0.043 c -0.323 -0.12 -0.48 -0.328 -0.48 -0.626 0 -0.081 0.012 -0.148 0.044 -0.215 0.023 -0.058 0.09 -0.255 0.168 -0.59 0.09 -0.332 0.211 -0.746 0.356 -1.226 0.145 -0.488 0.302 -1.017 0.467 -1.584 0.168 -0.57 0.322 -1.119 0.511 -1.647 0.112 -0.405 0.356 -0.774 0.735 -1.093 0.377 -0.331 0.77 -0.481 1.179 -0.481 h 2.738 c 0.423 0 0.835 0.151 1.202 0.481 0.357 0.321 0.614 0.688 0.757 1.093 0.153 0.529 0.31 1.077 0.465 1.647 0.159 0.567 0.325 1.095 0.459 1.584 0.142 0.481 0.266 0.894 0.354 1.226 0.089 0.335 0.146 0.532 0.177 0.59 l 0.044 0.176 c 0 0.36 -0.168 0.57 -0.49 0.662 l -0.164 0.045 c -0.355 0 -0.578 -0.162 -0.667 -0.495 -0.025 -0.109 -0.124 -0.429 -0.256 -0.933 -0.156 -0.511 -0.314 -1.042 -0.492 -1.602 -0.178 -0.561 -0.387 -1.271 -0.642 -2.154 h -0.402 l 2.324 7.862 h -2.201 v 5.971 c 0 0.235 -0.067 0.429 -0.245 0.57 -0.157 0.147 -0.346 0.217 -0.578 0.217 -0.245 0 -0.425 -0.07 -0.578 -0.217 -0.145 -0.14 -0.211 -0.335 -0.211 -0.57 v -5.971 z m 0.22 -10.674 c 0.469 0 0.871 -0.154 1.182 -0.475 0.321 -0.329 0.489 -0.737 0.489 -1.23 0 -0.469 -0.168 -0.871 -0.489 -1.202 -0.31 -0.341 -0.714 -0.511 -1.182 -0.511 -0.499 0 -0.913 0.17 -1.257 0.511 -0.334 0.33 -0.498 0.734 -0.498 1.202 0 0.493 0.164 0.901 0.499 1.23 0.345 0.321 0.758 0.475 1.256 0.475 z" fill="#fccc00"/><path d="m 149.09 267.35 c -0.6 0 -1.113 0.222 -1.547 0.65 -0.435 0.447 -0.659 0.968 -0.659 1.548 v 5.359 c 0 0.201 0.069 0.383 0.224 0.529 0.144 0.145 0.322 0.211 0.524 0.211 0.233 0 0.411 -0.066 0.555 -0.211 0.124 -0.147 0.19 -0.328 0.19 -0.529 v -4.792 h 0.387 v 13.266 c 0 0.255 0.112 0.492 0.324 0.673 0.199 0.201 0.432 0.287 0.7 0.287 0.29 0 0.523 -0.086 0.713 -0.287 0.201 -0.182 0.292 -0.418 0.292 -0.673 v -7.69 h 0.434 v 7.69 c 0 0.255 0.1 0.492 0.289 0.673 0.19 0.201 0.435 0.287 0.735 0.287 0.255 0 0.479 -0.086 0.679 -0.287 0.188 -0.182 0.274 -0.418 0.274 -0.673 v -13.266 h 0.405 v 4.792 c 0 0.201 0.064 0.383 0.198 0.529 0.16 0.145 0.344 0.211 0.545 0.211 0.236 0 0.415 -0.066 0.549 -0.211 0.121 -0.147 0.198 -0.328 0.198 -0.529 v -5.358 c 0 -0.578 -0.211 -1.1 -0.646 -1.546 -0.424 -0.43 -0.933 -0.65 -1.557 -0.65 h -3.806 z m 1.913 -0.441 c 0.468 0 0.88 -0.154 1.212 -0.475 0.332 -0.33 0.501 -0.738 0.501 -1.23 0 -0.469 -0.171 -0.871 -0.502 -1.202 -0.333 -0.341 -0.745 -0.511 -1.211 -0.511 -0.491 0 -0.904 0.17 -1.215 0.511 -0.332 0.332 -0.488 0.734 -0.488 1.202 0 0.493 0.156 0.901 0.488 1.23 0.313 0.321 0.726 0.475 1.215 0.475 z" fill="#ff8e02"/><path d="m 113.35 282.22 v 5.971 c 0 0.235 -0.077 0.429 -0.223 0.57 -0.145 0.147 -0.335 0.217 -0.568 0.217 -0.235 0 -0.436 -0.07 -0.592 -0.217 -0.167 -0.14 -0.243 -0.335 -0.243 -0.57 v -5.971 h -2.237 l 2.328 -7.86 h -0.4 c -0.255 0.881 -0.47 1.59 -0.639 2.152 -0.152 0.56 -0.32 1.091 -0.466 1.602 -0.166 0.505 -0.278 0.824 -0.289 0.933 -0.101 0.334 -0.322 0.495 -0.668 0.495 l -0.176 -0.043 c -0.323 -0.12 -0.48 -0.328 -0.48 -0.626 0 -0.081 0.012 -0.148 0.044 -0.215 0.023 -0.058 0.09 -0.255 0.168 -0.59 0.09 -0.332 0.211 -0.746 0.356 -1.226 0.145 -0.488 0.302 -1.017 0.467 -1.584 0.168 -0.57 0.322 -1.119 0.511 -1.647 0.112 -0.405 0.356 -0.774 0.735 -1.093 0.377 -0.331 0.77 -0.481 1.179 -0.481 h 2.738 c 0.423 0 0.835 0.151 1.202 0.481 0.357 0.321 0.614 0.688 0.757 1.093 0.153 0.529 0.31 1.077 0.465 1.647 0.159 0.567 0.325 1.096 0.459 1.584 0.142 0.481 0.266 0.894 0.354 1.226 0.089 0.335 0.146 0.532 0.177 0.59 l 0.044 0.176 c 0 0.36 -0.168 0.57 -0.49 0.662 l -0.164 0.045 c -0.355 0 -0.578 -0.162 -0.667 -0.495 -0.025 -0.109 -0.124 -0.429 -0.256 -0.933 -0.156 -0.511 -0.314 -1.042 -0.492 -1.602 -0.178 -0.561 -0.387 -1.271 -0.642 -2.154 h -0.402 l 2.324 7.862 h -2.201 v 5.971 c 0 0.235 -0.067 0.429 -0.245 0.57 -0.157 0.147 -0.346 0.217 -0.578 0.217 -0.245 0 -0.425 -0.07 -0.578 -0.217 -0.145 -0.14 -0.211 -0.335 -0.211 -0.57 v -5.971 z m 0.22 -10.674 c 0.469 0 0.871 -0.154 1.182 -0.475 0.321 -0.329 0.489 -0.737 0.489 -1.23 0 -0.469 -0.168 -0.871 -0.489 -1.202 -0.31 -0.341 -0.714 -0.511 -1.182 -0.511 -0.499 0 -0.913 0.17 -1.257 0.511 -0.334 0.33 -0.498 0.734 -0.498 1.202 0 0.493 0.164 0.901 0.499 1.23 0.345 0.321 0.758 0.475 1.256 0.475 z" fill="#bddae8"/></g><g stroke="#6a73ac"><g fill="#f66"><path d="m 45.614 254 c -11.09 -5.771 -21 -11.24 -22.669 -12.506 c -3.228 -2.45 -5.839 -5.246 -8.471 -9.07 -1.146 -1.665 -3.214 -5.01 -3.14 -5.086 0.031 -0.031 0.915 0.403 1.966 0.964 4.114 2.197 9.929 5.04 15.641 7.636 2.457 1.119 4.508 2.023 11.337 5 l 0.831 0.362 l 4.184 7.168 c 4.725 8.095 4.432 7.581 4.32 7.573 -0.046 -0.003 -1.846 -0.923 -3.999 -2.044 z" opacity="0.95" stroke-width="0.122"/><path d="m 37.651 220.41 c -3.377 -1.708 -5.844 -3.354 -7.65 -5.107 -2.138 -2.074 -3.088 -3.939 -3.093 -6.07 -0.003 -1.285 0.493 -2.935 1.136 -3.78 1.44 -1.892 4.139 -4.099 7.06 -5.777 1.415 -0.812 4.453 -2.277 4.514 -2.176 0.006 0.01 1.201 2.831 2.654 6.268 l 2.643 6.249 l -0.191 0.159 c -0.105 0.087 -0.429 0.354 -0.719 0.593 -0.813 0.668 -2.135 2.06 -2.775 2.92 -1.034 1.39 -1.751 2.849 -2.119 4.309 -0.141 0.559 -0.171 0.889 -0.173 1.873 -0.001 0.657 -0.002 1.194 -0.002 1.193 0 -0.001 -0.58 -0.295 -1.289 -0.654 z" opacity="0.95" stroke-width="0.086"/></g><path d="m 81.68 217.74 c -5.581 -4.608 -10.768 -8.379 -13.13 -9.545 -4.328 -2.139 -9.216 -2.994 -13.452 -2.353 -2.745 0.415 -6.696 1.776 -8.364 2.879 -0.628 0.416 -1.251 0.756 -1.384 0.756 -0.38 0 -5.295 -11.89 -5.02 -12.148 0.406 -0.382 5.05 -1.648 8.196 -2.419 3.734 -0.917 10.845 -1.163 13.993 -0.632 4.388 0.74 5.01 1.081 14.202 7.991 l 8.58 6.449 l 0.008 5.839 c 0.005 3.212 -0.094 5.833 -0.219 5.825 -0.125 -0.008 -1.661 -1.198 -3.413 -2.644 z" opacity="0.95" fill="#6a73ac" stroke-width="0.344"/><g stroke-width="0.122"><path d="m 40.755 240.8 c -1.671 -0.682 -11.701 -5.139 -14.8 -6.576 -4.482 -2.078 -10.68 -5.18 -13.996 -7 l -1.233 -0.678 l -0.695 -1.159 c -2.342 -3.906 -3.66 -7.494 -4.089 -11.134 -0.18 -1.522 -0.064 -4.526 0.227 -5.894 1.463 -6.879 6.511 -12.791 14.919 -17.473 1.48 -0.824 4.424 -2.246 4.651 -2.246 0.068 0 3.178 1.924 6.911 4.276 l 6.787 4.276 l -0.467 0.213 c -3.948 1.797 -6.784 3.561 -9.02 5.607 -1.947 1.785 -2.706 2.881 -3.147 4.539 -0.239 0.899 -0.243 2.412 -0.01 3.325 0.964 3.767 5.404 7.478 13.1 10.946 3.675 1.657 8.784 3.577 13.862 5.21 1.254 0.403 2.267 0.762 2.252 0.798 -0.064 0.153 -14.824 13.07 -14.928 13.07 -0.063 -0.004 -0.211 -0.046 -0.329 -0.094 z" opacity="0.95" fill="#f66"/><path d="m 81.76 205.55 c -1.906 -1.439 -5.59 -4.219 -8.185 -6.178 -2.893 -2.426 -5.691 -4.371 -9.182 -5.165 -1.942 -0.432 -3.953 -0.623 -6.637 -0.63 -5.188 -0.014 -10.292 0.848 -15.444 2.61 -1.209 0.413 -2.286 0.761 -2.394 0.773 -0.185 0.02 -13.679 -8.376 -13.689 -8.518 -0.006 -0.093 2.463 -1.06 4.348 -1.702 6.151 -2.097 13.01 -3.419 20.04 -3.861 2.18 -0.137 7.255 -0.137 9.279 -0.001 6.711 0.454 12.81 1.806 17.642 3.91 2.01 0.876 2.516 1.165 9.02 5.161 3.237 1.989 7.705 4.731 9.929 6.093 2.224 1.363 4.01 2.507 3.968 2.544 -0.041 0.036 -3.486 1.757 -7.655 3.823 l -7.58 3.756 z" opacity="0.95" fill="#6a73ac"/></g><g fill="#deecf1" stroke-width="0.243"><path d="m 48.24 244 c -3.565 -1.542 -6.485 -2.867 -6.488 -2.944 -0.005 -0.104 11.643 -10.443 14.403 -12.784 0.317 -0.269 0.919 -0.134 5.02 1.125 4.121 1.266 7.097 2.251 8.86 2.933 l 0.562 0.218 l -0.77 0.678 c -0.424 0.373 -3.802 3.42 -7.507 6.772 -3.705 3.352 -6.93 6.254 -7.166 6.45 -0.409 0.339 -0.738 0.222 -6.911 -2.447 z" opacity="0.95"/><path d="m 60.754 261.01 c -1.391 -3.377 -5.513 -13.556 -5.551 -13.709 -0.05 -0.199 15.517 -14.416 15.645 -14.288 0.12 0.12 4.999 14.393 5 14.634 0.002 0.124 -2.531 2.595 -5.628 5.489 -3.097 2.895 -6.427 6.01 -7.401 6.929 l -1.771 1.666 z" opacity="0.95"/></g></g><g stroke-width="0.308"><path d="m 73.855 249.57 v 5.971 c 0 0.235 -0.077 0.429 -0.223 0.57 -0.145 0.147 -0.335 0.217 -0.568 0.217 -0.235 0 -0.436 -0.07 -0.592 -0.217 -0.167 -0.14 -0.243 -0.335 -0.243 -0.57 v -5.971 h -2.237 l 2.328 -7.86 h -0.4 c -0.255 0.881 -0.47 1.59 -0.639 2.152 -0.152 0.56 -0.32 1.091 -0.466 1.602 -0.166 0.505 -0.277 0.824 -0.289 0.934 -0.101 0.334 -0.322 0.495 -0.668 0.495 l -0.176 -0.042 c -0.323 -0.119 -0.48 -0.328 -0.48 -0.626 0 -0.081 0.012 -0.148 0.044 -0.215 0.023 -0.058 0.09 -0.255 0.168 -0.59 0.09 -0.332 0.211 -0.746 0.356 -1.226 0.145 -0.488 0.302 -1.017 0.467 -1.584 0.168 -0.57 0.322 -1.119 0.511 -1.647 0.112 -0.405 0.356 -0.774 0.735 -1.093 0.377 -0.331 0.77 -0.481 1.179 -0.481 h 2.738 c 0.423 0 0.835 0.151 1.202 0.481 0.357 0.321 0.614 0.688 0.757 1.093 0.153 0.529 0.31 1.077 0.465 1.647 0.159 0.567 0.325 1.095 0.459 1.584 0.142 0.481 0.266 0.894 0.354 1.226 0.089 0.335 0.146 0.532 0.177 0.59 l 0.044 0.176 c 0 0.36 -0.168 0.57 -0.49 0.662 l -0.164 0.045 c -0.355 0 -0.578 -0.162 -0.667 -0.495 -0.025 -0.109 -0.124 -0.429 -0.256 -0.933 -0.156 -0.511 -0.314 -1.042 -0.492 -1.602 -0.178 -0.561 -0.387 -1.271 -0.642 -2.154 h -0.402 l 2.324 7.862 h -2.201 v 5.971 c 0 0.235 -0.067 0.429 -0.245 0.57 -0.157 0.147 -0.346 0.217 -0.578 0.217 -0.245 0 -0.425 -0.07 -0.578 -0.217 -0.145 -0.14 -0.211 -0.335 -0.211 -0.57 v -5.971 z m 0.22 -10.674 c 0.469 0 0.871 -0.154 1.182 -0.475 0.321 -0.329 0.489 -0.737 0.489 -1.23 0 -0.469 -0.168 -0.871 -0.489 -1.202 -0.31 -0.341 -0.714 -0.511 -1.182 -0.511 -0.499 0 -0.913 0.17 -1.257 0.511 -0.334 0.33 -0.498 0.734 -0.498 1.202 0 0.493 0.164 0.901 0.499 1.23 0.345 0.321 0.758 0.475 1.256 0.475 z" fill="#fccc00"/><path d="m 67.7 257.43 v 5.971 c 0 0.235 -0.077 0.429 -0.223 0.57 -0.145 0.147 -0.335 0.217 -0.568 0.217 -0.235 0 -0.436 -0.07 -0.592 -0.217 -0.167 -0.14 -0.243 -0.335 -0.243 -0.57 v -5.971 h -2.237 l 2.328 -7.86 h -0.4 c -0.255 0.881 -0.47 1.59 -0.639 2.152 -0.152 0.56 -0.32 1.091 -0.466 1.602 -0.166 0.505 -0.277 0.824 -0.289 0.933 -0.101 0.334 -0.322 0.495 -0.668 0.495 l -0.176 -0.042 c -0.323 -0.119 -0.48 -0.328 -0.48 -0.626 0 -0.081 0.012 -0.148 0.044 -0.215 0.023 -0.058 0.09 -0.255 0.168 -0.59 0.09 -0.332 0.211 -0.746 0.356 -1.226 0.145 -0.488 0.302 -1.017 0.467 -1.584 0.168 -0.57 0.322 -1.119 0.511 -1.647 0.112 -0.405 0.356 -0.774 0.735 -1.093 0.377 -0.331 0.77 -0.481 1.179 -0.481 h 2.738 c 0.423 0 0.835 0.151 1.202 0.481 0.357 0.321 0.614 0.688 0.757 1.093 0.153 0.529 0.31 1.077 0.465 1.647 0.159 0.567 0.325 1.095 0.459 1.584 0.142 0.481 0.266 0.894 0.354 1.226 0.089 0.335 0.146 0.532 0.177 0.59 l 0.044 0.176 c 0 0.36 -0.168 0.57 -0.49 0.662 l -0.164 0.045 c -0.355 0 -0.578 -0.162 -0.667 -0.495 -0.025 -0.109 -0.124 -0.429 -0.256 -0.933 -0.156 -0.511 -0.314 -1.042 -0.492 -1.602 -0.178 -0.561 -0.387 -1.271 -0.642 -2.154 h -0.402 l 2.324 7.862 h -2.201 v 5.971 c 0 0.235 -0.067 0.429 -0.245 0.57 -0.157 0.147 -0.346 0.217 -0.578 0.217 -0.245 0 -0.425 -0.07 -0.578 -0.217 -0.145 -0.14 -0.211 -0.335 -0.211 -0.57 v -5.971 z m 0.22 -10.674 c 0.469 0 0.871 -0.154 1.182 -0.475 0.321 -0.329 0.489 -0.737 0.489 -1.23 0 -0.469 -0.168 -0.871 -0.489 -1.202 -0.31 -0.341 -0.714 -0.511 -1.182 -0.511 -0.499 0 -0.913 0.17 -1.257 0.511 -0.334 0.33 -0.498 0.734 -0.498 1.202 0 0.493 0.164 0.901 0.499 1.23 0.345 0.321 0.758 0.475 1.256 0.475 z" fill="#6a73ac"/></g><path d="m 55.15 258.86 c -2.713 -1.419 -4.961 -2.655 -4.996 -2.748 -0.034 -0.092 -1.934 -3.365 -4.221 -7.274 -2.287 -3.908 -4.093 -7.104 -4.01 -7.101 0.08 0.003 2.985 1.236 6.455 2.74 l 6.309 2.735 l 2.753 6.751 c 3.086 7.568 3.063 7.507 2.821 7.489 -0.096 -0.007 -2.395 -1.174 -5.109 -2.593 z" opacity="0.95" fill="#deecf1" stroke="#6a73ac" stroke-width="0.243"/><path d="m 59.41 251.95 c -0.6 0 -1.113 0.222 -1.547 0.65 -0.435 0.447 -0.659 0.968 -0.659 1.548 v 5.359 c 0 0.201 0.069 0.383 0.224 0.529 0.144 0.145 0.322 0.211 0.524 0.211 0.233 0 0.411 -0.066 0.555 -0.211 0.124 -0.147 0.19 -0.328 0.19 -0.529 v -4.792 h 0.387 v 13.266 c 0 0.255 0.112 0.492 0.324 0.673 0.199 0.201 0.432 0.287 0.7 0.287 0.29 0 0.523 -0.086 0.713 -0.287 0.201 -0.182 0.292 -0.418 0.292 -0.673 v -7.69 h 0.434 v 7.69 c 0 0.255 0.1 0.492 0.289 0.673 0.19 0.201 0.435 0.287 0.735 0.287 0.255 0 0.479 -0.086 0.679 -0.287 0.188 -0.182 0.274 -0.418 0.274 -0.673 v -13.266 h 0.405 v 4.792 c 0 0.201 0.064 0.383 0.198 0.529 0.16 0.145 0.344 0.211 0.545 0.211 0.236 0 0.415 -0.066 0.549 -0.211 0.121 -0.147 0.198 -0.328 0.198 -0.529 v -5.358 c 0 -0.578 -0.211 -1.1 -0.646 -1.546 -0.424 -0.43 -0.933 -0.65 -1.557 -0.65 h -3.806 m 1.913 -0.443 c 0.468 0 0.88 -0.154 1.212 -0.475 0.332 -0.33 0.501 -0.738 0.501 -1.23 0 -0.469 -0.171 -0.871 -0.502 -1.202 -0.333 -0.341 -0.745 -0.511 -1.211 -0.511 -0.491 0 -0.904 0.17 -1.215 0.511 -0.332 0.332 -0.488 0.734 -0.488 1.202 0 0.493 0.156 0.901 0.488 1.23 0.313 0.321 0.726 0.475 1.215 0.475 z" fill="#ff8e02" stroke-width="0.308"/><g fill="#deecf1" stroke="#6a73ac" stroke-width="0.243"><path d="m 89.85 224.54 l -4.129 -3.466 v -5.978 c 0 -4.982 0.049 -5.95 0.292 -5.807 0.16 0.094 2.039 1.475 4.174 3.067 l 3.882 2.896 l 0.008 6.381 c 0.005 3.51 -0.016 6.379 -0.045 6.377 -0.03 -0.002 -1.912 -1.564 -4.183 -3.47 z" opacity="0.95"/><path d="m 89.94 211.68 c -2.337 -1.776 -4.22 -3.257 -4.183 -3.291 0.037 -0.034 3.453 -1.753 7.592 -3.821 l 7.525 -3.76 l 4.482 2.756 c 2.465 1.516 4.507 2.835 4.537 2.932 0.05 0.162 -14.936 8.272 -15.468 8.37 -0.129 0.024 -2.147 -1.41 -4.485 -3.186 z" opacity="0.95"/><path d="m 94.56 221.79 l 0.057 -6.478 l 7.798 -4.164 c 4.289 -2.29 7.836 -4.164 7.883 -4.164 0.046 0 0.081 3.065 0.077 6.81 l -0.007 6.81 l -7.553 3.692 c -4.154 2.031 -7.724 3.755 -7.932 3.831 -0.357 0.131 -0.375 -0.226 -0.322 -6.339 z" opacity="0.95"/></g><g stroke-width="0.308"><path d="m 107.37 213.59 c -0.6 0 -1.113 0.222 -1.547 0.65 -0.435 0.447 -0.659 0.968 -0.659 1.548 v 5.359 c 0 0.201 0.069 0.383 0.224 0.529 0.144 0.145 0.322 0.211 0.524 0.211 0.233 0 0.411 -0.066 0.555 -0.211 0.124 -0.147 0.19 -0.328 0.19 -0.529 v -4.792 h 0.387 v 13.266 c 0 0.255 0.112 0.492 0.324 0.673 0.199 0.201 0.432 0.287 0.7 0.287 0.29 0 0.523 -0.086 0.713 -0.287 0.201 -0.182 0.292 -0.418 0.292 -0.673 v -7.69 h 0.434 v 7.69 c 0 0.255 0.1 0.492 0.289 0.673 0.19 0.201 0.435 0.287 0.735 0.287 0.255 0 0.479 -0.086 0.679 -0.287 0.188 -0.182 0.274 -0.418 0.274 -0.673 v -13.266 h 0.405 v 4.792 c 0 0.201 0.064 0.383 0.198 0.529 0.16 0.145 0.344 0.211 0.545 0.211 0.236 0 0.415 -0.066 0.549 -0.211 0.121 -0.147 0.198 -0.328 0.198 -0.529 v -5.358 c 0 -0.578 -0.211 -1.1 -0.646 -1.546 -0.424 -0.43 -0.933 -0.65 -1.557 -0.65 h -3.806 z m 1.913 -0.441 c 0.468 0 0.88 -0.154 1.212 -0.475 0.332 -0.33 0.501 -0.738 0.501 -1.23 0 -0.469 -0.171 -0.871 -0.502 -1.202 -0.333 -0.341 -0.745 -0.511 -1.211 -0.511 -0.491 0 -0.904 0.17 -1.215 0.511 -0.332 0.332 -0.488 0.734 -0.488 1.202 0 0.493 0.156 0.901 0.488 1.23 0.313 0.321 0.726 0.475 1.215 0.475 z" fill="#ff8e02"/><path d="m 105.57 234.89 v 5.971 c 0 0.235 -0.077 0.429 -0.223 0.57 -0.145 0.147 -0.335 0.217 -0.568 0.217 -0.235 0 -0.436 -0.07 -0.592 -0.217 -0.167 -0.14 -0.243 -0.335 -0.243 -0.57 v -5.971 h -2.237 l 2.328 -7.86 h -0.4 c -0.255 0.881 -0.47 1.59 -0.639 2.152 -0.152 0.56 -0.32 1.091 -0.466 1.602 -0.166 0.505 -0.277 0.824 -0.289 0.934 -0.101 0.334 -0.322 0.495 -0.668 0.495 l -0.176 -0.042 c -0.323 -0.119 -0.48 -0.328 -0.48 -0.626 0 -0.081 0.012 -0.148 0.044 -0.215 0.023 -0.058 0.09 -0.255 0.168 -0.59 0.09 -0.332 0.211 -0.746 0.356 -1.226 0.145 -0.488 0.302 -1.017 0.467 -1.584 0.168 -0.57 0.322 -1.119 0.511 -1.647 0.112 -0.405 0.356 -0.774 0.735 -1.093 0.377 -0.331 0.77 -0.481 1.179 -0.481 h 2.738 c 0.423 0 0.835 0.151 1.202 0.481 0.357 0.321 0.614 0.688 0.757 1.093 0.153 0.529 0.31 1.077 0.465 1.647 0.159 0.567 0.325 1.095 0.459 1.584 0.142 0.481 0.266 0.894 0.354 1.226 0.089 0.335 0.146 0.532 0.177 0.59 l 0.044 0.176 c 0 0.36 -0.168 0.57 -0.49 0.662 l -0.164 0.045 c -0.355 0 -0.578 -0.162 -0.667 -0.495 -0.025 -0.109 -0.124 -0.429 -0.256 -0.933 -0.156 -0.511 -0.314 -1.042 -0.492 -1.602 -0.178 -0.561 -0.387 -1.271 -0.642 -2.154 h -0.402 l 2.324 7.862 h -2.201 v 5.971 c 0 0.235 -0.067 0.429 -0.245 0.57 -0.157 0.147 -0.346 0.217 -0.578 0.217 -0.245 0 -0.425 -0.07 -0.578 -0.217 -0.145 -0.14 -0.211 -0.335 -0.211 -0.57 v -5.971 z m 0.22 -10.674 c 0.469 0 0.871 -0.154 1.182 -0.475 0.321 -0.329 0.489 -0.737 0.489 -1.23 0 -0.469 -0.168 -0.871 -0.489 -1.202 -0.31 -0.341 -0.714 -0.511 -1.182 -0.511 -0.499 0 -0.913 0.17 -1.257 0.511 -0.334 0.33 -0.498 0.734 -0.498 1.202 0 0.493 0.164 0.901 0.499 1.23 0.345 0.321 0.758 0.475 1.256 0.475 z" fill="#bddae8"/><path d="m 101.58 224.22 v 5.971 c 0 0.235 -0.077 0.429 -0.223 0.57 -0.145 0.147 -0.335 0.217 -0.568 0.217 -0.235 0 -0.436 -0.07 -0.592 -0.217 -0.167 -0.14 -0.243 -0.335 -0.243 -0.57 v -5.971 h -2.237 l 2.328 -7.86 h -0.4 c -0.255 0.881 -0.47 1.59 -0.639 2.152 -0.152 0.56 -0.32 1.091 -0.466 1.602 -0.166 0.505 -0.278 0.824 -0.289 0.933 -0.101 0.334 -0.322 0.495 -0.668 0.495 l -0.176 -0.042 c -0.323 -0.119 -0.48 -0.328 -0.48 -0.626 0 -0.081 0.012 -0.148 0.044 -0.215 0.023 -0.058 0.09 -0.255 0.168 -0.59 0.09 -0.332 0.211 -0.746 0.356 -1.226 0.145 -0.488 0.302 -1.017 0.467 -1.584 0.168 -0.57 0.322 -1.119 0.511 -1.647 0.112 -0.405 0.356 -0.774 0.735 -1.093 0.377 -0.331 0.77 -0.481 1.179 -0.481 h 2.738 c 0.423 0 0.835 0.151 1.202 0.481 0.357 0.321 0.614 0.688 0.757 1.093 0.153 0.529 0.31 1.077 0.465 1.647 0.159 0.567 0.325 1.096 0.459 1.584 0.142 0.481 0.266 0.894 0.354 1.226 0.089 0.335 0.146 0.532 0.177 0.59 l 0.044 0.176 c 0 0.36 -0.168 0.57 -0.49 0.662 l -0.164 0.045 c -0.355 0 -0.578 -0.162 -0.667 -0.495 -0.025 -0.109 -0.124 -0.429 -0.256 -0.933 -0.156 -0.511 -0.314 -1.042 -0.492 -1.602 -0.178 -0.561 -0.387 -1.271 -0.642 -2.154 h -0.402 l 2.324 7.862 h -2.201 v 5.971 c 0 0.235 -0.067 0.429 -0.245 0.57 -0.157 0.147 -0.346 0.217 -0.578 0.217 -0.245 0 -0.425 -0.07 -0.578 -0.217 -0.145 -0.14 -0.211 -0.335 -0.211 -0.57 v -5.971 z m 0.22 -10.674 c 0.469 0 0.871 -0.154 1.182 -0.475 0.321 -0.329 0.489 -0.737 0.489 -1.23 0 -0.469 -0.168 -0.871 -0.489 -1.202 -0.31 -0.341 -0.714 -0.511 -1.182 -0.511 -0.499 0 -0.913 0.17 -1.257 0.511 -0.334 0.33 -0.498 0.734 -0.498 1.202 0 0.493 0.164 0.901 0.499 1.23 0.345 0.321 0.758 0.475 1.256 0.475 z" fill="#6a73ac"/><path d="m 92.86 213.45 c -0.6 0 -1.113 0.222 -1.547 0.65 -0.435 0.447 -0.659 0.968 -0.659 1.548 v 5.359 c 0 0.201 0.069 0.383 0.224 0.529 0.144 0.145 0.322 0.211 0.524 0.211 0.233 0 0.411 -0.066 0.555 -0.211 0.124 -0.147 0.19 -0.328 0.19 -0.529 v -4.792 h 0.387 v 13.266 c 0 0.255 0.112 0.492 0.324 0.673 0.199 0.201 0.432 0.287 0.7 0.287 0.29 0 0.523 -0.086 0.713 -0.287 0.201 -0.182 0.292 -0.418 0.292 -0.673 v -7.69 h 0.434 v 7.69 c 0 0.255 0.1 0.492 0.289 0.673 0.19 0.201 0.435 0.287 0.735 0.287 0.255 0 0.479 -0.086 0.679 -0.287 0.188 -0.182 0.274 -0.418 0.274 -0.673 v -13.266 h 0.405 v 4.792 c 0 0.201 0.064 0.383 0.198 0.529 0.16 0.145 0.344 0.211 0.545 0.211 0.236 0 0.415 -0.066 0.549 -0.211 0.121 -0.147 0.198 -0.328 0.198 -0.529 v -5.358 c 0 -0.578 -0.211 -1.1 -0.646 -1.546 -0.424 -0.43 -0.933 -0.65 -1.557 -0.65 h -3.806 z m 1.913 -0.441 c 0.468 0 0.88 -0.154 1.212 -0.475 0.332 -0.33 0.501 -0.738 0.501 -1.23 0 -0.469 -0.171 -0.871 -0.502 -1.202 -0.333 -0.341 -0.745 -0.511 -1.211 -0.511 -0.491 0 -0.904 0.17 -1.215 0.511 -0.332 0.332 -0.488 0.734 -0.488 1.202 0 0.493 0.156 0.901 0.488 1.23 0.313 0.321 0.726 0.475 1.215 0.475 z" fill="#ff8e02"/></g><g transform="matrix(0.80254 0 0 0.80254 -3.513 166.37)" fill="#deecf1" stroke="#deecf1"><g transform="matrix(1.06391 0 0.1876 0.98312 -6.259 2.127)" aria-label="-" stroke-width="0.265"><g stroke-width="0.255"><path d="m 49.17 32.825 l -2.537 -3.513 l -0.025 0.01 q 0.403 0.779 0.585 1.2 l 1.137 2.632 l -0.473 0.185 l -1.903 -4.402 l 0.774 -0.303 l 2.328 3.285 l 0.019 -0.007 l -0.768 -3.896 l 0.789 -0.309 l 1.903 4.402 l -0.479 0.188 l -1.154 -2.671 q -0.133 -0.307 -0.465 -1.194 l -0.025 0.01 l 0.777 4.195 z"/><path d="m 54.667 30.839 l -0.923 -1.28 l -1.543 0.513 l 0.011 1.583 l -0.597 0.199 l -0.005 -5.139 l 0.613 -0.204 l 3.048 4.127 z m -1.261 -1.745 l -0.858 -1.2 q -0.251 -0.351 -0.429 -0.649 0.04 0.333 0.045 0.626 l 0.032 1.625"/><path d="m 56.15 28.424 l 0.472 1.83 l -0.598 0.154 l -1.213 -4.701 l 1.299 -0.335 q 1.653 -0.426 2.01 0.95 0.182 0.704 -0.163 1.215 -0.342 0.51 -1.191 0.729 z m -0.131 -0.508 l 0.547 -0.141 q 0.637 -0.164 0.851 -0.466 0.217 -0.303 0.09 -0.795 -0.231 -0.897 -1.319 -0.617 l -0.646 0.167 z"/></g><path d="m 63.53 28.797 l -0.728 0.127 l -2.412 -1.994 l 0.478 2.331 l -0.618 0.108 l -0.943 -4.6 l 0.618 -0.108 l 0.457 2.228 l 1.424 -2.556 l 0.684 -0.119 l -1.424 2.536 z" stroke-width="0.253"/><path d="m 67.27 28.373 l -2.701 0.277 l -0.542 -4.48 l 2.701 -0.277 l 0.061 0.503 l -2.104 0.216 l 0.168 1.385 l 1.979 -0.203 l 0.06 0.496 l -1.979 0.203 l 0.193 1.594 l 2.104 -0.216 z" stroke-width="0.242"/><g stroke-width="0.253"><path d="m 70.29 28.21 l -0.644 0.015 l -0.177 -4.09 l -1.439 0.033 l -0.022 -0.517 l 3.519 -0.079 l 0.022 0.517 l -1.436 0.032 z"/><path d="m 72.819 23.603 l 0.599 0.037 l -0.146 2.523 q -0.026 0.448 -0.07 0.8 l -0.051 0.472 l 0.021 0.001 l 2.208 -3.674 l 0.733 0.045 l -0.267 4.611 l -0.592 -0.037 l 0.145 -2.501 q 0.026 -0.442 0.138 -1.311 l -0.028 -0.002 l -2.216 3.693 l -0.74 -0.046 z"/></g><path d="m 80.02 29.09 l -0.584 -0.102 l 0.371 -2.134 l -1.828 -0.318 l -0.371 2.134 l -0.584 -0.102 l 0.796 -4.574 l 0.584 0.102 l -0.335 1.927 l 1.828 0.318 l 0.335 -1.927 l 0.584 0.102 z" stroke-width="0.244"/><path d="m 85.4 25.8 l -0.155 0.495 l -2.119 -0.573 l -1.212 3.866 l -0.617 -0.167 l 1.368 -4.361 z" stroke-width="0.252"/></g><path d="m 29.681 56.694 l 0.157 0.809 l -3.552 2.036 l 3.97 0.113 l 0.134 0.687 l -7.833 -0.223 l -0.134 -0.687 l 3.793 0.108 l -4.2 -2.198 l -0.148 -0.761 l 4.167 2.193 z" stroke-width="0.341"/><path d="m 29.761 54.45 q -0.486 1.842 -4.21 0.865 -3.699 -0.97 -3.212 -2.819 0.234 -0.886 1.325 -1.104 1.087 -0.222 2.867 0.245 1.781 0.467 2.621 1.198 0.841 0.731 0.608 1.614 z m -0.804 -0.211 q 0.158 -0.599 -0.484 -1.064 -0.641 -0.468 -2.121 -0.856 -1.494 -0.392 -2.27 -0.292 -0.779 0.095 -0.934 0.681 -0.308 1.167 2.592 1.927 2.91 0.763 3.216 -0.397 z" stroke-width="0.328"/><path d="m 31.642 48.936 l -0.347 0.576 l -2.915 -1.391 l -1.086 1.803 l 2.915 1.391 l -0.347 0.576 l -6.249 -2.981 l 0.347 -0.576 l 2.633 1.256 l 1.086 -1.803 l -2.633 -1.256 l 0.347 -0.576 z" stroke-width="0.316"/><g stroke-width="0.291"><path d="m 32.935 46.557 l -0.434 0.466 l -4.702 -2.98 l -0.971 1.041 l -0.594 -0.376 l 2.374 -2.545 l 0.594 0.376 l -0.969 1.038 z"/><path d="m 37.07 42.941 l -2.307 1.85 l -4.852 -3.768 l 2.307 -1.85 l 0.544 0.423 l -1.798 1.441 l 1.5 1.165 l 1.691 -1.356 l 0.538 0.418 l -1.691 1.356 l 1.726 1.34 l 1.798 -1.441 z"/><path d="m 40.875 40.453 l -0.57 0.363 l -2.073 -1.893 l -1.782 1.135 l 2.073 1.893 l -0.57 0.363 l -4.445 -4.059 l 0.57 -0.363 l 1.873 1.71 l 1.782 -1.135 l -1.873 -1.71 l 0.57 -0.363 z"/><path d="m 43.612 38.989 l -0.614 0.319 l -3.611 -3.797 l -1.373 0.714 l -0.456 -0.48 l 3.356 -1.745 l 0.456 0.48 l -1.369 0.712 z"/></g><path d="m 44.811 34.816 l -0.416 -0.689 l 2.241 -1.323 l 0.416 0.689 z" stroke-width="0.334"/></g><g stroke-width="0.308"><path d="m 87.966 273.17 v 5.971 c 0 0.235 -0.077 0.429 -0.223 0.57 -0.145 0.147 -0.335 0.217 -0.568 0.217 -0.235 0 -0.436 -0.07 -0.592 -0.217 -0.167 -0.14 -0.243 -0.335 -0.243 -0.57 v -5.971 h -2.237 l 2.328 -7.86 h -0.4 c -0.255 0.881 -0.47 1.59 -0.639 2.152 -0.152 0.56 -0.32 1.091 -0.466 1.602 -0.166 0.505 -0.277 0.824 -0.289 0.933 -0.101 0.334 -0.322 0.495 -0.668 0.495 l -0.176 -0.043 c -0.323 -0.12 -0.48 -0.328 -0.48 -0.626 0 -0.081 0.012 -0.148 0.044 -0.215 0.023 -0.058 0.09 -0.255 0.168 -0.59 0.09 -0.332 0.211 -0.746 0.356 -1.226 0.145 -0.488 0.302 -1.017 0.467 -1.584 0.168 -0.57 0.322 -1.119 0.511 -1.647 0.112 -0.405 0.356 -0.774 0.735 -1.093 0.377 -0.331 0.77 -0.481 1.179 -0.481 h 2.738 c 0.423 0 0.835 0.151 1.202 0.481 0.357 0.321 0.614 0.688 0.757 1.093 0.153 0.529 0.31 1.077 0.465 1.647 0.159 0.567 0.325 1.096 0.459 1.584 0.142 0.481 0.266 0.894 0.354 1.226 0.089 0.335 0.146 0.532 0.177 0.59 l 0.044 0.176 c 0 0.36 -0.168 0.57 -0.49 0.662 l -0.164 0.045 c -0.355 0 -0.578 -0.162 -0.667 -0.495 -0.025 -0.109 -0.124 -0.429 -0.256 -0.933 -0.156 -0.511 -0.314 -1.042 -0.492 -1.602 -0.178 -0.561 -0.387 -1.271 -0.642 -2.154 h -0.402 l 2.324 7.862 h -2.201 v 5.971 c 0 0.235 -0.067 0.429 -0.245 0.57 -0.157 0.147 -0.346 0.217 -0.578 0.217 -0.245 0 -0.425 -0.07 -0.578 -0.217 -0.145 -0.14 -0.211 -0.335 -0.211 -0.57 v -5.971 z m 0.22 -10.674 c 0.469 0 0.871 -0.154 1.182 -0.475 0.321 -0.329 0.489 -0.737 0.489 -1.23 0 -0.469 -0.168 -0.871 -0.489 -1.202 -0.31 -0.341 -0.714 -0.511 -1.182 -0.511 -0.499 0 -0.913 0.17 -1.257 0.511 -0.334 0.33 -0.498 0.734 -0.498 1.202 0 0.493 0.164 0.901 0.499 1.23 0.345 0.321 0.758 0.475 1.256 0.475 z" fill="#fccc00"/><path d="m 92.9 270.4 c -0.6 0 -1.113 0.222 -1.547 0.65 -0.435 0.448 -0.659 0.968 -0.659 1.548 v 5.359 c 0 0.201 0.069 0.383 0.224 0.529 0.144 0.145 0.322 0.211 0.524 0.211 0.233 0 0.411 -0.066 0.555 -0.211 0.124 -0.147 0.19 -0.328 0.19 -0.529 v -4.792 h 0.387 v 13.266 c 0 0.255 0.112 0.492 0.324 0.673 0.199 0.201 0.432 0.287 0.7 0.287 0.29 0 0.523 -0.086 0.713 -0.287 0.201 -0.182 0.292 -0.418 0.292 -0.673 v -7.69 h 0.434 v 7.69 c 0 0.255 0.1 0.492 0.289 0.673 0.19 0.201 0.435 0.287 0.735 0.287 0.255 0 0.479 -0.086 0.679 -0.287 0.188 -0.182 0.274 -0.418 0.274 -0.673 v -13.266 h 0.405 v 4.792 c 0 0.201 0.064 0.383 0.198 0.529 0.16 0.145 0.344 0.211 0.545 0.211 0.236 0 0.415 -0.066 0.549 -0.211 0.121 -0.147 0.198 -0.328 0.198 -0.529 v -5.358 c 0 -0.578 -0.211 -1.1 -0.646 -1.546 -0.424 -0.43 -0.933 -0.65 -1.557 -0.65 h -3.806 z m 1.913 -0.441 c 0.468 0 0.88 -0.154 1.212 -0.475 0.332 -0.33 0.501 -0.738 0.501 -1.23 0 -0.469 -0.171 -0.871 -0.502 -1.202 -0.333 -0.341 -0.745 -0.511 -1.211 -0.511 -0.491 0 -0.904 0.17 -1.215 0.511 -0.332 0.332 -0.488 0.734 -0.488 1.202 0 0.493 0.156 0.901 0.488 1.23 0.313 0.321 0.726 0.475 1.215 0.475 z" fill="#6a73ac"/></g></g></svg>