<svg xmlns="http://www.w3.org/2000/svg" width="670" height="450" viewBox="0 0 177.27083 119.0625"><defs><linearGradient id="0" gradientUnits="userSpaceOnUse" x1="42.966" x2="469.03" y1="469.03" y2="42.962"><stop stop-color="#ffd600"/><stop offset="0.5" stop-color="#ff0100"/><stop offset="1" stop-color="#d800b9"/></linearGradient><linearGradient id="1" gradientUnits="userSpaceOnUse" x1="163.04" x2="348.95" y1="348.95" y2="163.04"><stop stop-color="#ff6400"/><stop offset="0.5" stop-color="#ff0100"/><stop offset="1" stop-color="#fd0056"/></linearGradient><linearGradient id="2" gradientUnits="userSpaceOnUse" x1="370.93" x2="414.37" y1="141.07" y2="97.62"><stop stop-color="#f30072"/><stop offset="1" stop-color="#e50097"/></linearGradient></defs><g transform="matrix(0.84959 0 0 0.84959 164.9 -218.16)"><g stroke="#000"><g stroke-width="0.265"><path d="m -3.286 386.75 l -5.67 -5.859 -3.591 3.402 6.709 8.788 c 1.211 2.129 7.63 4.02 6.898 -3.213 l -6.331 -29.2 c -1.321 -4.053 -4.786 -5.682 -10.205 -5.103 -2.34 6.75 -13.575 4.28 -13.891 0 -4.799 -0.673 -8.117 0.801 -9.355 5.292 l -6.426 28.915 c -1.01 6.276 4.056 6.385 6.142 3.685 l 6.898 -9.449 -2.929 -3.02 -5.764 5.575 m 2.464 5.963 -0.152 3.22 32.557 -0.016 0.095 -2.646" fill="#019ba7"/><path d="m -176.97 371.07 c -3.138 -3.58 -3.809 -9.02 1.228 -14.174 1.612 -1.714 2.524 -5.471 0.378 -8.693 -3.46 -4.129 -5.804 -15.291 3.685 -22.02 6.916 -4.306 12.31 -2.628 16.347 0.283 5.933 4.592 7.822 12.299 5.953 15.969 -2.695 5.531 -0.994 7.217 0.189 9.355 5.586 5.838 4.563 12.93 -0.827 16.596 z" fill="#f45a28"/><g fill="#ed184e"><path d="m -147.3 384.13 -3.846 -5.922 -3.437 2.981 6.149 7.926 c 2.169 2.346 5.665 2.688 4.725 -2.268 l -6.993 -20.6 c -0.651 -3.489 -2.563 -5.454 -6.237 -5.292 -5.313 6.747 -9.307 2.89 -11.339 0.189 -2.956 -0.557 -5.107 0.746 -6.426 3.969 l -6.993 19.844 c -1.42 4.393 0.142 7.675 3.402 4.347 l 6.993 -7.938 -3.02 -3.02 -4.158 6.05"/><path d="m -173.8 384.23 0.425 11.694 20.93 -0.142 0.088 -11.695"/></g></g><path transform="scale(0.26458)" d="m -592.68 1396.18 c -0.233 -0.01 -0.476 0 -0.73 0.01 l -45.46 0.252 c -2.733 -0.063 -5.115 0.437 -4.797 5.303 l 0.447 29.27 c 0.639 3.243 -0.987 6.901 5.107 6.848 l 43.941 0 c 8.438 0.191 5.828 -3.35 6.395 -6.195 l -0.586 -29.664 c 0.311 -3.5 -0.826 -5.71 -4.32 -5.816 z" fill="#fff"/><g stroke-width="0.265"><g fill="#fabb85"><path d="m -173.79 378.81 1.554 -2.383 c 0.175 -1.138 0.034 -2.433 1.737 -2.806 2.183 -1.158 3.296 -0.223 3.341 2.806 -1.022 2.736 -2.185 2.371 -3.341 2.138 l -1.36 2.196 z"/><path d="m -151.81 378.79 -1.389 -1.802 c -0.006 -1.266 -0.381 -2.417 -1.804 -3.241 -3.239 -1.705 -3.914 0.644 -3.675 1.871 0.477 2 1.532 3.179 3.433 3.136 l 1.199 1.899 z"/><path d="m -159.81 334.53 c -3.807 4.49 -7.965 7.694 -13.363 6.348 2.657 19.757 18.426 20.543 20.713 -1.336 -3.489 -0.545 -5.999 -2.15 -7.35 -5.01 z"/></g><path d="m -55.643 384.91 c -0.334 -0.334 -4.944 -6.414 -4.944 -6.414 l -2.472 2.539 6.01 8.553 c 1.46 2.531 5.562 1.1 4.343 -2.272 -0.2 -0.334 -6.949 -21.916 -7.149 -22.18 -1.419 -3.769 -4.208 -5.159 -5.01 -4.209 -2.63 6.369 -8.888 9.128 -19.18 6.949 l -1.729 27.942 c 0 0 -5.509 -0.047 24.428 0.091 l 0.688 -11.328" fill="#30355d"/></g><path transform="scale(0.26458)" d="m -263.34 1396.06 c -2.975 0.04 -3.507 1.744 -3.914 3.535 l -0.252 34.09 c 0.052 2.73 1.236 4.167 3.787 4.04 l 16.668 0 c 2.564 -0.062 3.858 -0.47 4.04 -3.03 0.032 -11.49 0.03 -22.98 0 -34.471 -0.061 -2.99 -1.723 -3.98 -3.914 -4.01 z" fill="#fff"/><g stroke-width="0.265"><path d="m -60.59 378.5 -1.537 -1.771 c 0.221 -1.04 -0.321 -1.978 -1.437 -2.84 -2.342 -1.314 -3.972 -0.69 -3.742 1.804 0.339 2.292 1.913 2.967 3.274 3.01 l 0.969 2.339 z" fill="#fabb85"/><path d="m -67.54 335.35 c 2.287 4.131 4.04 5.238 5.575 5.103 l 0.661 1.89 c 2.246 -0.8 1.972 -5.17 1.228 -10.205 12.944 -10.277 -9.332 -19.246 -9.355 -7.654 -8.962 -2.8 -18.18 6.224 -13.13 17.765 5.559 2.104 10.472 -0.954 15.02 -6.898 z" fill="#f89321"/></g><path transform="scale(0.26458)" d="m -53.85 1398.18 -58.928 0.357 c -4.369 -0.104 -4.843 2.172 -5 4.643 l 0.062 38.21 c 0.142 5.836 2.01 6.922 4.938 6.967 l 58.04 0 c 4.587 0 5.576 -2.467 5.315 -6.113 l -0.492 -40.494 c -0.231 -1.771 -0.66 -3.435 -3.93 -3.57 z"/><g stroke-width="0.265"><g fill="#fabb85"><path d="m -35.04 380.99 1.643 -2.228 c -0.007 -1.526 0.799 -3.486 2.773 -3.809 2.642 -0.659 4.161 -0.403 3.809 3.01 -0.44 3.082 -2.101 3.271 -4.109 3.408 l -1.67 2.07 z"/><path d="m -11.878 383.76 -1.536 -2.128 c -2.704 -0.027 -4.355 -1.569 -4.677 -4.477 -0.257 -1.665 1.123 -3.548 4.01 -2.806 1.947 0.72 3.52 3.501 2.739 4.577 l 1.82 2.435"/></g><path d="m -15.62 331.26 c 0.891 1.291 1.793 2.561 3.207 2.806 l -0.267 2.405 c 9.916 -20.298 -26.496 -23.948 -19.644 0.2 l 0.535 -1.27 c 7.568 1.193 12.511 -0.716 16.17 -4.143 z" fill="#323232"/><g fill="#fabb85"><path d="m -12.68 336.47 c 3.674 1.139 0.677 5.982 -0.869 4.744 -7.497 15.694 -14.455 8.134 -17.11 0.134 -1.809 0.794 -4.247 -3.117 -1.67 -4.677 l 0.535 -1.27 c 7.284 1.189 12.41 -0.55 16.17 -4.143 0.957 1.494 1.999 2.569 3.207 2.806 z"/><path d="m -29.367 355.57 c 2.637 0.977 3.574 -6.144 3.265 -6.642 2.999 2.471 5.539 1.542 7.911 -0.625 c -0.04 3.841 -0.373 7.889 2.715 7.267 -2.835 7.33 -14.07 3.591 -13.891 0 z"/></g></g></g><g transform="translate(-184.14 -0.013)"><g><g stroke="#000" stroke-width="0.265"><path d="m 50.575 386.66 5.599 -6.402 3.851 4.04 -6.331 8.599 c -3.947 2.507 -7.374 3.803 -7.465 -2.646 l 6.142 -29.388 c 1.398 -4.652 4.524 -6.402 9.07 -5.764 8.454 9.55 7.807 9.704 16.725 -0.472 4.683 0.231 8.219 1.767 9.26 6.142 l 4.063 35.06 c 0 0 1.294 -0.094 -38.27 -0.094 l 0.189 -2.74" fill="#903b36"/><path d="m 69.76 372.49 0.378 23.15 l -0.85 0 l -0.26 -24.734 z" fill="#803530"/><path d="m 60.863 381.5 -0.287 -11.146 c 0.016 -0.919 0.243 -1.424 1.694 -1.348 l 4.697 0 c 1.327 -0.046 1.416 0.651 1.515 1.342 l -0.151 11.24 c 0.021 0.744 0.148 1.588 -0.742 1.481 l -5.901 0.102 c -1.152 0.034 -0.701 -1.077 -0.825 -1.671"/><path d="m 56.718 380.8 2.031 -2.574 c -0.766 -2.857 1.78 -3.832 2.405 -4.01 2.867 -0.564 4.641 0.786 4.245 3.235 -0.4 1.777 -1.014 3.473 -4.178 3.714 l -2.138 2.071 z" fill="#fabb85"/><path d="m 66.43 330.32 c 12.281 -7.726 10.513 1.194 12.896 5.345 0.644 -1.096 1.281 -2.237 1.403 -6.815 -0.062 -3.977 -1.319 -5.733 -3.875 -5.078 -3.821 -5.188 -8.166 -4.614 -12.695 -2 -2.906 2.888 -5.832 5.579 -9.09 5.145 1.903 2.656 3.576 4.158 4.944 4.143 -1.016 1.551 -0.495 3.082 0.267 4.811 0.486 -3.307 1.131 -4.806 6.147 -5.546 z" fill="#a99089"/><g fill="#fabb85"><path d="m 60.28 335.87 c -1.826 -0.019 -2.447 0.63 -2 1.871 0.421 3.102 1.509 2.735 2.539 2.673 1.377 3.365 1.936 3.952 3.408 5.947 2.904 4.239 7.747 4.044 10.156 0.535 1.825 -2.125 3.03 -2.768 4.143 -6.615 1.477 0.226 2.593 -0.229 2.94 -2.138 0.275 -1.68 -0.524 -2.43 -2.138 -2.472 -2.466 -3.461 -0.394 -13.28 -12.896 -5.345 -4.054 0.038 -5.998 1.981 -6.147 5.546 z"/><path d="m 65.65 348.01 c -0.106 3.19 -0.439 6.176 -3.02 7.134 4.553 5.198 9.227 5.29 14.03 -0.094 -1.557 -0.541 -2.587 -3.153 -2.885 -7.474 c -2.231 2.657 -5.916 2.323 -8.124 0.434 z"/></g></g><path d="m 65.722 349.39 c 2.641 2.159 5.246 1.989 8.08 -0.133 l -0.142 -1.332 c -2.58 2.469 -5.926 2.052 -7.876 0.375 z" fill="#e5a776"/></g><g stroke="#000" stroke-width="0.265"><path d="m 78.17 354.63 c -0.427 0.374 -0.952 0.45 -1.512 0.425 -3.918 4.385 -8.239 6.461 -14.03 0.094 -0.424 0.106 -0.8 0.018 -1.181 -0.047 l 8.315 17.387 z" fill="#fff"/><path d="m 85 395.62 l -2.268 0 l 0.85 -20.694 z" fill="#803530"/></g></g><g stroke="#000"><path transform="scale(0.26458)" d="m -144.49 1489.54 c 0.141 -3.092 0.38 -5.784 0.53 -5.982 1.494 -1.975 22.572 -30.974 22.932 -31.551 0.429 -0.687 0.379 -0.869 -0.469 -1.717 l -0.949 -0.949 1.985 -2.457 c 1.092 -1.351 2.051 -2.392 2.131 -2.312 0.08 0.08 0.5 0.848 0.933 1.707 1.522 3.02 -0.805 2.831 34.18 2.726 28.728 -0.086 30.974 -0.137 32.04 -0.722 0.633 -0.346 1.37 -1.046 1.636 -1.555 l 0.485 -0.925 1.335 1.858 c 1.817 2.529 1.834 2.634 0.591 3.68 -0.6 0.505 -1.091 0.984 -1.091 1.064 0 0.08 5.703 7.604 12.674 16.719 l 12.674 16.574 0.005 4.167 c 0.003 2.292 -0.093 4.421 -0.212 4.732 -0.196 0.512 -5.898 0.565 -60.944 0.565 l -60.728 0 z" fill="#019ba7" fill-rule="evenodd" stroke-width="0.54"/><g stroke-width="0.265"><path d="m -80.19 395.82 -0.975 0.016 0.802 -18.874 z" fill="#2a2f57"/><g fill="#fabb85"><path d="m -74.936 354.15 c -0.186 4.62 -1.216 7.553 -4.04 6.898 -3.169 -0.173 -4.794 2.204 -5.065 6.819 7.632 0.924 15.348 2.066 19.18 -6.949 -4.571 0.538 -3.061 -4.764 -3.528 -6.957 -2.37 1.497 -4.555 1.59 -6.544 0.189 z"/><path d="m -62.63 345.93 c 2.886 0.731 3.628 -2.315 1.323 -3.591 l -0.661 -1.89 c -2.25 0.6 -3.869 -2.507 -5.575 -5.103 -4.116 5.542 -8.844 8.86 -15.02 6.898 -3.267 1.524 0.828 5.05 1.795 3.591 3.455 8.349 10.553 15.898 18.14 0.094 z"/><path d="m -168.27 361.15 c 2.103 -0.521 1.39 -4 1.461 -6.676 1.94 1.288 5.41 2.046 8.494 -0.297 -0.064 2.564 -1.046 7.1 1.384 6.783 -4.04 5.187 -7.801 4.826 -11.339 0.189 z"/></g></g></g></g><g transform="matrix(0.03521 0 0 0.03521 15.858 8.07)"><path d="m 487.25 231.25 c 0 127.72 -103.54 231.25 -231.25 231.25 -127.71 0 -231.25 -103.54 -231.25 -231.25 0 -127.71 103.54 -231.25 231.25 -231.25 127.71 0 231.25 103.54 231.25 231.25" fill="#80e0dc"/><g fill="#00a8b0"><path d="m 487.25 231.25 c 0 127.72 -103.53 231.25 -231.25 231.25 -23.645 0 -46.47 -3.551 -67.957 -10.148 9.922 1.297 20.04 1.969 30.32 1.969 127.72 0 231.25 -103.54 231.25 -231.25 c 0 -104.07 -68.74 -192.07 -163.29 -221.11 113.39 14.852 200.93 111.85 200.93 229.28"/><path d="m 376.55 343.29 c 22.254 -52.973 28.11 -113.03 15.859 -171.89 -3.754 -18.07 -9.1 -35.484 -15.965 -52.16 10.281 -2.152 20.367 -4.598 30.23 -7.332 10.965 -3.039 25.17 -7.27 38.828 -13.23 -3.055 -4.352 -6.25 -8.598 -9.602 -12.723 -11.727 4.824 -23.813 8.402 -33.36 11.05 -10.594 2.938 -21.441 5.527 -32.535 7.754 c -6.488 -13.582 -14.04 -26.617 -22.637 -39.04 -17.13 -24.777 -37.742 -46.14 -61.49 -63.801 l -0.008 0 c -3.879 -0.504 -7.777 -0.906 -11.715 -1.215 -5.734 -0.445 -11.539 -0.684 -17.387 -0.691 l -0.012 0 c -0.02 -0.012 -0.031 -0.012 -0.051 -0.012 l -1.422 0 c -0.023 0 -0.031 0 -0.055 0.012 l -0.008 0 c -5.848 0.008 -11.652 0.246 -17.387 0.691 -3.938 0.309 -7.836 0.711 -11.715 1.215 l -0.012 0 c -23.746 17.656 -44.36 39.02 -61.49 63.801 -8.773 12.684 -16.469 26 -23.04 39.891 -22.05 -4.344 -44.23 -10.602 -65.51 -19.637 -3.344 4.125 -6.539 8.363 -9.582 12.715 22.359 9.848 45.621 16.676 68.71 21.418 -6.703 16.41 -11.922 33.547 -15.613 51.29 -12.188 58.54 -6.453 118.26 15.5 171.03 -23.06 4.73 -46.27 11.559 -68.6 21.387 3.043 4.352 6.238 8.59 9.578 12.715 21.297 -9.04 43.488 -15.305 65.54 -19.637 7.105 14.664 15.52 28.699 25.21 41.922 17.777 24.25 38.15 45.25 59.883 61.852 3.723 0.465 7.477 0.844 11.25 1.145 5.691 0.434 11.457 0.668 17.262 0.68 l 0.012 0 c 0.019 0.012 0.031 0.012 0.051 0.012 l 1.445 0 c 0.019 0 0.031 0 0.051 -0.012 l 0.012 0 c 5.805 -0.008 11.57 -0.246 17.262 -0.68 3.773 -0.301 7.527 -0.68 11.25 -1.145 21.727 -16.605 42.11 -37.598 59.883 -61.852 9.508 -12.973 17.789 -26.719 24.813 -41.09 11.09 2.238 21.953 4.828 32.555 7.766 9.547 2.648 21.633 6.23 33.36 11.05 3.352 -4.125 6.547 -8.371 9.602 -12.727 -13.652 -5.957 -27.863 -10.188 -38.824 -13.23 -9.84 -2.734 -19.883 -5.168 -30.13 -7.301 z m 0.719 -168.74 c 11.84 56.891 5.848 114.9 -16.25 165.74 -14.449 -2.559 -29.28 -4.551 -44.43 -5.973 8.238 -49.41 10.383 -104.59 5.781 -158.75 -1.379 -16.305 -3.348 -32.14 -5.867 -47.37 15.16 -1.422 29.988 -3.414 44.44 -5.973 7.082 16.676 12.551 34.16 16.332 52.34 z m -121.27 286.88 c -11.313 -16.777 -22.03 -40.652 -31.16 -69.53 -4.328 -13.664 -8.04 -28.27 -11.125 -43.578 12.352 -0.668 24.22 -0.988 35.391 -1.145 16.738 -0.227 33.14 0.176 49.18 1.219 -3.086 15.281 -6.797 29.863 -11.12 43.504 -9.137 28.875 -19.852 52.75 -31.16 69.53 z m -7.113 -129.72 c -11.965 0.168 -24.719 0.516 -38.02 1.281 -8.199 -48.41 -10.352 -102.72 -5.824 -156.12 1.391 -16.344 3.371 -32.18 5.906 -47.36 13.273 0.762 26.01 1.113 37.941 1.277 3.145 0.043 6.277 0.063 9.391 0.063 14.512 0 28.773 -0.473 42.766 -1.422 2.539 15.199 4.527 31.07 5.922 47.45 4.523 53.43 2.371 107.77 -5.848 156.2 -17.03 -1.156 -34.453 -1.609 -52.23 -1.363 z m 7.113 -330.68 c 18.43 26.934 33.02 66.36 42.25 113.07 -16.02 1.039 -32.422 1.441 -49.15 1.215 -11.16 -0.156 -23.02 -0.473 -35.36 -1.145 c 9.223 -46.754 23.824 -86.2 42.26 -113.14 m 78.65 73.48 c 7.332 10.602 13.859 21.668 19.57 33.16 -13.176 2.227 -26.664 3.969 -40.465 5.219 -6.848 -35.16 -16.672 -66.55 -28.863 -92.17 18.953 15.336 35.617 33.33 49.758 53.789 z m -157.3 0 c 14.14 -20.457 30.805 -38.453 49.758 -53.789 -12.219 25.68 -22.06 57.16 -28.906 92.42 -13.262 -1.031 -26.945 -2.535 -40.785 -4.73 5.797 -11.758 12.449 -23.07 19.934 -33.898 z m -42.617 100.04 c 3.723 -17.902 9.08 -35.12 16.01 -51.563 15.191 2.559 30.2 4.281 44.715 5.457 -2.496 15.15 -4.453 30.906 -5.824 47.12 -4.59 54.07 -2.465 109.16 5.742 158.5 -14.52 1.176 -29.531 2.898 -44.723 5.457 -21.832 -50.656 -27.699 -108.36 -15.922 -164.96 z m 44.566 215.11 c -8.258 -11.273 -15.551 -23.18 -21.828 -35.578 13.805 -2.195 27.449 -3.703 40.68 -4.734 3.27 16.613 7.262 32.445 11.941 47.22 4.145 13.08 9.859 29.09 17.13 44.703 -17.254 -14.457 -33.461 -31.883 -47.922 -51.609 z m 153.41 0 c -14.461 19.727 -30.668 37.15 -47.922 51.609 7.27 -15.613 12.984 -31.625 17.13 -44.703 4.66 -14.703 8.629 -30.449 11.898 -46.969 13.758 1.258 27.21 2.988 40.35 5.207 -6.195 12.137 -13.352 23.801 -21.457 34.855 z"/></g><path d="m 500.58 289.68 l -489.16 0 c -6.309 0 -11.422 -5.113 -11.422 -11.422 l 0 -69.61 c 0 -6.305 5.113 -11.418 11.422 -11.418 l 489.16 0 c 6.309 0 11.422 5.113 11.422 11.418 l 0 69.61 c 0 6.309 -5.113 11.422 -11.422 11.422 z" fill="#e7e7e7"/><g fill="#5a5a5a"><path d="m 57.01 257.59 c 0 1.105 -1.66 2.27 -3.602 2.27 -2.105 0 -3.547 -1.164 -3.547 -2.27 l 0 -37.19 c 0 -1.332 1.441 -2.219 3.547 -2.219 1.938 0 3.602 0.887 3.602 2.219 l 0 17.01 c 1 -2.16 3.492 -4.211 6.984 -4.211 5.098 0 9.531 5.098 9.531 11.25 l 0 13.13 c 0 1.496 -1.828 2.273 -3.602 2.273 -1.664 0 -3.547 -0.777 -3.547 -2.273 l 0 -13.13 c 0 -2.496 -2.219 -4.988 -4.824 -4.988 -2.27 0 -4.543 1.883 -4.543 4.988 z"/><path d="m 89.27 250.88 c 0 2.16 0.777 2.938 3.105 2.938 l 2.16 0 c 2.051 0 3.047 1.496 3.047 2.992 0 1.551 -0.996 3.047 -3.047 3.047 l -2.16 0 c -6.652 0 -10.254 -2.715 -10.254 -8.977 l 0 -26.879 c 0 -1.328 1.887 -2.219 3.547 -2.219 1.828 0 3.602 0.891 3.602 2.219 l 0 9.531 l 6.543 0 c 1.164 0 1.828 1.332 1.828 2.605 0 1.328 -0.664 2.602 -1.828 2.602 l -6.543 0 z"/><path d="m 111.82 250.88 c 0 2.16 0.773 2.938 3.105 2.938 l 2.16 0 c 2.051 0 3.047 1.496 3.047 2.992 0 1.551 -0.996 3.047 -3.047 3.047 l -2.16 0 c -6.652 0 -10.254 -2.715 -10.254 -8.977 l 0 -26.879 c 0 -1.328 1.883 -2.219 3.547 -2.219 1.828 0 3.602 0.891 3.602 2.219 l 0 9.531 l 6.539 0 c 1.164 0 1.828 1.332 1.828 2.605 0 1.328 -0.664 2.602 -1.828 2.602 l -6.539 0 z"/><path d="m 134.05 235.75 l 0 1.66 c 1.273 -2.16 3.934 -4.211 7.48 -4.211 5.539 0 9.918 5.098 9.918 11.25 l 0 4.543 c 0 5.93 -4.543 11.363 -9.695 11.363 -3.328 0 -6.207 -2.109 -7.262 -4.379 l 0 13.855 c 0 1.164 -1.664 2.27 -3.656 2.27 -2.051 0 -3.492 -1.105 -3.492 -2.27 l 0 -34.09 c 0 -1.328 1.496 -2.215 3.379 -2.215 1.941 0 3.328 0.887 3.328 2.219 z m 10.25 8.699 c 0 -2.496 -2.27 -4.988 -5.04 -4.988 -2.328 0 -4.766 1.883 -4.766 4.988 l 0 5.543 c 0 1.164 2.051 4.102 4.875 4.102 2.605 0 4.934 -2.551 4.934 -5.102 z"/><path d="m 171.79 252.54 c 0 -4.875 -13.13 -1.828 -13.13 -11.08 0 -3.934 2.492 -8.258 9.918 -8.258 4.488 0 8.813 1.551 8.813 3.602 0 1 -0.941 3.438 -2.605 3.438 -1.328 0 -3.047 -1.605 -6.094 -1.605 -2.773 0 -3.879 1.383 -3.879 2.492 0 4.047 13.301 1.273 13.301 11.141 0 4.93 -3.66 8.09 -10.199 8.09 -5.652 0 -10.03 -2.328 -10.03 -4.766 0 -1.164 1 -3.16 2.383 -3.16 1.609 0 2.828 2.496 7.484 2.496 3.27 -0.004 4.04 -1.277 4.04 -2.387 z"/><path d="m 192.8 240.24 c 0 1.992 -1.719 3.77 -3.715 3.77 -2.16 0 -3.77 -1.773 -3.77 -3.77 0 -2.051 1.609 -3.77 3.77 -3.77 1.996 0 3.715 1.719 3.715 3.77 z m 0 16.184 c 0 1.992 -1.719 3.766 -3.715 3.766 -2.16 0 -3.77 -1.773 -3.77 -3.766 0 -2.051 1.609 -3.77 3.77 -3.77 1.996 0 3.715 1.719 3.715 3.77 z"/><path d="m 224.45 219.62 c 0 0.332 -0.055 0.664 -0.223 0.996 l -19.895 40.24 c -0.391 0.773 -1.273 1.219 -2.164 1.219 -1.605 0 -2.656 -1.273 -2.656 -2.438 0 -0.336 0.109 -0.668 0.273 -0.945 l 19.898 -40.4 c 0.387 -0.777 1.164 -1.164 1.992 -1.164 1.332 0 2.773 0.996 2.773 2.492 z"/><path d="m 241.18 219.62 c 0 0.332 -0.055 0.664 -0.219 0.996 l -19.898 40.24 c -0.387 0.773 -1.273 1.219 -2.16 1.219 -1.605 0 -2.66 -1.273 -2.66 -2.438 0 -0.336 0.109 -0.668 0.277 -0.945 l 19.895 -40.4 c 0.391 -0.777 1.164 -1.164 1.996 -1.164 1.328 0 2.77 0.996 2.77 2.492 z"/><path d="m 273.22 259.19 c -0.391 0.941 -1.609 1.273 -2.828 1.273 -1.387 0 -2.605 -0.441 -2.938 -1.273 l -4.27 -12.08 -4.211 12.03 c -0.332 0.887 -1.66 1.328 -3.047 1.328 -1.164 0 -2.383 -0.332 -2.773 -1.328 l -8.531 -21.895 c -0.223 -0.441 -0.277 -0.773 -0.277 -1.051 0 -1.719 2.77 -2.938 4.656 -2.938 0.941 0 1.77 0.387 2.051 1.164 l 5.539 15.738 4.156 -13.688 c 0.391 -1.277 1.332 -1.441 2.438 -1.441 1.055 0 2.051 0.164 2.441 1.441 l 4.102 13.742 5.594 -15.793 c 0.277 -0.723 1.055 -1.164 2.055 -1.164 1.77 0 4.598 1.219 4.598 2.992 0 0.332 -0.055 0.719 -0.219 0.996 z"/><path d="m 314.96 259.19 c -0.391 0.941 -1.609 1.273 -2.828 1.273 -1.387 0 -2.602 -0.441 -2.938 -1.273 l -4.266 -12.08 -4.215 12.03 c -0.332 0.887 -1.66 1.328 -3.047 1.328 -1.164 0 -2.383 -0.332 -2.77 -1.328 l -8.535 -21.895 c -0.223 -0.441 -0.277 -0.773 -0.277 -1.051 0 -1.719 2.77 -2.938 4.652 -2.938 0.945 0 1.773 0.387 2.051 1.164 l 5.543 15.738 4.156 -13.688 c 0.391 -1.277 1.332 -1.441 2.438 -1.441 1.055 0 2.051 0.164 2.438 1.441 l 4.105 13.742 5.598 -15.793 c 0.273 -0.723 1.051 -1.164 2.047 -1.164 1.773 0 4.602 1.219 4.602 2.992 0 0.332 -0.055 0.719 -0.223 0.996 z"/><path d="m 356.69 259.19 c -0.387 0.941 -1.605 1.273 -2.824 1.273 -1.387 0 -2.605 -0.441 -2.938 -1.273 l -4.27 -12.08 -4.211 12.03 c -0.332 0.887 -1.664 1.328 -3.051 1.328 -1.164 0 -2.383 -0.332 -2.77 -1.328 l -8.535 -21.895 c -0.223 -0.441 -0.277 -0.773 -0.277 -1.051 0 -1.719 2.773 -2.938 4.656 -2.938 0.941 0 1.773 0.387 2.051 1.164 l 5.543 15.738 4.156 -13.688 c 0.387 -1.277 1.328 -1.441 2.438 -1.441 1.055 0 2.051 0.164 2.438 1.441 l 4.102 13.742 5.598 -15.793 c 0.277 -0.723 1.055 -1.164 2.051 -1.164 1.773 0 4.602 1.219 4.602 2.992 0 0.332 -0.059 0.719 -0.223 0.996 z"/></g></g><path d="m 97.91 5.503 l 0 16.921 l 9.01 0 l 0 -6.536 l -2.203 0 l 0 -2.668 l 2.203 0 l 0 -2.241 c 0 -1.63 1.321 -2.951 2.951 -2.951 l 2.303 0 l 0 2.399 l -1.648 0 c -0.518 0 -0.938 0.42 -0.938 0.938 l 0 1.855 l 2.544 0 l -0.352 2.668 l -2.193 0 l 0 6.536 l 5.241 0 l 0 -16.921" fill="#3a559f" stroke-width="0.037"/><g transform="matrix(0.03844 0 0 0.03844 135.81 10.872)"><path d="m 510.46 150.45 c -1.246 -27.25 -5.574 -45.859 -11.902 -62.14 -6.426 -17.08 -16.504 -32.555 -29.527 -45.34 -12.785 -13.02 -28.26 -23.11 -45.34 -29.535 -16.285 -6.324 -34.891 -10.648 -62.14 -11.887 -27.301 -1.25 -36.02 -1.547 -105.55 -1.547 -69.52 0 -78.25 0.297 -105.55 1.539 -27.25 1.246 -45.855 5.574 -62.14 11.902 -17.08 6.426 -32.555 16.504 -45.34 29.527 -13.02 12.785 -23.11 28.26 -29.535 45.34 -6.324 16.285 -10.648 34.895 -11.887 62.14 -1.25 27.305 -1.547 36.02 -1.547 105.55 c 0 69.53 0.297 78.25 1.547 105.55 1.242 27.25 5.57 45.855 11.898 62.14 6.426 17.08 16.504 32.555 29.527 45.34 12.785 13.02 28.26 23.1 45.34 29.527 16.281 6.332 34.891 10.656 62.14 11.902 27.305 1.246 36.02 1.539 105.55 1.539 69.52 0 78.25 -0.293 105.55 -1.539 27.25 -1.246 45.855 -5.57 62.14 -11.902 34.387 -13.297 61.57 -40.48 74.867 -74.867 6.332 -16.285 10.656 -34.895 11.902 -62.14 c 1.242 -27.305 1.539 -36.02 1.539 -105.55 c 0 -69.53 -0.297 -78.25 -1.539 -105.55 z m -46.08 209 c -1.137 24.961 -5.309 38.516 -8.813 47.535 -8.613 22.328 -26.26 39.973 -48.586 48.586 -9.02 3.504 -22.574 7.676 -47.535 8.813 c -26.988 1.234 -35.09 1.492 -103.45 1.492 c -68.36 0 -76.46 -0.258 -103.45 -1.492 -24.957 -1.137 -38.512 -5.309 -47.535 -8.813 -11.12 -4.105 -21.18 -10.648 -29.434 -19.15 -8.504 -8.258 -15.05 -18.313 -19.15 -29.434 -3.504 -9.02 -7.676 -22.574 -8.813 -47.535 c -1.23 -26.992 -1.492 -35.09 -1.492 -103.45 c 0 -68.36 0.262 -76.45 1.492 -103.45 1.141 -24.961 5.309 -38.516 8.813 -47.535 4.105 -11.121 10.652 -21.18 19.15 -29.437 8.258 -8.504 18.316 -15.05 29.437 -19.15 9.02 -3.508 22.574 -7.676 47.535 -8.816 c 26.992 -1.23 35.09 -1.492 103.45 -1.492 l -0.004 0 c 68.36 0 76.45 0.262 103.45 1.496 24.961 1.137 38.512 5.309 47.535 8.813 11.12 4.105 21.18 10.648 29.434 19.15 8.504 8.258 15.05 18.316 19.15 29.437 3.508 9.02 7.68 22.574 8.816 47.535 1.23 26.992 1.492 35.09 1.492 103.45 0 68.36 -0.258 76.45 -1.492 103.45 z" fill="url(#0)"/><path d="m 256 124.54 c -72.6 0 -131.46 58.859 -131.46 131.46 0 72.6 58.855 131.46 131.46 131.46 72.61 0 131.46 -58.855 131.46 -131.46 0 -72.6 -58.855 -131.46 -131.46 -131.46 z m 0 216.79 c -47.12 -0.004 -85.33 -38.21 -85.33 -85.34 0 -47.12 38.2 -85.33 85.33 -85.33 47.13 0.004 85.33 38.21 85.33 85.33 0 47.13 -38.21 85.34 -85.34 85.34 z" fill="url(#1)"/><path d="m 423.37 119.35 c 0 16.965 -13.754 30.719 -30.719 30.719 -16.969 0 -30.723 -13.754 -30.723 -30.719 0 -16.969 13.754 -30.723 30.723 -30.723 16.965 0 30.719 13.754 30.719 30.723 z" fill="url(#2)"/></g><g fill="#5b88bf" fill-opacity="0.941"><path d="m 545.45 400.3 c -0.664 -1.431 -1.283 -2.618 -1.858 -3.569 -9.514 -17.13 -27.695 -38.17 -54.53 -63.1 l -0.567 -0.571 -0.284 -0.28 -0.287 -0.287 l -0.288 0 c -12.18 -11.611 -19.893 -19.418 -23.12 -23.415 -5.91 -7.614 -7.234 -15.321 -4 -23.13 2.282 -5.9 10.854 -18.36 25.696 -37.4 7.807 -10.09 13.99 -18.18 18.556 -24.267 32.931 -43.78 47.21 -71.76 42.828 -83.939 l -1.701 -2.847 c -1.143 -1.714 -4.093 -3.282 -8.846 -4.712 -4.764 -1.427 -10.853 -1.663 -18.278 -0.712 l -82.22 0.568 c -1.332 -0.472 -3.234 -0.428 -5.712 0.144 -2.475 0.572 -3.713 0.859 -3.713 0.859 l -1.431 0.715 -1.136 0.859 c -0.952 0.568 -1.999 1.567 -3.142 2.995 -1.137 1.423 -2.088 3.093 -2.848 4.996 -8.952 23.03 -19.13 44.44 -30.553 64.24 -7.04 11.803 -13.511 22.03 -19.418 30.693 -5.899 8.658 -10.848 15.04 -14.842 19.13 -4 4.093 -7.61 7.372 -10.852 9.849 -3.237 2.478 -5.708 3.525 -7.419 3.142 -1.715 -0.383 -3.33 -0.763 -4.859 -1.143 -2.663 -1.714 -4.805 -4.045 -6.42 -6.995 -1.622 -2.95 -2.714 -6.663 -3.285 -11.136 -0.568 -4.476 -0.904 -8.326 -1 -11.563 -0.089 -3.233 -0.048 -7.806 0.145 -13.706 0.198 -5.903 0.287 -9.897 0.287 -11.991 0 -7.234 0.141 -15.09 0.424 -23.555 0.288 -8.47 0.521 -15.181 0.716 -20.12 0.194 -4.949 0.284 -10.185 0.284 -15.705 0 -5.52 -0.336 -9.849 -1 -12.991 -0.656 -3.138 -1.663 -6.184 -2.99 -9.137 -1.335 -2.95 -3.289 -5.232 -5.853 -6.852 -2.569 -1.618 -5.763 -2.902 -9.564 -3.856 -10.09 -2.283 -22.936 -3.518 -38.547 -3.71 -35.401 -0.38 -58.15 1.906 -68.24 6.855 -3.997 2.091 -7.614 4.948 -10.848 8.562 -3.427 4.189 -3.905 6.475 -1.431 6.851 11.422 1.711 19.508 5.804 24.267 12.275 l 1.715 3.429 c 1.334 2.474 2.666 6.854 3.999 13.13 1.331 6.28 2.19 13.227 2.568 20.837 0.95 13.897 0.95 25.793 0 35.689 -0.953 9.9 -1.853 17.607 -2.712 23.13 -0.859 5.52 -2.143 9.993 -3.855 13.418 -1.715 3.426 -2.856 5.52 -3.428 6.28 -0.571 0.76 -1.047 1.239 -1.425 1.427 -2.474 0.948 -5.05 1.431 -7.71 1.431 -2.667 0 -5.901 -1.334 -9.707 -4 -3.805 -2.666 -7.754 -6.328 -11.847 -10.992 -4.093 -4.665 -8.709 -11.184 -13.85 -19.558 -5.137 -8.374 -10.467 -18.271 -15.987 -29.691 l -4.567 -8.282 c -2.855 -5.328 -6.755 -13.09 -11.704 -23.267 -4.952 -10.185 -9.329 -20.04 -13.13 -29.554 -1.521 -3.997 -3.806 -7.04 -6.851 -9.134 l -1.429 -0.859 c -0.95 -0.76 -2.475 -1.567 -4.567 -2.427 -2.095 -0.859 -4.281 -1.475 -6.567 -1.854 l -78.23 0.568 c -7.994 0 -13.418 1.811 -16.274 5.428 l -1.143 1.711 c -0.571 0.953 -0.859 2.475 -0.859 4.57 c 0 2.094 0.571 4.664 1.714 7.707 11.42 26.84 23.839 52.725 37.26 77.66 13.418 24.934 25.08 45.02 34.973 60.24 9.897 15.229 19.985 29.602 30.26 43.11 10.279 13.515 17.08 22.18 20.412 25.981 3.333 3.812 5.951 6.662 7.854 8.565 l 7.139 6.851 c 4.568 4.569 11.276 10.04 20.13 16.416 8.853 6.379 18.654 12.659 29.408 18.85 10.756 6.181 23.269 11.225 37.546 15.13 14.275 3.905 28.17 5.472 41.684 4.716 l 32.834 0 c 6.659 -0.575 11.704 -2.669 15.13 -6.283 l 1.136 -1.431 c 0.764 -1.136 1.479 -2.901 2.139 -5.276 0.668 -2.379 1 -5 1 -7.851 -0.195 -8.183 0.428 -15.558 1.852 -22.12 1.423 -6.564 3.045 -11.513 4.859 -14.846 1.813 -3.33 3.859 -6.14 6.136 -8.418 2.282 -2.283 3.908 -3.666 4.862 -4.142 0.948 -0.479 1.705 -0.804 2.276 -0.999 4.568 -1.522 9.944 -0.048 16.14 4.429 6.187 4.473 11.99 9.996 17.418 16.56 5.425 6.57 11.943 13.941 19.555 22.12 7.617 8.186 14.277 14.271 19.985 18.274 l 5.708 3.426 c 3.812 2.286 8.761 4.38 14.853 6.283 6.081 1.902 11.409 2.378 15.984 1.427 l 73.09 -1.14 c 7.229 0 12.854 -1.197 16.844 -3.572 3.998 -2.379 6.373 -5 7.139 -7.851 0.764 -2.854 0.805 -6.092 0.145 -9.712 -0.677 -3.611 -1.344 -6.136 -2.01 -7.563 z" fill-opacity="0.941" transform="matrix(0.05101 0 0 0.05101 37.02 28.19)"/></g><path d="m 73.56 29.939 c 6.421 0 9.932 -5.319 9.932 -9.932 0 -0.151 -0.003 -0.302 -0.01 -0.451 0.681 -0.493 1.274 -1.108 1.741 -1.808 -0.625 0.278 -1.299 0.465 -2 0.55 0.721 -0.432 1.274 -1.116 1.535 -1.931 -0.674 0.4 -1.421 0.69 -2.217 0.847 -0.637 -0.678 -1.544 -1.103 -2.548 -1.103 -1.928 0 -3.491 1.563 -3.491 3.49 0 0.274 0.031 0.54 0.09 0.796 -2.901 -0.146 -5.474 -1.535 -7.195 -3.647 -0.3 0.516 -0.473 1.115 -0.473 1.755 0 1.211 0.616 2.28 1.553 2.906 -0.573 -0.018 -1.111 -0.175 -1.581 -0.437 -0.001 0.015 -0.001 0.029 -0.001 0.045 0 1.691 1.203 3.102 2.8 3.422 -0.293 0.08 -0.602 0.123 -0.92 0.123 -0.225 0 -0.443 -0.022 -0.656 -0.063 0.444 1.387 1.733 2.396 3.261 2.424 -1.195 0.936 -2.7 1.494 -4.335 1.494 -0.281 0 -0.559 -0.016 -0.833 -0.048 1.545 0.99 3.379 1.568 5.351 1.568" fill="#1da1f2" stroke-width="0.033"/><g transform="matrix(0.03732 0 0 0.03732 106.42 30.489)"><path fill="#dc472e" d="M 0,0 H455.731 V455.731 H0 z"/><g fill="#fff"><path d="m 263.259,291.734 c -0.01,-1.7 -0.51,-3.47 -1.14,-5.06 -0.84,-2.09 -2.64,-3.13 -4.9,-3.35 -2.65,-0.26 -4.77,0.81 -6.69,2.51 -0.77,0.67 -1.12,1.67 -1.12,1.67 l 0.04,53.97 v 1.33 c 0,0 0.46,0.62 0.53,0.7 1.56,1.69 3.38,3.03 5.71,3.51 3.84,0.79 6.55,-0.81 7.3,-4.37 0.19,-0.89 0.3,-1.81 0.3,-2.72 0.02,-16.07 0.05,-32.13 -0.03,-48.19 z m 0,0 c -0.01,-1.7 -0.51,-3.47 -1.14,-5.06 -0.84,-2.09 -2.64,-3.13 -4.9,-3.35 -2.65,-0.26 -4.77,0.81 -6.69,2.51 -0.77,0.67 -1.12,1.67 -1.12,1.67 l 0.04,53.97 v 1.33 c 0,0 0.46,0.62 0.53,0.7 1.56,1.69 3.38,3.03 5.71,3.51 3.84,0.79 6.55,-0.81 7.3,-4.37 0.19,-0.89 0.3,-1.81 0.3,-2.72 0.02,-16.07 0.05,-32.13 -0.03,-48.19 z m 60.43,-81.39 c -63.87,-1.37 -127.77,-1.37 -191.65,0 -22.16,0.47 -39.88,18.59 -39.88,40.76 v 99.76 c 0,22.18 17.72,40.3 39.88,40.77 63.88,1.37 127.78,1.37 191.65,0 22.17,-0.47 39.89,-18.59 39.89,-40.77 v -99.76 c 0,-22.169 -17.72,-40.29 -39.89,-40.76 z m -172.89,149.611 h -18.42 v -104.13 h -19.07 v -17.42 h 56.6 v 17.38 h -19.11 z m 65.92,-43.221 v 43.23 h -16.31 v -9.88 c -0.59,0.63 -0.92,0.97 -1.23,1.32 -3.51,3.96 -7.49,7.26 -12.57,9.01 -2.48,0.85 -5.03,1.14 -7.64,0.69 -3.56,-0.59 -5.95,-2.64 -7.39,-5.88 -1.34,-2.99 -1.68,-6.19 -1.69,-9.41 -0.04,-11.9 -0.02,-74.88 -0.02,-75.49 h 16.27 c 0.03,0.55 0.09,45.76 0.1,67.81 0,1.2 0.01,2.43 0.25,3.6 0.6,2.96 2.87,4.23 5.72,3.19 3.28,-1.2 5.78,-3.46 7.88,-6.17 0.31,-0.39 0.31,-1.09 0.31,-1.65 v -66.88 l 16.32,-0.04 c 0,10e-4 0,31.57 0,46.55 z m 62.05,34.59 c -2.18,6.56 -6.98,9.9 -13.88,9.83 -5.61,-0.05 -10.16,-2.28 -13.91,-6.35 -0.42,-0.45 -1.58,-1.68 -1.58,-1.68 v 6.82 h -16.34 v -121.55 h 16.34 c 0,12.94 0,40.01 0,40.01 0,0 0.92,-1.84 1.76,-2.79 2.53,-2.83 5.61,-5.02 9.41,-5.98 6.27,-1.57 13.5,0.37 16.94,7.7 2.03,4.33 2.6,8.95 2.6,13.65 0.03,16.99 0.03,33.98 0.01,50.97 -0.01,3.18 -0.34,6.321 -1.35,9.37 z m 60.35,-3.419 c -2.83,8.29 -8.68,12.89 -17.26,14.15 -5.32,0.78 -10.59,0.67 -15.58,-1.59 -6.83,-3.08 -10.7,-8.65 -12.36,-15.74 -0.77,-3.3 -1.15,-6.76 -1.19,-10.15 -0.13,-13.31 -0.07,-26.63 -0.04,-39.94 0.01,-6.96 1.67,-13.38 6.44,-18.71 5.44,-6.09 12.4,-8.36 20.35,-7.85 2.39,0.15 4.83,0.54 7.1,1.29 7.73,2.54 11.86,8.33 13.48,16.01 0.62,2.96 0.85,6.03 0.9,9.06 0.13,7.1 -0.05,22.75 -0.05,22.75 h -31.29 v 22.43 c 0,4.03 3.26,7.29 7.29,7.29 4.02,0 7.28,-3.26 7.28,-7.29 v -11.53 h 16.81 c 0,-10e-4 0.25,13.61 -1.88,19.82 z m -14.93,-57.22 c 0,-4.02 -3.26,-7.29 -7.28,-7.29 -4.03,0 -7.29,3.27 -7.29,7.29 v 12.59 h 14.57 z m -62.07,-4.01 c -0.84,-2.09 -2.64,-3.13 -4.9,-3.35 -2.65,-0.26 -4.77,0.81 -6.69,2.51 -0.77,0.67 -1.12,1.67 -1.12,1.67 l 0.04,53.97 v 1.33 c 0,0 0.46,0.62 0.53,0.7 1.56,1.69 3.38,3.03 5.71,3.51 3.84,0.79 6.55,-0.81 7.3,-4.37 0.19,-0.89 0.3,-1.81 0.3,-2.72 0.02,-16.07 0.05,-32.13 -0.03,-48.19 -0.01,-1.701 -0.51,-3.471 -1.14,-5.06 z"/><path d="m 303.887,94.99 -0.005,90.244 H 287.16 l 0.02,-9.695 c -1.849,1.821 -3.427,3.522 -5.161,5.05 -3.074,2.708 -6.556,4.727 -10.629,5.524 -6.253,1.223 -11.579,-0.754 -13.573,-7.23 -0.664,-2.157 -1.065,-4.482 -1.082,-6.734 V 94.99 h 16.596 v 68.821 c 0,0.912 0.073,1.834 0.233,2.728 0.504,2.836 2.6,4.171 5.331,3.224 3.329,-1.152 5.869,-3.457 8.024,-6.173 0.306,-0.388 0.251,-1.112 0.251,-1.681 V 94.99 Z"/><path d="m 165.58 110.67 c -3.63 -15.301 -11.235 -47.602 -11.235 -47.602 l -19.03 0 c 0 0 14.62 48.49 21.16 70.11 0.235 0.782 0.343 1.631 0.343 2.45 l -0.007 49.584 l 17.547 0 l -0.007 -49.584 c 0 -0.819 0.108 -1.668 0.343 -2.45 6.538 -21.624 21.16 -70.11 21.16 -70.11 l -19.03 0 c 0 0 -7.606 32.3 -11.235 47.602 z"/><path d="m 218.75 92.73 c -13.224 0 -23.944 10.72 -23.944 23.944 l 0 46.859 c 0 13.224 10.72 23.944 23.944 23.944 c 13.224 0 23.944 -10.72 23.944 -23.944 l 0 -46.859 c 0.001 -13.224 -10.72 -23.944 -23.944 -23.944 z m 6.91 71.75 c 0 3.81 -3.1 6.909 -6.909 6.909 -3.809 0 -6.909 -3.099 -6.909 -6.909 l 0 -48.752 c 0 -3.81 3.1 -6.909 6.909 -6.909 3.809 0 6.909 3.1 6.909 6.909 z"/></g></g><g fill="none" stroke="#000"><path d="m 12.507 75.11 c -3.447 2.875 -7.771 -18.622 -4.826 -26.444 4.386 -18.805 17.639 -12.23 17.858 -4.999 0.253 8.36 -12.251 14.773 -17.858 -5.364 -2.725 -8.555 -0.529 -20.463 8.05 -25.02" stroke-dasharray="1.5875 1.5875" stroke-width="0.265"/><path d="m 157.3 64.922 c 2.501 2.119 11.714 -13.73 9.577 -19.496 -3.182 -13.864 -12.799 -9.02 -12.958 -3.685 -0.184 6.163 8.889 10.891 12.958 -3.955 1.977 -6.307 -3.19 -15.09 -9.412 -18.447" stroke-dasharray="1.16113 1.16113" stroke-width="0.194"/><g stroke-dasharray="2.11667 2.11667" stroke-width="0.265"><path d="m 115.16 76.01 c 7.99 -6.787 18.649 -12.48 12.13 -29.817 l -2.653 -4.675"/><path d="m 77.81 64.58 c 9.955 -2.133 13.625 -18.877 8.22 -27.847 -5.206 -8.64 3.111 -23.566 9.936 -23.11"/><path d="m 34.05 11.01 c 21.698 -9.393 38.751 -11.776 60.925 -2.614"/><path d="m 138.51 54.16 c -4.194 -19.525 -6.445 -43.661 -20.939 -38.724"/><path d="m 92.02 71.18 c -10.483 -3.569 -12.822 -7.675 -9.194 -16.183 5.508 -12.915 -11.472 -13.993 -18.858 -14.192"/><path d="m 135.43 15.07 c -13.449 0.484 -18.767 6.745 -21.08 14.294"/><path d="m 65.62 38.32 38.901 -2.163"/><path d="m 66.21 20.974 c -39.34 -2.467 -35.617 18.259 -39.591 34.838"/><path d="m 39.42 73.832 c 8.74 -0.463 14.755 -3.616 12.785 -22.15"/><path d="m 35.02 12.93 c 24.5 -2.506 17.834 9.497 15.902 19.297"/></g></g></svg>