<svg xmlns="http://www.w3.org/2000/svg" width="560" height="300" viewBox="0 0 148.16667 79.375002"><g transform="translate(0 -217.63)"><g transform="translate(149.85 78.85)"><g stroke="#000"><g stroke-width="0.265"><g fill="none"><path d="m -107.63 154.83 l -0.037 7.276 c -0.046 2.025 -0.117 1.31 2.161 2.01 l 6.191 0.07 l 0.189 -0.472"/><path d="m -74.18 167.07 l -7.843 -0.047"/></g><path d="m -84.58 184.65 l 11.225 0.134 l 2 2.272 l -1.871 21.18 l -4.41 -0.2 l -0.267 -17.11 h -0.935 l 0.134 16.838 l -4.41 0.033 c 0.189 -7.728 -2.043 -15.13 -1.47 -23.15 z" fill="#00445a"/><g fill="#391f0e"><path d="m -73.824 210.31 l 0.134 1.67 l 2 0.067 c 1.223 0.713 0.96 1.425 1 2.138 l -6.147 0.267 v -3.875"/><path d="m -78.902 210.57 l -0.067 3.608 l -6.147 0.267 c -0.155 -1.061 -0.278 -2.102 1.136 -2.205 h 2.138 l 0.2 -2 z"/></g><g fill="#3bd8fb"><path d="m -78.7 207.77 l -0.2 2.806 l -5.847 -0.768 l -0.1 -2.038 h 6.147"/><path d="m -77.63 208.03 l -0.234 2.472 l 5.178 -0.167 l 0.2 -2 z"/></g><path d="m -84.58 184.65 c 0 0 0.198 -3.166 -0.038 -3.213 -0.236 -0.047 -6.05 2.032 -6.05 2.032 l -0.992 -3.449 c 11.534 -3.949 2.742 -12.842 9.638 -12.993 l 7.843 0.047 c 9.952 3.938 10.574 6.702 5.292 15.07 l -3.638 -1.228 c 0 0 -0.962 0.251 -0.832 3.867 l -11.225 -0.134" fill="#f7766f" fill-opacity="0.941"/><path d="m -80.75 166.55 l 0.094 -2.788 c 2.043 -0.264 2.403 -2.161 1.134 -2.929 -0.276 -1.801 -0.266 -3.981 2.126 -2.693 0.944 -2.068 3.385 -2.124 5.292 -2.835 l -0.014 7.806 c -1.528 2.726 -3.552 0.091 -3.53 3.533 z" fill="#9d6a3d"/><path d="m -68.886 182.14 c -0.875 1.212 -0.509 2.277 -0.331 3.685 -0.555 0.81 -1.24 0.941 -2.135 1.225" fill="none"/><path d="m -99.12 163.72 c -1.404 -0.451 -2.565 -1.486 -2.41 -2.504 3.834 -0.997 0.412 -5.26 -1.228 -3.02 -0.594 -2.461 -3 -0.627 -4.866 -3.355 -1.527 -3.542 2.511 -4.354 4.536 -1.89 8.245 -0.023 6.121 4.974 3.969 10.772 z" fill="#9d6a3d"/><path d="m -106.87 164.42 v 3.733 l 7.229 0.095 l 3.78 4.02 l 9.07 0.047 l 0.003 -0.978 l -3.149 -0.047 l 0.008 -0.814 l 3.085 -0.006 l -0.009 -0.714 l -3.093 0.014 l 0.003 -0.784 l 3.141 -0.059 c 0 0 0.2 -0.77 -0.036 -0.77 -0.236 0 -6.426 0.047 -6.426 0.047 -1.346 -1.473 -2.595 -3.445 -5.15 -3.638 z" fill="none"/><path d="m -99.64 168.25 l -5.977 0.071 l -4.418 4.087 c -2.733 3.609 -1.899 7.731 -1.984 11.906 l 12.757 0.189 l -0.024 -2.197 l 2.599 0.921 l 1.394 -3.402 c -1.955 -0.449 -2.807 -0.886 -3.685 -1.323 l -0.661 -10.253"/><path d="m -110.04 172.41 c -0.661 0.709 -7.985 7.654 -7.985 7.654 l 0.52 0.614 l 2.184 -2.051 l 0.378 0.431 l -2.226 2.01 l 0.409 0.528 l 2.184 -2.098 l 0.331 0.378 l -2.151 2.121 l 0.375 0.398 l 2.157 -2.138 l 0.372 0.414 l -2.179 2.082 l 0.403 0.483 l 3.149 -2.982" fill="none"/><path d="m -92.89 183.63 c 0.859 -1.207 1.285 -2.047 1.228 -3.614 l -1.228 0.283 l -2.41 -0.472 l -1.394 3.402 l 3.803 0.402 l 0 0" fill="#fcc1bb"/><path d="m -92.89 183.63 l 2.221 -0.165 l 0 0 l 0 0 l -0.901 -3.057 c -0.06 0.418 -0.399 2.193 -1.319 3.223 z" fill="#9d6a3d"/><g fill="none"><path d="m -112.02 184.32 l -0.094 9.166 l 1.701 10.536"/><path d="m -112.02 184.32 l 12.757 0.189 c 0.54 15.308 -0.626 16.734 -8.835 22.11 l -2.315 -2.599"/><path d="m -110.42 204.02 c 5.636 -5.357 6.247 -5.751 5.717 -13.513 h -1.276 l -0.104 8.883"/></g><path d="m -110.06 208.58 l 0.022 2.671 l 4.272 -0.064 l 0.028 -5.842 z" fill="#00445a"/><g fill="#391f0e"><path d="m -113.6 204.6 l 0.112 9.967 l 0.861 -0.012 c 0.492 -0.367 1.185 -1.307 1.677 -3.098 l -0.147 -6.849 z"/><path d="m -110.07 212.1 l -0.014 2.408 l 6.514 -0.053 l -0.036 -1.109 c -0.207 -0.551 -1.112 -0.957 -2.386 -1.287 -2.084 -0.058 -1.895 -0.041 -4.078 0.04"/></g><path d="m -111.1 204.61 l 0.223 4.195 l 2.773 -2.185 l -2.315 -2.599 z" fill="#fff"/><path d="m -67.54 161.24 l 3.05 -0.065 l -0.377 -2.457 c -0.978 -1.705 -2.225 -2.072 -3.074 -0.134 z" fill="#eda342"/><path d="m -55.25 167.21 c -2.61 4.3 -7.784 -1.181 -5.212 -4.477 -2.395 -2.199 0.598 -3.995 1.737 -5.546 0 0 -0.215 -0.096 -0.248 -1.564 5.01 -6.464 14.01 -1.994 8.333 7.778 l 0.2 3.942 z" fill="#9d6a3d"/></g><path d="m 322.61 84.67 l -11.527 0.246 c 1.296 30.02 6.314 42.569 32.604 40.23 -1.397 10.513 -1.895 21.13 -2.68 31.697 -9.109 19.914 -5.088 40.38 -2.857 61.66 l 38.688 -0.434 l 0.16 -86.12 c 26.916 16.424 45.46 -13.891 45.46 -13.891 l -9.09 -9.09 c -0.25 1.105 -17.729 26.289 -35.36 6.313 -1.799 -1.041 -2.375 -7.09 -2.375 -7.09 0 0 -12.262 -0.029 -18.08 -0.738 -1.02 5.789 -5.655 4.933 -11.455 5.941 -26.874 0.104 -20.233 -14.716 -23.486 -28.727 z" transform="matrix(0.26458 0 0 0.26458 -149.85 138.78)"/><path d="m -59.956 196.65 l 0.031 11.987 l 3.341 1.604 l 0.468 -7.35 l 0.267 5.613 c 0 0 3.475 2.071 3.475 1.604 0 -0.468 1.804 -13.43 1.804 -13.43 z" fill="#eda342" stroke-width="0.265"/><path transform="matrix(0.26458 0 0 0.26458 0 164.71)" d="m -198.81 171.28 c 2.205 1.398 -7.856 -3.117 -12.09 -5.409 -1.756 3.265 -2.44 4.915 -2.96 6.209 -2.74 -1.803 -8.134 -3.095 -12.626 -6.06 -4.01 5.646 -4.721 10.808 -5.305 17.426 l 3.03 0.758 l 3.535 -4.545 l 1.01 9.09 l 20.457 0.506 m 0 0 l 14.209 -0.504 c 1.858 -3.639 0.302 -4.547 -4.357 -5.92 -0.357 0.089 -3.68 -0.152 -3.68 -0.152 l -1.224 -11.396"/><g stroke-width="0.265"><path d="m -55.85 208.5 l -0.735 1.737" fill="none"/><path d="m -39.995 166.69 c -0.091 0.802 3.39 2.022 4.087 1.323 l 1.89 -5.859 c 0.557 -1.052 -3.469 -2.474 -4.11 -1.512 l -1.866 6.05"/><path d="m -38.08 169.76 c 0.814 -0.276 1.364 -1.026 1.914 -1.536 m -1.914 1.536 c -0.703 -0.867 -2.603 -1.892 -1.914 -3.071 0.806 1.146 2.131 1.592 3.827 1.536" fill="#eda342"/><g fill="none"><path d="m -127.19 167.17 l 0.094 -3.685 c 5.485 -0.209 -2.303 -5.184 4.158 -4.441 0.693 -1.861 2.626 -1.475 4.347 -1.701"/><path d="m -118.59 157.34 l -0.047 5.575 c 0.379 2.342 -1.771 2.33 -3.544 2.173 l -0.472 2.079 h -4.536 l 0 0"/><path d="m -127.09 163.53 c -1.948 -2.913 -0.847 -4.02 -0.472 -4.63 -8.198 -2.588 -2.459 -9.574 1.89 -5.055 5.396 -0.63 6.937 -0.73 7.087 3.496"/></g><path d="m -127.19 167.17 c -5.116 3.971 -8.113 2.694 -12.284 0.472 l -0.189 2.268 c 1.866 3.915 5.22 4.161 8.977 4.252 l -0.189 3.78 l 8.693 0.095 l -0.378 -4.914 c 6.818 3.778 9.497 -4.125 9.733 -5.953 -0.378 0.095 -2.362 -1.795 -2.457 -1.417 -1.604 5.505 -3.983 6 -7.371 1.417 l 0 0" fill="#6a73ac"/><path d="m -122.56 196.93 l -1.512 13.702 l -3.213 -1.795 l -0.094 -9.166 c -5.05 2.644 -6.579 -4.678 -9.638 -8.504 l 3.449 -0.803 l 1.654 3.544" fill="#eda342"/><path d="m -122.18 178.03 l -0.094 2.929 l -8.788 -0.283 l 0.189 -2.74 c 0 0 8.693 0.095 8.693 0.095 z" fill="#fff"/><path d="m -143.87 170.19 c 0.124 3.909 3.386 0.58 4.205 -0.284 l 0.189 -2.268 c -2.827 -1.507 -4.251 0.479 -4.394 2.551 z" fill="#eda342"/><path d="m -116.3 162.61 l 3.095 3.685 c 1.011 1.45 4.101 -1.428 3.166 -2.504 l -3.047 -4.11 c -0.572 -1.153 -4.472 0.961 -3.213 2.929 z"/></g></g><path d="m -115.8 162.16 l 2.41 -1.984 l 2.764 3.851 l -2.197 1.89 l -2.977 -3.756" fill="#3bd8fb"/><g stroke="#000" stroke-width="0.265"><path d="m -115.02 164.33 l -0.236 1.252 l 2.433 1.583 l 0.089 -0.395 z" fill="#eda342"/><path d="m -112.83 167.17 l 0 0" fill="none"/><path d="m -110.04 211.25 l -0.033 0.852 l 3.14 -0.084 v -0.756 z" fill="#fff"/></g><path d="m -55.85 212.16 l -0.017 1.036 l 0.869 0.05 l 0.033 -1.052 z" fill="#fff"/><g stroke="#000" stroke-width="0.265"><path d="m -41.685 189.32 l 6.815 -12.829 c 3.229 -2.251 6.435 -4.767 9.488 -8.954 l 4.01 1.871 c -0.71 4.341 -0.795 8.213 -0.802 12.03 l -3.074 7.35 c -5.412 1.584 -10.899 1.594 -16.437 0.535 l 0 0" fill="#3d7f01"/><path d="m -39.575 190.5 l 3.503 -7.725 l 2.673 0.869 c 3.729 -1.856 4.285 0.609 4.477 1.871 l 2.339 1.537 l -1.305 3.095" fill="#fff"/><path d="m -45.961 188.39 l 3.475 25.925 l 17.373 -0.267 l 2.673 -25.658 c -12.206 3.153 -17.494 1.31 -23.52 0 z" fill="#d5d8d1"/><g fill="none"><path d="m -45.961 188.39 l 4.276 0.935"/><path d="m -40.816 187.39 l -5.145 1"/><path d="m -24.446 187.25 l 2 1.136"/></g><path d="m -25.381 167.54 l 2.419 -4.534 l 3.685 1.984 l -2.095 4.421" fill="#ebaf33"/><path d="m -22.962 163.01 l 0.52 -0.803 l 3.52 1.843 l -0.354 0.945 l 0 0 l 0 0" fill="#d1702b"/><path d="m -22.442 162.2 c -0.421 -0.626 -0.323 -1.701 0.921 -2.01 1.657 -0.143 2.976 0.393 3.945 1.984 0.43 0.286 -0.238 2.01 -1.347 1.866" fill="#ebaf33"/></g><g stroke="#fff"><g fill="#fff"><circle r="0.869" cy="196.14" cx="-34.03" opacity="0.95" stroke-width="0.3"/><ellipse ry="0.823" rx="0.831" cy="196.36" cx="-26.976" opacity="0.95" stroke-width="0.324"/></g><path d="m -34.13 196.67 c -0.794 3.947 6.966 5.915 7.149 0.134" fill="none"/></g><path d="m -117.46 152.61 l 1.604 -1.67 c 2.956 0.924 5.439 0.497 7.149 -2.138 0.909 -3.225 -0.53 -5.193 -4.61 -5.746 -3.02 0.012 -4.975 0.883 -5.145 3.207 -0.183 1.944 0.147 3.411 1.336 4.143 z" fill="#b1e8fc"/><g stroke="#000" stroke-width="0.265"><path d="m -127.28 208.84 l -1.134 1.701 l -0.567 2.882 l 1.134 0.567 l 0.756 -1.843 l 0.614 2.74 l 4.961 -0.142 c 0.003 -0.573 -0.01 -1.147 -0.992 -1.843 l -1.323 -0.378 l -0.236 -1.89 l 0 0 l 0 0"/><path d="m -134.09 185.75 h -0.992 l -0.095 1.701 l -1.654 -2.221 h -4.11 c -0.056 0.585 0.308 1.635 1.333 1.746 l 0.71 -0.069 c 0.646 1.181 1.837 4.135 1.772 4.02 l 3.484 -0.815 c 0 0 -0.035 -0.047 -0.449 -4.359 z"/></g><path transform="matrix(0.26458 0 0 0.26458 0 164.71)" d="m -402.56 -4.03 l -3.214 -0.856 l -0.193 -14.808 l -0.193 -14.808 l 2.693 1.756 c 1.481 0.966 4.571 2.238 6.867 2.826 4.678 1.2 6.554 2.561 7.227 5.243 l 0.458 1.824 l 1.617 -1.519 c 3.459 -3.25 9.02 -0.53 9.02 4.409 0 2.628 -1.324 4.238 -4.466 5.433 -1.179 0.448 -1.963 1.282 -1.963 2.087 0 2.17 3.038 6.05 6.093 7.779 l 2.836 1.606 l -11.786 -0.058 c -6.698 -0.033 -13.173 -0.428 -15 -0.915 z" opacity="0.95" fill="#fcc1bb" stroke="#fcc1bb" stroke-width="0.81"/><path d="m -107.42 158.08 l 0.969 0.354 c 0.198 -0.752 1.505 -0.823 1.63 0.213 l 2.126 -0.236 c -0.108 0.03 0.392 0.634 -0.2 0.249 l -1.968 0.271 c 0.391 1.224 -2.24 1.355 -1.66 -0.283 l -0.898 -0.331" fill="none" stroke="#000" stroke-width="0.265"/><g stroke="#deecf1" transform="matrix(0.26458 0 0 0.26458 0 164.71)"><g fill="#3bd8fb"><path d="m -436.03 68.74 c -0.345 -0.413 -0.387 -0.491 -0.315 -0.579 0.046 -0.056 1.896 -1.834 4.111 -3.951 3.575 -3.417 4.02 -3.861 3.94 -3.951 -0.417 -0.489 -1.966 -2.19 -2.01 -2.207 -0.031 -0.012 -1.881 1.784 -4.112 3.99 l -4.056 4.01 l -0.331 -0.326 c -0.182 -0.179 -0.331 -0.345 -0.331 -0.367 0 -0.023 1.817 -1.836 4.04 -4.03 l 4.04 -3.988 l -0.949 -1.087 c -0.522 -0.598 -0.971 -1.087 -0.998 -1.087 -0.027 0 -1.765 1.649 -3.862 3.664 -2.097 2.02 -3.94 3.781 -4.096 3.924 l -0.284 0.26 l -0.433 -0.567 c -0.238 -0.312 -0.409 -0.589 -0.379 -0.616 2.144 -1.923 8.01 -7.212 8.161 -7.361 l 0.215 -0.208 l -1.056 -1.205 l -1.056 -1.205 l -0.207 0.174 c -0.114 0.096 -1.96 1.822 -4.103 3.836 -2.143 2.01 -3.921 3.662 -3.951 3.662 -0.046 0 -1.262 -1.395 -1.262 -1.448 0 -0.01 0.774 -0.753 1.72 -1.652 8.772 -8.338 15.641 -14.891 20.934 -19.972 2.213 -2.124 2.837 -2.69 2.983 -2.706 0.102 -0.011 0.185 -0.003 0.185 0.017 0 0.02 -0.167 0.37 -0.371 0.777 -2.875 5.743 -4.237 12.735 -4.238 21.745 v 2.064 l -1.817 1.724 c -5.603 5.315 -9.624 9.113 -9.663 9.127 -0.024 0.009 -0.224 -0.199 -0.443 -0.461 z" opacity="0.95" stroke-width="0.072"/><path d="m -354.03 28.06 l -8.03 -0.033 l -6.552 -6.961 c -3.604 -3.828 -6.812 -7.248 -7.13 -7.6 l -0.577 -0.639 l -11.418 -0.157 c -6.28 -0.086 -12.37 -0.16 -13.533 -0.165 l -2.115 -0.008 v -6.503 v -6.503 l 0.726 0.002 c 0.399 0.001 3.738 0.056 7.418 0.121 3.681 0.065 10.442 0.182 15.03 0.259 8.855 0.149 9.791 0.213 11.865 0.817 4.23 1.231 7.397 3.648 12.493 9.533 1.173 1.354 2.356 2.708 2.63 3.01 l 0.497 0.545 l 12.193 -0.092 l 12.193 -0.092 l -0.068 0.848 c -0.037 0.466 -0.089 0.869 -0.115 0.894 -0.026 0.026 -2.262 0.081 -4.97 0.123 -2.708 0.042 -5.392 0.108 -5.965 0.147 l -1.042 0.071 v 2.01 v 2.01 h 5.872 h 5.872 v 0.758 v 0.758 h -5.872 h -5.872 v 2.064 v 2.064 l 1.345 0.082 c 0.74 0.045 2.635 0.082 4.21 0.082 1.576 0 3.641 0.037 4.589 0.083 l 1.725 0.083 v 1.243 v 1.243 l -8.681 -0.031 c -4.775 -0.017 -12.295 -0.046 -16.713 -0.064 z" opacity="0.95" stroke-width="0.143"/></g><path d="m -480.8 -6.268 c -0.997 -1.64 -2 -3.736 -2.552 -5.31 -0.44 -1.264 -0.498 -1.685 -0.501 -3.661 -0.005 -2.589 0.198 -3.265 1.681 -5.614 l 0.892 -1.412 l -2.362 -0.861 c -8.744 -3.188 -13.56 -7.987 -13.548 -13.501 0.014 -6.367 6.76 -10.83 13.686 -9.06 1.337 0.343 3.801 1.506 4.991 2.356 0.496 0.354 1.464 1.143 2.152 1.752 l 1.25 1.108 l 2.857 -0.327 c 10.789 -1.236 15.44 -1.164 18.412 0.288 2.912 1.422 4.358 4.388 4.869 9.991 0.098 1.075 0.144 2.01 0.102 2.078 -0.042 0.068 -1.061 0.177 -2.265 0.243 -7.498 0.41 -9.905 1.084 -12.05 3.375 -0.589 0.63 -1.253 1.521 -1.476 1.982 -0.4 0.827 -0.414 0.836 -1.097 0.72 -0.38 -0.064 -1.797 -0.115 -3.148 -0.112 -3.813 0.008 -5.499 0.613 -6.298 2.264 -0.571 1.179 -0.415 2.473 0.648 5.375 1.481 4.047 1.755 5.434 1.307 6.617 -0.556 1.467 -2.376 2.31 -5.723 2.651 l -1.181 0.12 z" opacity="0.95" fill="#391f0e" stroke-width="0.034"/></g><path d="m -80.65 163.23 c -0.18 -0.495 -0.286 -0.924 -0.579 -2.349 -0.132 -0.64 -0.327 -1.391 -0.433 -1.67 -0.386 -1.01 -0.546 -2.69 -0.339 -3.548 0.402 -1.665 1.784 -2.443 4.703 -2.647 l 0.656 -0.046 l 0.349 -0.341 c 1.05 -1.025 3.02 -1.306 3.801 -0.544 0.373 0.362 0.411 0.564 0.361 1.933 -0.024 0.66 -0.058 1.214 -0.075 1.231 -0.017 0.017 -0.656 0.21 -1.42 0.427 -1.664 0.474 -2.437 0.822 -3.02 1.361 -0.222 0.205 -0.47 0.484 -0.551 0.619 -0.081 0.135 -0.155 0.256 -0.165 0.269 -0.01 0.013 -0.2 -0.04 -0.423 -0.117 -1.435 -0.497 -2.103 0.357 -1.888 2.412 0.077 0.74 0.08 0.746 0.322 0.946 0.284 0.234 0.491 0.646 0.491 0.979 0 0.541 -0.504 1.157 -1.119 1.366 -0.479 0.163 -0.516 0.147 -0.671 -0.28 z" opacity="0.95" fill="#391f0e" stroke="#000" stroke-width="0.265"/><path transform="matrix(0.26458 0 0 0.26458 0 164.71)" d="m -273.1 79.68 l -3.6 -4.063 l 0.003 -3.571 c 0.002 -2.26 0.094 -4.086 0.252 -4.972 0.272 -1.528 1.183 -3.607 1.995 -4.552 l 0.511 -0.595 l 6.25 2.097 c 3.438 1.153 6.275 2.116 6.306 2.139 0.031 0.023 -0.184 0.519 -0.478 1.102 -1.238 2.452 -1.438 5.057 -0.75 9.735 l 0.388 2.633 l -0.468 0.614 c -0.935 1.225 -2.645 2.216 -5.23 3.03 -0.815 0.256 -1.504 0.466 -1.53 0.466 -0.026 0 -1.668 -1.828 -3.648 -4.063 z" opacity="0.95" fill="#9d6a3d" stroke="#deecf1" stroke-width="0.034"/><g fill="#eda342"><path d="m -54.38 166.93 l -0.531 -0.034 l -0.066 -0.938 l -0.066 -0.938 l -0.3 -0.042 c -2.226 -0.308 -2.792 -0.562 -3.192 -1.429 -0.218 -0.471 -0.231 -1.428 -0.044 -3.18 0.074 -0.694 0.162 -1.671 0.197 -2.172 l 0.063 -0.911 l 0.866 -0.063 c 0.847 -0.061 1.675 0.031 2.041 0.227 0.259 0.138 0.854 0.86 0.917 1.111 0.05 0.199 0.106 0.215 0.729 0.216 0.774 0.001 1.274 0.117 1.585 0.369 0.418 0.338 0.204 1.212 -0.598 2.445 -0.212 0.326 -0.368 0.612 -0.345 0.635 0.023 0.023 0.592 0.297 1.265 0.609 l 1.224 0.568 l 0.058 1.065 c 0.032 0.586 0.064 1.395 0.071 1.798 l 0.012 0.732 l -1.677 -0.018 c -0.922 -0.01 -1.916 -0.033 -2.209 -0.052 z" opacity="0.95" stroke="#000" stroke-width="0.265"/><path transform="matrix(0.26458 0 0 0.26458 0 164.71)" d="m -479.94 4.382 c 0.128 -2.388 0.233 -5.259 0.233 -6.379 v -2.038 l 1.991 -0.234 c 3.831 -0.45 5.866 -2.204 5.866 -5.05 0 -0.713 -0.579 -2.974 -1.287 -5.02 -0.827 -2.395 -1.208 -4.04 -1.066 -4.607 0.382 -1.523 1.939 -2.01 6.179 -1.938 l 3.785 0.065 l 0.523 -1.028 c 0.823 -1.618 2.276 -3.03 3.857 -3.742 1.435 -0.648 6.389 -1.384 9.348 -1.39 l 1.518 -0.003 v 11.821 c 0 13.384 -0.024 13.523 -2.602 14.989 -1.309 0.744 -2.109 0.88 -6.147 1.041 l -4.642 0.185 l -0.867 3.839 l -0.867 3.839 h -8.03 h -8.03 z" opacity="0.95" stroke="#deecf1" stroke-width="0.067"/></g><path transform="matrix(0.26458 0 0 0.26458 0 164.71)" d="m -412.43 153.17 c -2.104 -2.374 -3.853 -4.402 -3.887 -4.505 -0.034 -0.103 1.921 -2.072 4.344 -4.375 12.222 -11.616 15.63 -16.75 16.952 -25.542 0.548 -3.64 0.531 -11.701 -0.042 -20.12 l -0.112 -1.652 h -3.01 h -3.01 l -0.008 5.491 c -0.004 3.02 -0.078 10.674 -0.164 17.01 -0.088 6.501 -0.089 11.558 -0.001 11.612 0.362 0.224 -3.309 4.251 -9.166 10.06 -5.137 5.091 -6.299 6.161 -6.402 5.893 -0.069 -0.18 -1.504 -8.91 -3.188 -19.399 l -3.062 -19.07 l 0.196 -16.901 c 0.108 -9.295 0.214 -16.917 0.237 -16.938 0.041 -0.038 26.554 0.338 39.7 0.563 l 7.339 0.126 l 0.115 4.128 c 0.597 21.404 0.087 33.614 -1.763 42.2 -2.408 11.185 -7 18.203 -17.06 26.06 -3.454 2.697 -13.642 9.732 -14.04 9.695 -0.078 -0.007 -1.863 -1.956 -3.966 -4.33 z" opacity="0.95" fill="#00445a" stroke="#deecf1" stroke-width="0.034"/><path d="m -131.06 180.68 l 8.788 0.283 c -0.247 5.359 0.465 10.745 0.709 15.875 l -9.969 0.095 l -0.378 -3.02 c -1.109 -9.85 -0.683 -10.469 0.85 -13.229" fill="#6a73ac" stroke="#000" stroke-width="0.265"/><path d="m -61.24 151.46 l -1.604 -1.67 c -2.956 0.924 -5.439 0.497 -7.149 -2.138 -0.908 -3.225 0.53 -5.193 4.61 -5.746 3.02 0.012 4.975 0.883 5.145 3.207 0.183 1.944 -0.147 3.411 -1.336 4.143 z" fill="#b1e8fc"/><ellipse ry="1.236" rx="1.203" cy="185.92" cx="-31.671" opacity="0.95" fill="#ebaf33"/><path d="m -36.549 187.29 l 1.537 -0.267 c 0 0 0.134 1.136 0.601 1.203 0.468 0.067 1.604 -0.067 1.604 -0.067 l 0.668 1.069 l 2 -0.2 l -0.134 0.134" fill="none" stroke="#ebaf33" stroke-width="0.265"/><g fill="#fff"><path d="m -27.26 164.84 l -3.166 -1.703 l -3.198 1.643 l 0.641 -3.537 l -2.55 -2.534 l 3.563 -0.483 l 1.622 -3.209 l 1.56 3.239 l 3.553 0.551 l -2.598 2.485 z" opacity="0.95" stroke="#fff"/><g stroke="#ffff5d"><path d="m -27.836 161.29 l -1.147 0.423 l -0.302 1.185 l -0.757 -0.96 l -1.22 0.079 l 0.679 -1.017 l -0.453 -1.136 l 1.177 0.332 l 0.941 -0.782 l 0.048 1.222 z" opacity="0.95"/><path d="m -16.17 155.55 l -2.317 -0.984 l -2.124 1.35 l 0.22 -2.507 l -1.941 -1.603 l 2.453 -0.565 l 0.925 -2.341 l 1.296 2.158 l 2.512 0.156 l -1.652 1.899 z" opacity="0.95"/><path d="m -10.758 167.11 l -0.767 -1.353 l -1.55 -0.136 l 1.05 -1.148 l -0.35 -1.516 l 1.416 0.644 l 1.333 -0.801 l -0.175 1.546 l 1.174 1.02 l -1.524 0.311 z" opacity="0.95"/></g></g><g fill="none"><path d="m -21.372 169.41 c -4.33 7.202 -11.591 6.129 -13.497 7.083 -4.07 2.035 -3.455 2.474 -1.203 6.281 3.305 5.585 -2.699 4.448 -4.933 5.792 -6.728 4.048 -3.706 5.786 -1.895 7.513 2.506 2.055 2.334 3.471 2.268 4.914" stroke="#8de3fe"/><path d="m -27.529 169.81 c 3.519 1.628 4.186 5.221 1.871 6.381 -5.882 2.948 -7.07 4.525 -5.345 5.078 10.127 3.247 4.423 7.958 2.469 11.368 l -2.529 4.411" stroke="#ffff5d"/><path d="m -30 172.72 c 0 0 -1.087 3.044 -0.2 4.076 0.992 1.155 3.605 -0.731 4.544 0.468 0.79 1.01 -0.826 2.56 -0.535 3.809 0.387 1.654 2.873 4.209 2.873 4.209 h -0.067" stroke-opacity="0.941" stroke="#f7766f"/></g><g fill="#fff"><circle r="0.272" cy="168.4" cx="-55.934" opacity="0.95"/><circle r="0.272" cy="168.94" cx="-55.56" opacity="0.95"/><circle r="0.272" cy="169.48" cx="-54.991" opacity="0.95"/><circle r="0.272" cy="169.95" cx="-54.22" opacity="0.95"/><circle r="0.272" cy="170.21" cx="-53.52" opacity="0.95"/><circle r="0.272" cy="170.28" cx="-52.719" opacity="0.95"/><circle r="0.272" cy="170.01" cx="-52.02" opacity="0.95"/><circle r="0.272" cy="169.61" cx="-51.48" opacity="0.95"/><circle r="0.272" cy="169.11" cx="-50.881" opacity="0.95"/><circle r="0.272" cy="168.58" cx="-50.31" opacity="0.95"/><circle r="0.272" cy="169.81" cx="-55.759" opacity="0.95"/><circle r="0.272" cy="170.65" cx="-55.56" opacity="0.95"/><circle r="0.272" cy="171.52" cx="-55.22" opacity="0.95"/><circle r="0.272" cy="172.22" cx="-54.723" opacity="0.95"/><circle r="0.272" cy="172.89" cx="-54.12" opacity="0.95"/><circle r="0.272" cy="173.12" cx="-53.35" opacity="0.95"/><circle r="0.272" cy="172.89" cx="-52.52" opacity="0.95"/><circle r="0.272" cy="172.39" cx="-51.75" opacity="0.95"/><circle r="0.272" cy="171.72" cx="-51.08" opacity="0.95"/><circle r="0.272" cy="170.05" cx="-50.35" opacity="0.95"/><circle r="0.272" cy="169.45" cx="-50.15" opacity="0.95"/><circle r="0.272" cy="170.92" cx="-50.614" opacity="0.95"/><circle r="0.591" cy="168.38" cx="-127.84" opacity="0.95"/><circle r="0.591" cy="169.8" cx="-127.7" opacity="0.95"/><circle r="0.591" cy="171.09" cx="-127.11" opacity="0.95"/><circle r="0.591" cy="171.36" cx="-123.59" opacity="0.95"/><circle r="0.591" cy="170.15" cx="-122.83" opacity="0.95"/><circle r="0.591" cy="168.87" cx="-122.02" opacity="0.95"/><circle r="0.591" cy="172.19" cx="-126.22" opacity="0.95"/><circle r="0.591" cy="172.29" cx="-124.71" opacity="0.95"/></g></g><g stroke-width="0.265"><path d="m 77.33 259.76 l 3.75 -6.06 l -6.52 -3.449 c -2.107 0.036 -4.551 4.842 -3.473 6.095 z" stroke="#000"/><path d="m 80.76 254.44 l -6.095 -3.166 l -2.788 4.607 l 5.953 3.331 l 0 0" fill="#3bd8fb" stroke="#3bd8fb"/></g><path d="m 112.09 245.45 c -1.01 -0.341 -1.445 -0.524 -1.445 -0.605 0 -0.236 1.565 -5.142 1.64 -5.143 0.225 -0.001 3.088 1.051 3.061 1.125 -0.017 0.047 -0.408 1.219 -0.869 2.605 -0.461 1.385 -0.862 2.516 -0.89 2.513 -0.029 -0.004 -0.702 -0.226 -1.497 -0.495 z" opacity="0.95" fill="#3bd8fb"/></g></svg>