<svg xmlns="http://www.w3.org/2000/svg" width="670" height="450" viewBox="0 0 177.27083 119.0625"><g stroke-width="0.308"><g transform="translate(-43.39 -54.37)"><path d="m 81.81 77.99 l 0 5.971 c 0 0.235 -0.077 0.429 -0.223 0.57 -0.145 0.147 -0.335 0.217 -0.568 0.217 -0.235 0 -0.436 -0.07 -0.592 -0.217 -0.167 -0.14 -0.243 -0.335 -0.243 -0.57 l 0 -5.971 l -2.237 0 l 2.328 -7.86 l -0.4 0 c -0.255 0.881 -0.47 1.59 -0.639 2.152 -0.152 0.56 -0.32 1.091 -0.466 1.602 -0.166 0.505 -0.278 0.824 -0.289 0.934 -0.101 0.334 -0.322 0.495 -0.668 0.495 l -0.176 -0.042 c -0.323 -0.119 -0.48 -0.328 -0.48 -0.626 0 -0.081 0.012 -0.148 0.044 -0.215 0.023 -0.058 0.09 -0.255 0.168 -0.59 0.09 -0.332 0.211 -0.746 0.356 -1.226 0.145 -0.488 0.302 -1.017 0.467 -1.584 0.168 -0.57 0.322 -1.119 0.511 -1.647 0.112 -0.405 0.356 -0.774 0.735 -1.093 0.377 -0.331 0.77 -0.481 1.179 -0.481 l 2.738 0 c 0.423 0 0.835 0.151 1.202 0.481 0.357 0.321 0.614 0.688 0.757 1.093 0.153 0.529 0.31 1.077 0.465 1.647 0.159 0.567 0.325 1.096 0.459 1.584 0.142 0.481 0.266 0.894 0.354 1.226 0.089 0.335 0.146 0.532 0.177 0.59 l 0.044 0.176 c 0 0.36 -0.168 0.57 -0.49 0.662 l -0.164 0.045 c -0.355 0 -0.578 -0.162 -0.667 -0.495 -0.025 -0.109 -0.124 -0.429 -0.256 -0.933 -0.156 -0.511 -0.314 -1.042 -0.492 -1.602 -0.178 -0.561 -0.387 -1.271 -0.642 -2.154 l -0.402 0 l 2.324 7.862 l -2.201 0 l 0 5.971 c 0 0.235 -0.067 0.429 -0.245 0.57 -0.157 0.147 -0.346 0.217 -0.578 0.217 -0.245 0 -0.425 -0.07 -0.578 -0.217 -0.145 -0.14 -0.211 -0.335 -0.211 -0.57 l 0 -5.971 z m 0.22 -10.674 c 0.469 0 0.871 -0.154 1.182 -0.475 0.321 -0.329 0.489 -0.737 0.489 -1.23 0 -0.469 -0.168 -0.871 -0.489 -1.202 -0.31 -0.341 -0.714 -0.511 -1.182 -0.511 -0.499 0 -0.913 0.17 -1.257 0.511 -0.334 0.33 -0.498 0.734 -0.498 1.202 0 0.493 0.164 0.901 0.499 1.23 0.345 0.321 0.758 0.475 1.256 0.475 z" fill="#f55"/><path d="m 73.068712,67.758117 c -0.6,0 -1.113,0.222 -1.547,0.65 -0.435,0.447 -0.659,0.968 -0.659,1.548 v 5.359 c 0,0.201 0.069,0.383 0.224,0.529 0.144,0.145 0.322,0.211 0.524,0.211 0.233,0 0.411,-0.066 0.555,-0.211 0.124,-0.147 0.19,-0.328 0.19,-0.529 v -4.792 h 0.387 v 13.266 c 0,0.255 0.112,0.492 0.324,0.673 0.199,0.201 0.432,0.287 0.7,0.287 0.29,0 0.523,-0.086 0.713,-0.287 0.201,-0.182 0.292,-0.418 0.292,-0.673 v -7.69 h 0.434 v 7.69 c 0,0.255 0.1,0.492 0.289,0.673 0.19,0.201 0.435,0.287 0.735,0.287 0.255,0 0.479,-0.086 0.679,-0.287 0.188,-0.182 0.274,-0.418 0.274,-0.673 v -13.266 h 0.405 v 4.792 c 0,0.201 0.064,0.383 0.198,0.529 0.16,0.145 0.344,0.211 0.545,0.211 0.236,0 0.415,-0.066 0.549,-0.211 0.121,-0.147 0.198,-0.328 0.198,-0.529 v -5.358 c 0,-0.578 -0.211,-1.1 -0.646,-1.546 -0.424,-0.43 -0.933,-0.65 -1.557,-0.65 h -3.806 z m 1.913,-0.441 c 0.468,0 0.88,-0.154 1.212,-0.475 0.332,-0.33 0.501,-0.738 0.501,-1.230001 0,-0.469 -0.171,-0.871 -0.502,-1.202 -0.333,-0.341 -0.745,-0.511 -1.211,-0.511 -0.491,0 -0.904,0.17 -1.215,0.511 -0.332,0.332 -0.488,0.734 -0.488,1.202 0,0.493001 0.156,0.901001 0.488,1.230001 0.313,0.321 0.726,0.475 1.215,0.475 z" fill="#ff2a2a"/><path d="m 67.28 77.991 l 0 5.971 c 0 0.235 -0.077 0.429 -0.223 0.57 -0.145 0.147 -0.335 0.217 -0.568 0.217 -0.235 0 -0.436 -0.07 -0.592 -0.217 -0.167 -0.14 -0.243 -0.335 -0.243 -0.57 l 0 -5.971 l -2.237 0 l 2.328 -7.86 l -0.4 0 c -0.255 0.881 -0.47 1.59 -0.639 2.152 -0.152 0.56 -0.32 1.091 -0.466 1.602 -0.166 0.505 -0.278 0.824 -0.289 0.933 -0.101 0.334 -0.322 0.495 -0.668 0.495 l -0.176 -0.042 c -0.323 -0.119 -0.48 -0.328 -0.48 -0.626 0 -0.081 0.012 -0.148 0.044 -0.215 0.023 -0.058 0.09 -0.255 0.168 -0.59 0.09 -0.332 0.211 -0.746 0.356 -1.226 0.145 -0.488 0.302 -1.017 0.467 -1.584 0.168 -0.57 0.322 -1.119 0.511 -1.647 0.112 -0.405 0.356 -0.774 0.735 -1.093 0.377 -0.331 0.77 -0.481 1.179 -0.481 l 2.738 0 c 0.423 0 0.835 0.151 1.202 0.481 0.357 0.321 0.614 0.688 0.757 1.093 0.153 0.529 0.31 1.077 0.465 1.647 0.159 0.567 0.325 1.096 0.459 1.584 0.142 0.481 0.266 0.894 0.354 1.226 0.089 0.335 0.146 0.532 0.177 0.59 l 0.044 0.176 c 0 0.36 -0.168 0.57 -0.49 0.662 l -0.164 0.045 c -0.355 0 -0.578 -0.162 -0.667 -0.495 -0.025 -0.109 -0.124 -0.429 -0.256 -0.933 -0.156 -0.511 -0.314 -1.042 -0.492 -1.602 -0.178 -0.561 -0.387 -1.271 -0.642 -2.154 l -0.402 0 l 2.324 7.862 l -2.201 0 l 0 5.971 c 0 0.235 -0.067 0.429 -0.245 0.57 -0.157 0.147 -0.346 0.217 -0.578 0.217 -0.245 0 -0.425 -0.07 -0.578 -0.217 -0.145 -0.14 -0.211 -0.335 -0.211 -0.57 l 0 -5.971 z m 0.22 -10.674 c 0.469 0 0.871 -0.154 1.182 -0.475 0.321 -0.329 0.489 -0.737 0.489 -1.23 0 -0.469 -0.168 -0.871 -0.489 -1.202 -0.31 -0.341 -0.714 -0.511 -1.182 -0.511 -0.499 0 -0.913 0.17 -1.257 0.511 -0.334 0.33 -0.498 0.734 -0.498 1.202 0 0.493 0.164 0.901 0.499 1.23 0.345 0.321 0.758 0.475 1.256 0.475 z" fill="#f55"/><path d="m 58.558712,67.758117 c -0.6,0 -1.113,0.222 -1.547,0.65 -0.435,0.447 -0.659,0.968 -0.659,1.548 v 5.359 c 0,0.201 0.069,0.383 0.224,0.529 0.144,0.145 0.322,0.211 0.524,0.211 0.233,0 0.411,-0.066 0.555,-0.211 0.124,-0.147 0.19,-0.328 0.19,-0.529 v -4.792 h 0.387 v 13.266 c 0,0.255 0.112,0.492 0.324,0.673 0.199,0.201 0.432,0.287 0.7,0.287 0.29,0 0.523,-0.086 0.713,-0.287 0.201,-0.182 0.292,-0.418 0.292,-0.673 v -7.69 h 0.434 v 7.69 c 0,0.255 0.1,0.492 0.289,0.673 0.19,0.201 0.435,0.287 0.735,0.287 0.255,0 0.479,-0.086 0.679,-0.287 0.188,-0.182 0.274,-0.418 0.274,-0.673 v -13.266 h 0.405 v 4.792 c 0,0.201 0.064,0.383 0.198,0.529 0.16,0.145 0.344,0.211 0.545,0.211 0.236,0 0.415,-0.066 0.549,-0.211 0.121,-0.147 0.198,-0.328 0.198,-0.529 v -5.358 c 0,-0.578 -0.211,-1.1 -0.646,-1.546 -0.424,-0.43 -0.933,-0.65 -1.557,-0.65 h -3.806 z m 1.913,-0.441 c 0.468,0 0.88,-0.154 1.212,-0.475 0.332,-0.33 0.501,-0.738 0.501,-1.230001 0,-0.469 -0.171,-0.871 -0.502,-1.202 -0.333,-0.341 -0.745,-0.511 -1.211,-0.511 -0.491,0 -0.904,0.17 -1.215,0.511 -0.332,0.332 -0.488,0.734 -0.488,1.202 0,0.493001 0.156,0.901001 0.488,1.230001 0.313,0.321 0.726,0.475 1.215,0.475 z" fill="#ff2a2a"/></g><g transform="matrix(-1 0 0 1 98.03 29.551)"><path d="m 81.81 77.99 l 0 5.971 c 0 0.235 -0.077 0.429 -0.223 0.57 -0.145 0.147 -0.335 0.217 -0.568 0.217 -0.235 0 -0.436 -0.07 -0.592 -0.217 -0.167 -0.14 -0.243 -0.335 -0.243 -0.57 l 0 -5.971 l -2.237 0 l 2.328 -7.86 l -0.4 0 c -0.255 0.881 -0.47 1.59 -0.639 2.152 -0.152 0.56 -0.32 1.091 -0.466 1.602 -0.166 0.505 -0.278 0.824 -0.289 0.934 -0.101 0.334 -0.322 0.495 -0.668 0.495 l -0.176 -0.042 c -0.323 -0.119 -0.48 -0.328 -0.48 -0.626 0 -0.081 0.012 -0.148 0.044 -0.215 0.023 -0.058 0.09 -0.255 0.168 -0.59 0.09 -0.332 0.211 -0.746 0.356 -1.226 0.145 -0.488 0.302 -1.017 0.467 -1.584 0.168 -0.57 0.322 -1.119 0.511 -1.647 0.112 -0.405 0.356 -0.774 0.735 -1.093 0.377 -0.331 0.77 -0.481 1.179 -0.481 l 2.738 0 c 0.423 0 0.835 0.151 1.202 0.481 0.357 0.321 0.614 0.688 0.757 1.093 0.153 0.529 0.31 1.077 0.465 1.647 0.159 0.567 0.325 1.096 0.459 1.584 0.142 0.481 0.266 0.894 0.354 1.226 0.089 0.335 0.146 0.532 0.177 0.59 l 0.044 0.176 c 0 0.36 -0.168 0.57 -0.49 0.662 l -0.164 0.045 c -0.355 0 -0.578 -0.162 -0.667 -0.495 -0.025 -0.109 -0.124 -0.429 -0.256 -0.933 -0.156 -0.511 -0.314 -1.042 -0.492 -1.602 -0.178 -0.561 -0.387 -1.271 -0.642 -2.154 l -0.402 0 l 2.324 7.862 l -2.201 0 l 0 5.971 c 0 0.235 -0.067 0.429 -0.245 0.57 -0.157 0.147 -0.346 0.217 -0.578 0.217 -0.245 0 -0.425 -0.07 -0.578 -0.217 -0.145 -0.14 -0.211 -0.335 -0.211 -0.57 l 0 -5.971 z m 0.22 -10.674 c 0.469 0 0.871 -0.154 1.182 -0.475 0.321 -0.329 0.489 -0.737 0.489 -1.23 0 -0.469 -0.168 -0.871 -0.489 -1.202 -0.31 -0.341 -0.714 -0.511 -1.182 -0.511 -0.499 0 -0.913 0.17 -1.257 0.511 -0.334 0.33 -0.498 0.734 -0.498 1.202 0 0.493 0.164 0.901 0.499 1.23 0.345 0.321 0.758 0.475 1.256 0.475 z" fill="#0f0"/><path d="m 73.068712,67.758117 c -0.6,0 -1.113,0.222 -1.547,0.65 -0.435,0.447 -0.659,0.968 -0.659,1.548 v 5.359 c 0,0.201 0.069,0.383 0.224,0.529 0.144,0.145 0.322,0.211 0.524,0.211 0.233,0 0.411,-0.066 0.555,-0.211 0.124,-0.147 0.19,-0.328 0.19,-0.529 v -4.792 h 0.387 v 13.266 c 0,0.255 0.112,0.492 0.324,0.673 0.199,0.201 0.432,0.287 0.7,0.287 0.29,0 0.523,-0.086 0.713,-0.287 0.201,-0.182 0.292,-0.418 0.292,-0.673 v -7.69 h 0.434 v 7.69 c 0,0.255 0.1,0.492 0.289,0.673 0.19,0.201 0.435,0.287 0.735,0.287 0.255,0 0.479,-0.086 0.679,-0.287 0.188,-0.182 0.274,-0.418 0.274,-0.673 v -13.266 h 0.405 v 4.792 c 0,0.201 0.064,0.383 0.198,0.529 0.16,0.145 0.344,0.211 0.545,0.211 0.236,0 0.415,-0.066 0.549,-0.211 0.121,-0.147 0.198,-0.328 0.198,-0.529 v -5.358 c 0,-0.578 -0.211,-1.1 -0.646,-1.546 -0.424,-0.43 -0.933,-0.65 -1.557,-0.65 h -3.806 z m 1.913,-0.441 c 0.468,0 0.88,-0.154 1.212,-0.475 0.332,-0.33 0.501,-0.738 0.501,-1.230001 0,-0.469 -0.171,-0.871 -0.502,-1.202 -0.333,-0.341 -0.745,-0.511 -1.211,-0.511 -0.491,0 -0.904,0.17 -1.215,0.511 -0.332,0.332 -0.488,0.734 -0.488,1.202 0,0.493001 0.156,0.901001 0.488,1.230001 0.313,0.321 0.726,0.475 1.215,0.475 z" fill="#1cb402"/><path d="m 67.28 77.991 l 0 5.971 c 0 0.235 -0.077 0.429 -0.223 0.57 -0.145 0.147 -0.335 0.217 -0.568 0.217 -0.235 0 -0.436 -0.07 -0.592 -0.217 -0.167 -0.14 -0.243 -0.335 -0.243 -0.57 l 0 -5.971 l -2.237 0 l 2.328 -7.86 l -0.4 0 c -0.255 0.881 -0.47 1.59 -0.639 2.152 -0.152 0.56 -0.32 1.091 -0.466 1.602 -0.166 0.505 -0.278 0.824 -0.289 0.933 -0.101 0.334 -0.322 0.495 -0.668 0.495 l -0.176 -0.042 c -0.323 -0.119 -0.48 -0.328 -0.48 -0.626 0 -0.081 0.012 -0.148 0.044 -0.215 0.023 -0.058 0.09 -0.255 0.168 -0.59 0.09 -0.332 0.211 -0.746 0.356 -1.226 0.145 -0.488 0.302 -1.017 0.467 -1.584 0.168 -0.57 0.322 -1.119 0.511 -1.647 0.112 -0.405 0.356 -0.774 0.735 -1.093 0.377 -0.331 0.77 -0.481 1.179 -0.481 l 2.738 0 c 0.423 0 0.835 0.151 1.202 0.481 0.357 0.321 0.614 0.688 0.757 1.093 0.153 0.529 0.31 1.077 0.465 1.647 0.159 0.567 0.325 1.096 0.459 1.584 0.142 0.481 0.266 0.894 0.354 1.226 0.089 0.335 0.146 0.532 0.177 0.59 l 0.044 0.176 c 0 0.36 -0.168 0.57 -0.49 0.662 l -0.164 0.045 c -0.355 0 -0.578 -0.162 -0.667 -0.495 -0.025 -0.109 -0.124 -0.429 -0.256 -0.933 -0.156 -0.511 -0.314 -1.042 -0.492 -1.602 -0.178 -0.561 -0.387 -1.271 -0.642 -2.154 l -0.402 0 l 2.324 7.862 l -2.201 0 l 0 5.971 c 0 0.235 -0.067 0.429 -0.245 0.57 -0.157 0.147 -0.346 0.217 -0.578 0.217 -0.245 0 -0.425 -0.07 -0.578 -0.217 -0.145 -0.14 -0.211 -0.335 -0.211 -0.57 l 0 -5.971 z m 0.22 -10.674 c 0.469 0 0.871 -0.154 1.182 -0.475 0.321 -0.329 0.489 -0.737 0.489 -1.23 0 -0.469 -0.168 -0.871 -0.489 -1.202 -0.31 -0.341 -0.714 -0.511 -1.182 -0.511 -0.499 0 -0.913 0.17 -1.257 0.511 -0.334 0.33 -0.498 0.734 -0.498 1.202 0 0.493 0.164 0.901 0.499 1.23 0.345 0.321 0.758 0.475 1.256 0.475 z" fill="#0f0"/><path d="m 58.558712,67.758117 c -0.6,0 -1.113,0.222 -1.547,0.65 -0.435,0.447 -0.659,0.968 -0.659,1.548 v 5.359 c 0,0.201 0.069,0.383 0.224,0.529 0.144,0.145 0.322,0.211 0.524,0.211 0.233,0 0.411,-0.066 0.555,-0.211 0.124,-0.147 0.19,-0.328 0.19,-0.529 v -4.792 h 0.387 v 13.266 c 0,0.255 0.112,0.492 0.324,0.673 0.199,0.201 0.432,0.287 0.7,0.287 0.29,0 0.523,-0.086 0.713,-0.287 0.201,-0.182 0.292,-0.418 0.292,-0.673 v -7.69 h 0.434 v 7.69 c 0,0.255 0.1,0.492 0.289,0.673 0.19,0.201 0.435,0.287 0.735,0.287 0.255,0 0.479,-0.086 0.679,-0.287 0.188,-0.182 0.274,-0.418 0.274,-0.673 v -13.266 h 0.405 v 4.792 c 0,0.201 0.064,0.383 0.198,0.529 0.16,0.145 0.344,0.211 0.545,0.211 0.236,0 0.415,-0.066 0.549,-0.211 0.121,-0.147 0.198,-0.328 0.198,-0.529 v -5.358 c 0,-0.578 -0.211,-1.1 -0.646,-1.546 -0.424,-0.43 -0.933,-0.65 -1.557,-0.65 h -3.806 z m 1.913,-0.441 c 0.468,0 0.88,-0.154 1.212,-0.475 0.332,-0.33 0.501,-0.738 0.501,-1.230001 0,-0.469 -0.171,-0.871 -0.502,-1.202 -0.333,-0.341 -0.745,-0.511 -1.211,-0.511 -0.491,0 -0.904,0.17 -1.215,0.511 -0.332,0.332 -0.488,0.734 -0.488,1.202 0,0.493001 0.156,0.901001 0.488,1.230001 0.313,0.321 0.726,0.475 1.215,0.475 z" fill="#1cb402"/></g></g><g aria-label="Горячие клиенты" fill="#f55" stroke-width="0.265"><path d="m 6.35 7 l 0 -3.952 l 2.456 0 l 0 0.397 l -2.031 0 l 0 3.555 z"/><path d="m 10.718 6.393 q 0.292 -0.303 0.292 -0.741 0 -0.441 -0.292 -0.741 -0.289 -0.303 -0.697 -0.303 -0.405 0 -0.697 0.303 -0.289 0.3 -0.289 0.739 0 0.435 0.289 0.741 0.292 0.303 0.697 0.303 0.408 0 0.697 -0.3 z m -1.676 0.259 q -0.402 -0.408 -0.402 -1 q 0 -0.595 0.402 -1 0.405 -0.411 0.981 -0.411 0.576 0 0.978 0.411 0.402 0.408 0.402 1 0 0.593 -0.402 1 -0.402 0.408 -0.978 0.408 -0.576 0 -0.981 -0.408 z"/><path d="m 12.802 4.921 q -0.295 0.311 -0.295 0.73 0 0.416 0.295 0.73 0.298 0.311 0.664 0.311 0.35 0 0.626 -0.303 0.278 -0.306 0.278 -0.739 0 -0.435 -0.278 -0.739 -0.276 -0.306 -0.626 -0.306 -0.367 0 -0.664 0.314 z m -0.295 1.659 l 0 1.61 l -0.394 0 l 0 -3.894 l 0.394 0 l 0 0.424 q 0.011 -0.017 0.039 -0.05 0.03 -0.036 0.119 -0.119 0.091 -0.083 0.196 -0.146 0.105 -0.066 0.267 -0.116 0.165 -0.052 0.339 -0.052 0.518 0 0.907 0.416 0.391 0.416 0.391 0.998 0 0.579 -0.389 0.995 -0.389 0.413 -0.91 0.413 -0.174 0 -0.336 -0.05 -0.16 -0.05 -0.27 -0.119 -0.11 -0.069 -0.193 -0.138 -0.08 -0.072 -0.121 -0.121 z"/><path d="m 15.304 5.2 q 0 -0.389 0.273 -0.645 0.276 -0.259 0.717 -0.259 l 1.155 0 l 0 2.709 l -0.394 0 l 0 -0.904 l -0.791 0 l -0.562 0.904 l -0.452 0 l 0.62 -0.987 q -0.022 -0.006 -0.063 -0.019 -0.039 -0.017 -0.135 -0.074 q -0.096 -0.061 -0.171 -0.143 -0.072 -0.085 -0.135 -0.237 -0.061 -0.152 -0.061 -0.345 m 1.75 -0.537 l -0.761 0 q -0.27 0 -0.433 0.152 -0.16 0.149 -0.16 0.386 0 0.237 0.16 0.386 0.16 0.149 0.433 0.149 l 0.761 0 z"/><path d="m 20.1 7 l 0 -1.1 q -0.311 0.226 -0.761 0.226 -0.463 0 -0.755 -0.289 q -0.289 -0.292 -0.289 -0.755 l 0 -0.791 l 0.394 0 l 0 0.791 q 0 0.292 0.19 0.485 0.19 0.19 0.488 0.19 0.204 0 0.386 -0.061 0.185 -0.063 0.265 -0.13 l 0.083 -0.063 l 0 -1.213 l 0.397 0 l 0 2.709 z"/><path d="m 23.427 4.296 l 0.339 0 l 0 2.709 l -0.397 0 l 0 -2.031 l -1.637 2.031 l -0.336 0 l 0 -2.709 l 0.394 0 l 0 2.031 z"/><path d="m 27.07 5.798 -2.202 -0.006 q 0.022 0.367 0.3 0.634 0.281 0.267 0.659 0.267 0.254 0 0.471 -0.113 0.218 -0.113 0.309 -0.226 l 0.096 -0.11 0.254 0.254 q -0.017 0.022 -0.05 0.063 -0.03 0.039 -0.138 0.135 -0.105 0.094 -0.229 0.168 -0.121 0.072 -0.317 0.135 -0.193 0.061 -0.397 0.061 -0.554 0 -0.954 -0.411 -0.4 -0.413 -0.4 -1 0 -0.587 0.394 -0.998 0.397 -0.413 0.932 -0.413 0.554 0 0.926 0.386 0.372 0.383 0.372 0.97 z m -0.664 -0.951 q -0.251 -0.24 -0.606 -0.24 q -0.356 0 -0.62 0.251 -0.265 0.251 -0.311 0.595 l 1.836 0 q -0.044 -0.367 -0.298 -0.606 z"/><path d="m 29.26 6.244 l 0 0.761 l -0.394 0 l 0 -2.709 l 0.394 0 l 0 1.439 l 1.353 -1.439 l 0.482 0 l -1.045 1.1 1.158 1.61 l -0.452 0 l -0.959 -1.326"/><path d="m 32.01 4.296 l 1.976 0 l 0 2.709 l -0.397 0 l 0 -2.343 l -1.185 0 l 0 0.424 q 0 0.598 -0.061 0.998 -0.058 0.397 -0.176 0.606 -0.119 0.207 -0.262 0.289 -0.143 0.08 -0.347 0.08 -0.069 0 -0.141 -0.014 -0.069 -0.014 -0.102 -0.03 l -0.039 -0.011 l 0 -0.394 q 0.113 0.055 0.226 0.055 0.174 0 0.273 -0.099 0.099 -0.099 0.165 -0.458 0.069 -0.358 0.069 -1.023 z"/><path d="m 36.92 4.296 l 0.339 0 l 0 2.709 l -0.397 0 l 0 -2.031 l -1.637 2.031 l -0.336 0 l 0 -2.709 l 0.394 0 l 0 2.031 z"/><path d="m 40.561 5.798 -2.202 -0.006 q 0.022 0.367 0.3 0.634 0.281 0.267 0.659 0.267 0.254 0 0.471 -0.113 0.218 -0.113 0.309 -0.226 l 0.096 -0.11 0.254 0.254 q -0.017 0.022 -0.05 0.063 -0.03 0.039 -0.138 0.135 -0.105 0.094 -0.229 0.168 -0.121 0.072 -0.317 0.135 -0.193 0.061 -0.397 0.061 -0.554 0 -0.954 -0.411 -0.4 -0.413 -0.4 -1 0 -0.587 0.394 -0.998 0.397 -0.413 0.932 -0.413 0.554 0 0.926 0.386 0.372 0.383 0.372 0.97 z m -0.664 -0.951 q -0.251 -0.24 -0.606 -0.24 q -0.356 0 -0.62 0.251 -0.265 0.251 -0.311 0.595 l 1.836 0 q -0.044 -0.367 -0.298 -0.606 z"/><path d="m 43.24 7 l 0 -1.185 l -1.552 0 l 0 1.185 l -0.394 0 l 0 -2.709 l 0.394 0 l 0 1.158 l 1.552 0 l 0 -1.158 l 0.397 0 l 0 2.709 z"/><path d="m 44.2 4.662 l 0 -0.367 l 2.312 0 l 0 0.367 l -0.959 0 l 0 2.343 l -0.394 0 l 0 -2.343 z"/><path d="m 50.03 4.296 l 0 2.709 l -0.397 0 l 0 -2.709 m -2.172 2.343 l 0.684 0 q 0.265 0 0.424 -0.149 0.163 -0.152 0.163 -0.389 0 -0.237 -0.163 -0.386 q -0.16 -0.149 -0.43 -0.149 l -0.678 0 m 1.4 -0.119 q 0.265 0.248 0.265 0.656 0 0.405 -0.262 0.653 -0.262 0.248 -0.719 0.248 l -1.078 0 l 0 -2.709 l 0.394 0 l 0 0.904 l 0.678 0 q 0.458 0 0.722 0.248 z"/></g><g transform="translate(-38.3 8.03)" stroke-width="0.308"><g fill="#ccc"><path d="m 96.5 54.679 c -0.6 0 -1.113 0.222 -1.547 0.65 -0.435 0.447 -0.659 0.968 -0.659 1.548 l 0 5.359 c 0 0.201 0.069 0.383 0.224 0.529 0.144 0.145 0.322 0.211 0.524 0.211 0.233 0 0.411 -0.066 0.555 -0.211 0.124 -0.147 0.19 -0.328 0.19 -0.529 l 0 -4.792 l 0.387 0 l 0 13.266 c 0 0.255 0.112 0.492 0.324 0.673 0.199 0.201 0.432 0.287 0.7 0.287 0.29 0 0.523 -0.086 0.713 -0.287 0.201 -0.182 0.292 -0.418 0.292 -0.673 l 0 -7.69 l 0.434 0 l 0 7.69 c 0 0.255 0.1 0.492 0.289 0.673 0.19 0.201 0.435 0.287 0.735 0.287 0.255 0 0.479 -0.086 0.679 -0.287 0.188 -0.182 0.274 -0.418 0.274 -0.673 l 0 -13.266 l 0.405 0 l 0 4.792 c 0 0.201 0.064 0.383 0.198 0.529 0.16 0.145 0.344 0.211 0.545 0.211 0.236 0 0.415 -0.066 0.549 -0.211 0.121 -0.147 0.198 -0.328 0.198 -0.529 l 0 -5.358 c 0 -0.578 -0.211 -1.1 -0.646 -1.546 -0.424 -0.43 -0.933 -0.65 -1.557 -0.65 l -3.806 0 z m 1.913 -0.441 c 0.468 0 0.88 -0.154 1.212 -0.475 0.332 -0.33 0.501 -0.738 0.501 -1.23 0 -0.469 -0.171 -0.871 -0.502 -1.202 -0.333 -0.341 -0.745 -0.511 -1.211 -0.511 -0.491 0 -0.904 0.17 -1.215 0.511 -0.332 0.332 -0.488 0.734 -0.488 1.202 0 0.493 0.156 0.901 0.488 1.23 0.313 0.321 0.726 0.475 1.215 0.475 z"/><path d="m 91.52 42.44 c -0.6 0 -1.113 0.222 -1.547 0.65 -0.435 0.447 -0.659 0.968 -0.659 1.548 l 0 5.359 c 0 0.201 0.069 0.383 0.224 0.529 0.144 0.145 0.322 0.211 0.524 0.211 0.233 0 0.411 -0.066 0.555 -0.211 0.124 -0.147 0.19 -0.328 0.19 -0.529 l 0 -4.792 l 0.387 0 l 0 13.266 c 0 0.255 0.112 0.492 0.324 0.673 0.199 0.201 0.432 0.287 0.7 0.287 0.29 0 0.523 -0.086 0.713 -0.287 0.201 -0.182 0.292 -0.418 0.292 -0.673 l 0 -7.69 l 0.434 0 l 0 7.69 c 0 0.255 0.1 0.492 0.289 0.673 0.19 0.201 0.435 0.287 0.735 0.287 0.255 0 0.479 -0.086 0.679 -0.287 0.188 -0.182 0.274 -0.418 0.274 -0.673 l 0 -13.266 l 0.405 0 l 0 4.792 c 0 0.201 0.064 0.383 0.198 0.529 0.16 0.145 0.344 0.211 0.545 0.211 0.236 0 0.415 -0.066 0.549 -0.211 0.121 -0.147 0.198 -0.328 0.198 -0.529 l 0 -5.358 c 0 -0.578 -0.211 -1.1 -0.646 -1.546 -0.424 -0.43 -0.933 -0.65 -1.557 -0.65 l -3.806 0 z m 1.913 -0.441 c 0.468 0 0.88 -0.154 1.212 -0.475 0.332 -0.33 0.501 -0.738 0.501 -1.23 0 -0.469 -0.171 -0.871 -0.502 -1.202 -0.333 -0.341 -0.745 -0.511 -1.211 -0.511 -0.491 0 -0.904 0.17 -1.215 0.511 -0.332 0.332 -0.488 0.734 -0.488 1.202 0 0.493 0.156 0.901 0.488 1.23 0.313 0.321 0.726 0.475 1.215 0.475 z"/></g><g fill="#999"><path d="m 78.47 58.12 l 0 5.971 c 0 0.235 -0.077 0.429 -0.223 0.57 -0.145 0.147 -0.335 0.217 -0.568 0.217 -0.235 0 -0.436 -0.07 -0.592 -0.217 -0.167 -0.14 -0.243 -0.335 -0.243 -0.57 l 0 -5.971 l -2.237 0 l 2.328 -7.86 l -0.4 0 c -0.255 0.881 -0.47 1.59 -0.639 2.152 -0.152 0.56 -0.32 1.091 -0.466 1.602 -0.166 0.505 -0.278 0.824 -0.289 0.934 -0.101 0.334 -0.322 0.495 -0.668 0.495 l -0.176 -0.042 c -0.323 -0.119 -0.48 -0.328 -0.48 -0.626 0 -0.081 0.012 -0.148 0.044 -0.215 0.023 -0.058 0.09 -0.255 0.168 -0.59 0.09 -0.332 0.211 -0.746 0.356 -1.226 0.145 -0.488 0.302 -1.017 0.467 -1.584 0.168 -0.57 0.322 -1.119 0.511 -1.647 0.112 -0.405 0.356 -0.774 0.735 -1.093 0.377 -0.331 0.77 -0.481 1.179 -0.481 l 2.738 0 c 0.423 0 0.835 0.151 1.202 0.481 0.357 0.321 0.614 0.688 0.757 1.093 0.153 0.529 0.31 1.077 0.465 1.647 0.159 0.567 0.325 1.096 0.459 1.584 0.142 0.481 0.266 0.894 0.354 1.226 0.089 0.335 0.146 0.532 0.177 0.59 l 0.044 0.176 c 0 0.36 -0.168 0.57 -0.49 0.662 l -0.164 0.045 c -0.355 0 -0.578 -0.162 -0.667 -0.495 -0.025 -0.109 -0.124 -0.429 -0.256 -0.933 -0.156 -0.511 -0.314 -1.042 -0.492 -1.602 -0.178 -0.561 -0.387 -1.271 -0.642 -2.154 l -0.402 0 l 2.324 7.862 l -2.201 0 l 0 5.971 c 0 0.235 -0.067 0.429 -0.245 0.57 -0.157 0.147 -0.346 0.217 -0.578 0.217 -0.245 0 -0.425 -0.07 -0.578 -0.217 -0.145 -0.14 -0.211 -0.335 -0.211 -0.57 l 0 -5.971 z m 0.22 -10.674 c 0.469 0 0.871 -0.154 1.182 -0.475 0.321 -0.329 0.489 -0.737 0.489 -1.23 0 -0.469 -0.168 -0.871 -0.489 -1.202 -0.31 -0.341 -0.714 -0.511 -1.182 -0.511 -0.499 0 -0.913 0.17 -1.257 0.511 -0.334 0.33 -0.498 0.734 -0.498 1.202 0 0.493 0.164 0.901 0.499 1.23 0.345 0.321 0.758 0.475 1.256 0.475 z"/><path d="m 86.1 44.06 c -0.6 0 -1.113 0.222 -1.547 0.65 -0.435 0.447 -0.659 0.968 -0.659 1.548 l 0 5.359 c 0 0.201 0.069 0.383 0.224 0.529 0.144 0.145 0.322 0.211 0.524 0.211 0.233 0 0.411 -0.066 0.555 -0.211 0.124 -0.147 0.19 -0.328 0.19 -0.529 l 0 -4.792 l 0.387 0 l 0 13.266 c 0 0.255 0.112 0.492 0.324 0.673 0.199 0.201 0.432 0.287 0.7 0.287 0.29 0 0.523 -0.086 0.713 -0.287 0.201 -0.182 0.292 -0.418 0.292 -0.673 l 0 -7.69 l 0.434 0 l 0 7.69 c 0 0.255 0.1 0.492 0.289 0.673 0.19 0.201 0.435 0.287 0.735 0.287 0.255 0 0.479 -0.086 0.679 -0.287 0.188 -0.182 0.274 -0.418 0.274 -0.673 l 0 -13.266 l 0.405 0 l 0 4.792 c 0 0.201 0.064 0.383 0.198 0.529 0.16 0.145 0.344 0.211 0.545 0.211 0.236 0 0.415 -0.066 0.549 -0.211 0.121 -0.147 0.198 -0.328 0.198 -0.529 l 0 -5.358 c 0 -0.578 -0.211 -1.1 -0.646 -1.546 -0.424 -0.43 -0.933 -0.65 -1.557 -0.65 l -3.806 0 z m 1.913 -0.441 c 0.468 0 0.88 -0.154 1.212 -0.475 0.332 -0.33 0.501 -0.738 0.501 -1.23 0 -0.469 -0.171 -0.871 -0.502 -1.202 -0.333 -0.341 -0.745 -0.511 -1.211 -0.511 -0.491 0 -0.904 0.17 -1.215 0.511 -0.332 0.332 -0.488 0.734 -0.488 1.202 0 0.493 0.156 0.901 0.488 1.23 0.313 0.321 0.726 0.475 1.215 0.475 z"/></g><path d="m 87.63 65.45 l 0 5.971 c 0 0.235 -0.077 0.429 -0.223 0.57 -0.145 0.147 -0.335 0.217 -0.568 0.217 -0.235 0 -0.436 -0.07 -0.592 -0.217 -0.167 -0.14 -0.243 -0.335 -0.243 -0.57 l 0 -5.971 l -2.237 0 l 2.328 -7.86 l -0.4 0 c -0.255 0.881 -0.47 1.59 -0.639 2.152 -0.152 0.56 -0.32 1.091 -0.466 1.602 -0.166 0.505 -0.277 0.824 -0.289 0.933 -0.101 0.334 -0.322 0.495 -0.668 0.495 l -0.176 -0.042 c -0.323 -0.119 -0.48 -0.328 -0.48 -0.626 0 -0.081 0.012 -0.148 0.044 -0.215 0.023 -0.058 0.09 -0.255 0.168 -0.59 0.09 -0.332 0.211 -0.746 0.356 -1.226 0.145 -0.488 0.302 -1.017 0.467 -1.584 0.168 -0.57 0.322 -1.119 0.511 -1.647 0.112 -0.405 0.356 -0.774 0.735 -1.093 0.377 -0.331 0.77 -0.481 1.179 -0.481 l 2.738 0 c 0.423 0 0.835 0.151 1.202 0.481 0.357 0.321 0.614 0.688 0.757 1.093 0.153 0.529 0.31 1.077 0.465 1.647 0.159 0.567 0.325 1.095 0.459 1.584 0.142 0.481 0.266 0.894 0.354 1.226 0.089 0.335 0.146 0.532 0.177 0.59 l 0.044 0.176 c 0 0.36 -0.168 0.57 -0.49 0.662 l -0.164 0.045 c -0.355 0 -0.578 -0.162 -0.667 -0.495 -0.025 -0.109 -0.124 -0.429 -0.256 -0.934 -0.156 -0.511 -0.314 -1.042 -0.492 -1.602 -0.178 -0.561 -0.387 -1.271 -0.642 -2.154 l -0.402 0 l 2.324 7.862 l -2.201 0 l 0 5.971 c 0 0.235 -0.067 0.429 -0.245 0.57 -0.157 0.147 -0.346 0.217 -0.578 0.217 -0.245 0 -0.425 -0.07 -0.578 -0.217 -0.145 -0.14 -0.211 -0.335 -0.211 -0.57 l 0 -5.971 z m 0.22 -10.674 c 0.469 0 0.871 -0.154 1.182 -0.475 0.321 -0.329 0.489 -0.737 0.489 -1.23 0 -0.469 -0.168 -0.871 -0.489 -1.202 -0.31 -0.341 -0.714 -0.511 -1.182 -0.511 -0.499 0 -0.913 0.17 -1.257 0.511 -0.334 0.33 -0.498 0.734 -0.498 1.202 0 0.493 0.164 0.901 0.499 1.23 0.345 0.321 0.758 0.475 1.256 0.475 z" fill="#ccc"/><path d="m 104.95 45.42 c -0.6 0 -1.113 0.222 -1.547 0.65 -0.435 0.447 -0.659 0.968 -0.659 1.548 l 0 5.359 c 0 0.201 0.069 0.383 0.224 0.529 0.144 0.145 0.322 0.211 0.524 0.211 0.233 0 0.411 -0.066 0.555 -0.211 0.124 -0.147 0.19 -0.328 0.19 -0.529 l 0 -4.792 l 0.387 0 l 0 13.266 c 0 0.255 0.112 0.492 0.324 0.673 0.199 0.201 0.432 0.287 0.7 0.287 0.29 0 0.523 -0.086 0.713 -0.287 0.201 -0.182 0.292 -0.418 0.292 -0.673 l 0 -7.69 l 0.434 0 l 0 7.69 c 0 0.255 0.1 0.492 0.289 0.673 0.19 0.201 0.435 0.287 0.735 0.287 0.255 0 0.479 -0.086 0.679 -0.287 0.188 -0.182 0.274 -0.418 0.274 -0.673 l 0 -13.266 l 0.405 0 l 0 4.792 c 0 0.201 0.064 0.383 0.198 0.529 0.16 0.145 0.344 0.211 0.545 0.211 0.236 0 0.415 -0.066 0.549 -0.211 0.121 -0.147 0.198 -0.328 0.198 -0.529 l 0 -5.358 c 0 -0.578 -0.211 -1.1 -0.646 -1.546 -0.424 -0.43 -0.933 -0.65 -1.557 -0.65 l -3.806 0 z m 1.913 -0.441 c 0.468 0 0.88 -0.154 1.212 -0.475 0.332 -0.33 0.501 -0.738 0.501 -1.23 0 -0.469 -0.171 -0.871 -0.502 -1.202 -0.333 -0.341 -0.745 -0.511 -1.211 -0.511 -0.491 0 -0.904 0.17 -1.215 0.511 -0.332 0.332 -0.488 0.734 -0.488 1.202 0 0.493 0.156 0.901 0.488 1.23 0.313 0.321 0.726 0.475 1.215 0.475 z" fill="#b3b3b3"/><g fill="#808080"><path d="m 69.73 42.479 c -0.6 0 -1.113 0.222 -1.547 0.65 -0.435 0.447 -0.659 0.968 -0.659 1.548 l 0 5.359 c 0 0.201 0.069 0.383 0.224 0.529 0.144 0.145 0.322 0.211 0.524 0.211 0.233 0 0.411 -0.066 0.555 -0.211 0.124 -0.147 0.19 -0.328 0.19 -0.529 l 0 -4.792 l 0.387 0 l 0 13.266 c 0 0.255 0.112 0.492 0.324 0.673 0.199 0.201 0.432 0.287 0.7 0.287 0.29 0 0.523 -0.086 0.713 -0.287 0.201 -0.182 0.292 -0.418 0.292 -0.673 l 0 -7.69 l 0.434 0 l 0 7.69 c 0 0.255 0.1 0.492 0.289 0.673 0.19 0.201 0.435 0.287 0.735 0.287 0.255 0 0.479 -0.086 0.679 -0.287 0.188 -0.182 0.274 -0.418 0.274 -0.673 l 0 -13.266 l 0.405 0 l 0 4.792 c 0 0.201 0.064 0.383 0.198 0.529 0.16 0.145 0.344 0.211 0.545 0.211 0.236 0 0.415 -0.066 0.549 -0.211 0.121 -0.147 0.198 -0.328 0.198 -0.529 l 0 -5.358 c 0 -0.578 -0.211 -1.1 -0.646 -1.546 -0.424 -0.43 -0.933 -0.65 -1.557 -0.65 l -3.806 0 z m 1.913 -0.441 c 0.468 0 0.88 -0.154 1.212 -0.475 0.332 -0.33 0.501 -0.738 0.501 -1.23 0 -0.469 -0.171 -0.871 -0.502 -1.202 -0.333 -0.341 -0.745 -0.511 -1.211 -0.511 -0.491 0 -0.904 0.17 -1.215 0.511 -0.332 0.332 -0.488 0.734 -0.488 1.202 0 0.493 0.156 0.901 0.488 1.23 0.313 0.321 0.726 0.475 1.215 0.475 z"/><path d="m 67.927 63.779 l 0 5.971 c 0 0.235 -0.077 0.429 -0.223 0.57 -0.145 0.147 -0.335 0.217 -0.568 0.217 -0.235 0 -0.436 -0.07 -0.592 -0.217 -0.167 -0.14 -0.243 -0.335 -0.243 -0.57 l 0 -5.971 l -2.237 0 l 2.328 -7.86 l -0.4 0 c -0.255 0.881 -0.47 1.59 -0.639 2.152 -0.152 0.56 -0.32 1.091 -0.466 1.602 -0.166 0.505 -0.277 0.824 -0.289 0.934 -0.101 0.334 -0.322 0.495 -0.668 0.495 l -0.176 -0.042 c -0.323 -0.119 -0.48 -0.328 -0.48 -0.626 0 -0.081 0.012 -0.148 0.044 -0.215 0.023 -0.058 0.09 -0.255 0.168 -0.59 0.09 -0.332 0.211 -0.746 0.356 -1.226 0.145 -0.488 0.302 -1.017 0.467 -1.584 0.168 -0.57 0.322 -1.119 0.511 -1.647 0.112 -0.405 0.356 -0.774 0.735 -1.093 0.377 -0.331 0.77 -0.481 1.179 -0.481 l 2.738 0 c 0.423 0 0.835 0.151 1.202 0.481 0.357 0.321 0.614 0.688 0.757 1.093 0.153 0.529 0.31 1.077 0.465 1.647 0.159 0.567 0.325 1.095 0.459 1.584 0.142 0.481 0.266 0.894 0.354 1.226 0.089 0.335 0.146 0.532 0.177 0.59 l 0.044 0.176 c 0 0.36 -0.168 0.57 -0.49 0.662 l -0.164 0.045 c -0.355 0 -0.578 -0.162 -0.667 -0.495 -0.025 -0.109 -0.124 -0.429 -0.256 -0.933 -0.156 -0.511 -0.314 -1.042 -0.492 -1.602 -0.178 -0.561 -0.387 -1.271 -0.642 -2.154 l -0.402 0 l 2.324 7.862 l -2.201 0 l 0 5.971 c 0 0.235 -0.067 0.429 -0.245 0.57 -0.157 0.147 -0.346 0.217 -0.578 0.217 -0.245 0 -0.425 -0.07 -0.578 -0.217 -0.145 -0.14 -0.211 -0.335 -0.211 -0.57 l 0 -5.971 z m 0.22 -10.674 c 0.469 0 0.871 -0.154 1.182 -0.475 0.321 -0.329 0.489 -0.737 0.489 -1.23 0 -0.469 -0.168 -0.871 -0.489 -1.202 -0.31 -0.341 -0.714 -0.511 -1.182 -0.511 -0.499 0 -0.913 0.17 -1.257 0.511 -0.334 0.33 -0.498 0.734 -0.498 1.202 0 0.493 0.164 0.901 0.499 1.23 0.345 0.321 0.758 0.475 1.256 0.475 z"/></g><path d="m 63.937 52.579 l 0 5.971 c 0 0.235 -0.077 0.429 -0.223 0.57 -0.145 0.147 -0.335 0.217 -0.568 0.217 -0.235 0 -0.436 -0.07 -0.592 -0.217 -0.167 -0.14 -0.243 -0.335 -0.243 -0.57 l 0 -5.971 l -2.237 0 l 2.328 -7.86 l -0.4 0 c -0.255 0.881 -0.47 1.59 -0.639 2.152 -0.152 0.56 -0.32 1.091 -0.466 1.602 -0.166 0.505 -0.278 0.824 -0.289 0.933 -0.101 0.334 -0.322 0.495 -0.668 0.495 l -0.176 -0.042 c -0.323 -0.119 -0.48 -0.328 -0.48 -0.626 0 -0.081 0.012 -0.148 0.044 -0.215 0.023 -0.058 0.09 -0.255 0.168 -0.59 0.09 -0.332 0.211 -0.746 0.356 -1.226 0.145 -0.488 0.302 -1.017 0.467 -1.584 0.168 -0.57 0.322 -1.119 0.511 -1.647 0.112 -0.405 0.356 -0.774 0.735 -1.093 0.377 -0.331 0.77 -0.481 1.179 -0.481 l 2.738 0 c 0.423 0 0.835 0.151 1.202 0.481 0.357 0.321 0.614 0.688 0.757 1.093 0.153 0.529 0.31 1.077 0.465 1.647 0.159 0.567 0.325 1.096 0.459 1.584 0.142 0.481 0.266 0.894 0.354 1.226 0.089 0.335 0.146 0.532 0.177 0.59 l 0.044 0.176 c 0 0.36 -0.168 0.57 -0.49 0.662 l -0.164 0.045 c -0.355 0 -0.578 -0.162 -0.667 -0.495 -0.025 -0.109 -0.124 -0.429 -0.256 -0.933 -0.156 -0.511 -0.314 -1.042 -0.492 -1.602 -0.178 -0.561 -0.387 -1.271 -0.642 -2.154 l -0.402 0 l 2.324 7.862 l -2.201 0 l 0 5.971 c 0 0.235 -0.067 0.429 -0.245 0.57 -0.157 0.147 -0.346 0.217 -0.578 0.217 -0.245 0 -0.425 -0.07 -0.578 -0.217 -0.145 -0.14 -0.211 -0.335 -0.211 -0.57 l 0 -5.971 z m 0.22 -10.674 c 0.469 0 0.871 -0.154 1.182 -0.475 0.321 -0.329 0.489 -0.737 0.489 -1.23 0 -0.469 -0.168 -0.871 -0.489 -1.202 -0.31 -0.341 -0.714 -0.511 -1.182 -0.511 -0.499 0 -0.913 0.17 -1.257 0.511 -0.334 0.33 -0.498 0.734 -0.498 1.202 0 0.493 0.164 0.901 0.499 1.23 0.345 0.321 0.758 0.475 1.256 0.475 z" fill="#b3b3b3"/><path d="m 55.22 42.34 c -0.6 0 -1.113 0.222 -1.547 0.65 -0.435 0.447 -0.659 0.968 -0.659 1.548 l 0 5.359 c 0 0.201 0.069 0.383 0.224 0.529 0.144 0.145 0.322 0.211 0.524 0.211 0.233 0 0.411 -0.066 0.555 -0.211 0.124 -0.147 0.19 -0.328 0.19 -0.529 l 0 -4.792 l 0.387 0 l 0 13.266 c 0 0.255 0.112 0.492 0.324 0.673 0.199 0.201 0.432 0.287 0.7 0.287 0.29 0 0.523 -0.086 0.713 -0.287 0.201 -0.182 0.292 -0.418 0.292 -0.673 l 0 -7.69 l 0.434 0 l 0 7.69 c 0 0.255 0.1 0.492 0.289 0.673 0.19 0.201 0.435 0.287 0.735 0.287 0.255 0 0.479 -0.086 0.679 -0.287 0.188 -0.182 0.274 -0.418 0.274 -0.673 l 0 -13.266 l 0.405 0 l 0 4.792 c 0 0.201 0.064 0.383 0.198 0.529 0.16 0.145 0.344 0.211 0.545 0.211 0.236 0 0.415 -0.066 0.549 -0.211 0.121 -0.147 0.198 -0.328 0.198 -0.529 l 0 -5.358 c 0 -0.578 -0.211 -1.1 -0.646 -1.546 -0.424 -0.43 -0.933 -0.65 -1.557 -0.65 l -3.806 0 z m 1.913 -0.441 c 0.468 0 0.88 -0.154 1.212 -0.475 0.332 -0.33 0.501 -0.738 0.501 -1.23 0 -0.469 -0.171 -0.871 -0.502 -1.202 -0.333 -0.341 -0.745 -0.511 -1.211 -0.511 -0.491 0 -0.904 0.17 -1.215 0.511 -0.332 0.332 -0.488 0.734 -0.488 1.202 0 0.493 0.156 0.901 0.488 1.23 0.313 0.321 0.726 0.475 1.215 0.475 z" fill="#999"/></g><g aria-label="Неопределившиеся клиенты" fill="#b3b3b3" stroke-width="0.265"><path d="m 6.35 44.779 l 0 -3.952 l 0.424 0 l 0 1.75 l 2.199 0 l 0 -1.75 l 0.424 0 l 0 3.952 l -0.424 0 l 0 -1.805 l -2.199 0 l 0 1.805 z"/><path d="m 12.813 43.572 -2.202 -0.005 q 0.022 0.367 0.3 0.634 0.281 0.267 0.659 0.267 0.254 0 0.471 -0.113 0.218 -0.113 0.309 -0.226 l 0.096 -0.11 0.254 0.254 q -0.017 0.022 -0.05 0.063 -0.03 0.039 -0.138 0.135 -0.105 0.094 -0.229 0.168 -0.121 0.072 -0.317 0.135 -0.193 0.061 -0.397 0.061 -0.554 0 -0.954 -0.411 -0.4 -0.413 -0.4 -1 0 -0.587 0.394 -0.998 0.397 -0.413 0.932 -0.413 0.554 0 0.926 0.386 0.372 0.383 0.372 0.97 z m -0.664 -0.951 q -0.251 -0.24 -0.606 -0.24 -0.356 0 -0.62 0.251 -0.265 0.251 -0.311 0.595 l 1.836 0 q -0.044 -0.367 -0.298 -0.606 z"/><path d="m 15.426 44.17 q 0.292 -0.303 0.292 -0.741 0 -0.441 -0.292 -0.741 -0.289 -0.303 -0.697 -0.303 -0.405 0 -0.697 0.303 -0.289 0.3 -0.289 0.739 0 0.435 0.289 0.741 0.292 0.303 0.697 0.303 0.408 0 0.697 -0.3 z m -1.676 0.259 q -0.402 -0.408 -0.402 -1 0 -0.595 0.402 -1 0.405 -0.411 0.981 -0.411 0.576 0 0.978 0.411 0.402 0.408 0.402 1 0 0.593 -0.402 1 -0.402 0.408 -0.978 0.408 -0.576 0 -0.981 -0.408 z"/><path d="m 18.766 44.779 l 0 -2.337 l -1.552 0 l 0 2.337 l -0.394 0 l 0 -2.709 l 2.343 0 l 0 2.709 z"/><path d="m 20.751 42.695 q -0.295 0.311 -0.295 0.73 0 0.416 0.295 0.73 0.298 0.311 0.664 0.311 0.35 0 0.626 -0.303 0.278 -0.306 0.278 -0.739 0 -0.435 -0.278 -0.739 -0.276 -0.306 -0.626 -0.306 -0.367 0 -0.664 0.314 z m -0.295 1.659 l 0 1.61 l -0.394 0 l 0 -3.894 l 0.394 0 l 0 0.424 q 0.011 -0.017 0.039 -0.05 0.03 -0.036 0.119 -0.119 0.091 -0.083 0.196 -0.146 0.105 -0.066 0.267 -0.116 0.165 -0.052 0.339 -0.052 0.518 0 0.907 0.416 0.391 0.416 0.391 0.998 0 0.579 -0.389 0.995 -0.389 0.413 -0.91 0.413 -0.174 0 -0.336 -0.05 -0.16 -0.05 -0.27 -0.119 -0.11 -0.069 -0.193 -0.138 -0.08 -0.072 -0.121 -0.121 z"/><path d="m 25.822 43.572 -2.202 -0.005 q 0.022 0.367 0.3 0.634 0.281 0.267 0.659 0.267 0.254 0 0.471 -0.113 0.218 -0.113 0.309 -0.226 l 0.096 -0.11 0.254 0.254 q -0.017 0.022 -0.05 0.063 -0.03 0.039 -0.138 0.135 -0.105 0.094 -0.229 0.168 -0.121 0.072 -0.317 0.135 -0.193 0.061 -0.397 0.061 -0.554 0 -0.954 -0.411 -0.4 -0.413 -0.4 -1 0 -0.587 0.394 -0.998 0.397 -0.413 0.932 -0.413 0.554 0 0.926 0.386 0.372 0.383 0.372 0.97 z m -0.664 -0.951 q -0.251 -0.24 -0.606 -0.24 -0.356 0 -0.62 0.251 -0.265 0.251 -0.311 0.595 l 1.836 0 q -0.044 -0.367 -0.298 -0.606 z"/><path d="m 29.07 44.41 l 0 1.045 l -0.394 0 l 0 -0.678 l -2.175 0 l 0 0.678 l -0.394 0 l 0 -1.045 l 0.196 0 q 0.017 -0.017 0.05 -0.055 0.036 -0.041 0.119 -0.182 0.083 -0.141 0.146 -0.303 0.066 -0.165 0.116 -0.438 0.052 -0.276 0.052 -0.573 l 0 -0.791 l 1.86 0 l 0 2.343 z m -1.891 -1.976 l 0 0.424 q 0 0.463 -0.113 0.849 -0.113 0.386 -0.226 0.546 l -0.113 0.157 l 1.524 0 l 0 -1.976"/><path d="m 32.08 43.572 -2.202 -0.005 q 0.022 0.367 0.3 0.634 0.281 0.267 0.659 0.267 0.254 0 0.471 -0.113 0.218 -0.113 0.309 -0.226 l 0.096 -0.11 0.254 0.254 q -0.017 0.022 -0.05 0.063 -0.03 0.039 -0.138 0.135 -0.105 0.094 -0.229 0.168 -0.121 0.072 -0.317 0.135 -0.193 0.061 -0.397 0.061 -0.554 0 -0.954 -0.411 -0.4 -0.413 -0.4 -1 0 -0.587 0.394 -0.998 0.397 -0.413 0.932 -0.413 0.554 0 0.926 0.386 0.372 0.383 0.372 0.97 z m -0.664 -0.951 q -0.251 -0.24 -0.606 -0.24 -0.356 0 -0.62 0.251 -0.265 0.251 -0.311 0.595 l 1.836 0 q -0.044 -0.367 -0.298 -0.606 z"/><path d="m 33.1 42.07 l 1.976 0 l 0 2.709 l -0.397 0 l 0 -2.343 l -1.185 0 l 0 0.424 q 0 0.598 -0.061 0.998 -0.058 0.397 -0.176 0.606 -0.119 0.207 -0.262 0.289 -0.143 0.08 -0.347 0.08 -0.069 0 -0.141 -0.014 -0.069 -0.014 -0.102 -0.03 l -0.039 -0.011 l 0 -0.394 q 0.113 0.055 0.226 0.055 0.174 0 0.273 -0.099 0.099 -0.099 0.165 -0.458 0.069 -0.358 0.069 -1.023 z"/><path d="m 38.01 42.07 l 0.339 0 l 0 2.709 l -0.397 0 l 0 -2.031 l -1.637 2.031 l -0.336 0 l 0 -2.709 l 0.394 0 l 0 2.031 z"/><path d="m 39.25 42.07 l 1.24 0 q 0.372 0 0.595 0.201 0.223 0.198 0.223 0.504 0 0.174 -0.085 0.317 -0.083 0.141 -0.168 0.196 l -0.085 0.052 q 0.017 0.005 0.047 0.017 0.033 0.011 0.11 0.061 0.08 0.047 0.138 0.113 0.061 0.063 0.107 0.185 0.05 0.121 0.05 0.273 0 0.367 -0.229 0.579 -0.229 0.212 -0.645 0.212 l -1.298 0 z m 1.298 1.439 l -0.904 0 l 0 0.904 l 0.904 0 q 0.232 0 0.356 -0.119 0.124 -0.119 0.124 -0.333 0 -0.215 -0.124 -0.333 -0.124 -0.119 -0.356 -0.119 z m -0.058 -0.339 q 0.424 0 0.424 -0.367 0 -0.367 -0.424 -0.367 l -0.846 0 l 0 0.733 z"/><path d="m 42.19 44.779 l 0 -2.709 l 0.394 0 l 0 2.343 l 1.158 0 l 0 -2.343 l 0.4 0 l 0 2.343 l 1.152 0 l 0 -2.343 l 0.394 0 l 0 2.709 z"/><path d="m 48.617 42.07 l 0.339 0 l 0 2.709 l -0.397 0 l 0 -2.031 l -1.637 2.031 l -0.336 0 l 0 -2.709 l 0.394 0 l 0 2.031 z"/><path d="m 52.26 43.572 -2.202 -0.005 q 0.022 0.367 0.3 0.634 0.281 0.267 0.659 0.267 0.254 0 0.471 -0.113 0.218 -0.113 0.309 -0.226 l 0.096 -0.11 0.254 0.254 q -0.017 0.022 -0.05 0.063 -0.03 0.039 -0.138 0.135 -0.105 0.094 -0.229 0.168 -0.121 0.072 -0.317 0.135 -0.193 0.061 -0.397 0.061 -0.554 0 -0.954 -0.411 -0.4 -0.413 -0.4 -1 0 -0.587 0.394 -0.998 0.397 -0.413 0.932 -0.413 0.554 0 0.926 0.386 0.372 0.383 0.372 0.97 z m -0.664 -0.951 q -0.251 -0.24 -0.606 -0.24 -0.356 0 -0.62 0.251 -0.265 0.251 -0.311 0.595 l 1.836 0 q -0.044 -0.367 -0.298 -0.606 z"/><path d="m 53.19 44.42 q -0.4 -0.413 -0.4 -1 0 -0.587 0.4 -0.998 0.402 -0.413 0.954 -0.413 0.317 0 0.59 0.138 0.276 0.135 0.394 0.27 l 0.119 0.13 -0.284 0.281 q -0.011 -0.017 -0.033 -0.047 -0.022 -0.03 -0.099 -0.11 -0.074 -0.08 -0.163 -0.138 -0.088 -0.061 -0.229 -0.107 -0.141 -0.047 -0.295 -0.047 -0.389 0 -0.675 0.303 -0.284 0.3 -0.284 0.741 0 0.438 0.284 0.741 0.287 0.3 0.675 0.3 0.237 0 0.449 -0.113 0.212 -0.113 0.309 -0.226 l 0.091 -0.11 0.281 0.254 q -0.017 0.022 -0.052 0.063 -0.033 0.039 -0.143 0.135 -0.11 0.094 -0.232 0.168 -0.121 0.072 -0.314 0.135 -0.19 0.061 -0.389 0.061 -0.554 0 -0.954 -0.411 z"/><path d="m 55.731 42.974 q 0 -0.389 0.273 -0.645 0.276 -0.259 0.717 -0.259 l 1.155 0 l 0 2.709 l -0.394 0 l 0 -0.904 l -0.791 0 l -0.562 0.904 l -0.452 0 l 0.62 -0.987 q -0.022 -0.005 -0.063 -0.019 -0.039 -0.017 -0.135 -0.074 -0.096 -0.061 -0.171 -0.143 -0.072 -0.085 -0.135 -0.237 -0.061 -0.152 -0.061 -0.345 z m 1.75 -0.537 l -0.761 0 q -0.27 0 -0.433 0.152 -0.16 0.149 -0.16 0.386 0 0.237 0.16 0.386 0.16 0.149 0.433 0.149 l 0.761 0 z"/><path d="m 60.24 44.02 l 0 0.761 l -0.394 0 l 0 -2.709 l 0.394 0 l 0 1.439 l 1.353 -1.439 l 0.482 0 l -1.045 1.1 1.158 1.61 l -0.452 0 l -0.959 -1.326 z"/><path d="m 62.985 42.07 l 1.976 0 l 0 2.709 l -0.397 0 l 0 -2.343 l -1.185 0 l 0 0.424 q 0 0.598 -0.061 0.998 -0.058 0.397 -0.176 0.606 -0.119 0.207 -0.262 0.289 -0.143 0.08 -0.347 0.08 -0.069 0 -0.141 -0.014 -0.069 -0.014 -0.102 -0.03 l -0.039 -0.011 l 0 -0.394 q 0.113 0.055 0.226 0.055 0.174 0 0.273 -0.099 0.099 -0.099 0.165 -0.458 0.069 -0.358 0.069 -1.023 z"/><path d="m 67.899 42.07 l 0.339 0 l 0 2.709 l -0.397 0 l 0 -2.031 l -1.637 2.031 l -0.336 0 l 0 -2.709 l 0.394 0 l 0 2.031 z"/><path d="m 71.54 43.572 -2.202 -0.005 q 0.022 0.367 0.3 0.634 0.281 0.267 0.659 0.267 0.254 0 0.471 -0.113 0.218 -0.113 0.309 -0.226 l 0.096 -0.11 0.254 0.254 q -0.017 0.022 -0.05 0.063 -0.03 0.039 -0.138 0.135 -0.105 0.094 -0.229 0.168 -0.121 0.072 -0.317 0.135 -0.193 0.061 -0.397 0.061 -0.554 0 -0.954 -0.411 -0.4 -0.413 -0.4 -1 0 -0.587 0.394 -0.998 0.397 -0.413 0.932 -0.413 0.554 0 0.926 0.386 0.372 0.383 0.372 0.97 z m -0.664 -0.951 q -0.251 -0.24 -0.606 -0.24 -0.356 0 -0.62 0.251 -0.265 0.251 -0.311 0.595 l 1.836 0 q -0.044 -0.367 -0.298 -0.606 z"/><path d="m 74.22 44.779 l 0 -1.185 l -1.552 0 l 0 1.185 l -0.394 0 l 0 -2.709 l 0.394 0 l 0 1.158 l 1.552 0 l 0 -1.158 l 0.397 0 l 0 2.709 z"/><path d="m 75.17 42.44 l 0 -0.367 l 2.312 0 l 0 0.367 l -0.959 0 l 0 2.343 l -0.394 0 l 0 -2.343"/><path d="m 81.01 42.07 l 0 2.709 l -0.397 0 l 0 -2.709 z m -2.569 2.343 l 0.684 0 q 0.265 0 0.424 -0.149 0.163 -0.152 0.163 -0.389 0 -0.237 -0.163 -0.386 -0.16 -0.149 -0.43 -0.149 l -0.678 0 m 1.4 -0.119 q 0.265 0.248 0.265 0.656 0 0.405 -0.262 0.653 -0.262 0.248 -0.719 0.248 l -1.078 0 l 0 -2.709 l 0.394 0 l 0 0.904 l 0.678 0 q 0.458 0 0.722 0.248 z"/></g><g aria-label="Старые клиенты" fill="#1cb402" stroke-width="0.265"><path d="m 5.884 90.34 q -0.593 -0.593 -0.593 -1.439 q 0 -0.846 0.593 -1.439 0.593 -0.593 1.439 -0.593 0.3 0 0.576 0.085 0.276 0.083 0.455 0.201 0.182 0.119 0.317 0.24 0.138 0.121 0.198 0.207 l 0.063 0.085 -0.284 0.254 q -0.017 -0.028 -0.05 -0.072 -0.033 -0.047 -0.154 -0.163 -0.121 -0.116 -0.265 -0.204 -0.141 -0.091 -0.372 -0.165 q -0.232 -0.074 -0.485 -0.074 -0.678 0 -1.144 0.471 -0.466 0.471 -0.466 1.166 0 0.695 0.466 1.166 0.466 0.471 1.144 0.471 0.254 0 0.485 -0.069 0.232 -0.072 0.383 -0.171 0.154 -0.099 0.27 -0.196 0.116 -0.099 0.165 -0.174 l 0.052 -0.069 0.281 0.256 q -0.022 0.033 -0.069 0.088 -0.044 0.052 -0.201 0.193 -0.154 0.141 -0.328 0.251 -0.174 0.11 -0.458 0.198 -0.281 0.085 -0.582 0.085 -0.846 0 -1.439 -0.593 z"/><path d="m 9.194 88.53 l 0 -0.367 l 2.312 0 l 0 0.367 l -0.959 0 l 0 2.343 l -0.394 0 l 0 -2.343 z"/><path d="m 12.661 89.33 1.045 -0.171 q 0 -0.3 -0.19 -0.488 -0.19 -0.187 -0.488 -0.187 -0.215 0 -0.405 0.099 -0.187 0.096 -0.273 0.198 l -0.085 0.096 -0.254 -0.254 q 0.017 -0.022 0.044 -0.055 0.03 -0.036 0.127 -0.121 0.099 -0.088 0.207 -0.157 0.107 -0.069 0.281 -0.121 0.176 -0.055 0.358 -0.055 0.463 0 0.766 0.3 0.306 0.3 0.306 0.744 l 0 1.723 l -0.394 0 l 0 -0.367 q -0.011 0.017 -0.036 0.047 -0.022 0.028 -0.105 0.102 -0.08 0.072 -0.174 0.13 -0.094 0.055 -0.248 0.099 -0.152 0.044 -0.314 0.044 -0.405 0 -0.684 -0.24 -0.276 -0.24 -0.276 -0.548 0 -0.339 0.204 -0.546 0.204 -0.209 0.587 -0.273 z m 0.168 1.24 q 0.383 0 0.628 -0.251 0.248 -0.251 0.248 -0.65 l 0 -0.171 l -0.932 0.171 q -0.507 0.096 -0.51 0.48 0 0.182 0.149 0.303 0.152 0.119 0.416 0.119 z"/><path d="m 15.69 88.79 q -0.295 0.311 -0.295 0.73 0 0.416 0.295 0.73 0.298 0.311 0.664 0.311 0.35 0 0.626 -0.303 0.278 -0.306 0.278 -0.739 0 -0.435 -0.278 -0.739 -0.276 -0.306 -0.626 -0.306 -0.367 0 -0.664 0.314 z m -0.295 1.659 l 0 1.61 l -0.394 0 l 0 -3.894 l 0.394 0 l 0 0.424 q 0.011 -0.017 0.039 -0.05 0.03 -0.036 0.119 -0.119 0.091 -0.083 0.196 -0.146 0.105 -0.066 0.267 -0.116 0.165 -0.052 0.339 -0.052 0.518 0 0.907 0.416 0.391 0.416 0.391 0.998 0 0.579 -0.389 0.995 -0.389 0.413 -0.91 0.413 -0.174 0 -0.336 -0.05 -0.16 -0.05 -0.27 -0.119 -0.11 -0.069 -0.193 -0.138 -0.08 -0.072 -0.121 -0.121 z"/><path d="m 21.327 88.17 l 0 2.709 l -0.397 0 l 0 -2.709 z m -2.569 2.343 l 0.684 0 q 0.265 0 0.424 -0.149 0.163 -0.152 0.163 -0.389 0 -0.237 -0.163 -0.386 -0.16 -0.149 -0.43 -0.149 l -0.678 0 z m 1.4 -1.191 q 0.265 0.248 0.265 0.656 0 0.405 -0.262 0.653 -0.262 0.248 -0.719 0.248 l -1.078 0 l 0 -2.709 l 0.394 0 l 0 0.904 l 0.678 0 q 0.458 0 0.722 0.248 z"/><path d="m 24.631 89.67 -2.202 -0.005 q 0.022 0.367 0.3 0.634 0.281 0.267 0.659 0.267 0.254 0 0.471 -0.113 0.218 -0.113 0.309 -0.226 l 0.096 -0.11 0.254 0.254 q -0.017 0.022 -0.05 0.063 -0.03 0.039 -0.138 0.135 -0.105 0.094 -0.229 0.168 -0.121 0.072 -0.317 0.135 -0.193 0.061 -0.397 0.061 -0.554 0 -0.954 -0.411 -0.4 -0.413 -0.4 -1 0 -0.587 0.394 -0.998 0.397 -0.413 0.932 -0.413 0.554 0 0.926 0.386 0.372 0.383 0.372 0.97 z m -0.664 -0.951 q -0.251 -0.24 -0.606 -0.24 -0.356 0 -0.62 0.251 -0.265 0.251 -0.311 0.595 l 1.836 0 q -0.044 -0.367 -0.298 -0.606 z"/><path d="m 26.828 90.12 l 0 0.761 l -0.394 0 l 0 -2.709 l 0.394 0 l 0 1.439 l 1.353 -1.439 l 0.482 0 l -1.045 1.1 1.158 1.61 l -0.452 0 l -0.959 -1.326 z"/><path d="m 29.57 88.17 l 1.976 0 l 0 2.709 l -0.397 0 l 0 -2.343 l -1.185 0 l 0 0.424 q 0 0.598 -0.061 0.998 -0.058 0.397 -0.176 0.606 -0.119 0.207 -0.262 0.289 -0.143 0.08 -0.347 0.08 -0.069 0 -0.141 -0.014 -0.069 -0.014 -0.102 -0.03 l -0.039 -0.011 l 0 -0.394 q 0.113 0.055 0.226 0.055 0.174 0 0.273 -0.099 0.099 -0.099 0.165 -0.458 0.069 -0.358 0.069 -1.023 z"/><path d="m 34.484 88.17 l 0.339 0 l 0 2.709 l -0.397 0 l 0 -2.031 l -1.637 2.031 l -0.336 0 l 0 -2.709 l 0.394 0 l 0 2.031 z"/><path d="m 38.12 89.67 -2.202 -0.005 q 0.022 0.367 0.3 0.634 0.281 0.267 0.659 0.267 0.254 0 0.471 -0.113 0.218 -0.113 0.309 -0.226 l 0.096 -0.11 0.254 0.254 q -0.017 0.022 -0.05 0.063 -0.03 0.039 -0.138 0.135 -0.105 0.094 -0.229 0.168 -0.121 0.072 -0.317 0.135 -0.193 0.061 -0.397 0.061 -0.554 0 -0.954 -0.411 -0.4 -0.413 -0.4 -1 0 -0.587 0.394 -0.998 0.397 -0.413 0.932 -0.413 0.554 0 0.926 0.386 0.372 0.383 0.372 0.97 z m -0.664 -0.951 q -0.251 -0.24 -0.606 -0.24 -0.356 0 -0.62 0.251 -0.265 0.251 -0.311 0.595 l 1.836 0 q -0.044 -0.367 -0.298 -0.606 z"/><path d="m 40.804 90.88 l 0 -1.185 l -1.552 0 l 0 1.185 l -0.394 0 l 0 -2.709 l 0.394 0 l 0 1.158 l 1.552 0 l 0 -1.158 l 0.397 0 l 0 2.709 z"/><path d="m 41.76 88.53 l 0 -0.367 l 2.312 0 l 0 0.367 l -0.959 0 l 0 2.343 l -0.394 0 l 0 -2.343 z"/><path d="m 47.597 88.17 l 0 2.709 l -0.397 0 l 0 -2.709 z m -2.569 2.343 l 0.684 0 q 0.265 0 0.424 -0.149 0.163 -0.152 0.163 -0.389 0 -0.237 -0.163 -0.386 q -0.16 -0.149 -0.43 -0.149 l -0.678 0 m 1.4 -0.119 q 0.265 0.248 0.265 0.656 0 0.405 -0.262 0.653 -0.262 0.248 -0.719 0.248 l -1.078 0 l 0 -2.709 l 0.394 0 l 0 0.904 l 0.678 0 q 0.458 0 0.722 0.248 z"/></g><g fill="none" stroke="#0f0"><path d="m 46.952 102.61 l 66.32 0" stroke-width="0.573"/><g stroke-width="0.529"><path d="m 96.75 62.829 l 16.34 0"/><path d="m 96.67 102.53 0 -40.27 c 0.007 -6.653 0.723 -6.597 7.197 -6.564 l 30.469 -0.079"/></g></g><g transform="matrix(0.86559 0 0 0.86559 26.09 0.673)"><g transform="matrix(0.89138 0 0 0.89138 15.498 -4.214)" stroke-miterlimit="54.8"><path d="m 112.12 7.937 l 53.43 0 c 1.311 0 2.367 1.056 2.367 2.367 l 0 6.51 c 0 1.311 -1.056 2.367 -2.367 2.367 l -53.43 0 c -1.311 0 -2.367 -1.056 -2.367 -2.367 l 0 -6.51 c 0 -1.311 1.056 -2.367 2.367 -2.367 z" opacity="0.98" paint-order="markers fill stroke" fill="#f60" fill-rule="evenodd" stroke="#f60" stroke-linejoin="round" stroke-linecap="round" stroke-width="0.529" stroke-dashoffset="5.707"/><g aria-label="Контент-маркетинг" fill="#fff" stroke-width="0.07"><path d="m 113.39 10.991 l 0 1.723 l 1.552 -1.723 l 0.987 0 l -1.466 1.637 1.579 2.315 l -0.987 0 l -1.158 -1.692 -0.507 0.562 l 0 1.13 l -0.849 0 l 0 -3.952 z"/><path d="m 117.21 13.04 q -0.201 0.212 -0.201 0.524 0 0.309 0.201 0.521 0.201 0.209 0.477 0.209 0.276 0 0.477 -0.209 0.201 -0.212 0.201 -0.521 0 -0.311 -0.201 -0.524 -0.201 -0.212 -0.477 -0.212 -0.276 0 -0.477 0.212 z m 1.505 -0.485 q 0.438 0.43 0.438 1.01 0 0.576 -0.438 1.01 -0.435 0.43 -1.028 0.43 -0.593 0 -1.031 -0.43 -0.438 -0.433 -0.438 -1.01 0 -0.576 0.438 -1.01 0.438 -0.433 1.031 -0.433 0.593 0 1.028 0.433 z"/><path d="m 120.48 13.898 l 0 1.045 l -0.761 0 l 0 -2.767 l 0.761 0 l 0 1.045 l 1.072 0 l 0 -1.045 l 0.763 0 l 0 2.767 l -0.763 0 l 0 -1.045 z"/><path d="m 122.77 12.912 l 0 -0.736 l 2.514 0 l 0 0.736 l -0.876 0 l 0 2.031 l -0.761 0 l 0 -2.031 z"/><path d="m 128.35 13.813 l -2 0 q 0.044 0.226 0.24 0.383 0.196 0.154 0.493 0.154 0.215 0 0.397 -0.083 0.185 -0.085 0.259 -0.171 l 0.08 -0.085 0.394 0.507 -0.05 0.05 q -0.036 0.036 -0.149 0.119 -0.113 0.083 -0.24 0.149 -0.127 0.063 -0.331 0.113 -0.201 0.05 -0.416 0.05 -0.609 0 -1.039 -0.422 -0.43 -0.424 -0.43 -1.017 0 -0.593 0.424 -1.014 0.424 -0.424 1.017 -0.424 0.593 0 0.987 0.397 0.394 0.394 0.394 0.987 z m -0.945 -0.898 q -0.165 -0.143 -0.408 -0.143 -0.243 0 -0.413 0.141 -0.168 0.141 -0.237 0.367 l 1.271 0 q -0.044 -0.22 -0.212 -0.364 z"/><path d="m 129.71 13.898 l 0 1.045 l -0.761 0 l 0 -2.767 l 0.761 0 l 0 1.045 l 1.072 0 l 0 -1.045 l 0.763 0 l 0 2.767 l -0.763 0 l 0 -1.045 z"/><path d="m 131.99 12.912 l 0 -0.736 l 2.514 0 l 0 0.736 l -0.876 0 l 0 2.031 l -0.761 0 l 0 -2.031 z"/><path d="m 136.85 12.939 l 0 0.678 l -2.031 0 l 0 -0.678 z"/><path d="m 138.88 14.265 -0.736 -0.959 l 0 1.637 l -0.761 0 l 0 -2.767 l 0.648 0 l 0.849 1.102 0.846 -1.102 l 0.648 0 l 0 2.767 l -0.761 0 l 0 -1.637 z"/><path d="m 142.63 14.943 l 0 -0.281 q -0.033 0.039 -0.094 0.096 -0.058 0.055 -0.256 0.149 -0.198 0.091 -0.413 0.091 -0.413 0 -0.672 -0.229 -0.259 -0.232 -0.259 -0.559 0 -0.339 0.218 -0.565 0.218 -0.226 0.601 -0.295 l 0.876 -0.157 q 0 -0.174 -0.127 -0.284 -0.127 -0.11 -0.353 -0.11 -0.187 0 -0.342 0.072 -0.154 0.069 -0.218 0.143 l -0.063 0.066 -0.422 -0.422 q 0.017 -0.022 0.044 -0.058 0.03 -0.039 0.13 -0.13 0.102 -0.091 0.22 -0.16 0.119 -0.072 0.311 -0.13 0.193 -0.061 0.394 -0.061 0.524 0 0.854 0.314 0.331 0.311 0.331 0.785 l 0 1.723 z m -0.565 -0.565 q 0.259 0 0.411 -0.163 0.154 -0.165 0.154 -0.458 l 0 -0.085 l -0.62 0.113 q -0.311 0.05 -0.311 0.311 0 0.281 0.367 0.281 z"/><path d="m 145.71 14.998 q -0.237 0 -0.444 -0.096 -0.204 -0.099 -0.289 -0.196 l -0.085 -0.102 l 0 1.524 l -0.761 0 l 0 -3.952 l 0.761 0 l 0 0.339 q 0.011 -0.017 0.033 -0.041 0.025 -0.025 0.099 -0.091 0.077 -0.069 0.165 -0.121 0.088 -0.055 0.229 -0.096 0.141 -0.044 0.292 -0.044 0.537 0 0.932 0.419 0.397 0.416 0.397 1.02 0 0.604 -0.397 1.023 -0.394 0.416 -0.932 0.416 z m 0.339 -1.984 q -0.196 -0.215 -0.48 -0.215 -0.281 0 -0.48 0.215 -0.198 0.212 -0.198 0.546 0 0.333 0.198 0.548 0.198 0.215 0.48 0.215 0.284 0 0.48 -0.215 0.198 -0.215 0.198 -0.548 0 -0.333 -0.198 -0.546 z"/><path d="m 150.22 12.176 -1.045 1.188 1.102 1.579 l -0.849 0 l -0.733 -1.072 -0.339 0.394 l 0 0.678 l -0.761 0 l 0 -2.767 l 0.761 0 l 0 1.13 l 0.989 -1.13 z"/><path d="m 153.16 13.813 l -2 0 q 0.044 0.226 0.24 0.383 0.196 0.154 0.493 0.154 0.215 0 0.397 -0.083 0.185 -0.085 0.259 -0.171 l 0.08 -0.085 0.394 0.507 -0.05 0.05 q -0.036 0.036 -0.149 0.119 -0.113 0.083 -0.24 0.149 -0.127 0.063 -0.331 0.113 -0.201 0.05 -0.416 0.05 -0.609 0 -1.039 -0.422 -0.43 -0.424 -0.43 -1.017 0 -0.593 0.424 -1.014 0.424 -0.424 1.017 -0.424 0.593 0 0.987 0.397 0.394 0.394 0.394 0.987 z m -0.945 -0.898 q -0.165 -0.143 -0.408 -0.143 -0.243 0 -0.413 0.141 -0.168 0.141 -0.237 0.367 l 1.271 0 q -0.044 -0.22 -0.212 -0.364 z"/><path d="m 153.47 12.912 l 0 -0.736 l 2.514 0 l 0 0.736 l -0.876 0 l 0 2.031 l -0.761 0 l 0 -2.031 z"/><path d="m 158.39 12.176 l 0.664 0 l 0 2.767 l -0.761 0 l 0 -1.552 l -1.204 1.552 l -0.659 0 l 0 -2.767 l 0.761 0 l 0 1.554 z"/><path d="m 160.55 13.898 l 0 1.045 l -0.761 0 l 0 -2.767 l 0.761 0 l 0 1.045 l 1.072 0 l 0 -1.045 l 0.763 0 l 0 2.767 l -0.763 0 l 0 -1.045 z"/><path d="m 165.13 12.176 l 0 0.706 l -1.243 0 l 0 2.062 l -0.761 0 l 0 -2.767 z"/></g></g><g transform="matrix(0.89138 0 0 0.89138 -30.13 2.253)"><path d="m 184.38 15.339 l 11.291 0 c 1.34 0 2.419 1.079 2.419 2.419 l 0 6.653 c 0 1.34 -1.079 2.419 -2.419 2.419 l -11.291 0 c -1.34 0 -2.419 -1.079 -2.419 -2.419 l 0 -6.653 c 0 -1.34 1.079 -2.419 2.419 -2.419 z" opacity="0.98" paint-order="markers fill stroke" fill="#f6ac19" fill-rule="evenodd" stroke="#f6ac19" stroke-linejoin="round" stroke-linecap="round" stroke-width="0.529" stroke-dashoffset="5.707" stroke-miterlimit="54.8"/><g aria-label="SEO" fill="#fff" stroke-width="0.265"><path d="m 186.34 21.902 q 0 -0.198 -0.201 -0.32 -0.198 -0.121 -0.488 -0.201 -0.287 -0.083 -0.573 -0.193 -0.284 -0.11 -0.485 -0.364 -0.201 -0.254 -0.201 -0.642 0 -0.48 0.383 -0.819 0.386 -0.339 1 -0.339 0.243 0 0.469 0.058 0.226 0.055 0.369 0.132 0.146 0.074 0.254 0.154 0.11 0.077 0.157 0.135 l 0.05 0.055 -0.507 0.537 q -0.033 -0.039 -0.094 -0.094 -0.058 -0.058 -0.248 -0.152 -0.19 -0.094 -0.391 -0.094 -0.243 0 -0.391 0.124 -0.146 0.124 -0.146 0.3 0 0.198 0.198 0.32 0.201 0.119 0.485 0.201 0.287 0.083 0.573 0.193 0.289 0.11 0.491 0.364 0.201 0.254 0.201 0.642 0 0.548 -0.4 0.896 -0.397 0.347 -1.097 0.347 -0.276 0 -0.535 -0.069 -0.256 -0.066 -0.424 -0.16 -0.165 -0.094 -0.292 -0.19 -0.127 -0.096 -0.182 -0.163 l -0.063 -0.069 0.51 -0.507 q 0.039 0.044 0.107 0.116 0.072 0.069 0.314 0.187 0.243 0.119 0.507 0.119 0.306 0 0.477 -0.143 0.174 -0.143 0.174 -0.364 z"/><path d="m 188.85 22.298 l 2.117 0 l 0 0.761 l -2.966 0 l 0 -3.952 l 2.908 0 l 0 0.763 l -2.059 0 l 0 0.791 l 1.607 0 l 0 0.761 l -1.607 0 z"/><path d="m 192.77 20.16 q -0.369 0.375 -0.369 0.923 0 0.546 0.369 0.921 0.369 0.375 0.898 0.375 0.532 0 0.901 -0.375 0.369 -0.375 0.369 -0.921 0 -0.548 -0.369 -0.923 -0.369 -0.378 -0.901 -0.378 -0.529 0 -0.898 0.378 z m -0.626 2.378 q -0.62 -0.606 -0.62 -1.458 0 -0.852 0.62 -1.455 0.623 -0.604 1.524 -0.604 0.904 0 1.524 0.604 0.623 0.604 0.623 1.455 0 0.852 -0.623 1.458 -0.62 0.604 -1.524 0.604 -0.901 0 -1.524 -0.604 z"/></g></g><g transform="matrix(0.89138 0 0 0.89138 -61.35 8.236)"><path d="m 196.11 38.28 l 57.88 0 c 1.311 0 2.367 1.056 2.367 2.367 l 0 6.51 c 0 1.311 -1.056 2.367 -2.367 2.367 l -57.88 0 c -1.311 0 -2.367 -1.056 -2.367 -2.367 l 0 -6.51 c 0 -1.311 1.056 -2.367 2.367 -2.367 z" opacity="0.98" paint-order="markers fill stroke" fill="#f6ac19" fill-rule="evenodd" stroke="#f6ac19" stroke-linejoin="round" stroke-linecap="round" stroke-width="0.529" stroke-dashoffset="5.707" stroke-miterlimit="54.8"/><g aria-label="Контекстная реклама" fill="#fff" stroke-width="0.265"><path d="m 197.14 41.33 l 0 1.723 l 1.552 -1.723 l 0.987 0 l -1.466 1.637 1.579 2.315 l -0.987 0 l -1.158 -1.692 -0.507 0.562 l 0 1.13 l -0.849 0 l 0 -3.952 z"/><path d="m 200.96 43.38 q -0.201 0.212 -0.201 0.524 0 0.309 0.201 0.521 0.201 0.209 0.477 0.209 0.276 0 0.477 -0.209 0.201 -0.212 0.201 -0.521 0 -0.311 -0.201 -0.524 -0.201 -0.212 -0.477 -0.212 -0.276 0 -0.477 0.212 z m 1.505 -0.485 q 0.438 0.43 0.438 1.01 0 0.576 -0.438 1.01 -0.435 0.43 -1.028 0.43 -0.593 0 -1.031 -0.43 -0.438 -0.433 -0.438 -1.01 0 -0.576 0.438 -1.01 0.438 -0.433 1.031 -0.433 0.593 0 1.028 0.433 z"/><path d="m 204.22 44.24 l 0 1.045 l -0.761 0 l 0 -2.767 l 0.761 0 l 0 1.045 l 1.072 0 l 0 -1.045 l 0.763 0 l 0 2.767 l -0.763 0 l 0 -1.045 z"/><path d="m 206.51 43.25 l 0 -0.736 l 2.514 0 l 0 0.736 l -0.876 0 l 0 2.031 l -0.761 0 l 0 -2.031 z"/><path d="m 212.1 44.15 l -2 0 q 0.044 0.226 0.24 0.383 0.196 0.154 0.493 0.154 0.215 0 0.397 -0.083 0.185 -0.085 0.259 -0.171 l 0.08 -0.085 0.394 0.507 -0.05 0.05 q -0.036 0.036 -0.149 0.119 -0.113 0.083 -0.24 0.149 -0.127 0.063 -0.331 0.113 -0.201 0.05 -0.416 0.05 -0.609 0 -1.039 -0.422 -0.43 -0.424 -0.43 -1.017 0 -0.593 0.424 -1.014 0.424 -0.424 1.017 -0.424 0.593 0 0.987 0.397 0.394 0.394 0.394 0.987 z m -0.945 -0.898 q -0.165 -0.143 -0.408 -0.143 -0.243 0 -0.413 0.141 -0.168 0.141 -0.237 0.367 l 1.271 0 q -0.044 -0.22 -0.212 -0.364 z"/><path d="m 215.31 42.518 -1.045 1.188 1.102 1.579 l -0.849 0 l -0.733 -1.072 -0.339 0.394 l 0 0.678 l -0.761 0 l 0 -2.767 l 0.761 0 l 0 1.13 l 0.989 -1.13 z"/><path d="m 215.9 44.91 q -0.444 -0.433 -0.444 -1.01 0 -0.576 0.444 -1.01 0.444 -0.433 1.053 -0.433 0.215 0 0.408 0.061 0.196 0.058 0.32 0.141 0.124 0.08 0.22 0.163 0.096 0.083 0.141 0.143 l 0.041 0.058 -0.48 0.48 q -0.022 -0.039 -0.074 -0.102 -0.05 -0.063 -0.22 -0.163 -0.168 -0.102 -0.356 -0.102 -0.3 0 -0.518 0.223 -0.215 0.223 -0.215 0.54 0 0.314 0.218 0.537 0.218 0.223 0.515 0.223 0.187 0 0.356 -0.091 0.171 -0.091 0.248 -0.182 l 0.074 -0.094 0.452 0.48 q -0.017 0.022 -0.047 0.063 -0.028 0.039 -0.132 0.135 -0.105 0.094 -0.226 0.168 -0.121 0.072 -0.317 0.135 -0.193 0.061 -0.408 0.061 -0.609 0 -1.053 -0.43 z"/><path d="m 218.31 43.25 l 0 -0.736 l 2.514 0 l 0 0.736 l -0.876 0 l 0 2.031 l -0.761 0 l 0 -2.031 z"/><path d="m 222.03 44.24 l 0 1.045 l -0.761 0 l 0 -2.767 l 0.761 0 l 0 1.045 l 1.072 0 l 0 -1.045 l 0.763 0 l 0 2.767 l -0.763 0 l 0 -1.045 z"/><path d="m 226.12 45.28 l 0 -0.281 q -0.033 0.039 -0.094 0.096 -0.058 0.055 -0.256 0.149 -0.198 0.091 -0.413 0.091 -0.413 0 -0.672 -0.229 -0.259 -0.232 -0.259 -0.559 0 -0.339 0.218 -0.565 0.218 -0.226 0.601 -0.295 l 0.876 -0.157 q 0 -0.174 -0.127 -0.284 -0.127 -0.11 -0.353 -0.11 -0.187 0 -0.342 0.072 -0.154 0.069 -0.218 0.143 l -0.063 0.066 -0.422 -0.422 q 0.017 -0.022 0.044 -0.058 0.03 -0.039 0.13 -0.13 0.102 -0.091 0.22 -0.16 0.119 -0.072 0.311 -0.13 0.193 -0.061 0.394 -0.061 0.524 0 0.854 0.314 0.331 0.311 0.331 0.785 l 0 1.723 z m -0.565 -0.565 q 0.259 0 0.411 -0.163 0.154 -0.165 0.154 -0.458 l 0 -0.085 l -0.62 0.113 q -0.311 0.05 -0.311 0.311 0 0.281 0.367 0.281 z"/><path d="m 228.58 42.518 l 1.326 0 l 0 2.767 l -0.761 0 l 0 -0.819 l -0.397 0 l -0.507 0.819 l -0.819 0 l 0.593 -0.932 q -0.022 -0.011 -0.058 -0.028 -0.033 -0.017 -0.121 -0.091 -0.085 -0.074 -0.154 -0.16 -0.066 -0.088 -0.121 -0.24 -0.052 -0.154 -0.052 -0.328 0 -0.405 0.306 -0.697 0.309 -0.292 0.766 -0.292 z m 0.565 0.65 l -0.507 0 q -0.168 0 -0.27 0.094 -0.099 0.094 -0.099 0.245 0 0.152 0.099 0.245 0.099 0.094 0.27 0.094 l 0.507 0 z"/><path d="m 233.38 45.34 q -0.237 0 -0.444 -0.096 -0.204 -0.099 -0.289 -0.196 l -0.085 -0.102 l 0 1.524 l -0.761 0 l 0 -3.952 l 0.761 0 l 0 0.339 q 0.011 -0.017 0.033 -0.041 0.025 -0.025 0.099 -0.091 0.077 -0.069 0.165 -0.121 0.088 -0.055 0.229 -0.096 0.141 -0.044 0.292 -0.044 0.537 0 0.932 0.419 0.397 0.416 0.397 1.02 0 0.604 -0.397 1.023 -0.394 0.416 -0.932 0.416 z m 0.339 -1.984 q -0.196 -0.215 -0.48 -0.215 -0.281 0 -0.48 0.215 -0.198 0.212 -0.198 0.546 0 0.333 0.198 0.548 0.198 0.215 0.48 0.215 0.284 0 0.48 -0.215 0.198 -0.215 0.198 -0.548 0 -0.333 -0.198 -0.546 z"/><path d="m 237.89 44.15 l -2 0 q 0.044 0.226 0.24 0.383 0.196 0.154 0.493 0.154 0.215 0 0.397 -0.083 0.185 -0.085 0.259 -0.171 l 0.08 -0.085 0.394 0.507 -0.05 0.05 q -0.036 0.036 -0.149 0.119 -0.113 0.083 -0.24 0.149 -0.127 0.063 -0.331 0.113 -0.201 0.05 -0.416 0.05 -0.609 0 -1.039 -0.422 -0.43 -0.424 -0.43 -1.017 0 -0.593 0.424 -1.014 0.424 -0.424 1.017 -0.424 0.593 0 0.987 0.397 0.394 0.394 0.394 0.987 z m -0.945 -0.898 q -0.165 -0.143 -0.408 -0.143 -0.243 0 -0.413 0.141 -0.168 0.141 -0.237 0.367 l 1.271 0 q -0.044 -0.22 -0.212 -0.364 z"/><path d="m 241.11 42.518 -1.045 1.188 1.102 1.579 l -0.849 0 l -0.733 -1.072 -0.339 0.394 l 0 0.678 l -0.761 0 l 0 -2.767 l 0.761 0 l 0 1.13 l 0.989 -1.13 z"/><path d="m 241.81 42.518 l 2.23 0 l 0 2.767 l -0.761 0 l 0 -2.089 l -0.733 0 l 0 0.171 q 0 0.774 -0.132 1.232 -0.13 0.455 -0.336 0.615 -0.204 0.157 -0.521 0.157 -0.102 0 -0.201 -0.025 -0.096 -0.022 -0.143 -0.039 l -0.05 -0.022 l 0 -0.678 q 0.085 0.028 0.168 0.028 0.168 0 0.265 -0.085 0.096 -0.088 0.154 -0.389 0.061 -0.303 0.061 -0.879 z"/><path d="m 246.3 45.28 l 0 -0.281 q -0.033 0.039 -0.094 0.096 -0.058 0.055 -0.256 0.149 -0.198 0.091 -0.413 0.091 -0.413 0 -0.672 -0.229 -0.259 -0.232 -0.259 -0.559 0 -0.339 0.218 -0.565 0.218 -0.226 0.601 -0.295 l 0.876 -0.157 q 0 -0.174 -0.127 -0.284 -0.127 -0.11 -0.353 -0.11 -0.187 0 -0.342 0.072 -0.154 0.069 -0.218 0.143 l -0.063 0.066 -0.422 -0.422 q 0.017 -0.022 0.044 -0.058 0.03 -0.039 0.13 -0.13 0.102 -0.091 0.22 -0.16 0.119 -0.072 0.311 -0.13 0.193 -0.061 0.394 -0.061 0.524 0 0.854 0.314 0.331 0.311 0.331 0.785 l 0 1.723 z m -0.565 -0.565 q 0.259 0 0.411 -0.163 0.154 -0.165 0.154 -0.458 l 0 -0.085 l -0.62 0.113 q -0.311 0.05 -0.311 0.311 0 0.281 0.367 0.281 z"/><path d="m 249.29 44.607 -0.736 -0.959 l 0 1.637 l -0.761 0 l 0 -2.767 l 0.648 0 l 0.849 1.102 0.846 -1.102 l 0.648 0 l 0 2.767 l -0.761 0 l 0 -1.637"/><path d="m 253.04 45.28 l 0 -0.281 q -0.033 0.039 -0.094 0.096 -0.058 0.055 -0.256 0.149 -0.198 0.091 -0.413 0.091 -0.413 0 -0.672 -0.229 -0.259 -0.232 -0.259 -0.559 0 -0.339 0.218 -0.565 0.218 -0.226 0.601 -0.295 l 0.876 -0.157 q 0 -0.174 -0.127 -0.284 -0.127 -0.11 -0.353 -0.11 -0.187 0 -0.342 0.072 -0.154 0.069 -0.218 0.143 l -0.063 0.066 -0.422 -0.422 q 0.017 -0.022 0.044 -0.058 0.03 -0.039 0.13 -0.13 0.102 -0.091 0.22 -0.16 0.119 -0.072 0.311 -0.13 0.193 -0.061 0.394 -0.061 0.524 0 0.854 0.314 0.331 0.311 0.331 0.785 l 0 1.723 z m -0.565 -0.565 q 0.259 0 0.411 -0.163 0.154 -0.165 0.154 -0.458 l 0 -0.085 l -0.62 0.113 q -0.311 0.05 -0.311 0.311 0 0.281 0.367 0.281 z"/></g></g><g transform="matrix(0.89138 0 0 0.89138 -55.53 29.24)"><path d="m 187.15 58.879 l 62.736 0 c 1.307 0 2.359 1.052 2.359 2.359 l 0 6.487 c 0 1.307 -1.052 2.359 -2.359 2.359 l -62.736 0 c -1.307 0 -2.359 -1.052 -2.359 -2.359 l 0 -6.487 c 0 -1.307 1.052 -2.359 2.359 -2.359 z" opacity="0.98" paint-order="markers fill stroke" fill="#f6ac19" fill-rule="evenodd" stroke="#f6ac19" stroke-linejoin="round" stroke-linecap="round" stroke-width="0.529" stroke-dashoffset="5.707" stroke-miterlimit="54.8"/><g aria-label="Таргетинговая реклама" fill="#fff" stroke-width="0.265"><path d="m 187.15 61.912 l 3.103 0 l 0 0.763 l -1.127 0 l 0 3.189 l -0.846 0 l 0 -3.189 l -1.13 0 z"/><path d="m 191.95 65.865 l 0 -0.281 q -0.033 0.039 -0.094 0.096 -0.058 0.055 -0.256 0.149 -0.198 0.091 -0.413 0.091 -0.413 0 -0.672 -0.229 -0.259 -0.232 -0.259 -0.559 0 -0.339 0.218 -0.565 0.218 -0.226 0.601 -0.295 l 0.876 -0.157 q 0 -0.174 -0.127 -0.284 -0.127 -0.11 -0.353 -0.11 -0.187 0 -0.342 0.072 -0.154 0.069 -0.218 0.143 l -0.063 0.066 -0.422 -0.422 q 0.017 -0.022 0.044 -0.058 0.03 -0.039 0.13 -0.13 0.102 -0.091 0.22 -0.16 0.119 -0.072 0.311 -0.13 0.193 -0.061 0.394 -0.061 0.524 0 0.854 0.314 0.331 0.311 0.331 0.785 l 0 1.723 z m -0.565 -0.565 q 0.259 0 0.411 -0.163 0.154 -0.165 0.154 -0.458 l 0 -0.085 l -0.62 0.113 q -0.311 0.05 -0.311 0.311 0 0.281 0.367 0.281 z"/><path d="m 195.03 65.92 q -0.237 0 -0.444 -0.096 -0.204 -0.099 -0.289 -0.196 l -0.085 -0.102 l 0 1.524 l -0.761 0 l 0 -3.952 l 0.761 0 l 0 0.339 q 0.011 -0.017 0.033 -0.041 0.025 -0.025 0.099 -0.091 0.077 -0.069 0.165 -0.121 0.088 -0.055 0.229 -0.096 0.141 -0.044 0.292 -0.044 0.537 0 0.932 0.419 0.397 0.416 0.397 1.02 0 0.604 -0.397 1.023 -0.394 0.416 -0.932 0.416 z m 0.339 -1.984 q -0.196 -0.215 -0.48 -0.215 -0.281 0 -0.48 0.215 -0.198 0.212 -0.198 0.546 0 0.333 0.198 0.548 0.198 0.215 0.48 0.215 0.284 0 0.48 -0.215 0.198 -0.215 0.198 -0.548 0 -0.333 -0.198 -0.546 z"/><path d="m 198.93 63.1 l 0 0.706 l -1.243 0 l 0 2.062 l -0.761 0 l 0 -2.767 z"/><path d="m 201.97 64.735 l -2 0 q 0.044 0.226 0.24 0.383 0.196 0.154 0.493 0.154 0.215 0 0.397 -0.083 0.185 -0.085 0.259 -0.171 l 0.08 -0.085 0.394 0.507 -0.05 0.05 q -0.036 0.036 -0.149 0.119 -0.113 0.083 -0.24 0.149 -0.127 0.063 -0.331 0.113 -0.201 0.05 -0.416 0.05 -0.609 0 -1.039 -0.422 -0.43 -0.424 -0.43 -1.017 0 -0.593 0.424 -1.014 0.424 -0.424 1.017 -0.424 0.593 0 0.987 0.397 0.394 0.394 0.394 0.987 z m -0.945 -0.898 q -0.165 -0.143 -0.408 -0.143 -0.243 0 -0.413 0.141 -0.168 0.141 -0.237 0.367 l 1.271 0 q -0.044 -0.22 -0.212 -0.364 z"/><path d="m 202.28 63.833 l 0 -0.736 l 2.514 0 l 0 0.736 l -0.876 0 l 0 2.031 l -0.761 0 l 0 -2.031"/><path d="m 207.21 63.1 l 0.664 0 l 0 2.767 l -0.761 0 l 0 -1.552 l -1.204 1.552 l -0.659 0 l 0 -2.767 l 0.761 0 l 0 1.554 z"/><path d="m 209.37 64.82 l 0 1.045 l -0.761 0 l 0 -2.767 l 0.761 0 l 0 1.045 l 1.072 0 l 0 -1.045 l 0.763 0 l 0 2.767 l -0.763 0 l 0 -1.045 z"/><path d="m 213.94 63.1 l 0 0.706 l -1.243 0 l 0 2.062 l -0.761 0 l 0 -2.767 z"/><path d="m 215.18 63.96 q -0.201 0.212 -0.201 0.524 0 0.309 0.201 0.521 0.201 0.209 0.477 0.209 0.276 0 0.477 -0.209 0.201 -0.212 0.201 -0.521 0 -0.311 -0.201 -0.524 -0.201 -0.212 -0.477 -0.212 -0.276 0 -0.477 0.212 z m 1.505 -0.485 q 0.438 0.43 0.438 1.01 0 0.576 -0.438 1.01 -0.435 0.43 -1.028 0.43 -0.593 0 -1.031 -0.43 -0.438 -0.433 -0.438 -1.01 0 -0.576 0.438 -1.01 0.438 -0.433 1.031 -0.433 0.593 0 1.028 0.433 z"/><path d="m 217.69 63.1 l 1.384 0 q 0.413 0 0.672 0.226 0.259 0.226 0.259 0.537 0 0.187 -0.085 0.328 -0.085 0.141 -0.171 0.185 l -0.083 0.052 q 0.017 0.005 0.047 0.017 0.03 0.011 0.11 0.063 0.08 0.05 0.138 0.116 0.061 0.063 0.107 0.176 0.05 0.113 0.05 0.248 0 0.35 -0.27 0.584 -0.267 0.234 -0.719 0.234 l -1.439 0 z m 1.384 1.582 l -0.623 0 l 0 0.565 l 0.623 0 q 0.13 0 0.204 -0.08 0.077 -0.08 0.077 -0.204 0 -0.124 -0.077 -0.201 -0.074 -0.08 -0.204 -0.08 z m -0.058 -0.507 q 0.226 0 0.226 -0.226 0 -0.226 -0.226 -0.226 l -0.565 0 l 0 0.452 z"/><path d="m 222.2 65.865 l 0 -0.281 q -0.033 0.039 -0.094 0.096 -0.058 0.055 -0.256 0.149 -0.198 0.091 -0.413 0.091 -0.413 0 -0.672 -0.229 -0.259 -0.232 -0.259 -0.559 0 -0.339 0.218 -0.565 0.218 -0.226 0.601 -0.295 l 0.876 -0.157 q 0 -0.174 -0.127 -0.284 -0.127 -0.11 -0.353 -0.11 -0.187 0 -0.342 0.072 -0.154 0.069 -0.218 0.143 l -0.063 0.066 -0.422 -0.422 q 0.017 -0.022 0.044 -0.058 0.03 -0.039 0.13 -0.13 0.102 -0.091 0.22 -0.16 0.119 -0.072 0.311 -0.13 0.193 -0.061 0.394 -0.061 0.524 0 0.854 0.314 0.331 0.311 0.331 0.785 l 0 1.723 z m -0.565 -0.565 q 0.259 0 0.411 -0.163 0.154 -0.165 0.154 -0.458 l 0 -0.085 l -0.62 0.113 q -0.311 0.05 -0.311 0.311 0 0.281 0.367 0.281 z"/><path d="m 224.66 63.1 l 1.326 0 l 0 2.767 l -0.761 0 l 0 -0.819 l -0.397 0 l -0.507 0.819 l -0.819 0 l 0.593 -0.932 q -0.022 -0.011 -0.058 -0.028 -0.033 -0.017 -0.121 -0.091 -0.085 -0.074 -0.154 -0.16 -0.066 -0.088 -0.121 -0.24 -0.052 -0.154 -0.052 -0.328 0 -0.405 0.306 -0.697 0.309 -0.292 0.766 -0.292 z m 0.565 0.65 l -0.507 0 q -0.168 0 -0.27 0.094 -0.099 0.094 -0.099 0.245 0 0.152 0.099 0.245 0.099 0.094 0.27 0.094 l 0.507 0 z"/><path d="m 229.46 65.92 q -0.237 0 -0.444 -0.096 -0.204 -0.099 -0.289 -0.196 l -0.085 -0.102 l 0 1.524 l -0.761 0 l 0 -3.952 l 0.761 0 l 0 0.339 q 0.011 -0.017 0.033 -0.041 0.025 -0.025 0.099 -0.091 0.077 -0.069 0.165 -0.121 0.088 -0.055 0.229 -0.096 0.141 -0.044 0.292 -0.044 0.537 0 0.932 0.419 0.397 0.416 0.397 1.02 0 0.604 -0.397 1.023 -0.394 0.416 -0.932 0.416 z m 0.339 -1.984 q -0.196 -0.215 -0.48 -0.215 -0.281 0 -0.48 0.215 -0.198 0.212 -0.198 0.546 0 0.333 0.198 0.548 0.198 0.215 0.48 0.215 0.284 0 0.48 -0.215 0.198 -0.215 0.198 -0.548 0 -0.333 -0.198 -0.546 z"/><path d="m 233.98 64.735 l -2 0 q 0.044 0.226 0.24 0.383 0.196 0.154 0.493 0.154 0.215 0 0.397 -0.083 0.185 -0.085 0.259 -0.171 l 0.08 -0.085 0.394 0.507 -0.05 0.05 q -0.036 0.036 -0.149 0.119 -0.113 0.083 -0.24 0.149 -0.127 0.063 -0.331 0.113 -0.201 0.05 -0.416 0.05 -0.609 0 -1.039 -0.422 -0.43 -0.424 -0.43 -1.017 0 -0.593 0.424 -1.014 0.424 -0.424 1.017 -0.424 0.593 0 0.987 0.397 0.394 0.394 0.394 0.987 z m -0.945 -0.898 q -0.165 -0.143 -0.408 -0.143 -0.243 0 -0.413 0.141 -0.168 0.141 -0.237 0.367 l 1.271 0 q -0.044 -0.22 -0.212 -0.364 z"/><path d="m 237.19 63.1 -1.045 1.188 1.102 1.579 l -0.849 0 l -0.733 -1.072 -0.339 0.394 l 0 0.678 l -0.761 0 l 0 -2.767 l 0.761 0 l 0 1.13 l 0.989 -1.13 z"/><path d="m 237.89 63.1 l 2.23 0 l 0 2.767 l -0.761 0 l 0 -2.089 l -0.733 0 l 0 0.171 q 0 0.774 -0.132 1.232 -0.13 0.455 -0.336 0.615 -0.204 0.157 -0.521 0.157 -0.102 0 -0.201 -0.025 -0.096 -0.022 -0.143 -0.039 l -0.05 -0.022 l 0 -0.678 q 0.085 0.028 0.168 0.028 0.168 0 0.265 -0.085 0.096 -0.088 0.154 -0.389 0.061 -0.303 0.061 -0.879 z"/><path d="m 242.38 65.865 l 0 -0.281 q -0.033 0.039 -0.094 0.096 -0.058 0.055 -0.256 0.149 -0.198 0.091 -0.413 0.091 -0.413 0 -0.672 -0.229 -0.259 -0.232 -0.259 -0.559 0 -0.339 0.218 -0.565 0.218 -0.226 0.601 -0.295 l 0.876 -0.157 q 0 -0.174 -0.127 -0.284 -0.127 -0.11 -0.353 -0.11 -0.187 0 -0.342 0.072 -0.154 0.069 -0.218 0.143 l -0.063 0.066 -0.422 -0.422 q 0.017 -0.022 0.044 -0.058 0.03 -0.039 0.13 -0.13 0.102 -0.091 0.22 -0.16 0.119 -0.072 0.311 -0.13 0.193 -0.061 0.394 -0.061 0.524 0 0.854 0.314 0.331 0.311 0.331 0.785 l 0 1.723 z m -0.565 -0.565 q 0.259 0 0.411 -0.163 0.154 -0.165 0.154 -0.458 l 0 -0.085 l -0.62 0.113 q -0.311 0.05 -0.311 0.311 0 0.281 0.367 0.281 z"/><path d="m 245.37 65.19 -0.736 -0.959 l 0 1.637 l -0.761 0 l 0 -2.767 l 0.648 0 l 0.849 1.102 0.846 -1.102 l 0.648 0 l 0 2.767 l -0.761 0 l 0 -1.637 z"/><path d="m 249.13 65.865 l 0 -0.281 q -0.033 0.039 -0.094 0.096 -0.058 0.055 -0.256 0.149 -0.198 0.091 -0.413 0.091 -0.413 0 -0.672 -0.229 -0.259 -0.232 -0.259 -0.559 0 -0.339 0.218 -0.565 0.218 -0.226 0.601 -0.295 l 0.876 -0.157 q 0 -0.174 -0.127 -0.284 -0.127 -0.11 -0.353 -0.11 -0.187 0 -0.342 0.072 -0.154 0.069 -0.218 0.143 l -0.063 0.066 -0.422 -0.422 q 0.017 -0.022 0.044 -0.058 0.03 -0.039 0.13 -0.13 0.102 -0.091 0.22 -0.16 0.119 -0.072 0.311 -0.13 0.193 -0.061 0.394 -0.061 0.524 0 0.854 0.314 0.331 0.311 0.331 0.785 l 0 1.723 z m -0.565 -0.565 q 0.259 0 0.411 -0.163 0.154 -0.165 0.154 -0.458 l 0 -0.085 l -0.62 0.113 q -0.311 0.05 -0.311 0.311 0 0.281 0.367 0.281 z"/></g></g><g transform="matrix(0.89138 0 0 0.89138 -42.98 -44.749)"><path d="m 187.11 82.972 l 34.656 0 c 1.322 0 2.387 1.064 2.387 2.387 l 0 6.563 c 0 1.322 -1.064 2.387 -2.387 2.387 l -34.656 0 c -1.322 0 -2.387 -1.064 -2.387 -2.387 l 0 -6.563 c 0 -1.322 1.064 -2.387 2.387 -2.387 z" opacity="0.98" paint-order="markers fill stroke" fill="#0a083c" fill-rule="evenodd" stroke="#0a083c" stroke-linejoin="round" stroke-linecap="round" stroke-width="0.529" stroke-dashoffset="5.707" stroke-miterlimit="54.8"/><g aria-label="Ретаргетинг" fill="#fff" stroke-width="0.265"><path d="m 187.96 86.07 l 1.665 0 q 0.609 0 1.01 0.383 0.402 0.38 0.402 0.945 0 0.562 -0.4 0.945 -0.4 0.38 -1.011 0.38 l -0.816 0 l 0 1.298 l -0.849 0 z m 1.637 0.763 l -0.788 0 l 0 1.127 l 0.788 0 q 0.254 0 0.422 -0.163 0.171 -0.163 0.171 -0.4 0 -0.237 -0.171 -0.4 -0.168 -0.165 -0.422 -0.165 z"/><path d="m 194.14 88.89 l -2 0 q 0.044 0.226 0.24 0.383 0.196 0.154 0.493 0.154 0.215 0 0.397 -0.083 0.185 -0.085 0.259 -0.171 l 0.08 -0.085 0.394 0.507 -0.05 0.05 q -0.036 0.036 -0.149 0.119 -0.113 0.083 -0.24 0.149 -0.127 0.063 -0.331 0.113 -0.201 0.05 -0.416 0.05 -0.609 0 -1.039 -0.422 -0.43 -0.424 -0.43 -1.017 0 -0.593 0.424 -1.014 0.424 -0.424 1.017 -0.424 0.593 0 0.987 0.397 0.394 0.394 0.394 0.987 z m -0.945 -0.898 q -0.165 -0.143 -0.408 -0.143 -0.243 0 -0.413 0.141 -0.168 0.141 -0.237 0.367 l 1.271 0 q -0.044 -0.22 -0.212 -0.364 z"/><path d="m 194.45 87.992 l 0 -0.736 l 2.514 0 l 0 0.736 l -0.876 0 l 0 2.031 l -0.761 0 l 0 -2.031 z"/><path d="m 198.94 90.02 l 0 -0.281 q -0.033 0.039 -0.094 0.096 -0.058 0.055 -0.256 0.149 -0.198 0.091 -0.413 0.091 -0.413 0 -0.672 -0.229 -0.259 -0.232 -0.259 -0.559 0 -0.339 0.218 -0.565 0.218 -0.226 0.601 -0.295 l 0.876 -0.157 q 0 -0.174 -0.127 -0.284 -0.127 -0.11 -0.353 -0.11 -0.187 0 -0.342 0.072 -0.154 0.069 -0.218 0.143 l -0.063 0.066 -0.422 -0.422 q 0.017 -0.022 0.044 -0.058 0.03 -0.039 0.13 -0.13 0.102 -0.091 0.22 -0.16 0.119 -0.072 0.311 -0.13 0.193 -0.061 0.394 -0.061 0.524 0 0.854 0.314 0.331 0.311 0.331 0.785 l 0 1.723 z m -0.565 -0.565 q 0.259 0 0.411 -0.163 0.154 -0.165 0.154 -0.458 l 0 -0.085 l -0.62 0.113 q -0.311 0.05 -0.311 0.311 0 0.281 0.367 0.281 z"/><path d="m 202.01 90.08 q -0.237 0 -0.444 -0.096 -0.204 -0.099 -0.289 -0.196 l -0.085 -0.102 l 0 1.524 l -0.761 0 l 0 -3.952 l 0.761 0 l 0 0.339 q 0.011 -0.017 0.033 -0.041 0.025 -0.025 0.099 -0.091 0.077 -0.069 0.165 -0.121 0.088 -0.055 0.229 -0.096 0.141 -0.044 0.292 -0.044 0.537 0 0.932 0.419 0.397 0.416 0.397 1.02 0 0.604 -0.397 1.023 -0.394 0.416 -0.932 0.416 z m 0.339 -1.984 q -0.196 -0.215 -0.48 -0.215 -0.281 0 -0.48 0.215 -0.198 0.212 -0.198 0.546 0 0.333 0.198 0.548 0.198 0.215 0.48 0.215 0.284 0 0.48 -0.215 0.198 -0.215 0.198 -0.548 0 -0.333 -0.198 -0.546 z"/><path d="m 205.91 87.26 l 0 0.706 l -1.243 0 l 0 2.062 l -0.761 0 l 0 -2.767 z"/><path d="m 208.95 88.89 l -2 0 q 0.044 0.226 0.24 0.383 0.196 0.154 0.493 0.154 0.215 0 0.397 -0.083 0.185 -0.085 0.259 -0.171 l 0.08 -0.085 0.394 0.507 -0.05 0.05 q -0.036 0.036 -0.149 0.119 -0.113 0.083 -0.24 0.149 -0.127 0.063 -0.331 0.113 -0.201 0.05 -0.416 0.05 -0.609 0 -1.039 -0.422 -0.43 -0.424 -0.43 -1.017 0 -0.593 0.424 -1.014 0.424 -0.424 1.017 -0.424 0.593 0 0.987 0.397 0.394 0.394 0.394 0.987 z m -0.945 -0.898 q -0.165 -0.143 -0.408 -0.143 -0.243 0 -0.413 0.141 -0.168 0.141 -0.237 0.367 l 1.271 0 q -0.044 -0.22 -0.212 -0.364 z"/><path d="m 209.27 87.992 l 0 -0.736 l 2.514 0 l 0 0.736 l -0.876 0 l 0 2.031 l -0.761 0 l 0 -2.031 z"/><path d="m 214.19 87.26 l 0.664 0 l 0 2.767 l -0.761 0 l 0 -1.552 l -1.204 1.552 l -0.659 0 l 0 -2.767 l 0.761 0 l 0 1.554 z"/><path d="m 216.35 88.979 l 0 1.045 l -0.761 0 l 0 -2.767 l 0.761 0 l 0 1.045 l 1.072 0 l 0 -1.045 l 0.763 0 l 0 2.767 l -0.763 0 l 0 -1.045"/><path d="m 220.92 87.26 l 0 0.706 l -1.243 0 l 0 2.062 l -0.761 0 l 0 -2.767 z"/></g></g><g transform="matrix(0.89138 0 0 0.89138 -57.01 -22.865)"><path d="m 187.15 102.73 l 66.05 0 c 1.305 0 2.356 1.051 2.356 2.356 l 0 6.479 c 0 1.305 -1.051 2.356 -2.356 2.356 l -66.05 0 c -1.305 0 -2.356 -1.051 -2.356 -2.356 l 0 -6.479 c 0 -1.305 1.051 -2.356 2.356 -2.356 z" opacity="0.98" paint-order="markers fill stroke" fill="#0a083c" fill-rule="evenodd" stroke="#0a083c" stroke-linejoin="round" stroke-linecap="round" stroke-width="0.529" stroke-dashoffset="5.707" stroke-miterlimit="54.8"/><g aria-label="Мессенджер-маркетинг" fill="#fff" stroke-width="0.265"><path d="m 189.69 107.48 1.367 -1.723 l 0.75 0 l 0 3.952 l -0.846 0 l 0 -2.635 l -1.271 1.618 -1.268 -1.607 l 0 2.624 l -0.849 0 l 0 -3.952 l 0.763 0 z"/><path d="m 195.28 108.58 l -2 0 q 0.044 0.226 0.24 0.383 0.196 0.154 0.493 0.154 0.215 0 0.397 -0.083 0.185 -0.085 0.259 -0.171 l 0.08 -0.085 0.394 0.507 -0.05 0.05 q -0.036 0.036 -0.149 0.119 -0.113 0.083 -0.24 0.149 -0.127 0.063 -0.331 0.113 -0.201 0.05 -0.416 0.05 -0.609 0 -1.039 -0.422 -0.43 -0.424 -0.43 -1.017 0 -0.593 0.424 -1.014 0.424 -0.424 1.017 -0.424 0.593 0 0.987 0.397 0.394 0.394 0.394 0.987 z m -0.945 -0.898 q -0.165 -0.143 -0.408 -0.143 -0.243 0 -0.413 0.141 -0.168 0.141 -0.237 0.367 l 1.271 0 q -0.044 -0.22 -0.212 -0.364 z"/><path d="m 196.15 109.33 q -0.444 -0.433 -0.444 -1.01 0 -0.576 0.444 -1.01 0.444 -0.433 1.053 -0.433 0.215 0 0.408 0.061 0.196 0.058 0.32 0.141 0.124 0.08 0.22 0.163 0.096 0.083 0.141 0.143 l 0.041 0.058 -0.48 0.48 q -0.022 -0.039 -0.074 -0.102 -0.05 -0.063 -0.22 -0.163 -0.168 -0.102 -0.356 -0.102 -0.3 0 -0.518 0.223 -0.215 0.223 -0.215 0.54 0 0.314 0.218 0.537 0.218 0.223 0.515 0.223 0.187 0 0.356 -0.091 0.171 -0.091 0.248 -0.182 l 0.074 -0.094 0.452 0.48 q -0.017 0.022 -0.047 0.063 -0.028 0.039 -0.132 0.135 -0.105 0.094 -0.226 0.168 -0.121 0.072 -0.317 0.135 -0.193 0.061 -0.408 0.061 -0.609 0 -1.053 -0.43 z"/><path d="m 199 109.33 q -0.444 -0.433 -0.444 -1.01 0 -0.576 0.444 -1.01 0.444 -0.433 1.053 -0.433 0.215 0 0.408 0.061 0.196 0.058 0.32 0.141 0.124 0.08 0.22 0.163 0.096 0.083 0.141 0.143 l 0.041 0.058 -0.48 0.48 q -0.022 -0.039 -0.074 -0.102 -0.05 -0.063 -0.22 -0.163 -0.168 -0.102 -0.356 -0.102 -0.3 0 -0.518 0.223 -0.215 0.223 -0.215 0.54 0 0.314 0.218 0.537 0.218 0.223 0.515 0.223 0.187 0 0.356 -0.091 0.171 -0.091 0.248 -0.182 l 0.074 -0.094 0.452 0.48 q -0.017 0.022 -0.047 0.063 -0.028 0.039 -0.132 0.135 -0.105 0.094 -0.226 0.168 -0.121 0.072 -0.317 0.135 -0.193 0.061 -0.408 0.061 -0.609 0 -1.053 -0.43 z"/><path d="m 204.32 108.58 l -2 0 q 0.044 0.226 0.24 0.383 0.196 0.154 0.493 0.154 0.215 0 0.397 -0.083 0.185 -0.085 0.259 -0.171 l 0.08 -0.085 0.394 0.507 -0.05 0.05 q -0.036 0.036 -0.149 0.119 -0.113 0.083 -0.24 0.149 -0.127 0.063 -0.331 0.113 -0.201 0.05 -0.416 0.05 -0.609 0 -1.039 -0.422 -0.43 -0.424 -0.43 -1.017 0 -0.593 0.424 -1.014 0.424 -0.424 1.017 -0.424 0.593 0 0.987 0.397 0.394 0.394 0.394 0.987 z m -0.945 -0.898 q -0.165 -0.143 -0.408 -0.143 -0.243 0 -0.413 0.141 -0.168 0.141 -0.237 0.367 l 1.271 0 q -0.044 -0.22 -0.212 -0.364 z"/><path d="m 205.68 108.66 l 0 1.045 l -0.761 0 l 0 -2.767 l 0.761 0 l 0 1.045 l 1.072 0 l 0 -1.045 l 0.763 0 l 0 2.767 l -0.763 0 l 0 -1.045 z"/><path d="m 207.88 109.03 l 0.168 0 q 0.017 -0.016 0.047 -0.047 0.033 -0.03 0.11 -0.149 0.08 -0.119 0.138 -0.259 0.061 -0.143 0.107 -0.378 0.05 -0.234 0.05 -0.493 l 0 -0.763 l 2.117 0 l 0 2.089 l 0.367 0 l 0 1.328 l -0.761 0 l 0 -0.65 l -1.582 0 l 0 0.65 l -0.761 0 z m 1.326 -1.411 l 0 0.171 q 0 0.328 -0.091 0.639 -0.088 0.309 -0.179 0.455 l -0.096 0.146 l 1.017 0 l 0 -1.411 z"/><path d="m 212.95 109.71 l 0 -0.791 l -0.254 -0.281 -0.733 1.072 l -0.846 0 l 1.1 -1.579 -1.045 -1.188 l 0.876 0 l 0.901 1.045 l 0 -1.045 l 0.763 0 l 0 1.045 l 0.904 -1.045 l 0.874 0 l -1.045 1.188 1.1 1.579 l -0.846 0 l -0.733 -1.072 -0.254 0.281 l 0 0.791 z"/><path d="m 218.54 108.58 l -2 0 q 0.044 0.226 0.24 0.383 0.196 0.154 0.493 0.154 0.215 0 0.397 -0.083 0.185 -0.085 0.259 -0.171 l 0.08 -0.085 0.394 0.507 -0.05 0.05 q -0.036 0.036 -0.149 0.119 -0.113 0.083 -0.24 0.149 -0.127 0.063 -0.331 0.113 -0.201 0.05 -0.416 0.05 -0.609 0 -1.039 -0.422 -0.43 -0.424 -0.43 -1.017 0 -0.593 0.424 -1.014 0.424 -0.424 1.017 -0.424 0.593 0 0.987 0.397 0.394 0.394 0.394 0.987 z m -0.945 -0.898 q -0.165 -0.143 -0.408 -0.143 -0.243 0 -0.413 0.141 -0.168 0.141 -0.237 0.367 l 1.271 0 q -0.044 -0.22 -0.212 -0.364 z"/><path d="m 220.72 109.76 q -0.237 0 -0.444 -0.097 -0.204 -0.099 -0.289 -0.196 l -0.085 -0.102 l 0 1.524 l -0.761 0 l 0 -3.952 l 0.761 0 l 0 0.339 q 0.011 -0.016 0.033 -0.041 0.025 -0.025 0.099 -0.091 0.077 -0.069 0.165 -0.121 0.088 -0.055 0.229 -0.097 0.141 -0.044 0.292 -0.044 0.537 0 0.932 0.419 0.397 0.416 0.397 1.02 0 0.604 -0.397 1.022 -0.394 0.416 -0.932 0.416 z m 0.339 -1.984 q -0.196 -0.215 -0.48 -0.215 -0.281 0 -0.48 0.215 -0.198 0.212 -0.198 0.546 0 0.333 0.198 0.548 0.198 0.215 0.48 0.215 0.284 0 0.48 -0.215 0.198 -0.215 0.198 -0.548 0 -0.333 -0.198 -0.546 z"/><path d="m 224.5 107.71 l 0 0.678 l -2.031 0 l 0 -0.678 z"/><path d="m 226.53 109.03 -0.736 -0.959 l 0 1.637 l -0.761 0 l 0 -2.767 l 0.648 0 l 0.849 1.102 0.846 -1.102 l 0.648 0 l 0 2.767 l -0.761 0 l 0 -1.637 z"/><path d="m 230.29 109.71 l 0 -0.281 q -0.033 0.039 -0.094 0.097 -0.058 0.055 -0.256 0.149 -0.198 0.091 -0.413 0.091 -0.413 0 -0.672 -0.229 -0.259 -0.232 -0.259 -0.559 0 -0.339 0.218 -0.565 0.218 -0.226 0.601 -0.295 l 0.876 -0.157 q 0 -0.174 -0.127 -0.284 -0.127 -0.11 -0.353 -0.11 -0.187 0 -0.342 0.072 -0.154 0.069 -0.218 0.143 l -0.063 0.066 -0.422 -0.422 q 0.017 -0.022 0.044 -0.058 0.03 -0.039 0.13 -0.13 0.102 -0.091 0.22 -0.16 0.119 -0.072 0.311 -0.13 0.193 -0.061 0.394 -0.061 0.524 0 0.854 0.314 0.331 0.311 0.331 0.785 l 0 1.723 z m -0.565 -0.565 q 0.259 0 0.411 -0.163 0.154 -0.165 0.154 -0.458 l 0 -0.085 l -0.62 0.113 q -0.311 0.05 -0.311 0.311 0 0.281 0.367 0.281 z"/><path d="m 233.36 109.76 q -0.237 0 -0.444 -0.097 -0.204 -0.099 -0.289 -0.196 l -0.085 -0.102 l 0 1.524 l -0.761 0 l 0 -3.952 l 0.761 0 l 0 0.339 q 0.011 -0.016 0.033 -0.041 0.025 -0.025 0.099 -0.091 0.077 -0.069 0.165 -0.121 0.088 -0.055 0.229 -0.097 0.141 -0.044 0.292 -0.044 0.537 0 0.932 0.419 0.397 0.416 0.397 1.02 0 0.604 -0.397 1.022 -0.394 0.416 -0.932 0.416 z m 0.339 -1.984 q -0.196 -0.215 -0.48 -0.215 -0.281 0 -0.48 0.215 -0.198 0.212 -0.198 0.546 0 0.333 0.198 0.548 0.198 0.215 0.48 0.215 0.284 0 0.48 -0.215 0.198 -0.215 0.198 -0.548 0 -0.333 -0.198 -0.546 z"/><path d="m 237.88 106.94 -1.045 1.188 1.102 1.579 l -0.849 0 l -0.733 -1.072 -0.339 0.394 l 0 0.678 l -0.761 0 l 0 -2.767 l 0.761 0 l 0 1.13 l 0.989 -1.13 z"/><path d="m 240.81 108.58 l -2 0 q 0.044 0.226 0.24 0.383 0.196 0.154 0.493 0.154 0.215 0 0.397 -0.083 0.185 -0.085 0.259 -0.171 l 0.08 -0.085 0.394 0.507 -0.05 0.05 q -0.036 0.036 -0.149 0.119 -0.113 0.083 -0.24 0.149 -0.127 0.063 -0.331 0.113 -0.201 0.05 -0.416 0.05 -0.609 0 -1.039 -0.422 -0.43 -0.424 -0.43 -1.017 0 -0.593 0.424 -1.014 0.424 -0.424 1.017 -0.424 0.593 0 0.987 0.397 0.394 0.394 0.394 0.987 z m -0.945 -0.898 q -0.165 -0.143 -0.408 -0.143 -0.243 0 -0.413 0.141 -0.168 0.141 -0.237 0.367 l 1.271 0 q -0.044 -0.22 -0.212 -0.364 z"/><path d="m 241.12 107.68 l 0 -0.736 l 2.514 0 l 0 0.736 l -0.876 0 l 0 2.031 l -0.761 0 l 0 -2.031 z"/><path d="m 246.04 106.94 l 0.664 0 l 0 2.767 l -0.761 0 l 0 -1.552 l -1.204 1.552 l -0.659 0 l 0 -2.767 l 0.761 0 l 0 1.554 z"/><path d="m 248.21 108.66 l 0 1.045 l -0.761 0 l 0 -2.767 l 0.761 0 l 0 1.045 l 1.072 0 l 0 -1.045 l 0.763 0 l 0 2.767 l -0.763 0 l 0 -1.045 z"/><path d="m 252.78 106.94 l 0 0.706 l -1.243 0 l 0 2.062 l -0.761 0 l 0 -2.767 z"/></g></g><g transform="matrix(0.89138 0 0 0.89138 -54.05 -15.411)"><path d="m 183.78 123.56 l 66.15 0 c 1.228 0 2.216 0.989 2.216 2.216 l 0 28.519 c 0 1.228 -0.989 2.216 -2.216 2.216 l -66.15 0 c -1.228 0 -2.216 -0.989 -2.216 -2.216 l 0 -28.519 c 0 -1.228 0.988 -2.216 2.216 -2.216 z" opacity="0.98" paint-order="markers fill stroke" fill="#586292" fill-rule="evenodd" stroke="#586292" stroke-linejoin="round" stroke-linecap="round" stroke-width="0.463" stroke-dashoffset="5.707" stroke-miterlimit="54.8"/><g aria-label="Реферальная,
 бонусная или скидочная 
программа
" fill="#fff" stroke-width="0.265"><path d="m 198.43 126.67 l 1.665 0 q 0.609 0 1.01 0.383 0.402 0.38 0.402 0.945 0 0.562 -0.4 0.945 -0.4 0.38 -1.011 0.38 l -0.816 0 l 0 1.298 l -0.849 0 z m 1.637 0.763 l -0.788 0 l 0 1.127 l 0.788 0 q 0.254 0 0.422 -0.163 0.171 -0.163 0.171 -0.4 0 -0.237 -0.171 -0.4 -0.168 -0.165 -0.422 -0.165 z"/><path d="m 204.61 129.5 l -2 0 q 0.044 0.226 0.24 0.383 0.196 0.154 0.493 0.154 0.215 0 0.397 -0.083 0.185 -0.085 0.259 -0.171 l 0.08 -0.085 0.394 0.507 -0.05 0.05 q -0.036 0.036 -0.149 0.119 -0.113 0.083 -0.24 0.149 -0.127 0.063 -0.331 0.113 -0.201 0.05 -0.416 0.05 -0.609 0 -1.039 -0.422 -0.43 -0.424 -0.43 -1.017 0 -0.593 0.424 -1.014 0.424 -0.424 1.017 -0.424 0.593 0 0.987 0.397 0.394 0.394 0.394 0.987 z m -0.945 -0.898 q -0.165 -0.143 -0.408 -0.143 -0.243 0 -0.413 0.141 -0.168 0.141 -0.237 0.367 l 1.271 0 q -0.044 -0.22 -0.212 -0.364 z"/><path d="m 206.59 130.03 l 0 -1.524 q -0.378 0.022 -0.584 0.223 -0.207 0.201 -0.207 0.54 0 0.336 0.207 0.537 0.207 0.201 0.584 0.223 z m 0.761 0.678 l 0 1.1 l -0.761 0 l 0 -1.1 q -0.667 -0.022 -1.111 -0.441 -0.444 -0.419 -0.444 -0.998 0 -0.582 0.444 -1 0.444 -0.419 1.111 -0.441 l 0 -1.158 l 0.761 0 l 0 1.158 q 0.667 0.022 1.108 0.441 0.444 0.419 0.444 1 0 0.579 -0.444 0.998 -0.441 0.419 -1.108 0.441 z m 0 -2.202 l 0 1.524 q 0.378 -0.022 0.584 -0.223 0.207 -0.201 0.207 -0.537 0 -0.339 -0.207 -0.54 -0.207 -0.201 -0.584 -0.223 z"/><path d="m 212.09 129.5 l -2 0 q 0.044 0.226 0.24 0.383 0.196 0.154 0.493 0.154 0.215 0 0.397 -0.083 0.185 -0.085 0.259 -0.171 l 0.08 -0.085 0.394 0.507 -0.05 0.05 q -0.036 0.036 -0.149 0.119 -0.113 0.083 -0.24 0.149 -0.127 0.063 -0.331 0.113 -0.201 0.05 -0.416 0.05 -0.609 0 -1.039 -0.422 -0.43 -0.424 -0.43 -1.017 0 -0.593 0.424 -1.014 0.424 -0.424 1.017 -0.424 0.593 0 0.987 0.397 0.394 0.394 0.394 0.987 z m -0.945 -0.898 q -0.165 -0.143 -0.408 -0.143 -0.243 0 -0.413 0.141 -0.168 0.141 -0.237 0.367 l 1.271 0 q -0.044 -0.22 -0.212 -0.364 z"/><path d="m 214.27 130.68 q -0.237 0 -0.444 -0.096 -0.204 -0.099 -0.289 -0.196 l -0.085 -0.102 l 0 1.524 l -0.761 0 l 0 -3.952 l 0.761 0 l 0 0.339 q 0.011 -0.017 0.033 -0.041 0.025 -0.025 0.099 -0.091 0.077 -0.069 0.165 -0.121 0.088 -0.055 0.229 -0.097 0.141 -0.044 0.292 -0.044 0.537 0 0.932 0.419 0.397 0.416 0.397 1.02 0 0.604 -0.397 1.023 -0.394 0.416 -0.932 0.416 z m 0.339 -1.984 q -0.196 -0.215 -0.48 -0.215 -0.281 0 -0.48 0.215 -0.198 0.212 -0.198 0.546 0 0.333 0.198 0.548 0.198 0.215 0.48 0.215 0.284 0 0.48 -0.215 0.198 -0.215 0.198 -0.548 0 -0.333 -0.198 -0.546 z"/><path d="m 217.69 130.63 l 0 -0.281 q -0.033 0.039 -0.094 0.096 -0.058 0.055 -0.256 0.149 -0.198 0.091 -0.413 0.091 -0.413 0 -0.672 -0.229 -0.259 -0.232 -0.259 -0.559 0 -0.339 0.218 -0.565 0.218 -0.226 0.601 -0.295 l 0.876 -0.157 q 0 -0.174 -0.127 -0.284 -0.127 -0.11 -0.353 -0.11 -0.187 0 -0.342 0.072 -0.154 0.069 -0.218 0.143 l -0.063 0.066 -0.422 -0.422 q 0.017 -0.022 0.044 -0.058 0.03 -0.039 0.13 -0.13 0.102 -0.091 0.22 -0.16 0.119 -0.072 0.311 -0.13 0.193 -0.061 0.394 -0.061 0.524 0 0.854 0.314 0.331 0.311 0.331 0.785 l 0 1.723 z m -0.565 -0.565 q 0.259 0 0.411 -0.163 0.154 -0.165 0.154 -0.458 l 0 -0.085 l -0.62 0.113 q -0.311 0.05 -0.311 0.311 0 0.281 0.367 0.281 z"/><path d="m 219.46 127.86 l 2.23 0 l 0 2.767 l -0.761 0 l 0 -2.089 l -0.733 0 l 0 0.171 q 0 0.774 -0.132 1.232 -0.13 0.455 -0.336 0.615 -0.204 0.157 -0.521 0.157 -0.102 0 -0.201 -0.025 -0.096 -0.022 -0.143 -0.039 l -0.05 -0.022 l 0 -0.678 q 0.085 0.028 0.168 0.028 0.168 0 0.265 -0.085 0.096 -0.088 0.154 -0.389 0.061 -0.303 0.061 -0.879 z"/><path d="m 223.18 130.01 l 0.48 0 q 0.146 0 0.243 -0.096 0.096 -0.096 0.096 -0.243 0 -0.146 -0.096 -0.243 -0.094 -0.096 -0.243 -0.096 l -0.48 0 z m 1.295 -1.034 q 0.287 0.265 0.287 0.695 0 0.427 -0.287 0.695 -0.284 0.265 -0.785 0.265 l -1.271 0 l 0 -2.767 l 0.761 0 l 0 0.849 l 0.51 0 q 0.502 0 0.785 0.265 z"/><path d="m 226.06 129.58 l 0 1.045 l -0.761 0 l 0 -2.767 l 0.761 0 l 0 1.045 l 1.072 0 l 0 -1.045 l 0.763 0 l 0 2.767 l -0.763 0 l 0 -1.045 z"/><path d="m 230.15 130.63 l 0 -0.281 q -0.033 0.039 -0.094 0.096 -0.058 0.055 -0.256 0.149 -0.198 0.091 -0.413 0.091 -0.413 0 -0.672 -0.229 -0.259 -0.232 -0.259 -0.559 0 -0.339 0.218 -0.565 0.218 -0.226 0.601 -0.295 l 0.876 -0.157 q 0 -0.174 -0.127 -0.284 -0.127 -0.11 -0.353 -0.11 -0.187 0 -0.342 0.072 -0.154 0.069 -0.218 0.143 l -0.063 0.066 -0.422 -0.422 q 0.017 -0.022 0.044 -0.058 0.03 -0.039 0.13 -0.13 0.102 -0.091 0.22 -0.16 0.119 -0.072 0.311 -0.13 0.193 -0.061 0.394 -0.061 0.524 0 0.854 0.314 0.331 0.311 0.331 0.785 l 0 1.723 z m -0.565 -0.565 q 0.259 0 0.411 -0.163 0.154 -0.165 0.154 -0.458 l 0 -0.085 l -0.62 0.113 q -0.311 0.05 -0.311 0.311 0 0.281 0.367 0.281 z"/><path d="m 232.61 127.86 l 1.326 0 l 0 2.767 l -0.761 0 l 0 -0.819 l -0.397 0 l -0.507 0.819 l -0.819 0 l 0.593 -0.932 q -0.022 -0.011 -0.058 -0.028 -0.033 -0.017 -0.121 -0.091 -0.085 -0.074 -0.154 -0.16 -0.066 -0.088 -0.121 -0.24 -0.052 -0.154 -0.052 -0.328 0 -0.405 0.306 -0.697 0.309 -0.292 0.766 -0.292 z m 0.565 0.65 l -0.507 0 q -0.168 0 -0.27 0.094 -0.099 0.094 -0.099 0.245 0 0.152 0.099 0.245 0.099 0.094 0.27 0.094 l 0.507 0 z"/><path d="m 234.93 129.81 0.62 0.367 -0.733 1.185 -0.507 -0.254 z"/><path d="m 187.54 139.88 q 0 0.582 -0.391 0.981 -0.389 0.4 -0.992 0.4 -0.678 0 -1.089 -0.471 -0.408 -0.471 -0.408 -1.334 0 -0.965 0.367 -1.458 0.367 -0.493 1.045 -0.631 0.3 -0.063 0.548 -0.138 0.248 -0.074 0.345 -0.121 l 0.096 -0.05 0.336 0.565 q -0.022 0.022 -0.08 0.058 -0.055 0.036 -0.339 0.141 -0.281 0.105 -0.681 0.196 -0.361 0.08 -0.587 0.309 -0.226 0.226 -0.287 0.565 0.011 -0.017 0.036 -0.041 0.025 -0.025 0.105 -0.091 0.08 -0.069 0.168 -0.121 0.091 -0.055 0.229 -0.096 0.138 -0.044 0.281 -0.044 0.513 0 0.904 0.411 0.394 0.408 0.394 0.973 z m -1.847 -0.507 q -0.187 0.196 -0.187 0.507 0 0.309 0.187 0.507 0.187 0.198 0.463 0.198 0.259 0 0.438 -0.198 0.182 -0.198 0.182 -0.507 0 -0.311 -0.182 -0.507 -0.179 -0.198 -0.438 -0.198 -0.276 0 -0.463 0.198 z"/><path d="m 188.98 139.31 q -0.201 0.212 -0.201 0.524 0 0.309 0.201 0.521 0.201 0.209 0.477 0.209 0.276 0 0.477 -0.209 0.201 -0.212 0.201 -0.521 0 -0.311 -0.201 -0.524 -0.201 -0.212 -0.477 -0.212 -0.276 0 -0.477 0.212 z m 1.505 -0.485 q 0.438 0.43 0.438 1.01 0 0.576 -0.438 1.01 -0.435 0.43 -1.028 0.43 -0.593 0 -1.031 -0.43 -0.438 -0.433 -0.438 -1.01 0 -0.576 0.438 -1.01 0.438 -0.433 1.031 -0.433 0.593 0 1.028 0.433 z"/><path d="m 192.25 140.17 l 0 1.045 l -0.761 0 l 0 -2.767 l 0.761 0 l 0 1.045 l 1.072 0 l 0 -1.045 l 0.763 0 l 0 2.767 l -0.763 0 l 0 -1.045 z"/><path d="m 195.47 141.38 0.085 -0.196 -1.072 -2.74 l 0.791 0 l 0.648 1.836 0.65 -1.836 l 0.788 0 l -1.1 2.935 q -0.378 1.017 -1.072 1.017 -0.124 0 -0.245 -0.022 -0.121 -0.022 -0.179 -0.044 l -0.055 -0.019 l 0 -0.675 q 0.113 0.055 0.281 0.055 0.345 0 0.48 -0.311 z"/><path d="m 198.02 140.84 q -0.444 -0.433 -0.444 -1.01 0 -0.576 0.444 -1.01 0.444 -0.433 1.053 -0.433 0.215 0 0.408 0.061 0.196 0.058 0.32 0.141 0.124 0.08 0.22 0.163 0.096 0.083 0.141 0.143 l 0.041 0.058 -0.48 0.48 q -0.022 -0.039 -0.074 -0.102 -0.05 -0.063 -0.22 -0.163 -0.168 -0.102 -0.356 -0.102 -0.3 0 -0.518 0.223 -0.215 0.223 -0.215 0.54 0 0.314 0.218 0.537 0.218 0.223 0.515 0.223 0.187 0 0.356 -0.091 0.171 -0.091 0.248 -0.182 l 0.074 -0.094 0.452 0.48 q -0.017 0.022 -0.047 0.063 -0.028 0.039 -0.132 0.135 -0.105 0.094 -0.226 0.168 -0.121 0.072 -0.317 0.135 -0.193 0.061 -0.408 0.061 -0.609 0 -1.053 -0.43 z"/><path d="m 201.48 140.17 l 0 1.045 l -0.761 0 l 0 -2.767 l 0.761 0 l 0 1.045 l 1.072 0 l 0 -1.045 l 0.763 0 l 0 2.767 l -0.763 0 l 0 -1.045 z"/><path d="m 205.57 141.21 l 0 -0.281 q -0.033 0.039 -0.094 0.096 -0.058 0.055 -0.256 0.149 -0.198 0.091 -0.413 0.091 -0.413 0 -0.672 -0.229 -0.259 -0.232 -0.259 -0.559 0 -0.339 0.218 -0.565 0.218 -0.226 0.601 -0.295 l 0.876 -0.157 q 0 -0.174 -0.127 -0.284 -0.127 -0.11 -0.353 -0.11 -0.187 0 -0.342 0.072 -0.154 0.069 -0.218 0.143 l -0.063 0.066 -0.422 -0.422 q 0.017 -0.022 0.044 -0.058 0.03 -0.039 0.13 -0.13 0.102 -0.091 0.22 -0.16 0.119 -0.072 0.311 -0.13 0.193 -0.061 0.394 -0.061 0.524 0 0.854 0.314 0.331 0.311 0.331 0.785 l 0 1.723 z m -0.565 -0.565 q 0.259 0 0.411 -0.163 0.154 -0.165 0.154 -0.458 l 0 -0.085 l -0.62 0.113 q -0.311 0.05 -0.311 0.311 0 0.281 0.367 0.281 z"/><path d="m 208.03 138.44 l 1.326 0 l 0 2.767 l -0.761 0 l 0 -0.819 l -0.397 0 l -0.507 0.819 l -0.819 0 l 0.593 -0.932 q -0.022 -0.011 -0.058 -0.028 -0.033 -0.017 -0.121 -0.091 -0.085 -0.074 -0.154 -0.16 -0.066 -0.088 -0.121 -0.24 -0.052 -0.154 -0.052 -0.328 0 -0.405 0.306 -0.697 0.309 -0.292 0.766 -0.292 z m 0.565 0.65 l -0.507 0 q -0.168 0 -0.27 0.094 -0.099 0.094 -0.099 0.245 0 0.152 0.099 0.245 0.099 0.094 0.27 0.094 l 0.507 0 z"/><path d="m 213.2 138.44 l 0.664 0 l 0 2.767 l -0.761 0 l 0 -1.552 l -1.204 1.552 l -0.659 0 l 0 -2.767 l 0.761 0 l 0 1.554 z"/><path d="m 214.89 138.44 l 2.23 0 l 0 2.767 l -0.761 0 l 0 -2.089 l -0.733 0 l 0 0.171 q 0 0.774 -0.132 1.232 -0.13 0.455 -0.336 0.615 -0.204 0.157 -0.521 0.157 -0.102 0 -0.201 -0.025 -0.096 -0.022 -0.143 -0.039 l -0.05 -0.022 l 0 -0.678 q 0.085 0.028 0.168 0.028 0.168 0 0.265 -0.085 0.096 -0.088 0.154 -0.389 0.061 -0.303 0.061 -0.879 z"/><path d="m 219.81 138.44 l 0.664 0 l 0 2.767 l -0.761 0 l 0 -1.552 l -1.204 1.552 l -0.659 0 l 0 -2.767 l 0.761 0 l 0 1.554 z"/><path d="m 222.64 140.84 q -0.444 -0.433 -0.444 -1.01 0 -0.576 0.444 -1.01 0.444 -0.433 1.053 -0.433 0.215 0 0.408 0.061 0.196 0.058 0.32 0.141 0.124 0.08 0.22 0.163 0.096 0.083 0.141 0.143 l 0.041 0.058 -0.48 0.48 q -0.022 -0.039 -0.074 -0.102 -0.05 -0.063 -0.22 -0.163 -0.168 -0.102 -0.356 -0.102 -0.3 0 -0.518 0.223 -0.215 0.223 -0.215 0.54 0 0.314 0.218 0.537 0.218 0.223 0.515 0.223 0.187 0 0.356 -0.091 0.171 -0.091 0.248 -0.182 l 0.074 -0.094 0.452 0.48 q -0.017 0.022 -0.047 0.063 -0.028 0.039 -0.132 0.135 -0.105 0.094 -0.226 0.168 -0.121 0.072 -0.317 0.135 -0.193 0.061 -0.408 0.061 -0.609 0 -1.053 -0.43 z"/><path d="m 227.96 138.44 -1.045 1.188 1.102 1.579 l -0.849 0 l -0.733 -1.072 -0.339 0.394 l 0 0.678 l -0.761 0 l 0 -2.767 l 0.761 0 l 0 1.13 l 0.989 -1.13 z"/><path d="m 230.34 138.44 l 0.664 0 l 0 2.767 l -0.761 0 l 0 -1.552 l -1.204 1.552 l -0.659 0 l 0 -2.767 l 0.761 0 l 0 1.554 z"/><path d="m 231.37 140.53 l 0.168 0 q 0.017 -0.017 0.047 -0.047 0.033 -0.03 0.11 -0.149 0.08 -0.119 0.138 -0.259 0.061 -0.143 0.107 -0.378 0.05 -0.234 0.05 -0.493 l 0 -0.763 l 2.117 0 l 0 2.089 l 0.367 0 l 0 1.328 l -0.761 0 l 0 -0.65 l -1.582 0 l 0 0.65 l -0.761 0 z m 1.326 -1.411 l 0 0.171 q 0 0.328 -0.091 0.639 -0.088 0.309 -0.179 0.455 l -0.096 0.146 l 1.017 0 l 0 -1.411 z"/><path d="m 235.8 139.31 q -0.201 0.212 -0.201 0.524 0 0.309 0.201 0.521 0.201 0.209 0.477 0.209 0.276 0 0.477 -0.209 0.201 -0.212 0.201 -0.521 0 -0.311 -0.201 -0.524 -0.201 -0.212 -0.477 -0.212 -0.276 0 -0.477 0.212 z m 1.505 -0.485 q 0.438 0.43 0.438 1.01 0 0.576 -0.438 1.01 -0.435 0.43 -1.028 0.43 -0.593 0 -1.031 -0.43 -0.438 -0.433 -0.438 -1.01 0 -0.576 0.438 -1.01 0.438 -0.433 1.031 -0.433 0.593 0 1.028 0.433 z"/><path d="m 239.95 141.21 l 0 -0.932 q -0.281 0.198 -0.65 0.198 -0.474 0 -0.761 -0.3 -0.284 -0.303 -0.284 -0.83 l 0 -0.904 l 0.763 0 l 0 0.849 q 0 0.209 0.13 0.345 0.13 0.135 0.322 0.135 0.135 0 0.256 -0.041 0.121 -0.044 0.171 -0.088 l 0.052 -0.041 l 0 -1.158 l 0.761 0 l 0 2.767 z"/><path d="m 242.2 140.17 l 0 1.045 l -0.761 0 l 0 -2.767 l 0.761 0 l 0 1.045 l 1.072 0 l 0 -1.045 l 0.763 0 l 0 2.767 l -0.763 0 l 0 -1.045 z"/><path d="m 246.29 141.21 l 0 -0.281 q -0.033 0.039 -0.094 0.096 -0.058 0.055 -0.256 0.149 -0.198 0.091 -0.413 0.091 -0.413 0 -0.672 -0.229 -0.259 -0.232 -0.259 -0.559 0 -0.339 0.218 -0.565 0.218 -0.226 0.601 -0.295 l 0.876 -0.157 q 0 -0.174 -0.127 -0.284 -0.127 -0.11 -0.353 -0.11 -0.187 0 -0.342 0.072 -0.154 0.069 -0.218 0.143 l -0.063 0.066 -0.422 -0.422 q 0.017 -0.022 0.044 -0.058 0.03 -0.039 0.13 -0.13 0.102 -0.091 0.22 -0.16 0.119 -0.072 0.311 -0.13 0.193 -0.061 0.394 -0.061 0.524 0 0.854 0.314 0.331 0.311 0.331 0.785 l 0 1.723 z m -0.565 -0.565 q 0.259 0 0.411 -0.163 0.154 -0.165 0.154 -0.458 l 0 -0.085 l -0.62 0.113 q -0.311 0.05 -0.311 0.311 0 0.281 0.367 0.281 z"/><path d="m 248.75 138.44 l 1.326 0 l 0 2.767 l -0.761 0 l 0 -0.819 l -0.397 0 l -0.507 0.819 l -0.819 0 l 0.593 -0.932 q -0.022 -0.011 -0.058 -0.028 -0.033 -0.017 -0.121 -0.091 -0.085 -0.074 -0.154 -0.16 -0.066 -0.088 -0.121 -0.24 -0.052 -0.154 -0.052 -0.328 0 -0.405 0.306 -0.697 0.309 -0.292 0.766 -0.292 z m 0.565 0.65 l -0.507 0 q -0.168 0 -0.27 0.094 -0.099 0.094 -0.099 0.245 0 0.152 0.099 0.245 0.099 0.094 0.27 0.094 l 0.507 0 z"/><path d="m 203.2 149.7 l 0 2.089 l -0.761 0 l 0 -2.767 l 2.596 0 l 0 2.767 l -0.763 0 l 0 -2.089 z"/><path d="m 207.35 151.85 q -0.237 0 -0.444 -0.096 -0.204 -0.099 -0.289 -0.196 l -0.085 -0.102 l 0 1.524 l -0.761 0 l 0 -3.952 l 0.761 0 l 0 0.339 q 0.011 -0.017 0.033 -0.041 0.025 -0.025 0.099 -0.091 0.077 -0.069 0.165 -0.121 0.088 -0.055 0.229 -0.096 0.141 -0.044 0.292 -0.044 0.537 0 0.932 0.419 0.397 0.416 0.397 1.02 0 0.604 -0.397 1.023 -0.394 0.416 -0.932 0.416 z m 0.339 -1.984 q -0.196 -0.215 -0.48 -0.215 -0.281 0 -0.48 0.215 -0.198 0.212 -0.198 0.546 0 0.333 0.198 0.548 0.198 0.215 0.48 0.215 0.284 0 0.48 -0.215 0.198 -0.215 0.198 -0.548 0 -0.333 -0.198 -0.546 z"/><path d="m 210.06 149.89 q -0.201 0.212 -0.201 0.524 0 0.309 0.201 0.521 0.201 0.209 0.477 0.209 0.276 0 0.477 -0.209 0.201 -0.212 0.201 -0.521 0 -0.311 -0.201 -0.524 -0.201 -0.212 -0.477 -0.212 -0.276 0 -0.477 0.212 z m 1.505 -0.485 q 0.438 0.43 0.438 1.01 0 0.576 -0.438 1.01 -0.435 0.43 -1.028 0.43 -0.593 0 -1.031 -0.43 -0.438 -0.433 -0.438 -1.01 0 -0.576 0.438 -1.01 0.438 -0.433 1.031 -0.433 0.593 0 1.028 0.433 z"/><path d="m 214.57 149.03 l 0 0.706 l -1.243 0 l 0 2.062 l -0.761 0 l 0 -2.767 z"/><path d="m 216.57 151.85 q -0.237 0 -0.444 -0.096 -0.204 -0.099 -0.289 -0.196 l -0.085 -0.102 l 0 1.524 l -0.761 0 l 0 -3.952 l 0.761 0 l 0 0.339 q 0.011 -0.017 0.033 -0.041 0.025 -0.025 0.099 -0.091 0.077 -0.069 0.165 -0.121 0.088 -0.055 0.229 -0.096 0.141 -0.044 0.292 -0.044 0.537 0 0.932 0.419 0.397 0.416 0.397 1.02 0 0.604 -0.397 1.023 -0.394 0.416 -0.932 0.416 z m 0.339 -1.984 q -0.196 -0.215 -0.48 -0.215 -0.281 0 -0.48 0.215 -0.198 0.212 -0.198 0.546 0 0.333 0.198 0.548 0.198 0.215 0.48 0.215 0.284 0 0.48 -0.215 0.198 -0.215 0.198 -0.548 0 -0.333 -0.198 -0.546 z"/><path d="m 219.99 151.79 l 0 -0.281 q -0.033 0.039 -0.094 0.096 -0.058 0.055 -0.256 0.149 -0.198 0.091 -0.413 0.091 -0.413 0 -0.672 -0.229 -0.259 -0.232 -0.259 -0.559 0 -0.339 0.218 -0.565 0.218 -0.226 0.601 -0.295 l 0.876 -0.157 q 0 -0.174 -0.127 -0.284 -0.127 -0.11 -0.353 -0.11 -0.187 0 -0.342 0.072 -0.154 0.069 -0.218 0.143 l -0.063 0.066 -0.422 -0.422 q 0.017 -0.022 0.044 -0.058 0.03 -0.039 0.13 -0.13 0.102 -0.091 0.22 -0.16 0.119 -0.072 0.311 -0.13 0.193 -0.061 0.394 -0.061 0.524 0 0.854 0.314 0.331 0.311 0.331 0.785 l 0 1.723 z m -0.565 -0.565 q 0.259 0 0.411 -0.163 0.154 -0.165 0.154 -0.458 l 0 -0.085 l -0.62 0.113 q -0.311 0.05 -0.311 0.311 0 0.281 0.367 0.281 z"/><path d="m 222.98 151.12 -0.736 -0.959 l 0 1.637 l -0.761 0 l 0 -2.767 l 0.648 0 l 0.849 1.102 0.846 -1.102 l 0.648 0 l 0 2.767 l -0.761 0 l 0 -1.637 z"/><path d="m 226.71 151.12 -0.736 -0.959 l 0 1.637 l -0.761 0 l 0 -2.767 l 0.648 0 l 0.849 1.102 0.846 -1.102 l 0.648 0 l 0 2.767 l -0.761 0 l 0 -1.637 z"/><path d="m 230.46 151.79 l 0 -0.281 q -0.033 0.039 -0.094 0.096 -0.058 0.055 -0.256 0.149 -0.198 0.091 -0.413 0.091 -0.413 0 -0.672 -0.229 -0.259 -0.232 -0.259 -0.559 0 -0.339 0.218 -0.565 0.218 -0.226 0.601 -0.295 l 0.876 -0.157 q 0 -0.174 -0.127 -0.284 -0.127 -0.11 -0.353 -0.11 -0.187 0 -0.342 0.072 -0.154 0.069 -0.218 0.143 l -0.063 0.066 -0.422 -0.422 q 0.017 -0.022 0.044 -0.058 0.03 -0.039 0.13 -0.13 0.102 -0.091 0.22 -0.16 0.119 -0.072 0.311 -0.13 0.193 -0.061 0.394 -0.061 0.524 0 0.854 0.314 0.331 0.311 0.331 0.785 l 0 1.723 z m -0.565 -0.565 q 0.259 0 0.411 -0.163 0.154 -0.165 0.154 -0.458 l 0 -0.085 l -0.62 0.113 q -0.311 0.05 -0.311 0.311 0 0.281 0.367 0.281 z"/></g></g><g transform="translate(-42.834 -142.18)"><path d="m 177.05 197.6 l 10.06 0 c 1.195 0 2.157 0.962 2.157 2.157 l 0 5.93 c 0 1.195 -0.962 2.156 -2.157 2.156 l -10.06 0 c -1.195 0 -2.157 -0.962 -2.157 -2.156 l 0 -5.93 c 0 -1.195 0.962 -2.157 2.157 -2.157 z" opacity="0.98" paint-order="markers fill stroke" fill="#586292" fill-rule="evenodd" stroke="#586292" stroke-linejoin="round" stroke-linecap="round" stroke-width="0.472" stroke-dashoffset="5.707" stroke-miterlimit="54.8"/><g aria-label="SMM" fill="#fff" stroke-width="0.236"><path d="m 177.95 203.45 q 0 -0.177 -0.179 -0.285 -0.177 -0.108 -0.435 -0.179 -0.256 -0.074 -0.511 -0.172 -0.253 -0.098 -0.432 -0.324 -0.179 -0.226 -0.179 -0.572 0 -0.427 0.341 -0.73 0.344 -0.302 0.892 -0.302 0.216 0 0.418 0.052 0.201 0.049 0.329 0.118 0.13 0.066 0.226 0.138 0.098 0.069 0.14 0.12 l 0.044 0.049 -0.452 0.479 q -0.03 -0.034 -0.083 -0.083 -0.052 -0.052 -0.221 -0.135 -0.17 -0.083 -0.349 -0.083 -0.216 0 -0.349 0.111 -0.13 0.111 -0.13 0.268 0 0.177 0.177 0.285 0.179 0.106 0.432 0.179 0.256 0.074 0.511 0.172 0.258 0.098 0.437 0.324 0.179 0.226 0.179 0.572 0 0.489 -0.356 0.798 -0.354 0.31 -0.978 0.31 -0.246 0 -0.477 -0.061 -0.228 -0.059 -0.378 -0.142 -0.147 -0.083 -0.26 -0.17 -0.113 -0.086 -0.162 -0.145 l -0.056 -0.061 0.454 -0.452 q 0.034 0.039 0.096 0.103 0.064 0.061 0.28 0.167 0.216 0.106 0.452 0.106 0.273 0 0.425 -0.128 0.155 -0.128 0.155 -0.324 z"/><path d="m 181.32 202.5 1.219 -1.535 l 0.668 0 l 0 3.523 l -0.754 0 l 0 -2.349 l -1.133 1.442 -1.13 -1.432 l 0 2.339 l -0.757 0 l 0 -3.523 l 0.681 0 z"/><path d="m 186 202.5 1.219 -1.535 l 0.668 0 l 0 3.523 l -0.754 0 l 0 -2.349 l -1.133 1.442 -1.13 -1.432 l 0 2.339 l -0.757 0 l 0 -3.523 l 0.68 0 z"/></g></g></g><g fill="none"><g stroke="#b3b3b3"><path d="m 76.13 67.1 l 37.22 0" stroke-width="0.573"/><g stroke-width="0.529"><path d="m 86.77 51.13 l 47.561 0"/><path d="m 86.69 67.02 0 -50.33 c 0.007 -6.653 0.723 -6.597 7.197 -6.564 l 23.59 -0.079"/><path d="m 86.69 67.02 0 2.174 c 0.007 6.653 0.723 6.597 7.197 6.564 l 20.22 0.214"/></g></g><g transform="matrix(1 0 0 -1 11.07 5.923)" stroke="#ff2a2a"><path d="m 36.688 -13.312 l 86.43 0" stroke-width="0.573"/><g stroke-width="0.529"><path d="m 85.96 -23.991 l 29.569 0"/><path d="m 85.87 -16.04 0 -13.287 c 0.007 -6.653 0.723 -6.597 7.197 -6.564 l 11.948 -0.079"/><path d="m 85.87 -16.04 0 10.112 c 0.007 6.653 0.724 6.46 7.197 6.564 l 13.34 0.214"/></g></g></g><g stroke-width="0.008"><g fill="#0f0"><path d="m 111.54 64.28 1.554 -1.45 -1.554 -1.45 5.05 1.45 z"/><path d="m 132.78 57.06 1.554 -1.45 -1.554 -1.45 5.05 1.45 z"/><path d="m 48.51 104.06 -1.554 -1.45 1.554 -1.45 -5.05 1.45 z"/><path d="m 111.72 104.06 1.554 -1.45 -1.554 -1.45 5.05 1.45 z"/></g><g fill="#b3b3b3"><path d="m 77.68 68.55 -1.554 -1.45 1.554 -1.45 -5.05 1.45 z"/><path d="m 132.78 52.582 1.554 -1.45 -1.554 -1.45 5.05 1.45 z"/><path d="m 111.79 68.55 1.554 -1.45 -1.554 -1.45 5.05 1.45 z"/><path d="m 115.92 11.496 1.554 -1.45 -1.554 -1.45 5.05 1.45 z"/><path d="m 112.55 77.42 1.554 -1.45 -1.554 -1.45 5.05 1.45 z"/></g><g fill="#ff2a2a"><path d="m 49.31 20.685 -1.554 -1.45 1.554 -1.45 -5.05 1.45 z"/><path d="m 114.54 43.35 1.554 -1.45 -1.554 -1.45 5.05 1.45 z"/><path d="m 132.64 20.685 1.554 -1.45 -1.554 -1.45 5.05 1.45 z"/><path d="m 115.93 6.525 1.554 -1.45 -1.554 -1.45 5.05 1.45 z"/><path d="m 122.93 31.364 1.554 -1.45 -1.554 -1.45 5.05 1.45 z"/></g></g></svg>