<svg xmlns="http://www.w3.org/2000/svg" width="700" height="500" viewBox="0 0 185.20834 132.29167" xmlns:xlink="http://www.w3.org/1999/xlink"><defs><path id="0" d="m 196.31 202.27 h 2.785 v 0.847 h -2.785 z" fill="#002981"/><path id="1" d="m 203.96 202.27 h 2.785 v 0.847 h -2.785 z" fill="#002981"/><path id="2" d="m 181.01 202.27 h 2.785 v 0.847 h -2.785 z" fill="#002981"/><path id="3" d="m 188.66 202.27 h 2.785 v 0.847 h -2.785 z" fill="#002981"/><path id="4" d="m 200.14 202.27 h 2.785 v 0.847 h -2.785 z" fill="#002981"/></defs><g transform="translate(0 -164.71)"><path opacity="0.95" fill="#bddae8" d="m 0 164.71 h 185.21 v 132.29 h -185.21 z"/><g aria-label="Линкбилдинг" opacity="0.95" stroke-opacity="0.941" fill="#00b6b6" stroke="#f7766f" stroke-width="0.265"><path d="m 67.42 178.55 h -0.966 v -6.708 h -1.535 q -0.605 5.05 -1.065 5.938 -0.455 0.889 -1.359 0.889 -0.367 0 -0.708 -0.129 v -0.775 q 0.295 0.129 0.584 0.129 0.527 0 0.811 -0.93 0.284 -0.935 0.935 -5.969 h 3.302 z"/><path d="m 69.829 172.88 v 3.452 l -0.067 1.302 l 2.672 -4.754 h 1.204 v 5.674 h -0.889 v -3.343 l 0.052 -1.4 l -2.656 4.744 h -1.204 v -5.674 z"/><path d="m 76.23 172.88 v 2.351 h 2.816 v -2.351 h 0.941 v 5.674 h -0.941 v -2.527 h -2.816 v 2.527 h -0.941 v -5.674 z"/><path d="m 85.52 172.88 h 1.147 l -2.723 2.723 l 2.925 2.951 h -1.199 l -2.827 -2.878 v 2.878 h -0.93 v -5.674 h 0.93 v 2.754 z"/><path d="m 92.53 170.43 l 0.171 0.827 q -2.052 0.346 -2.584 0.517 -0.527 0.165 -0.858 0.729 -0.326 0.558 -0.367 1.643 h 0.062 q 0.599 -0.879 1.736 -0.879 0.961 0 1.509 0.682 0.553 0.677 0.553 1.86 0 1.344 -0.646 2.093 -0.646 0.749 -1.788 0.749 -1.132 0 -1.778 -0.93 -0.646 -0.93 -0.646 -2.579 0 -1.096 0.16 -1.84 0.16 -0.744 0.429 -1.199 0.269 -0.455 0.625 -0.729 0.357 -0.274 0.878 -0.419 0.522 -0.15 2.542 -0.527 z m -3.659 4.734 q 0 2.708 1.514 2.708 1.375 0 1.375 -1.938 0 -1.881 -1.24 -1.881 -0.491 0 -0.951 0.331 -0.455 0.326 -0.698 0.78 z"/><path d="m 95.21 172.88 v 3.452 l -0.067 1.302 l 2.672 -4.754 h 1.204 v 5.674 h -0.889 v -3.343 l 0.052 -1.4 l -2.656 4.744 h -1.204 v -5.674 z"/><path d="m 105.22 178.55 h -0.941 v -4.878 h -1.757 q -0.191 2.548 -0.651 3.752 -0.46 1.199 -1.39 1.199 -0.32 0 -0.475 -0.062 v -0.677 q 0.109 0.031 0.253 0.031 0.574 0 0.92 -1.225 0.351 -1.23 0.537 -3.814 h 3.504 z"/><path d="m 112.02 180.52 h -0.909 v -1.969 h -3.84 v 1.969 h -0.909 v -2.765 h 0.444 q 1.354 -2.01 1.375 -4.878 h 3.059 v 4.878 h 0.78 z m -1.721 -2.765 v -4.155 h -1.292 q -0.186 2.486 -1.209 4.155 z"/><path d="m 114.25 172.88 v 3.452 l -0.067 1.302 l 2.672 -4.754 h 1.204 v 5.674 h -0.889 v -3.343 l 0.052 -1.4 l -2.656 4.744 h -1.204 v -5.674 z"/><path d="m 120.65 172.88 v 2.351 h 2.816 v -2.351 h 0.941 v 5.674 h -0.941 v -2.527 h -2.816 v 2.527 h -0.941 v -5.674 z"/><path d="m 130.59 173.67 h -2.92 v 4.878 h -0.941 v -5.674 h 3.86 z"/></g><ellipse ry="33.03" rx="52.629" cy="235.62" cx="92.6" opacity="0.97" fill="#f7766f" stroke="none" fill-opacity="0.941"/><g transform="matrix(0.12844 0 0 0.12844 59.723 202.73)"><path d="m 449.5,50.4 h -387 c -14,0 -25.4,11.4 -25.4,25.4 V 276 H 475 V 75.8 c 0,-14 -11.4,-25.4 -25.5,-25.4 z" fill="#6a73ac"/><g fill="#3b4652"><path d="m 301.9 369.6 h -91.7 c -6.2 28.8 -26.3 92.1 -83.8 92.1 h 259.3 c -57.5 -0.1 -77.7 -63.3 -83.8 -92.1"/><path d="m 37,330.1 c 0,6.5 2.4,12.4 6.5,16.9 3,3.3 6.8,5.9 11.1,7.3 2.5,0.8 5.1,1.2 7.8,1.2 h 387.1 c 2.7,0 5.4,-0.4 7.8,-1.2 4.3,-1.4 8.2,-3.9 11.1,-7.3 4,-4.5 6.5,-10.4 6.5,-16.9 V 290 H 37 Z m 219.5,-20.5 c 7.3,0 13.2,5.9 13.2,13.2 0,7.3 -5.9,13.2 -13.2,13.2 -7.3,0 -13.2,-5.9 -13.2,-13.2 0,-7.3 5.9,-13.2 13.2,-13.2 z"/></g></g><g fill="#fff"><g transform="matrix(0.03789 0 0 0.03789 73.2 204.28)"><path d="m 293.22 683.84 l -74.11 42.79 c -23.368 13.505 -50.597 17.09 -76.64 10.09 -26.07 -6.984 -47.843 -23.698 -61.34 -47.07 l -7.36 -12.759 c -27.849 -48.24 -11.269 -110.14 36.966 -137.98 l 331.78 -191.56 c 48.24 -27.849 110.12 -11.245 137.98 36.975 l 7.36 12.759 c 13.497 23.368 17.08 50.589 10.1 76.65 -6.984 26.06 -23.698 47.843 -47.07 61.34 l -29.355 16.949 c -14.415 8.318 -19.351 26.742 -11.02 41.16 8.325 14.423 26.734 19.374 41.16 11.02 l 29.355 -16.942 c 77.01 -44.46 103.49 -143.29 59.02 -220.31 l -7.368 -12.759 c -44.45 -77 -143.27 -103.48 -220.3 -59.03 l -331.78 191.56 c -77.01 44.46 -103.49 143.29 -59.02 220.3 l 7.36 12.759 c 21.54 37.3 56.32 63.992 97.93 75.14 13.897 3.719 27.99 5.563 41.997 5.563 27.943 0 55.53 -7.329 80.38 -21.673 l 74.11 -42.781 c 14.415 -8.325 19.351 -26.75 11.03 -41.16 -8.324 -14.392 -26.726 -19.335 -41.16 -11.03 z"/><path d="m 1002.81 317.46 l -7.361 -12.759 c -21.54 -37.3 -56.32 -63.992 -97.93 -75.14 -41.628 -11.143 -85.07 -5.438 -122.37 16.11 l -74.11 42.781 c -14.415 8.326 -19.351 26.75 -11.03 41.17 8.325 14.415 26.75 19.358 41.16 11.03 l 74.11 -42.79 c 23.376 -13.481 50.621 -17.06 76.64 -10.09 26.07 6.984 47.843 23.698 61.34 47.07 l 7.361 12.759 c 27.857 48.24 11.268 110.13 -36.967 137.98 l -331.79 191.56 c -48.23 27.841 -110.13 11.245 -137.98 -36.975 l -7.361 -12.759 c -13.497 -23.368 -17.07 -50.589 -10.1 -76.65 6.984 -26.06 23.698 -47.843 47.07 -61.34 l 29.355 -16.949 c 14.415 -8.318 19.351 -26.742 11.02 -41.16 -8.31 -14.399 -26.719 -19.358 -41.16 -11.02 l -29.355 16.942 c -77.01 44.46 -103.49 143.29 -59.02 220.31 l 7.368 12.759 c 29.834 51.68 84.15 80.6 139.93 80.6 27.339 0 55.03 -6.952 80.36 -21.571 l 331.78 -191.56 c 37.3 -21.532 63.992 -56.32 75.14 -97.92 11.151 -41.613 5.423 -85.08 -16.12 -122.38 z"/></g><circle cx="92.6" cy="190.7" r="5.746" opacity="0.95" stroke="#6a73ac" stroke-width="0.222"/></g><path d="m 90.82 194.42 q -0.016 -0.026 -0.016 -0.052 0 -0.026 0.01 -0.057 l 1.54 -2.77 q -1.282 -0.584 -1.287 -2.093 0 -1.199 0.594 -1.855 0.594 -0.661 1.493 -0.661 h 1.137 q 0.114 0 0.109 0.083 v 7.379 q 0 0.072 -0.083 0.072 h -0.62 q -0.052 0 -0.057 -0.067 v -2.723 h -0.501 l -1.4 2.723 q -0.031 0.067 -0.129 0.067 h -0.703 h -0.01 q -0.047 0 -0.078 -0.047 z m 1.09 -5.09 q 0 0.847 0.372 1.271 0.377 0.419 0.92 0.419 h 0.439 v -3.452 h -0.522 q -0.506 0 -0.858 0.444 -0.351 0.444 -0.351 1.318 z" fill="#ff0f0f"/><circle cx="92.6" cy="280.46" r="5.746" opacity="0.95" fill="#fff" stroke="#6a73ac" stroke-width="0.222"/><path d="m 89.06 281.96 q -0.31 -0.713 -0.31 -1.493 0 -0.785 0.31 -1.499 0.31 -0.713 0.837 -1.225 0.527 -0.512 1.256 -0.816 0.729 -0.305 1.53 -0.305 1.535 0 2.635 1.01 l -1.07 1 q -0.63 -0.594 -1.566 -0.594 -0.496 0 -0.946 0.191 -0.45 0.191 -0.78 0.517 -0.326 0.326 -0.522 0.775 -0.191 0.45 -0.191 0.946 0 0.491 0.191 0.941 0.196 0.45 0.522 0.775 0.331 0.326 0.78 0.517 0.45 0.191 0.946 0.191 0.444 0 0.816 -0.119 0.377 -0.119 0.615 -0.3 0.243 -0.181 0.419 -0.413 0.181 -0.233 0.264 -0.434 0.088 -0.202 0.119 -0.393 h -2.232 v -1.318 h 3.71 q 0.062 0.336 0.062 0.641 0 0.811 -0.274 1.509 -0.269 0.692 -0.76 1.189 -0.486 0.496 -1.194 0.775 -0.708 0.279 -1.545 0.279 -0.801 0 -1.53 -0.305 -0.729 -0.305 -1.256 -0.816 -0.527 -0.517 -0.837 -1.225 z" fill="#4285f4"/><circle cx="19.367" cy="235.62" r="5.746" opacity="0.95" fill="#fff" stroke="#6a73ac" stroke-width="0.222"/><path d="m 15.05 233.2 q -0.026 -0.088 -0.026 -0.15 0 -0.062 0.015 -0.093 l 0.015 -0.031 q 0.067 -0.103 0.258 -0.103 l 1.24 -0.016 q 0.052 0.01 0.098 0.036 0.052 0.026 0.072 0.047 l 0.026 0.021 q 0.072 0.062 0.109 0.181 0.093 0.279 0.207 0.579 0.119 0.3 0.186 0.46 l 0.072 0.16 q 0.093 0.243 0.181 0.439 0.093 0.196 0.171 0.336 0.078 0.134 0.15 0.233 0.072 0.098 0.134 0.155 0.062 0.057 0.114 0.083 0.057 0.021 0.098 0.021 0.047 -0.005 0.088 -0.031 0.01 -0.01 0.021 -0.031 0.015 -0.021 0.057 -0.119 0.041 -0.103 0.062 -0.264 0.021 -0.165 0.041 -0.455 0.01 -0.145 0.01 -0.32 0 -0.176 -0.01 -0.382 -0.005 -0.227 -0.041 -0.408 -0.031 -0.186 -0.062 -0.258 l -0.026 -0.067 q -0.114 -0.191 -0.388 -0.243 -0.057 -0.01 0.031 -0.145 0.072 -0.103 0.165 -0.16 0.15 -0.088 0.403 -0.114 0.212 -0.021 0.543 -0.021 0.067 0 0.134 0 0.372 0.005 0.61 0.072 0.093 0.031 0.15 0.077 0.062 0.047 0.093 0.134 0.036 0.088 0.052 0.181 0.015 0.088 0.015 0.253 0 0.16 -0.005 0.31 -0.005 0.145 -0.01 0.393 -0.005 0.248 -0.01 0.465 0 0.057 -0.005 0.238 -0.005 0.176 -0.005 0.269 0.005 0.093 0.021 0.227 0.015 0.134 0.052 0.222 0.036 0.083 0.103 0.134 0.021 0.016 0.047 0.021 0.026 0.005 0.067 -0.016 0.047 -0.021 0.098 -0.067 0.052 -0.047 0.124 -0.14 0.072 -0.093 0.155 -0.222 0.083 -0.134 0.186 -0.336 0.109 -0.202 0.227 -0.455 0.274 -0.584 0.486 -1.261 0.015 -0.057 0.041 -0.098 0.031 -0.047 0.052 -0.062 l 0.021 -0.016 q 0.005 -0.005 0.021 -0.01 0.015 -0.01 0.057 -0.021 0.047 -0.01 0.093 0 l 1.302 -0.01 q 0.114 -0.021 0.196 -0.01 0.083 0.01 0.134 0.041 0.052 0.026 0.078 0.057 0.026 0.026 0.036 0.052 l 0.01 0.021 q 0.01 0.041 0.01 0.098 0 0.413 -0.687 1.55 -0.109 0.181 -0.295 0.475 -0.109 0.181 -0.16 0.258 -0.052 0.077 -0.119 0.207 -0.067 0.129 -0.093 0.176 -0.026 0.041 -0.047 0.145 -0.021 0.098 -0.021 0.129 0 0.026 0.026 0.119 0.026 0.093 0.052 0.129 0.026 0.031 0.093 0.134 0.072 0.103 0.124 0.16 0.052 0.057 0.171 0.191 0.015 0.016 0.021 0.026 0.636 0.729 0.863 1.24 0.005 0.01 0.015 0.036 0.01 0.021 0.026 0.088 0.021 0.062 0.026 0.124 0.005 0.057 -0.01 0.134 -0.01 0.072 -0.047 0.124 -0.036 0.052 -0.124 0.088 -0.083 0.036 -0.207 0.036 l -1.158 0.026 q -0.109 0.026 -0.253 -0.026 -0.145 -0.057 -0.238 -0.124 l -0.088 -0.067 q -0.14 -0.119 -0.32 -0.357 -0.176 -0.243 -0.305 -0.434 -0.129 -0.196 -0.279 -0.326 -0.145 -0.134 -0.253 -0.093 -0.01 0.005 -0.036 0.021 -0.021 0.016 -0.078 0.083 -0.052 0.067 -0.098 0.165 -0.041 0.098 -0.072 0.289 -0.031 0.165 -0.031 0.372 0 0.031 0 0.062 0 0.083 -0.015 0.155 -0.015 0.072 -0.036 0.103 l -0.015 0.031 q -0.083 0.103 -0.238 0.124 h -0.522 q -0.047 0.005 -0.098 0.005 -0.015 0 -0.026 0 -0.264 0 -0.537 -0.098 -0.341 -0.114 -0.594 -0.3 -0.253 -0.186 -0.465 -0.372 -0.207 -0.186 -0.32 -0.32 l -0.109 -0.134 q -0.047 -0.057 -0.129 -0.171 -0.078 -0.114 -0.32 -0.506 -0.243 -0.398 -0.481 -0.847 -0.233 -0.455 -0.553 -1.189 -0.315 -0.734 -0.589 -1.524 z" fill="#47698c"/><circle cx="168.33" cy="235.62" r="5.746" opacity="0.95" fill="#fff" stroke="#6a73ac" stroke-width="0.222"/><path d="m 166.47 235.41 v -1.101 h 0.77 v -0.868 v -0.15 v -0.165 l 0.01 -0.124 l 0.01 -0.119 l 0.016 -0.119 l 0.047 -0.124 l 0.062 -0.119 q 0.165 -0.31 0.558 -0.537 0.382 -0.207 0.915 -0.207 h 0.077 q 0.388 0 0.698 0.026 0.315 0.021 0.419 0.026 l 0.124 0.041 l -0.181 1.178 q -0.077 -0.01 -0.181 -0.031 -0.098 -0.026 -0.315 -0.052 -0.103 -0.01 -0.181 -0.021 -0.088 0 -0.15 0.021 -0.439 0.072 -0.444 0.625 v 0.718 h 1.271 l -0.145 1.101 h -1.127 v 4.04 h -1.483 v -4.04 z" fill="#3b5998"/><circle cx="41.521" cy="276.33" r="5.746" opacity="0.95" fill="#fff" stroke="#6a73ac" stroke-width="0.222"/><path d="m 37.663 277.91 q 0 -0.207 0.047 -1.054 0.031 -0.419 0.3 -0.682 0.269 -0.264 0.687 -0.284 0.785 -0.041 2.873 -0.041 2 0 2.785 0.041 0.419 0.021 0.687 0.284 0.269 0.264 0.3 0.682 0.036 0.708 0.036 1.054 0 0.563 -0.036 1.276 -0.031 0.413 -0.3 0.677 -0.269 0.264 -0.687 0.289 -0.785 0.036 -2.785 0.036 -2.088 0 -2.873 -0.036 -0.419 -0.026 -0.687 -0.289 -0.269 -0.264 -0.3 -0.677 -0.047 -0.847 -0.047 -1.276 z m 0.481 -0.615 h 0.486 v 2.413 h 0.481 v -2.413 h 0.481 v -0.481 h -1.447 z m 0.021 -4.821 h 0.667 l 0.522 1.034 l 0.522 -1.034 h 0.661 l -0.941 1.638 l -0.005 -0.005 v 1.261 h -0.481 v -1.261 l -0.005 0.005 z m 1.431 6.625 q 0 0.109 0.005 0.181 0.005 0.067 0.026 0.16 0.021 0.093 0.057 0.145 0.041 0.046 0.109 0.088 0.072 0.041 0.171 0.031 0.103 -0.01 0.253 -0.062 0.15 -0.052 0.341 -0.16 v 0.227 h 0.481 h 0.005 v -1.928 h -0.486 v 1.416 q -0.109 0.088 -0.217 0.119 -0.109 0.031 -0.186 -0.015 -0.078 -0.052 -0.078 -0.191 v -1.328 h -0.481 z m 0.961 -4.455 v -0.966 q 0 -0.295 0.212 -0.506 0.212 -0.217 0.512 -0.217 0.3 0 0.512 0.217 0.212 0.212 0.212 0.506 v 0.966 q 0 0.3 -0.212 0.512 -0.212 0.212 -0.512 0.212 -0.3 0 -0.512 -0.212 -0.212 -0.212 -0.212 -0.512 z m 0.481 0 q 0 0.098 0.072 0.171 0.072 0.072 0.171 0.072 0.098 0 0.171 -0.072 0.072 -0.072 0.072 -0.171 v -0.966 q 0 -0.098 -0.072 -0.165 -0.072 -0.072 -0.171 -0.072 -0.098 0 -0.171 0.072 -0.072 0.067 -0.072 0.165 z m 0.486 5.064 h 0.481 v -0.233 q 0.217 0.191 0.444 0.222 0.041 0.005 0.083 0.005 0.165 -0.005 0.289 -0.109 0.145 -0.134 0.15 -0.377 v -1.437 q 0 -0.181 -0.088 -0.3 -0.083 -0.119 -0.217 -0.155 -0.129 -0.036 -0.31 0.031 -0.176 0.067 -0.351 0.243 v -0.785 h -0.481 z m 0.481 -0.424 v -1.266 q 0.15 -0.15 0.284 -0.15 0.026 0 0.047 0.01 0.15 0.031 0.15 0.217 v 1.132 q 0 0.114 -0.088 0.16 -0.083 0.041 -0.196 0.01 -0.114 -0.031 -0.196 -0.114 z m 0.481 -4.677 v -1.654 h 0.486 v 1.555 q 0 0.181 0.031 0.295 0.031 0.109 0.078 0.15 0.047 0.041 0.114 0.036 0.067 -0.005 0.129 -0.041 0.062 -0.036 0.129 -0.093 v -1.902 h 0.481 v 2.413 h -0.481 v -0.227 q -0.331 0.222 -0.548 0.222 -0.403 0 -0.419 -0.754 z m 0.966 4.377 q 0 0.3 0.212 0.512 0.212 0.212 0.512 0.212 0.3 0 0.512 -0.212 0.212 -0.212 0.212 -0.512 v -0.243 h -0.481 v 0.243 q 0 0.098 -0.072 0.171 -0.072 0.072 -0.171 0.072 -0.098 0 -0.171 -0.072 -0.072 -0.072 -0.072 -0.171 v -0.481 h 0.966 v -0.243 v -0.243 q 0 -0.3 -0.212 -0.512 -0.212 -0.212 -0.512 -0.212 -0.3 0 -0.512 0.212 -0.212 0.212 -0.212 0.512 z m 0.481 -0.723 v -0.243 q 0 -0.098 0.072 -0.165 0.072 -0.072 0.171 -0.072 0.098 0 0.171 0.072 0.072 0.067 0.072 0.165 v 0.243 z" fill="#ff0f0f"/><circle cx="42.39" cy="197.74" r="5.746" opacity="0.95" fill="#fff" stroke="#6a73ac" stroke-width="0.222"/><path d="m 38.563 199.43 v -3.318 q 0 -1.302 1.22 -1.943 0.486 -0.253 1.096 -0.258 2.687 0 3.02 0.005 1.209 0.01 1.917 0.935 0.398 0.522 0.398 1.199 v 1.69 v 1.612 v 0.072 q 0 0.646 -0.357 1.147 -0.377 0.532 -0.977 0.791 -0.465 0.202 -0.956 0.202 h -1.535 q -1.287 0 -1.586 -0.005 -1.194 -0.021 -1.886 -0.987 -0.357 -0.501 -0.357 -1.142 z m 0.563 -3.287 q 0.01 0.238 0.01 0.496 0 0.258 -0.005 0.605 0 0.341 0 0.496 v 1.695 q 0 0.398 0.191 0.708 0.506 0.832 1.509 0.847 0.46 0.005 1.69 0.005 h 1.421 q 0.388 0 0.729 -0.165 0.977 -0.465 0.977 -1.488 -0.005 -0.274 -0.005 -3.287 0 -0.475 -0.269 -0.847 -0.527 -0.713 -1.431 -0.723 -0.289 -0.005 -1.065 -0.005 -0.258 0 -0.574 0 -0.625 0 -1.468 0.005 -0.31 0 -0.636 0.119 -0.47 0.176 -0.78 0.579 -0.295 0.382 -0.295 0.91 z m 1.473 1.452 q 0 -0.481 0.238 -0.884 0.243 -0.408 0.656 -0.646 0.413 -0.238 0.899 -0.238 0.491 0 0.904 0.238 0.413 0.233 0.651 0.641 0.243 0.413 0.248 0.899 0 0.475 -0.238 0.884 -0.238 0.408 -0.656 0.646 -0.419 0.238 -0.904 0.238 -0.491 0 -0.904 -0.233 -0.413 -0.238 -0.656 -0.646 -0.238 -0.413 -0.238 -0.899 z m 0.93 -0.847 q -0.362 0.351 -0.362 0.853 0 0.501 0.362 0.853 0.362 0.351 0.868 0.351 0.506 0 0.863 -0.351 0.362 -0.357 0.362 -0.858 0 -0.496 -0.362 -0.847 -0.357 -0.351 -0.863 -0.351 -0.506 0 -0.868 0.351 z m 2.496 -1.065 q 0 -0.165 0.109 -0.279 0.114 -0.119 0.269 -0.119 0.155 0 0.264 0.119 0.114 0.114 0.114 0.279 0 0.16 -0.114 0.279 -0.109 0.114 -0.269 0.109 -0.15 0 -0.264 -0.114 -0.109 -0.114 -0.109 -0.274 z" fill="#ce2c8f"/><circle cx="145.12" cy="197.6" r="5.746" opacity="0.95" fill="#fff" stroke="#6a73ac" stroke-width="0.222"/><path d="m 140.04 198.8 l 8.428 -5.271 l -2.636 8.428 l -2.103 -1.581 l -1.054 1.054 v -1.581 z m 2.636 0.522 l 0.527 1.054 l 0.129 -0.129 l 0.398 -0.925 l 3.685 -4.739 z" fill="#249ad7"/><circle cx="144.26" cy="276.47" r="5.746" opacity="0.95" fill="#fff" stroke="#6a73ac" stroke-width="0.222"/><path d="m 140.26 278.99 q 0.186 0.015 0.388 0.015 1.137 0 2.046 -0.713 -0.537 -0.005 -0.961 -0.32 -0.424 -0.32 -0.584 -0.822 0.16 0.031 0.326 0.036 0.207 0 0.413 -0.052 -0.558 -0.124 -0.935 -0.568 -0.377 -0.444 -0.377 -1.044 v -0.031 q 0.346 0.202 0.754 0.217 -0.739 -0.496 -0.739 -1.38 0 -0.429 0.222 -0.811 0.625 0.754 1.499 1.209 0.879 0.45 1.876 0.501 -0.041 -0.196 -0.041 -0.382 0 -0.667 0.486 -1.152 0.491 -0.486 1.158 -0.486 0.718 0 1.204 0.517 0.548 -0.098 1.034 -0.393 -0.181 0.594 -0.713 0.91 0.501 -0.062 0.93 -0.258 -0.32 0.491 -0.811 0.847 v 0.202 q 0 0.832 -0.305 1.659 -0.305 0.822 -0.879 1.504 -0.568 0.682 -1.483 1.106 -0.91 0.424 -2 0.424 -1.364 0 -2.506 -0.734 z" fill="#48c6ec"/><g transform="matrix(0 -1 -1 0 309.85 333.66)"><g transform="translate(-74.73 14.684)"><use xlink:href="#0"/><path d="m 200.14 202.27 h 2.785 v 0.847 h -2.785 z" fill="#002981"/><use xlink:href="#1"/></g><circle r="1.11" cy="217.38" cx="134.49" opacity="0.95" fill="#002981"/></g><g transform="matrix(0 1 -1 0 309.85 137.25)"><g transform="translate(-74.73 14.684)"><path d="m 177.19 202.27 h 2.785 v 0.847 h -2.785 z" fill="#002981"/><use xlink:href="#2"/><path d="m 184.84 202.27 h 2.785 v 0.847 h -2.785 z" fill="#002981"/><use xlink:href="#3"/><path d="m 192.49 202.27 h 2.785 v 0.847 h -2.785 z" fill="#002981"/><use xlink:href="#0"/><use xlink:href="#4"/><use xlink:href="#1"/></g><circle r="1.11" cy="217.38" cx="134.49" opacity="0.95" fill="#002981"/></g><g transform="translate(0 4.763)"><g transform="matrix(-1 0 0 1 162.05 13.338)"><g transform="translate(-74.73 14.684)"><path d="m 177.19 202.27 h 2.785 v 0.847 h -2.785 z" fill="#002981" id="M"/><use xlink:href="#2"/><path d="m 184.84 202.27 h 2.785 v 0.847 h -2.785 z" fill="#002981" id="N"/><use xlink:href="#3"/><path d="m 192.49 202.27 h 2.785 v 0.847 h -2.785 z" fill="#002981" id="O"/><use xlink:href="#0"/><use xlink:href="#4"/><use xlink:href="#1"/></g><circle cx="134.49" cy="217.38" r="1.11" opacity="0.95" fill="#002981"/></g><g transform="matrix(0 -1 1 0 -140.14 376.99)" fill="#002981"><path d="m 146.7 207.26 v -2.785 h -0.847 v 2.785 z"/><path d="m 146.7 203.43 v -2.785 h -0.847 v 2.785 z"/></g></g><g transform="translate(0 4.763)"><g transform="translate(25.03 13.338)"><g transform="translate(-74.73 14.684)"><use xlink:href="#M"/><use xlink:href="#2"/><use xlink:href="#N"/><use xlink:href="#3"/><use xlink:href="#O"/><use xlink:href="#0"/><use xlink:href="#4"/><use xlink:href="#1"/></g><circle cx="134.49" cy="217.38" r="1.11" opacity="0.95" fill="#002981"/></g><g transform="matrix(0 -1 1 0 -92.3 376.99)" fill="#002981"><path d="m 146.7 218.73 v -2.785 h -0.847 v 2.785 z"/><path d="m 146.7 214.9 v -2.785 h -0.847 v 2.785 z"/></g><path d="m 118.66 230.29 h -2.785 v 0.847 h 2.785 z" fill="#002981"/></g><g fill="#002981"><path d="m 92.9 238.65 v -2.785 h -0.847 v 2.785 z"/><path d="m 42.537 207.37 v 2.785 h -0.847 v -2.785 z"/><path d="m 42.537 211.2 v 2.785 h -0.847 v -2.785 z"/><path d="m 42.537 215.02 v 2.785 h -0.847 v -2.785 z"/><path d="m 41.821 219.19 h 2.785 v 0.847 h -2.785 z"/><path d="m 45.645 219.19 h 2.785 v 0.847 h -2.785 z"/><path d="m 49.47 219.19 h 2.785 v 0.847 h -2.785 z"/><path d="m 53.29 219.19 h 2.785 v 0.847 h -2.785 z"/><path d="m 57.12 219.19 h 2.785 v 0.847 h -2.785 z"/><path d="m 60.941 219.19 h 2.785 v 0.847 h -2.785 z"/><path d="m 64.765 219.19 h 2.785 v 0.847 h -2.785 z"/><circle cx="42.11" cy="205.71" r="1.11" opacity="0.95"/><path d="m 143.56 207.58 v 2.785 h 0.847 v -2.785 z"/><path d="m 143.56 211.41 v 2.785 h 0.847 v -2.785 z"/><path d="m 143.56 215.23 v 2.785 h 0.847 v -2.785 z"/><path d="m 144.28 219.4 h -2.785 v 0.847 h 2.785 z"/><path d="m 140.45 219.4 h -2.785 v 0.847 h 2.785 z"/><path d="m 136.63 219.4 h -2.785 v 0.847 h 2.785 z"/><path d="m 132.81 219.4 h -2.785 v 0.847 h 2.785 z"/><path d="m 128.98 219.4 h -2.785 v 0.847 h 2.785 z"/><path d="m 125.16 219.4 h -2.785 v 0.847 h 2.785 z"/><path d="m 121.33 219.4 h -2.785 v 0.847 h 2.785 z"/><circle cx="-143.99" cy="205.92" r="1.11" transform="scale(-1 1)" opacity="0.95"/></g><g transform="matrix(0 1 1 0 -92.28 94.39)"><path d="m 148.52 201.55 h 2.785 v 0.847 h -2.785 z" fill="#002981" id="5"/><path d="m 152.34 201.55 h 2.785 v 0.847 h -2.785 z" fill="#002981" id="6"/><path d="m 156.17 201.55 h 2.785 v 0.847 h -2.785 z" fill="#002981" id="7"/><path d="m 159.99 201.55 h 2.785 v 0.847 h -2.785 z" fill="#002981" id="8"/><path d="m 163.81 201.55 h 2.785 v 0.847 h -2.785 z" fill="#002981" id="9"/><path d="m 167.64 201.55 h 2.785 v 0.847 h -2.785 z" fill="#002981" id="A"/><path d="m 171.46 201.55 h 2.785 v 0.847 h -2.785 z" fill="#002981" id="B"/><path d="m 175.29 201.55 h 2.785 v 0.847 h -2.785 z" fill="#002981" id="C"/><path d="m 179.11 201.55 h 2.785 v 0.847 h -2.785 z" fill="#002981" id="D"/><path d="m 182.74 203.43 v 2.785 h -0.847 v -2.785 z" fill="#002981" id="E"/><path d="m 182.74 207.26 v 2.785 h -0.847 v -2.785 z" fill="#002981" id="F"/><path d="m 182.74 211.08 v 2.785 h -0.847 v -2.785 z" fill="#002981" id="G"/><path d="m 182.74 214.91 v 2.785 h -0.847 v -2.785 z" fill="#002981" id="H"/><path d="m 182.74 218.73 v 2.785 h -0.847 v -2.785 z" fill="#002981" id="I"/><path d="m 182.74 222.55 v 2.785 h -0.847 v -2.785 z" fill="#002981" id="J"/><circle r="1.11" cy="227.24" cx="182.32" opacity="0.95" fill="#002981"/></g><g transform="matrix(0 1 1 0 -121.11 100.58)"><path d="m 134.51 230.37 h 2.785 v 0.847 h -2.785 z" fill="#002981" id="K"/><path d="m 138.48 230.37 h 2.785 v 0.847 h -2.785 z" fill="#002981" id="L"/></g><g transform="matrix(0 1 -1 0 277.51 94.25)"><use xlink:href="#5"/><use xlink:href="#6"/><use xlink:href="#7"/><use xlink:href="#8"/><use xlink:href="#9"/><use xlink:href="#A"/><use xlink:href="#B"/><use xlink:href="#C"/><use xlink:href="#D"/><use xlink:href="#E"/><use xlink:href="#F"/><use xlink:href="#G"/><use xlink:href="#H"/><use xlink:href="#I"/><use xlink:href="#J"/><circle r="1.11" cy="227.24" cx="182.32" opacity="0.95" fill="#002981"/></g><g transform="matrix(0 1 -1 0 306.33 100.44)"><use xlink:href="#K"/><use xlink:href="#L"/></g></g></svg>