<svg xmlns="http://www.w3.org/2000/svg" xmlns:xlink="http://www.w3.org/1999/xlink" viewBox="0 0 400 500">
  <defs>
    <path id="a" d="M5 5h5010v5010H5Z"/>
  </defs>
  <defs>
    <clipPath id="f" clipPathUnits="userSpaceOnUse">
      <use xlink:href="#a"/>
    </clipPath>
    <clipPath id="g" clipPathUnits="userSpaceOnUse">
      <path d="m2938.93 1164.3-1311.04 89.72c-46.03 3.15-71.64 42.83-57.21 88.62l918.85 2916.86c14.22 45.14 62.53 79.21 107.89 76.11l1313.41-89.89c45.36-3.1 70.62-42.22 56.4-87.35L3048.38 1241.5c-14.43-45.79-63.43-80.35-109.45-77.2"/>
    </clipPath>
    <clipPath id="i" clipPathUnits="userSpaceOnUse">
      <path d="m1636.84 1210.99-47.58 3.25c-26.9 1.84-48.38 13.34-62.03 30.81-4.68 9.13-7.24 19.75-7.27 31.58 0 8.63 1.4 17.89 4.45 27.59l207.51 658.73 26.1-21.53-194.7-618.08c-18.29-58.03 14.63-108.33 73.52-112.35M1764.5 1962l-26.1 21.53 14.38 45.63 25.96-21.96-14.24-45.2m20.76 65.88-25.96 21.97 149.11 473.37 32.38-1.6-155.53-493.74m369.76 1173.81-32.37 1.6 193.05 612.84c1.07-.49 2.17-.95 3.27-1.37 1.56-.91 3.16-1.73 4.81-2.46a50.59 50.59 0 0 1 4.79-2.78c1.51-1.11 3.09-2.14 4.72-3.08 1.48-1.21 3.02-2.33 4.62-3.36 1.43-1.29 2.93-2.5 4.49-3.62.24-.23.47-.46.71-.69l-188.09-597.08"/>
    </clipPath>
    <clipPath id="k" clipPathUnits="userSpaceOnUse">
      <path d="M1527.23 1245.05c-16.24 20.79-21.42 50.03-11.49 81.54l203.7 646.66 12.48-10.3-207.51-658.73c-3.05-9.7-4.45-18.96-4.45-27.59.03-11.83 2.59-22.45 7.27-31.58m211.17 738.48-12.47 10.3 14.44 45.84 12.41-10.51-14.38-45.63m20.9 66.32-12.42 10.5 146.05 463.63 15.48-.76-149.11-473.37m363.35 1153.44-15.49.77 194.29 616.74c1.06-.27 2.13-.51 3.21-.71 1.56-.56 3.14-1.04 4.75-1.44 1.55-.67 3.13-1.26 4.75-1.77.51-.26 1.02-.5 1.54-.75l-193.05-612.84"/>
    </clipPath>
    <clipPath id="m" clipPathUnits="userSpaceOnUse">
      <path d="m3933.92 4284.8-1334.63 91.33c-63.36 4.34-130.83-43.25-150.69-106.29l-921.51-2925.28c-21.25-67.46 16.49-125.92 84.3-130.56l85.06-5.82c-64.49 4.41-105.94 49.95-106.82 109.08 14.42-37.64 49.09-63.98 96.75-67.24l1194.06-81.72c47.51-3.25 96.81 17.21 133.78 51.13-37.35-56.33-104.98-94.25-169.37-89.84l85.07-5.83c67.81-4.64 140.01 46.3 161.26 113.76l921.51 2925.27c19.86 63.05-15.41 117.67-78.77 122.01"/>
    </clipPath>
    <clipPath id="n" clipPathUnits="userSpaceOnUse">
      <use xlink:href="#a"/>
    </clipPath>
    <clipPath id="o" clipPathUnits="userSpaceOnUse">
      <path d="M2343.11 3798.77c-.24.23-.47.46-.71.69.25-.18.51-.36.76-.53l-.05-.16"/>
    </clipPath>
    <clipPath id="q" clipPathUnits="userSpaceOnUse">
      <use xlink:href="#a"/>
    </clipPath>
    <clipPath id="r" clipPathUnits="userSpaceOnUse">
      <use xlink:href="#a"/>
    </clipPath>
    <clipPath id="s" clipPathUnits="userSpaceOnUse">
      <use xlink:href="#a"/>
    </clipPath>
    <clipPath id="t" clipPathUnits="userSpaceOnUse">
      <use xlink:href="#a"/>
    </clipPath>
    <clipPath id="u" clipPathUnits="userSpaceOnUse">
      <use xlink:href="#a"/>
    </clipPath>
    <clipPath id="v" clipPathUnits="userSpaceOnUse">
      <path d="M2373.93 3896.59c-.98.76-1.99 1.48-3.03 2.16 1.09-.48 2.16-1 3.21-1.57l-.18-.59"/>
    </clipPath>
    <clipPath id="x" clipPathUnits="userSpaceOnUse">
      <use xlink:href="#a"/>
    </clipPath>
    <clipPath id="y" clipPathUnits="userSpaceOnUse">
      <use xlink:href="#a"/>
    </clipPath>
    <clipPath id="z" clipPathUnits="userSpaceOnUse">
      <use xlink:href="#a"/>
    </clipPath>
    <clipPath id="A" clipPathUnits="userSpaceOnUse">
      <use xlink:href="#a"/>
    </clipPath>
    <clipPath id="B" clipPathUnits="userSpaceOnUse">
      <use xlink:href="#a"/>
    </clipPath>
    <clipPath id="C" clipPathUnits="userSpaceOnUse">
      <use xlink:href="#a"/>
    </clipPath>
    <clipPath id="D" clipPathUnits="userSpaceOnUse">
      <use xlink:href="#a"/>
    </clipPath>
    <clipPath id="E" clipPathUnits="userSpaceOnUse">
      <path d="m3522.92 2419.68 3.68 11.71c-.83-4.03-2.07-7.95-3.68-11.71"/>
    </clipPath>
    <clipPath id="G" clipPathUnits="userSpaceOnUse">
      <path d="M3023.86 3430.51c-16.84 6.26-35.4 10.33-55.39 11.9 2.69-.21 5.39-.32 8.1-.32h.11c24.88 0 50.81 8.79 72.44 23.5 21.69 14.72 38.92 35.27 47.08 57.99 3.46 9.62 5.05 18.83 5.05 27.41-.04 17.1-6.18 31.73-17.22 42.85-11.07 11.08-27.3 18.7-48.11 20.35-2.72.21-5.45.32-8.19.32h-.11c-24.87 0-50.8-8.78-72.43-23.5-21.7-14.72-38.93-35.27-47.08-57.98-3.47-9.62-5.05-18.83-5.05-27.41.04-17.1 6.18-31.73 17.22-42.85 11.07-11.08 27.27-18.7 48.07-20.35-6.18.48-12.38.72-18.59.72-11.51-.01-23.03-.82-34.49-2.39a81.394 81.394 0 0 0-9.14 7.89c-14.81 14.8-23.11 34.96-23.07 56.98 0 11.06 2.05 22.57 6.23 34.19 9.93 27.46 29.97 50.95 54.66 67.74 24.7 16.76 54.21 26.93 83.78 26.96 3.25 0 6.51-.12 9.75-.38 24.86-1.93 45.91-11.33 60.7-26.17 14.81-14.79 23.11-34.95 23.07-56.97 0-11.06-2.05-22.57-6.24-34.19l-9.4 3.39 9.4-3.4c-9.93-27.46-29.97-50.95-54.65-67.74-11.31-7.67-23.63-13.97-36.5-18.54"/>
    </clipPath>
    <clipPath id="I" clipPathUnits="userSpaceOnUse">
      <path d="m3125.32 3271.08-19.93 1.71c.38 4.47.57 8.89.57 13.25-.04 36.67-13.25 68.73-37.05 92.8-23.82 24.04-58.47 40.19-102.09 43.63-5.66.45-11.35.67-17.06.67h-.06c-43.66 0-88.29-12.86-127.91-35.03-39.65-22.16-74.22-53.61-97.92-90.24l-16.79 10.86c25.7 39.68 62.62 73.16 104.95 96.83 32.09 17.94 67.33 30.27 103.24 35.19 11.46 1.57 22.98 2.38 34.49 2.39 6.21 0 12.41-.24 18.59-.72.01-.01.03-.01.04-.01h.08c19.99-1.57 38.55-5.64 55.39-11.9 23.29-8.64 43.29-21.46 59.26-37.59 27.56-27.79 42.87-65.35 42.84-106.88 0-4.93-.21-9.92-.64-14.96"/>
    </clipPath>
    <clipPath id="K" clipPathUnits="userSpaceOnUse">
      <use xlink:href="#a"/>
    </clipPath>
    <clipPath id="L" clipPathUnits="userSpaceOnUse">
      <path d="m3653.13 3161.26 146.64 465.53-146.64-465.53"/>
    </clipPath>
    <clipPath id="N" clipPathUnits="userSpaceOnUse">
      <use xlink:href="#a"/>
    </clipPath>
    <clipPath id="O" clipPathUnits="userSpaceOnUse">
      <use xlink:href="#a"/>
    </clipPath>
    <clipPath id="P" clipPathUnits="userSpaceOnUse">
      <path d="m1877.44 2524.75-179.17 8.84c-46.51 2.3-74.67 37.6-66.88 80.96 10.76-20.17 32.25-33.75 60.51-35.15l199.65-9.86-14.11-44.79"/>
    </clipPath>
    <clipPath id="R" clipPathUnits="userSpaceOnUse">
      <use xlink:href="#a"/>
    </clipPath>
    <clipPath id="S" clipPathUnits="userSpaceOnUse">
      <path d="m1940.79 2521.62-32.38 1.6 14.12 44.79 32.37-1.59-14.11-44.8"/>
    </clipPath>
    <clipPath id="U" clipPathUnits="userSpaceOnUse">
      <path d="m1908.41 2523.22-15.48.76 14.11 44.8 15.49-.77-14.12-44.79"/>
    </clipPath>
    <clipPath id="W" clipPathUnits="userSpaceOnUse">
      <use xlink:href="#a"/>
    </clipPath>
    <clipPath id="X" clipPathUnits="userSpaceOnUse">
      <path d="m1706.96 1983.55-83.32 68.74 12.72 15.42 77.08-63.58-6.48-20.58"/>
    </clipPath>
    <clipPath id="Z" clipPathUnits="userSpaceOnUse">
      <use xlink:href="#a"/>
    </clipPath>
    <clipPath id="aa" clipPathUnits="userSpaceOnUse">
      <path d="m1758.02 1941.42-26.1 21.53 6.48 20.58 26.1-21.53-6.48-20.58"/>
    </clipPath>
    <clipPath id="ac" clipPathUnits="userSpaceOnUse">
      <path d="m1731.92 1962.95-12.48 10.3 6.49 20.58 12.47-10.3-6.48-20.58"/>
    </clipPath>
    <clipPath id="ae" clipPathUnits="userSpaceOnUse">
      <path d="m1727.95 2050.18-144.41 122.19 12.92 15.26 138-116.77-6.51-20.68"/>
    </clipPath>
    <clipPath id="ag" clipPathUnits="userSpaceOnUse">
      <use xlink:href="#a"/>
    </clipPath>
    <clipPath id="ah" clipPathUnits="userSpaceOnUse">
      <path d="m1778.74 2007.2-25.96 21.96 6.52 20.69 25.96-21.97-6.52-20.68"/>
    </clipPath>
    <clipPath id="aj" clipPathUnits="userSpaceOnUse">
      <path d="m1752.78 2029.16-12.41 10.51 6.51 20.68 12.42-10.5-6.52-20.69"/>
    </clipPath>
    <linearGradient id="h" x1="0" x2="1" y1="0" y2="0" gradientTransform="scale(-3857.591 3857.591) rotate(-87.51 .282 1.011)" gradientUnits="userSpaceOnUse" spreadMethod="pad">
      <stop offset="0" stop-color="#4644a3"/>
      <stop offset="1" stop-color="#c84cad"/>
    </linearGradient>
    <linearGradient id="j" x1="0" x2="1" y1="0" y2="0" gradientTransform="scale(-4036.91 4036.91) rotate(-73.053 .393 1.175)" gradientUnits="userSpaceOnUse" spreadMethod="pad">
      <stop offset="0" stop-color="#aa7dc5"/>
      <stop offset="1" stop-color="#7a1d8c"/>
    </linearGradient>
    <linearGradient id="l" x1="0" x2="1" y1="0" y2="0" gradientTransform="scale(-4036.91 4036.91) rotate(-73.053 .393 1.175)" gradientUnits="userSpaceOnUse" spreadMethod="pad">
      <stop offset="0" stop-color="#8f7ec7"/>
      <stop offset="1" stop-color="#592377"/>
    </linearGradient>
    <linearGradient id="p" x1="0" x2="1" y1="0" y2="0" gradientTransform="scale(-4036.91 4036.91) rotate(-73.053 .393 1.175)" gradientUnits="userSpaceOnUse" spreadMethod="pad">
      <stop offset="0" stop-color="#aea4d9"/>
      <stop offset="1" stop-color="#8958b2"/>
    </linearGradient>
    <linearGradient id="w" x1="0" x2="1" y1="0" y2="0" gradientTransform="scale(-4036.91 4036.91) rotate(-73.053 .393 1.175)" gradientUnits="userSpaceOnUse" spreadMethod="pad">
      <stop offset="0" stop-color="#aca5da"/>
      <stop offset="1" stop-color="#885eb5"/>
    </linearGradient>
    <linearGradient id="F" x1="0" x2="1" y1="0" y2="0" gradientTransform="scale(-6963.99 6963.99) rotate(-73.053 .339 .795)" gradientUnits="userSpaceOnUse" spreadMethod="pad">
      <stop offset="0" stop-color="#91daf7"/>
      <stop offset="1" stop-color="#8887cb"/>
    </linearGradient>
    <linearGradient id="b" x1="0" x2="1" y1="0" y2="0" gradientTransform="scale(-3857.591 3857.591) rotate(-87.51 .282 1.011)" gradientUnits="userSpaceOnUse" spreadMethod="pad">
      <stop offset="0" stop-color="#beacdc"/>
      <stop offset="1" stop-color="#f1bbe1"/>
    </linearGradient>
    <linearGradient id="M" x1="0" x2="1" y1="0" y2="0" gradientTransform="scale(-4036.91 4036.91) rotate(-73.053 .393 1.175)" gradientUnits="userSpaceOnUse" spreadMethod="pad">
      <stop offset="0" stop-color="#c2167e"/>
      <stop offset="1" stop-color="#b7136d"/>
    </linearGradient>
    <linearGradient id="Q" x1="0" x2="1" y1="0" y2="0" gradientTransform="scale(-6963.99 6963.99) rotate(-73.053 .339 .795)" gradientUnits="userSpaceOnUse" spreadMethod="pad">
      <stop offset="0" stop-color="#d8f2f7"/>
      <stop offset="1" stop-color="#d3aada"/>
    </linearGradient>
    <linearGradient id="T" x1="0" x2="1" y1="0" y2="0" gradientTransform="scale(-4036.91 4036.91) rotate(-73.053 .393 1.175)" gradientUnits="userSpaceOnUse" spreadMethod="pad">
      <stop offset="0" stop-color="#e9d3ec"/>
      <stop offset="1" stop-color="#d69cd3"/>
    </linearGradient>
    <linearGradient id="V" x1="0" x2="1" y1="0" y2="0" gradientTransform="scale(-4036.91 4036.91) rotate(-73.053 .393 1.175)" gradientUnits="userSpaceOnUse" spreadMethod="pad">
      <stop offset="0" stop-color="#ded5ee"/>
      <stop offset="1" stop-color="#ce9ed5"/>
    </linearGradient>
    <linearGradient id="c" x1="0" x2="1" y1="0" y2="0" gradientTransform="scale(-6963.99 6963.99) rotate(-73.053 .339 .795)" gradientUnits="userSpaceOnUse" spreadMethod="pad">
      <stop offset="0" stop-color="#a5e1ea"/>
      <stop offset="1" stop-color="#894aaa"/>
    </linearGradient>
    <linearGradient id="d" x1="0" x2="1" y1="0" y2="0" gradientTransform="scale(-4036.91 4036.91) rotate(-73.053 .393 1.175)" gradientUnits="userSpaceOnUse" spreadMethod="pad">
      <stop offset="0" stop-color="#c199d3"/>
      <stop offset="1" stop-color="#972f9c"/>
    </linearGradient>
    <linearGradient id="e" x1="43.13" x2="58.889" y1="149.56" y2="129.69" gradientUnits="userSpaceOnUse">
      <stop stop-color="#8c42a1"/>
      <stop offset=".389" stop-color="#922c88"/>
      <stop offset=".731" stop-color="#a02d6e"/>
      <stop offset=".86" stop-color="#f3506f"/>
      <stop offset=".985" stop-color="#fcb450"/>
    </linearGradient>
    <linearGradient xlink:href="#b" id="J" x1="0" x2="1" y1="0" y2="0" gradientTransform="scale(-3857.591 3857.591) rotate(-87.51 .282 1.011)" gradientUnits="userSpaceOnUse" spreadMethod="pad"/>
    <linearGradient xlink:href="#c" id="af" x1="0" x2="1" y1="0" y2="0" gradientTransform="scale(-6963.99 6963.99) rotate(-73.053 .339 .795)" gradientUnits="userSpaceOnUse" spreadMethod="pad"/>
    <linearGradient xlink:href="#d" id="ak" x1="0" x2="1" y1="0" y2="0" gradientTransform="scale(-4036.91 4036.91) rotate(-73.053 .393 1.175)" gradientUnits="userSpaceOnUse" spreadMethod="pad"/>
    <linearGradient id="al" x1="38.58" x2="1.662" y1="18.371" y2="18.03" gradientTransform="translate(.027 220.057) scale(2.00495)" gradientUnits="userSpaceOnUse">
      <stop stop-color="#00b6bf" stop-opacity=".991"/>
      <stop offset=".687" stop-color="#00b6b6"/>
      <stop offset=".795" stop-color="#a02d6e"/>
      <stop offset=".89" stop-color="#f3506f"/>
      <stop offset=".985" stop-color="#fcb450"/>
    </linearGradient>
    <linearGradient xlink:href="#e" id="am" x1="43.13" x2="58.889" y1="149.56" y2="129.69" gradientUnits="userSpaceOnUse"/>
    <linearGradient id="ao" x1="47.572" x2="38.05" y1="143.75" y2="143.78" gradientUnits="userSpaceOnUse">
      <stop stop-color="#8c42a1"/>
      <stop offset=".281" stop-color="#922c88"/>
      <stop offset=".514" stop-color="#a02d6e"/>
      <stop offset=".559" stop-color="#f3506f"/>
      <stop offset=".747" stop-color="#fcb450"/>
    </linearGradient>
    <linearGradient id="aq" x1="43.41" x2="47.62" gradientUnits="userSpaceOnUse">
      <stop stop-color="#8c42a1"/>
      <stop offset=".141" stop-color="#922c88"/>
      <stop offset=".325" stop-color="#a02d6e"/>
      <stop offset=".665" stop-color="#f3506f"/>
      <stop offset=".985" stop-color="#fcb450"/>
    </linearGradient>
    <linearGradient xlink:href="#b" id="H" x1="0" x2="1" y1="0" y2="0" gradientTransform="scale(-3857.591 3857.591) rotate(-87.51 .282 1.011)" gradientUnits="userSpaceOnUse" spreadMethod="pad"/>
    <linearGradient xlink:href="#c" id="Y" x1="0" x2="1" y1="0" y2="0" gradientTransform="scale(-6963.99 6963.99) rotate(-73.053 .339 .795)" gradientUnits="userSpaceOnUse" spreadMethod="pad"/>
    <linearGradient xlink:href="#d" id="ab" x1="0" x2="1" y1="0" y2="0" gradientTransform="scale(-4036.91 4036.91) rotate(-73.053 .393 1.175)" gradientUnits="userSpaceOnUse" spreadMethod="pad"/>
    <linearGradient xlink:href="#d" id="ad" x1="0" x2="1" y1="0" y2="0" gradientTransform="scale(-4036.91 4036.91) rotate(-73.053 .393 1.175)" gradientUnits="userSpaceOnUse" spreadMethod="pad"/>
    <linearGradient xlink:href="#d" id="ai" x1="0" x2="1" y1="0" y2="0" gradientTransform="scale(-4036.91 4036.91) rotate(-73.053 .393 1.175)" gradientUnits="userSpaceOnUse" spreadMethod="pad"/>
    <linearGradient xlink:href="#e" id="an" x1="43.13" x2="58.889" y1="149.56" y2="129.69" gradientUnits="userSpaceOnUse"/>
    <linearGradient xlink:href="#e" id="ap" x1="43.13" x2="58.889" y1="149.56" y2="129.69" gradientUnits="userSpaceOnUse"/>
  </defs>
  <g clip-path="url(#f)" transform="matrix(.13333 0 0 -.13333 -173.31 604.771)">
    <path fill="#151623" d="m2908.2 1063.53-1281.12 84.31c-101.37 6.95-157.79 94.33-126.01 195.19l942.78 2837.11c31.77 100.86 139.7 176.99 241.07 170.06l1275.45-46.14c107.05-7.33 122.79-105.86 101.38-173.88l-912.47-2896.6c-31.78-100.86-79.93-184.4-241.08-170.05"/>
    <path fill="#151623" d="m2895.94 1026.74-1281.12 84.31c-101.37 6.94-157.79 94.32-126.02 195.19l942.79 2837.1c31.77 100.86 139.7 177 241.08 170.07l1275.43-46.14c107.06-7.33 122.8-105.88 101.38-173.87l-912.47-2896.6c-31.78-100.86-79.93-184.42-241.07-170.06"/>
    <path fill="#891b83" d="m2940.12 1102.49-1356.81 92.86c-58.89 4.02-91.66 54.79-73.2 113.38l938.22 2978.35c18.46 58.58 81.15 102.81 140.04 98.79l1356.81-92.86c58.88-4.04 91.66-54.79 73.2-113.38l-938.22-2978.35c-18.46-58.6-81.16-102.81-140.04-98.79"/>
    <path fill="#151623" d="m2940.12 1102.49 1.02 14.97-1356.8 92.86c-20.59 1.45-36.31 9.21-47.21 20.7-10.86 11.53-17.13 27.07-17.17 45.61 0 8.63 1.4 17.89 4.45 27.59l938.23 2978.35c7.7 24.58 24.73 47 46.31 63.04 21.56 16.07 47.44 25.56 71.93 25.52 2.16 0 4.32-.08 6.47-.23l1356.8-92.86c20.58-1.45 36.31-9.21 47.21-20.7 10.85-11.54 17.12-27.07 17.16-45.61 0-8.62-1.39-17.89-4.45-27.6l-938.22-2978.34c-7.71-24.59-24.73-47.01-46.32-63.04-21.55-16.08-47.43-25.55-71.92-25.51-2.17 0-4.33.07-6.47.22l-1.02-14.97-1.02-14.96c2.83-.2 5.67-.29 8.51-.29 32.13.04 63.69 12.02 89.83 31.44 26.12 19.46 47.05 46.56 57.02 78.09l938.23 2978.35c3.91 12.43 5.83 24.75 5.83 36.61.04 25.46-8.98 48.93-25.36 66.21-16.33 17.34-39.78 28.21-66.96 30.03l-1356.81 92.87c-2.84.19-5.68.29-8.51.29-32.14-.05-63.7-12.03-89.84-31.45-26.11-19.47-47.05-46.57-57.02-78.09L1495.8 1313.24c-3.92-12.43-5.84-24.74-5.84-36.61-.04-25.46 8.99-48.93 25.36-66.22 16.33-17.33 39.78-28.21 66.97-30.02l1356.8-92.86 1.03 14.96"/>
    <path fill="#4564b8" d="m2938.93 1164.3-1311.04 89.72c-46.03 3.15-71.64 42.83-57.21 88.62l918.47 2915.68c14.43 45.79 63.44 80.36 109.45 77.21l1311.04-89.72c46.02-3.15 71.64-42.83 57.21-88.62L3048.38 1241.5c-14.43-45.79-63.43-80.35-109.45-77.2"/>
  </g>
  <g clip-path="url(#g)" transform="matrix(.13333 0 0 -.13333 -173.226 603.966)">
    <path fill="url(#h)" d="m2938.93 1164.3-1311.04 89.72c-46.03 3.15-71.64 42.83-57.21 88.62l918.85 2916.86c14.22 45.14 62.53 79.21 107.89 76.11l1313.41-89.89c45.36-3.1 70.62-42.22 56.4-87.35L3048.38 1241.5c-14.43-45.79-63.43-80.35-109.45-77.2"/>
  </g>
  <g clip-path="url(#i)" transform="matrix(.13333 0 0 -.13333 -170.45 609.333)">
    <path fill="url(#j)" d="m1636.84 1210.99-47.58 3.25c-26.9 1.84-48.38 13.34-62.03 30.81-4.68 9.13-7.24 19.75-7.27 31.58 0 8.63 1.4 17.89 4.45 27.59l207.51 658.73 26.1-21.53-194.7-618.08c-18.29-58.03 14.63-108.33 73.52-112.35M1764.5 1962l-26.1 21.53 14.38 45.63 25.96-21.96-14.24-45.2m20.76 65.88-25.96 21.97 149.11 473.37 32.38-1.6-155.53-493.74m369.76 1173.81-32.37 1.6 193.05 612.84c1.07-.49 2.17-.95 3.27-1.37 1.56-.91 3.16-1.73 4.81-2.46a50.59 50.59 0 0 1 4.79-2.78c1.51-1.11 3.09-2.14 4.72-3.08 1.48-1.21 3.02-2.33 4.62-3.36 1.43-1.29 2.93-2.5 4.49-3.62.24-.23.47-.46.71-.69l-188.09-597.08"/>
  </g>
  <g clip-path="url(#k)" transform="matrix(.13333 0 0 -.13333 -170.45 609.333)">
    <path fill="url(#l)" d="M1527.23 1245.05c-16.24 20.79-21.42 50.03-11.49 81.54l203.7 646.66 12.48-10.3-207.51-658.73c-3.05-9.7-4.45-18.96-4.45-27.59.03-11.83 2.59-22.45 7.27-31.58m211.17 738.48-12.47 10.3 14.44 45.84 12.41-10.51-14.38-45.63m20.9 66.32-12.42 10.5 146.05 463.63 15.48-.76-149.11-473.37m363.35 1153.44-15.49.77 194.29 616.74c1.06-.27 2.13-.51 3.21-.71 1.56-.56 3.14-1.04 4.75-1.44 1.55-.67 3.13-1.26 4.75-1.77.51-.26 1.02-.5 1.54-.75l-193.05-612.84"/>
  </g>
  <g clip-path="url(#m)" transform="matrix(.13333 0 0 -.13333 -170.45 609.333)">
    <path fill="#151623" d="m3552 4155.87-684.76 46.86c-16.27 1.11-25.33 15.14-20.23 31.32l57.91 386.01c1.33 4.22 69.53 7.4 73.77 7.11l728.32-49.85c4.24-.28 44.82-3.94 43.49-8.16l-159.81-386c-5.09-16.19-22.42-28.4-38.69-27.29"/>
  </g>
  <g clip-path="url(#n)" transform="matrix(.13333 0 0 -.13333 -170.45 609.333)">
    <path fill="#955db5" d="m2344.1 3797.84-.99.93.05.16c.35-.24.7-.48 1.06-.71l-.12-.38"/>
    <path fill="#6a8fd2" d="m2344.1 3797.84.12.38-.12-.38"/>
  </g>
  <g clip-path="url(#o)" transform="matrix(.13333 0 0 -.13333 -170.45 609.333)">
    <path fill="url(#p)" d="M2343.11 3798.77c-.24.23-.47.46-.71.69.25-.18.51-.36.76-.53l-.05-.16"/>
  </g>
  <g clip-path="url(#q)" transform="matrix(.13333 0 0 -.13333 -170.45 609.333)">
    <path fill="#965eb5" d="M2344.22 3798.22c-.36.23-.71.47-1.06.71l.33 1.05c.37-.18.75-.35 1.12-.51l-.39-1.25"/>
    <path fill="#6a91d2" d="m2344.22 3798.22.39 1.25-.39-1.25"/>
  </g>
  <g clip-path="url(#r)" transform="matrix(.13333 0 0 -.13333 -170.45 609.333)">
    <path fill="#9560b6" d="M2344.61 3799.47c-.37.16-.75.33-1.12.51l.59 1.86c.39-.11.78-.22 1.18-.32l-.65-2.05"/>
    <path fill="#6c92d3" d="m2344.61 3799.47.65 2.05-.65-2.05"/>
  </g>
  <g clip-path="url(#s)" transform="matrix(.13333 0 0 -.13333 -170.45 609.333)">
    <path fill="#9461b7" d="M2345.26 3801.52c-.4.1-.79.21-1.18.32l.85 2.69c.41-.05.82-.09 1.23-.13l-.9-2.88"/>
    <path fill="#6c92d3" d="m2345.26 3801.52.9 2.88h.01l-.91-2.88"/>
  </g>
  <g clip-path="url(#t)" transform="matrix(.13333 0 0 -.13333 -170.45 609.333)">
    <path fill="#9462b8" d="M2346.16 3804.4c-.41.04-.82.08-1.23.13l1.13 3.6c.44.03.87.05 1.31.08l-1.21-3.81"/>
    <path fill="#6c93d4" d="M2346.17 3804.4h-.01l1.21 3.81-1.2-3.81"/>
  </g>
  <g clip-path="url(#u)" transform="matrix(.13333 0 0 -.13333 -170.45 609.333)">
    <path fill="#9462b8" d="M2374.95 3895.78c-.34.28-.68.55-1.02.81l.18.59c.37-.19.73-.39 1.09-.59l-.25-.81"/>
    <path fill="#6c93d4" d="m2374.95 3895.78.25.81h.01l-.26-.81"/>
  </g>
  <g clip-path="url(#v)" transform="matrix(.13333 0 0 -.13333 -170.45 609.333)">
    <path fill="url(#w)" d="M2373.93 3896.59c-.98.76-1.99 1.48-3.03 2.16 1.09-.48 2.16-1 3.21-1.57l-.18-.59"/>
  </g>
  <g clip-path="url(#x)" transform="matrix(.13333 0 0 -.13333 -170.45 609.333)">
    <path fill="#9464b8" d="m2346.06 3808.13 1.48 4.71c.47.1.93.22 1.39.34l-1.56-4.97c-.44-.03-.87-.05-1.31-.08"/>
    <path fill="#6c93d4" d="m2347.37 3808.21 1.56 4.97-1.56-4.97"/>
  </g>
  <g clip-path="url(#y)" transform="matrix(.13333 0 0 -.13333 -170.45 609.333)">
    <path fill="#9464b8" d="M2374.07 3892.98c-.31.36-.62.72-.94 1.07l.8 2.54c.34-.26.68-.53 1.02-.81l-.88-2.8"/>
    <path fill="#6c93d4" d="m2374.07 3892.98.88 2.8-.88-2.8"/>
  </g>
  <g clip-path="url(#z)" transform="matrix(.13333 0 0 -.13333 -170.45 609.333)">
    <path fill="#9466ba" d="m2347.54 3812.84 1.97 6.25c.51.23 1.01.47 1.51.72l-2.09-6.63c-.46-.12-.92-.24-1.39-.34"/>
    <path fill="#6d94d4" d="m2348.93 3813.18 2.09 6.63-2.09-6.63"/>
  </g>
  <g clip-path="url(#A)" transform="matrix(.13333 0 0 -.13333 -170.45 609.333)">
    <path fill="#9466ba" d="M2372.37 3887.6c-.26.49-.54.97-.82 1.45l1.58 5c.32-.35.63-.71.94-1.07l-1.7-5.38"/>
    <path fill="#6d94d4" d="M2372.38 3887.6h-.01l1.7 5.38-1.69-5.38"/>
  </g>
  <g clip-path="url(#B)" transform="matrix(.13333 0 0 -.13333 -170.45 609.333)">
    <path fill="#9367ba" d="m2349.51 3819.09 2.86 9.07c.59.48 1.17.97 1.74 1.47l-3.09-9.82c-.5-.25-1-.49-1.51-.72"/>
    <path fill="#6d95d5" d="m2351.02 3819.81 3.09 9.82c0 .01.01.01.01.01l-3.1-9.83"/>
  </g>
  <g clip-path="url(#C)" transform="matrix(.13333 0 0 -.13333 -170.45 609.333)">
    <path fill="#9367ba" d="M2369.38 3878.09c-.18.74-.38 1.48-.58 2.21l2.75 8.75c.28-.48.56-.96.82-1.45l-2.99-9.51"/>
    <path fill="#6d95d5" d="M2369.38 3878.08v.01l2.99 9.51h.01l-3-9.52"/>
  </g>
  <g clip-path="url(#D)" transform="matrix(.13333 0 0 -.13333 -170.45 609.333)">
    <path fill="#9267ba" d="m2352.37 3828.16 6.63 21.04c1.31 3.04 2.31 6.22 2.99 9.5l6.81 21.6c.2-.73.4-1.47.58-2.21l-15.27-48.46c-.57-.5-1.15-.99-1.74-1.47"/>
    <path fill="#6d95d5" d="m2354.11 3829.63 15.27 48.46v-.01l-15.26-48.44s-.01 0-.01-.01"/>
    <path fill="#546ea3" d="M2331.09 3914.89c-.28.1-.55.2-.83.3.29-.05.58-.11.87-.17l-.04-.13"/>
  </g>
  <g clip-path="url(#E)" transform="matrix(.13333 0 0 -.13333 -170.45 609.333)">
    <path fill="url(#F)" d="m3522.92 2419.68 3.68 11.71c-.83-4.03-2.07-7.95-3.68-11.71"/>
  </g>
  <g clip-path="url(#G)" transform="matrix(.13333 0 0 -.13333 -170.45 609.333)">
    <path fill="url(#H)" d="M3023.86 3430.51c-16.84 6.26-35.4 10.33-55.39 11.9 2.69-.21 5.39-.32 8.1-.32h.11c24.88 0 50.81 8.79 72.44 23.5 21.69 14.72 38.92 35.27 47.08 57.99 3.46 9.62 5.05 18.83 5.05 27.41-.04 17.1-6.18 31.73-17.22 42.85-11.07 11.08-27.3 18.7-48.11 20.35-2.72.21-5.45.32-8.19.32h-.11c-24.87 0-50.8-8.78-72.43-23.5-21.7-14.72-38.93-35.27-47.08-57.98-3.47-9.62-5.05-18.83-5.05-27.41.04-17.1 6.18-31.73 17.22-42.85 11.07-11.08 27.27-18.7 48.07-20.35-6.18.48-12.38.72-18.59.72-11.51-.01-23.03-.82-34.49-2.39a81.394 81.394 0 0 0-9.14 7.89c-14.81 14.8-23.11 34.96-23.07 56.98 0 11.06 2.05 22.57 6.23 34.19 9.93 27.46 29.97 50.95 54.66 67.74 24.7 16.76 54.21 26.93 83.78 26.96 3.25 0 6.51-.12 9.75-.38 24.86-1.93 45.91-11.33 60.7-26.17 14.81-14.79 23.11-34.95 23.07-56.97 0-11.06-2.05-22.57-6.24-34.19l-9.4 3.39 9.4-3.4c-9.93-27.46-29.97-50.95-54.65-67.74-11.31-7.67-23.63-13.97-36.5-18.54"/>
  </g>
  <g clip-path="url(#I)" transform="matrix(.13333 0 0 -.13333 -170.45 609.333)">
    <path fill="url(#J)" d="m3125.32 3271.08-19.93 1.71c.38 4.47.57 8.89.57 13.25-.04 36.67-13.25 68.73-37.05 92.8-23.82 24.04-58.47 40.19-102.09 43.63-5.66.45-11.35.67-17.06.67h-.06c-43.66 0-88.29-12.86-127.91-35.03-39.65-22.16-74.22-53.61-97.92-90.24l-16.79 10.86c25.7 39.68 62.62 73.16 104.95 96.83 32.09 17.94 67.33 30.27 103.24 35.19 11.46 1.57 22.98 2.38 34.49 2.39 6.21 0 12.41-.24 18.59-.72.01-.01.03-.01.04-.01h.08c19.99-1.57 38.55-5.64 55.39-11.9 23.29-8.64 43.29-21.46 59.26-37.59 27.56-27.79 42.87-65.35 42.84-106.88 0-4.93-.21-9.92-.64-14.96"/>
  </g>
  <g clip-path="url(#K)" transform="matrix(.13333 0 0 -.13333 -10.056 623.836)">
    <path fill="#2f3594" d="m1259.84 3750.1-377.555 18.67c-38.297 1.89-60.437 33.15-49.465 69.82l102.2 341.43c12.89 43.08 59.804 76.18 104.78 73.96l365.81-18.09c40.7-2.01 64.24-35.25 52.57-74.22l-103.06-344.33c-11.73-39.16-54.38-69.26-95.28-67.24"/>
    <path fill="#414ba8" d="m1223.46 3796.69-363.94 18c-38.29 1.89-60.434 33.15-49.461 69.82l102.203 341.43c12.89 43.06 59.801 76.18 104.778 73.95l352.18-17.42c40.7-2.01 64.24-35.24 52.58-74.21l-103.07-344.33c-11.72-39.16-54.38-69.27-95.27-67.24"/>
    <path fill="#fff" d="M1274.4 4070.93c2.21 11.13-5.73 19.78-17.36 20.36l-84.45 4.18c9.05 12.9 16.74 26.43 24.24 39.93 7.03 12.64 13.57 25.9 14.46 38.9.81 11.81-3.7 25.63-17.08 27.28-4.6.57-10.16-.88-13.93-4.47-1.74-1.67-3.01-3.68-4.11-5.69-4.77-8.74-6.56-18.2-9.9-27.19-1.31-3.54-2.75-7.15-5.29-10.28-2.78-3.42-6.64-5.99-10.41-8.46-11.9-7.85-23.75-15.78-35.71-23.53-9.42-6.09-19.01-12.23-27.25-19.83-3.05-2.82-6.44-6.11-9.03-9.54-1.77-1.98-3.13-4.28-3.87-6.76l-8.49-28.36-12.21-40.77-11.09-37.07-9.16-30.6c-1.38-4.6 1.4-8.51 6.2-8.75l148.07-7.32c11.76-.59 24.03 8.08 27.39 19.33 3.07 10.24-3.11 18.96-13.8 19.49l10.78-.53c10.11-.5 21.25 6.13 25.1 15.71 4.41 11.01-1.86 20.75-13.17 21.31l-1.94.1c11.76-.58 27.98 7.88 31.35 19.14 3.37 11.26-7.39 21.05-19.15 21.63l10.65-.53c13.01-.64 26.62 9.54 29.16 22.32M982.574 3945l-17.625.87c-16.511.82-26.058 14.3-21.328 30.12l28.352 94.7c4.73 15.81 21.957 27.97 38.467 27.15l17.62-.87c16.51-.81 26.06-14.29 21.33-30.11l-28.35-94.71c-4.74-15.81-21.958-27.97-38.466-27.15"/>
  </g>
  <g clip-path="url(#L)" transform="matrix(.13333 0 0 -.13333 -131.895 622.978)">
    <path fill="url(#M)" d="m3653.13 3161.26 146.64 465.53-146.64-465.53"/>
  </g>
  <g clip-path="url(#N)" transform="matrix(.13333 0 0 -.13333 186.86 653.063)">
    <path fill="#d21358" d="m1061.41 1731.74-386.722 19.09c-39.219 1.93-61.739 33.9-50.293 71.4l106.55 349.1c13.442 44.03 61.684 77.89 107.75 75.61l374.675-18.49c41.69-2.06 65.62-36.04 53.46-75.89l-107.45-352.07c-12.23-40.04-56.09-70.82-97.97-68.75"/>
    <path fill="#ee1882" d="m1028.51 1775.2-372.756 18.4c-39.227 1.95-61.738 33.91-50.301 71.4l106.555 349.1c13.441 44.03 61.683 77.89 107.75 75.62l360.722-17.82c41.69-2.05 65.62-36.02 53.46-75.87l-107.46-352.07c-12.22-40.04-56.08-70.83-97.97-68.76"/>
    <path fill="#fff" d="m1017.73 2035.81-123.507 102.22c-11.239 9.3-28.328 4.37-32.875-9.49l-51.989-158.62c-5.265-16.06 9.911-31.34 26.008-26.16l175.493 56.39c15.57 5 19.47 25.23 6.87 35.66"/>
  </g>
  <g clip-path="url(#O)" transform="matrix(.13333 0 0 -.13333 -202.982 410.723)">
    <path fill="#2f3594" d="m4134.72 1204.76-384.75 18.99c-39.02 1.92-61.43 33.73-50.04 71.04l106.01 347.31c13.38 43.82 61.36 77.5 107.2 75.23l372.77-18.4c41.47-2.05 65.29-35.85 53.19-75.5l-106.91-350.28c-12.16-39.83-55.8-70.45-97.47-68.39"/>
    <path fill="#414ba8" d="m4101.99 1248-370.86 18.31c-39.02 1.92-61.42 33.73-50.04 71.02l106.01 347.33c13.37 43.82 61.37 77.5 107.2 75.23l358.88-17.72c41.48-2.04 65.3-35.85 53.19-75.5l-106.91-350.27c-12.16-39.84-55.8-70.46-97.47-68.4"/>
    <path fill="#c0daeb" d="M4086.66 1309.73c-4.85-1.74-9.7-3.47-14.55-5.21-3.29-1.18-6.57-2.4-9.88-3.54-4.84-1.66-8.89-.55-13.2 2.06a71.542 71.542 0 0 0-8.17 5.76l-1.51 1.52c-.54.8-.76 1.76-.89 2.72-.92 6.38 1.48 12.76.55 19.15-.77 5.28-3.16 10.72-4.71 15.84l-9.96 32.92c-4.07 13.41-8.12 26.81-12.21 40.33-1.34 4.41 2.8 6.08 5.25 8.52 3.17 3.14 6.06 6.39 9.44 9.34 2.89 2.52 5.78 5.05 8.67 7.57 2.18 1.9 4.74 3.92 7.61 3.55 1.29-.17 2.48-.83 3.58-1.54 3.88-2.5 8.62-6.43 10.57-10.75.61-1.38.83-3.12 1.28-4.6l3.06-10.11 12.42-41.07c4.38-14.44 8.74-28.87 13.11-43.3 2.03-6.7 4.05-13.4 6.08-20.11 1.02-3.34-1.91-7.4-6.54-9.05m-45.15 150.43-.53-.21c-11.22-4-22.44-8.01-33.66-12.01-5.23-1.88-8.6-1.01-12.11 3.24-.99 1.22-1.99 2.44-2.99 3.65l-1.4 2.35c-.44 1.74.53 3.72.66 5.46.13 1.55.21 2.68.84 4.24 1.27 3.12 3.19 6.1 6.25 7.7 5.12 2.67 10.79 4.9 15.65 7.92 5.03 3.13 9.8 6.55 15.02 9.39 1.68.91 3.56 1.82 5.41 1.35 2.67-.68 3.81-3.78 4.53-6.44 1.45-5.36 2.91-10.73 4.36-16.09 1.21-4.43 3.35-8.44-2.03-10.55"/>
    <path fill="#c0daeb" d="m4037.64 1368.05-39.96 117.46 18.92 6.44 39.96-117.46-18.92-6.44"/>
    <path fill="#fff" d="m4076.66 1319.73-28.41-10.17c-4.63-1.66-9.2-.28-10.21 3.06l-35.91 118.66c-1.01 3.34 1.92 7.4 6.55 9.05l28.4 10.17c4.63 1.66 9.2.28 10.21-3.06l35.91-118.66c1.02-3.34-1.91-7.4-6.54-9.05"/>
    <path fill="#c0daeb" d="M4019.81 1653.32c-53.1 0-108.23-32.89-125.52-76.03-7.35-18.33-6.54-35.44 2.35-49.51 10.65-16.87 32.19-27.54 59.08-29.24 55.58-3.44 115.34 30.48 133.5 75.79v.01c7.34 18.31 6.53 35.43-2.35 49.49-10.66 16.87-32.19 27.54-59.09 29.24-2.64.16-5.3.25-7.97.25zm-56.06-185.03c-3.32 0-6.62.11-9.92.31-36.61 2.33-66.71 18.05-82.56 43.17-14.03 22.21-15.74 49.45-4.83 76.68 23 57.38 94.98 98.77 163.24 94.56 36.61-2.33 66.71-18.05 82.56-43.17 14.03-22.21 15.74-49.45 4.83-76.68v.01c-21.89-54.62-87.91-94.88-153.32-94.88"/>
    <path fill="#fff" d="M4009.81 1663.32c-53.1 0-108.23-32.89-125.52-76.03-7.35-18.33-6.54-35.44 2.35-49.51 10.65-16.87 32.19-27.54 59.08-29.24 55.58-3.44 115.34 30.48 133.5 75.79v.01c7.34 18.31 6.53 35.43-2.35 49.49-10.66 16.87-32.19 27.54-59.09 29.24-2.64.16-5.3.25-7.97.25zm-56.06-185.03c-3.32 0-6.62.11-9.92.31-36.61 2.33-66.71 18.05-82.56 43.17-14.03 22.21-15.74 49.45-4.83 76.68 23 57.38 94.98 98.77 163.24 94.56 36.61-2.33 66.71-18.05 82.56-43.17 14.03-22.21 15.74-49.45 4.83-76.68v.01c-21.89-54.62-87.91-94.88-153.32-94.88"/>
    <path fill="#fff" d="m4032.02 1468.85-35.96-12.87c-2.54-.91-5.05-.16-5.61 1.69l-6.17 20.39c-.56 1.83 1.05 4.06 3.6 4.98l35.95 12.86c2.55.91 5.06.15 5.61-1.68l6.18-20.39c.55-1.85-1.06-4.07-3.6-4.98"/>
  </g>
  <g clip-path="url(#P)" transform="matrix(.13333 0 0 -.13333 -170.45 609.333)">
    <path fill="url(#Q)" d="m1877.44 2524.75-179.17 8.84c-46.51 2.3-74.67 37.6-66.88 80.96 10.76-20.17 32.25-33.75 60.51-35.15l199.65-9.86-14.11-44.79"/>
  </g>
  <g clip-path="url(#R)" transform="matrix(.13333 0 0 -.13333 -170.45 609.333)">
    <path fill="#dca0d5" d="m1942.05 2521.56-1.26.06 14.11 44.8 1.26-.07-14.11-44.79"/>
    <path fill="#a8a7b5" d="m1892.93 2523.98-15.49.77 14.11 44.79 15.49-.76-14.11-44.8"/>
    <path fill="#b1cced" d="m1942.05 2521.56 14.11 44.79h.01l-14.12-44.79"/>
  </g>
  <g clip-path="url(#S)" transform="matrix(.13333 0 0 -.13333 -170.45 609.333)">
    <path fill="url(#T)" d="m1940.79 2521.62-32.38 1.6 14.12 44.79 32.37-1.59-14.11-44.8"/>
  </g>
  <g clip-path="url(#U)" transform="matrix(.13333 0 0 -.13333 -170.45 609.333)">
    <path fill="url(#V)" d="m1908.41 2523.22-15.48.76 14.11 44.8 15.49-.77-14.12-44.79"/>
  </g>
  <g clip-path="url(#W)" transform="matrix(.13333 0 0 -.13333 -170.45 609.333)">
    <path fill="#fff" d="m2168.86 2555.85-476.96 23.55c-50.19 2.48-79 43.38-64.36 91.35l136.34 446.69c17.2 56.35 78.92 99.67 137.87 96.76l461.56-22.79c53.34-2.63 83.96-46.11 68.4-97.09l-137.49-450.49c-15.64-51.24-71.76-90.63-125.36-87.98"/>
    <path fill="#ee1882" d="m2206.37 2683.74-495.14 22.64 88.36 260.92 495.14-22.63-88.36-260.93"/>
    <path fill="#d21358" d="m1799.59 2967.3 309.18 170.61 185.96-193.24-495.14 22.63"/>
    <path fill="#7cd5f0" d="m2261.44 2979.26-67.03 69.65 70-3.2c8.87-.4 14.95-9.08 12.3-17.56l-15.27-48.89m-404.38 19.76 18.52 54.68a13.55 13.55 0 0 0 12.83 9.2c.2 0 .41-.01.61-.02l77.37-3.54-109.33-60.32"/>
    <path fill="#76d3f1" d="m2004.98 2826.64-169.1 109.83 9.73 28.73 405.65-18.54-7.48-23.97-238.8-96.05"/>
    <path fill="#74d2f0" d="m2251.26 2946.66-405.65 18.54 11.45 33.82 109.33 60.32 228.02-10.43 67.03-69.65-10.18-32.6"/>
    <path fill="#2f3594" d="m1711.52 2701.81 582.69 235.9-3.75 9.27-582.69-235.9"/>
    <path fill="#2f3594" d="M2007.08 2821.81c1.15 1 1.68 2.76 1.61 3.69-.03 1.36-.39 1.95-.58 2.37l-.84 1.17-1.61 1.39c-4.35 3.36-19.08 13.47-39.15 27.09-60.07 40.73-166.54 111.62-166.55 111.62l-5.54-8.32c.03-.02 12.9-8.59 32.26-21.51 29.04-19.38 72.59-48.5 108.88-72.95 18.14-12.22 34.47-23.28 46.24-31.37 5.89-4.04 10.64-7.34 13.89-9.65 1.62-1.15 2.87-2.07 3.65-2.67l.74-.59h.01l2.33 2.5-2.63-2.18.3-.32 2.33 2.5-2.63-2.18 3.58 2.96-4.04-2.29.46-.67 3.58 2.96-4.04-2.29 4.29 2.43h-4.93c.05-1.51.46-2.04.64-2.43l4.29 2.43h-4.93 4.98l-3.37 3.66c-1.15-.98-1.67-2.74-1.61-3.66h4.98l-3.37 3.66 6.78-7.35"/>
  </g>
  <g clip-path="url(#X)" transform="matrix(.13333 0 0 -.13333 -170.45 609.333)">
    <path fill="url(#Y)" d="m1706.96 1983.55-83.32 68.74 12.72 15.42 77.08-63.58-6.48-20.58"/>
  </g>
  <g clip-path="url(#Z)" transform="matrix(.13333 0 0 -.13333 -170.45 609.333)">
    <path fill="#a62f9d" d="m1759.04 1940.58-1.02.84 6.48 20.58 1.02-.84-6.48-20.58"/>
    <path fill="#3a3956" d="m1719.44 1973.25-12.48 10.3 6.48 20.58 12.49-10.3-6.49-20.58"/>
    <path fill="#597ec8" d="m1759.04 1940.58 6.48 20.58-6.48-20.58"/>
  </g>
  <g clip-path="url(#aa)" transform="matrix(.13333 0 0 -.13333 -170.45 609.333)">
    <path fill="url(#ab)" d="m1758.02 1941.42-26.1 21.53 6.48 20.58 26.1-21.53-6.48-20.58"/>
  </g>
  <g clip-path="url(#ac)" transform="matrix(.13333 0 0 -.13333 -170.45 609.333)">
    <path fill="url(#ad)" d="m1731.92 1962.95-12.48 10.3 6.49 20.58 12.47-10.3-6.48-20.58"/>
  </g>
  <g clip-path="url(#ae)" transform="matrix(.13333 0 0 -.13333 -170.45 609.333)">
    <path fill="url(#af)" d="m1727.95 2050.18-144.41 122.19 12.92 15.26 138-116.77-6.51-20.68"/>
  </g>
  <g clip-path="url(#ag)" transform="matrix(.13333 0 0 -.13333 -170.45 609.333)">
    <path fill="#a62f9d" d="m1779.75 2006.34-1.01.86 6.52 20.68 1.01-.85-6.52-20.69"/>
    <path fill="#3a3956" d="m1740.37 2039.67-12.42 10.51 6.51 20.68 12.42-10.51-6.51-20.68"/>
    <path fill="#597ec8" d="m1779.75 2006.34 6.52 20.69v-.01l-6.52-20.68"/>
  </g>
  <g clip-path="url(#ah)" transform="matrix(.13333 0 0 -.13333 -170.45 609.333)">
    <path fill="url(#ai)" d="m1778.74 2007.2-25.96 21.96 6.52 20.69 25.96-21.97-6.52-20.68"/>
  </g>
  <g clip-path="url(#aj)" transform="matrix(.13333 0 0 -.13333 -170.45 609.333)">
    <path fill="url(#ak)" d="m1752.78 2029.16-12.41 10.51 6.51 20.68 12.42-10.5-6.52-20.69"/>
  </g>
  <path fill="#ddcdea" d="m163.853 482.033-51.172-2.53c-5.384-.268-8.5-4.663-6.955-9.82l14.37-48.005c1.813-6.056 8.409-10.713 14.733-10.4l49.518 2.45c5.723.284 9.032 4.954 7.392 10.436l-14.492 48.413c-1.648 5.506-7.645 9.74-13.394 9.456"/>
  <path fill="#2f3594" d="m170.834 433.253-8.104-.56.845-2.647c.234-.73-.472-1.384-1.573-1.46l-14.525-1.002c-1.103-.076-2.184.453-2.416 1.184l-.846 2.648-8.102-.56c-3.346-.231-6.63 1.38-7.336 3.596l-7.34 23.007c-.706 2.218 1.433 4.202 4.777 4.433l34.721 2.398c3.346.23 6.63-1.38 7.336-3.596l7.339-23.01c.707-2.216-1.432-4.2-4.776-4.431"/>
  <path fill="#fff" d="M153.393 447.504c-.683 2.14-3.36 3.73-5.98 3.549-2.618-.181-4.188-2.063-3.506-4.205.683-2.14 3.36-3.728 5.98-3.548 2.619.18 4.188 2.062 3.506 4.204"/>
  <path fill="#fff" d="m159.854 447.95-1.27-.405c-.64 2.023-2.24 3.916-4.398 5.287-2.152 1.372-4.832 2.203-7.49 2.202-.293 0-.583-.01-.874-.03-2.355-.163-4.23-.963-5.488-2.087-1.257-1.13-1.925-2.548-1.93-4.172 0-.613.097-1.26.313-1.936.64-2.025 2.24-3.917 4.398-5.288 2.152-1.372 4.832-2.204 7.49-2.203.292 0 .584.01.874.03 2.355.164 4.23.965 5.488 2.088 1.258 1.13 1.926 2.549 1.93 4.173 0 .612-.098 1.259-.314 1.936l1.27.405 1.272.404c.294-.922.44-1.846.44-2.745.005-2.399-1.052-4.596-2.823-6.164-1.77-1.576-4.225-2.559-7.079-2.756a14.063 14.063 0 0 0-1.058-.036c-3.208.001-6.343.98-8.922 2.619-2.572 1.638-4.618 3.954-5.506 6.726a8.985 8.985 0 0 0-.44 2.747c-.007 2.397 1.052 4.595 2.822 6.162 1.77 1.578 4.226 2.56 7.079 2.757.353.025.705.037 1.057.037 3.21-.003 6.344-.981 8.922-2.62 2.573-1.64 4.618-3.956 5.508-6.725l-1.271-.406"/>
  <g stroke-width="11.364" transform="matrix(.29437 .01542 -.09906 .28918 293.72 25.752)">
    <rect width="135.467" height="135.467" y="161.533" fill="#fafafa" opacity=".95" rx="24.083" ry="24.076"/>
    <g stroke-width="5.735">
      <path fill="url(#al)" d="m40.137 229.218-22.66.014v1.698c5.488 0 8.233 1.698 8.233 5.093v5.415H20.8v5.418h4.911v.548h8.568v-12.316c0-.962.338-1.614 1.018-1.952.68-.34 1.838-.51 3.48-.51 1.584 0 2.944.057 4.075.171 1.189.056 2.574.31 4.158.764 1.642.397 2.97.962 3.99 1.698 1.018.736 1.894 1.839 2.63 3.31.736 1.472 1.103 3.226 1.103 5.261v.002c0 3.394-1.19 5.997-3.565 7.807-.125.098-.253.19-.383.282h9.42c2.182-2.13 3.275-4.917 3.275-8.36 0-9.561-7.78-14.343-23.342-14.343zm-20.959 3.479v2.755h2.755v-2.755h-1.378zm7.888 2.178h3.324v3.324h-3.324v-1.663zm-16.345 2.953v2.851h2.851v-2.851h-1.425zm2.47 24.598v2.476h5.037v-2.476zm12.52 0v4.842H24.6v-2.929h-2.943v2.945h2.945v3.404h1.108v3.51h3.216v8.171h-4.988v-.134c-1.366.98-3.513 1.474-6.462 1.474v1.698h26.736c6.787 0 12.15-1.33 16.12-3.99 4.03-2.717 6.035-6.564 6.035-11.542h.003c0-1.033-.104-2.008-.306-2.932h-9.757c.194.888.291 1.84.291 2.856l-.001.002c0 4.583-1.358 7.809-4.075 9.675-2.658 1.867-6.421 2.801-11.287 2.801-2.885 0-4.782-.339-5.686-1.018-.848-.68-1.274-1.87-1.274-3.565v-15.268zm-17.935 8.842v2.663h2.661v-2.662H9.105Zm7.031.475v5.417h5.418v-5.417h-2.71zm0 5.417h-3.611v3.612h3.611v-1.807zm6.937.285v3.324h3.324v-3.324h-1.662z" transform="translate(-11.715 -276.717) scale(1.98133)"/>
      <g fill="url(#am)" stroke-width="3.818" transform="translate(-58.649 -199.914) scale(2.97668)">
        <g fill="url(#an)" aria-label="mark">
          <path fill="#8c42a1" d="M25.937 142.51q.011 0 .222-.19.222-.201.603-.402t.773-.201q.392 0 .688.254.307.254.402.646.328-.37.773-.635.455-.265.868-.265.36 0 .614.127.265.127.402.307.138.18.212.476.074.296.085.529.021.233.021.582v1.979q0 .349.148.508.148.159.519.19v.148h-2.222v-.148q.37-.032.519-.19.148-.159.148-.508v-2.148q0-.762-.169-1.016-.159-.265-.656-.265-.751 0-1.143.635v2.794q0 .349.148.508.148.159.519.19v.148h-2.223v-.148q.37-.032.519-.19.148-.159.148-.508v-2.191q0-.265-.021-.434-.011-.169-.085-.381-.064-.212-.222-.317-.159-.106-.413-.106-.339 0-.688.169-.349.169-.529.445v2.815q0 .349.148.508.148.159.519.19v.148h-2.223v-.148q.37-.032.519-.19.148-.159.148-.508v-2.572q0-.445-.127-.571-.116-.127-.54-.127v-.18l1.556-.55v.698q0 .095.042.095zm7.062.4q0-.116.074-.286.074-.18.243-.392.18-.222.561-.37.381-.148.91-.148.868 0 1.185.413.328.402.328 1.397v2.222q0 .328.243.328.191 0 .55-.243v.275q-.159.19-.423.381-.254.19-.455.19-.381 0-.561-.233-.18-.233-.201-.582-.878.815-1.524.815-.476 0-.804-.328-.318-.328-.318-.794 0-.233.074-.434.085-.212.201-.37.116-.159.318-.307.201-.159.37-.265.169-.106.423-.212.265-.116.423-.18l.423-.159q.265-.095.37-.138 0-.889-.148-1.207-.148-.328-.624-.328-.18 0-.402.085-.212.085-.296.212-.021.085-.021.159 0 .053.011.212.011.148.011.243 0 .18-.148.328-.138.148-.318.148-.233 0-.36-.116-.116-.127-.116-.317zm2.413 2.656v-1.799l-.349.138q-.243.085-.392.148-.148.053-.349.169-.201.106-.318.233-.106.116-.191.307-.085.18-.085.413 0 .37.191.624.201.243.561.243.191 0 .519-.148.339-.159.413-.328zm5.232-3.286q0 .466-.434.466-.201 0-.402-.18-.191-.19-.307-.19-.159 0-.413.307-.243.296-.243.519v2.519q0 .349.169.508.169.159.635.19v.148h-2.487v-.148q.466-.032.624-.19.169-.159.169-.508v-2.307q0-.582-.095-.804-.085-.222-.328-.222-.148 0-.37.064v-.159l1.683-.571v.963q.212-.37.529-.667.318-.296.677-.296.593 0 .593.561z"/>
          <path fill="url(#ao)" d="M45.925 146.57h-2.286v-.148q.37 0 .37-.19 0-.095-.085-.201l-1.577-2.074v1.767q0 .349.169.508.169.159.635.19v.148h-2.487v-.148q.455-.032.624-.19.169-.159.169-.508v-5.281q0-.275-.063-.349-.063-.074-.286-.074h-.349v-.19q.148-.042.339-.085.201-.042.328-.074.138-.042.254-.085l.667-.233v4.434l1.334-1.164q.36-.307.36-.445 0-.19-.54-.19v-.148h2.17v.148q-.318 0-.582.074-.265.074-.54.254-.265.18-.444.328-.169.148-.508.455-.328.307-.519.476l1.535 1.958q.656.847 1.312.889z"/>
        </g>
        <g fill="url(#ap)" aria-label="eting">
          <path fill="url(#aq)" d="M47.62 147.8q-.265.762-.857 1.281-.593.508-1.355.508-.889 0-1.45-.698-.55-.709-.55-1.683 0-1.143.593-1.863t1.556-.72q.825 0 1.334.55.508.54.529 1.376h-3.291q.011.54.18 1.048.169.508.572.889.402.381.963.381.487 0 .9-.317.423-.328.699-.815zm-1.281-1.577q-.032-.529-.286-.868-.243-.349-.73-.349-.995 0-1.164 1.217z"/>
          <path fill="#8c42a1" d="M49.973 149.01q.402 0 .698-.392l.148.127q-.646.836-1.365.836-.508 0-.677-.328-.169-.328-.169-1.154v-3.037h-.318q-.021 0-.085.011h-.095q-.032 0-.085-.011-.042-.021-.032-.053.011-.032.021-.095.212-.138.423-.339.212-.212.349-.37.138-.159.37-.434.233-.286.36-.434v1.397h1.037v.328h-1.037v2.857q0 .55.085.826.095.265.37.265zm2.766-6.21q0 .222-.159.381t-.37.159q-.233 0-.392-.159-.148-.159-.148-.381 0-.233.148-.392.159-.159.392-.159.212 0 .37.159.159.159.159.392zm.804 6.667h-2.508v-.148q.466-.032.624-.19.169-.159.169-.508v-2.572q0-.455-.074-.624-.063-.169-.275-.169-.138 0-.444.085v-.148l1.693-.571v4q0 .36.169.519.169.148.646.18zm5.37.003h-2.222v-.148q.37-.032.519-.19.148-.159.148-.508v-2.275q0-.36-.042-.582-.042-.222-.233-.392-.191-.18-.54-.18-.55 0-1.154.603v2.826q0 .349.148.508.148.159.519.19v.148h-2.233v-.148q.37-.032.519-.19.148-.159.148-.508v-2.582q0-.497-.074-.624-.074-.138-.328-.138h-.265v-.148l1.566-.508v.847q.381-.392.751-.614.37-.233.868-.233 1.238 0 1.238 1.714v2.286q0 .349.148.508.148.159.519.19zm5.059-4.09h-.878q.201.434.201.91 0 .741-.497 1.185-.497.434-1.217.434-.074 0-.572-.074-.169.042-.392.275-.212.222-.212.402 0 .074.063.127.074.042.201.074.127.032.222.042.106.011.265.032.159.011.201.011.159.011.455.021.296 0 .434.011l.381.032q.243.021.36.053.127.032.296.085.169.053.254.138.085.085.169.201.095.116.127.275.042.169.042.37 0 .561-.497.984-.497.434-1.111.614t-1.154.18q-.836 0-1.334-.36-.487-.349-.487-.73 0-.148.095-.317.106-.159.201-.254.095-.095.36-.328.265-.222.381-.328-.55-.222-.55-.55 0-.466.942-1.154-.995-.402-.995-1.408 0-.762.54-1.238t1.312-.476q.381 0 .889.201.508.19.984.19.222 0 .519-.032zm-1.492 1.207q0-.54-.286-1.101-.275-.571-.762-.571-.825 0-.825 1.01 0 .635.254 1.175.265.529.836.529.783 0 .783-1.037zm1.101 3.598q0-.19-.116-.317-.106-.116-.349-.169-.243-.053-.434-.074-.191-.011-.529-.011-.995 0-1.598-.116-.519.571-.519.931 0 .307.37.519.37.222 1.132.222.931 0 1.482-.275.561-.265.561-.709z"/>
        </g>
      </g>
    </g>
  </g>
</svg>
