<svg xmlns="http://www.w3.org/2000/svg" width="700" height="500" viewBox="0 0 185.20834 132.29167" xmlns:xlink="http://www.w3.org/1999/xlink"><defs><path id="0" d="m 113.64 309.81 h 2.785 v 0.847 h -2.785 z" fill="#002981"/><path id="1" d="m 121.29 309.81 h 2.785 v 0.847 h -2.785 z" fill="#002981"/><path id="2" d="m 128.94 309.81 h 2.785 v 0.847 h -2.785 z" fill="#002981"/><path id="3" d="m 125.11 309.81 h 2.785 v 0.847 h -2.785 z" fill="#002981"/><path id="4" d="m 132.76 309.81 h 2.785 v 0.847 h -2.785 z" fill="#002981"/></defs><g transform="translate(0 -164.71)"><path opacity="0.95" fill="#bddae8" d="m 0 164.71 h 185.21 v 132.29 h -185.21 z"/><g aria-label="Семантическое ядро" opacity="0.95" stroke-opacity="0.941" fill="#00b6b6" stroke="#f7766f" stroke-width="0.265"><path d="m 41.27 177.51 v 0.837 q -0.754 0.305 -1.85 0.305 -1.597 0 -2.444 -1.013 -0.847 -1.013 -0.847 -2.878 0 -1.788 0.925 -2.832 0.925 -1.044 2.527 -1.044 1.137 0 1.979 0.444 l -0.403 0.806 q -0.796 -0.403 -1.576 -0.403 -1.111 0 -1.773 0.822 -0.661 0.816 -0.661 2.217 0 1.483 0.62 2.263 0.62 0.775 1.814 0.775 0.672 0 1.69 -0.3 z"/><path d="m 47.47 175.89 h -4 q 0.041 1.938 1.778 1.938 1.01 0 1.912 -0.393 v 0.827 q -0.858 0.388 -1.881 0.388 -1.266 0 -2.026 -0.77 -0.76 -0.775 -0.76 -2.129 0 -1.375 0.698 -2.176 0.703 -0.806 1.876 -0.806 1.096 0 1.747 0.692 0.656 0.692 0.656 1.845 z m -3.979 -0.765 h 2.961 q 0 -1.576 -1.406 -1.576 -1.421 0 -1.555 1.576 z"/><path d="m 53.906 178.55 h -0.78 v -4.635 q -0.041 0.14 -0.171 0.656 -0.114 0.439 -0.181 0.636 l -1.101 3.343 h -0.698 l -1.101 -3.343 q -0.041 -0.129 -0.351 -1.292 v 4.635 h -0.78 v -5.674 h 1.09 l 1.111 3.39 q 0.129 0.398 0.377 1.385 0.026 -0.067 0.274 -0.987 0.052 -0.202 0.109 -0.377 l 1.132 -3.411 h 1.07 z"/><path d="m 59.12 178.55 l -0.191 -0.785 h -0.041 q -0.398 0.501 -0.816 0.698 -0.419 0.191 -1.08 0.191 -0.842 0 -1.323 -0.444 -0.475 -0.444 -0.475 -1.245 0 -1.716 2.635 -1.798 l 1.049 -0.036 v -0.357 q 0 -1.22 -1.261 -1.22 -0.76 0 -1.695 0.424 l -0.326 -0.708 q 1.013 -0.496 1.979 -0.496 1.173 0 1.695 0.45 0.527 0.45 0.527 1.442 v 3.886 z m -0.253 -2.775 l -0.837 0.036 q -1.013 0.041 -1.437 0.32 -0.424 0.274 -0.424 0.842 0 0.92 1.034 0.92 0.76 0 1.209 -0.419 0.455 -0.424 0.455 -1.189 z"/><path d="m 62.61 172.88 v 2.351 h 2.816 v -2.351 h 0.941 v 5.674 h -0.941 v -2.527 h -2.816 v 2.527 h -0.941 v -5.674 z"/><path d="m 72.903 173.67 h -2.072 v 4.878 h -0.946 v -4.878 h -2.072 v -0.796 h 5.09 z"/><path d="m 75.25 172.88 v 3.452 l -0.067 1.302 l 2.672 -4.754 h 1.204 v 5.674 h -0.889 v -3.343 l 0.052 -1.4 l -2.656 4.744 h -1.204 v -5.674 z"/><path d="m 81.6 172.88 v 2.119 q 0 0.899 1.059 0.899 0.884 0 1.757 -0.594 v -2.424 h 0.941 v 5.674 h -0.941 v -2.527 q -0.935 0.656 -1.969 0.656 -0.827 0 -1.307 -0.45 -0.481 -0.455 -0.481 -1.173 v -2.181 z"/><path d="m 91.89 175.89 h -4 q 0.041 1.938 1.778 1.938 1.01 0 1.912 -0.393 v 0.827 q -0.858 0.388 -1.881 0.388 -1.266 0 -2.026 -0.77 -0.76 -0.775 -0.76 -2.129 0 -1.375 0.698 -2.176 0.703 -0.806 1.876 -0.806 1.096 0 1.747 0.692 0.656 0.692 0.656 1.845 z m -3.979 -0.765 h 2.961 q 0 -1.576 -1.406 -1.576 -1.421 0 -1.555 1.576 z"/><path d="m 98.05 173.08 l -0.32 0.816 q -0.775 -0.295 -1.385 -0.295 -1.917 0 -1.917 2.134 0 2.098 1.866 2.098 0.811 0 1.659 -0.32 v 0.827 q -0.692 0.315 -1.7 0.315 -1.328 0 -2.062 -0.749 -0.734 -0.754 -0.734 -2.16 0 -1.452 0.749 -2.212 0.749 -0.76 2.108 -0.76 0.92 0 1.736 0.305 z"/><path d="m 103.63 172.88 h 1.147 l -2.723 2.723 l 2.925 2.951 h -1.199 l -2.827 -2.878 v 2.878 h -0.93 v -5.674 h 0.93 v 2.754 z"/><path d="m 108.41 178.65 q -1.116 0 -1.84 -0.801 -0.718 -0.806 -0.718 -2.15 0 -1.359 0.698 -2.145 0.703 -0.785 1.891 -0.785 1.127 0 1.845 0.801 0.718 0.801 0.718 2.129 0 1.369 -0.708 2.16 -0.708 0.791 -1.886 0.791 z m 0.021 -0.78 q 1.602 0 1.602 -2.17 0 -2.15 -1.612 -2.15 -1.597 0 -1.597 2.15 0 2.17 1.607 2.17 z"/><path d="m 117.27 175.89 h -4 q 0.041 1.938 1.778 1.938 1.01 0 1.912 -0.393 v 0.827 q -0.858 0.388 -1.881 0.388 -1.266 0 -2.026 -0.77 -0.76 -0.775 -0.76 -2.129 0 -1.375 0.698 -2.176 0.703 -0.806 1.876 -0.806 1.096 0 1.747 0.692 0.656 0.692 0.656 1.845 z m -3.979 -0.765 h 2.961 q 0 -1.576 -1.406 -1.576 -1.421 0 -1.555 1.576 z"/><path d="m 125.92 178.55 h -1.023 l 1.504 -2.382 q -1.209 -0.346 -1.209 -1.628 0 -0.775 0.527 -1.22 0.527 -0.444 1.421 -0.444 h 2.506 v 5.674 h -0.941 v -2.232 h -1.473 z m 2.785 -3.03 v -1.85 h -1.524 q -1.09 0 -1.09 0.889 0 0.961 1.23 0.961 z"/><path d="m 136.47 180.52 h -0.91 v -1.969 h -3.84 v 1.969 h -0.91 v -2.765 h 0.444 q 1.354 -2.01 1.375 -4.878 h 3.059 v 4.878 h 0.78 z m -1.721 -2.765 v -4.155 h -1.292 q -0.186 2.486 -1.209 4.155 z"/><path d="m 138.75 177.83 h -0.062 q 0.062 0.667 0.062 0.837 v 2.424 h -0.941 v -8.217 h 0.76 l 0.14 0.765 h 0.041 q 0.568 -0.868 1.664 -0.868 1.039 0 1.628 0.775 0.594 0.77 0.594 2.155 0 1.395 -0.594 2.176 -0.594 0.775 -1.628 0.775 -1.07 0 -1.664 -0.822 z m 0 -2.341 v 0.212 q 0 1.173 0.357 1.674 0.362 0.496 1.147 0.496 1.406 0 1.406 -2.181 0 -2.139 -1.416 -2.139 -0.785 0 -1.132 0.455 -0.341 0.455 -0.362 1.483 z"/><path d="m 146.49 178.65 q -1.116 0 -1.84 -0.801 -0.718 -0.806 -0.718 -2.15 0 -1.359 0.698 -2.145 0.703 -0.785 1.891 -0.785 1.127 0 1.845 0.801 0.718 0.801 0.718 2.129 0 1.369 -0.708 2.16 -0.708 0.791 -1.886 0.791 z m 0.021 -0.78 q 1.602 0 1.602 -2.17 0 -2.15 -1.612 -2.15 -1.597 0 -1.597 2.15 0 2.17 1.607 2.17 z"/></g><g transform="translate(-32.506)" stroke="#6a73ac"><circle cx="92.6" cy="240.61" r="49.61" opacity="0.95" fill="#f7766f" fill-opacity="0.941" stroke-width="0.261"/><circle cx="92.6" cy="240.61" r="37.952" opacity="0.95" fill="#6a73ac" stroke-width="0.3"/><circle cx="92.6" cy="240.61" r="26.512" opacity="0.95" fill="#fff" stroke-width="0.21"/></g><g><g transform="translate(5.821 3.741)"><ellipse cx="142.72" cy="236.86" rx="28.825" ry="13.996" opacity="0.9" fill="#6a73ac" stroke="#324772" stroke-width="0.445"/><g transform="translate(-0.573 -0.401)" fill="#fff" stroke-width="0.265"><g aria-label="среднечастотные "><path d="m 120.6 234.38 l -0.171 0.435 q -0.413 -0.157 -0.739 -0.157 -1.022 0 -1.022 1.138 0 1.119 0.995 1.119 0.433 0 0.885 -0.171 v 0.441 q -0.369 0.168 -0.907 0.168 -0.708 0 -1.1 -0.4 -0.391 -0.402 -0.391 -1.152 0 -0.774 0.4 -1.18 0.4 -0.405 1.124 -0.405 0.491 0 0.926 0.163 z"/><path d="m 122 236.91 h -0.033 q 0.033 0.356 0.033 0.446 v 1.293 h -0.502 v -4.382 h 0.405 l 0.074 0.408 h 0.022 q 0.303 -0.463 0.887 -0.463 0.554 0 0.868 0.413 0.317 0.411 0.317 1.149 0 0.744 -0.317 1.16 -0.317 0.413 -0.868 0.413 -0.57 0 -0.887 -0.438 z m 0 -1.249 v 0.113 q 0 0.626 0.19 0.893 0.193 0.265 0.612 0.265 0.75 0 0.75 -1.163 0 -1.141 -0.755 -1.141 -0.419 0 -0.604 0.243 -0.182 0.243 -0.193 0.791 z"/><path d="m 127.46 235.88 h -2.133 q 0.022 1.034 0.948 1.034 0.537 0 1.02 -0.209 v 0.441 q -0.458 0.207 -1 0.207 -0.675 0 -1.08 -0.411 -0.405 -0.413 -0.405 -1.136 0 -0.733 0.372 -1.16 0.375 -0.43 1 -0.43 0.584 0 0.932 0.369 0.35 0.369 0.35 0.984 z m -2.122 -0.408 h 1.579 q 0 -0.841 -0.75 -0.841 -0.758 0 -0.83 0.841 z"/><path d="m 130.94 238.35 h -0.485 v -1.05 h -2.048 v 1.05 h -0.485 v -1.475 h 0.237 q 0.722 -1.072 0.733 -2.602 h 1.632 v 2.602 h 0.416 z m -0.918 -1.475 v -2.216 h -0.689 q -0.099 1.326 -0.645 2.216 z"/><path d="m 132.16 234.27 v 1.254 h 1.502 v -1.254 h 0.502 v 3.03 h -0.502 v -1.348 h -1.502 v 1.348 h -0.502 v -3.03 z"/><path d="m 137.62 235.88 h -2.133 q 0.022 1.034 0.948 1.034 0.537 0 1.02 -0.209 v 0.441 q -0.458 0.207 -1 0.207 -0.675 0 -1.08 -0.411 -0.405 -0.413 -0.405 -1.136 0 -0.733 0.372 -1.16 0.375 -0.43 1 -0.43 0.584 0 0.932 0.369 0.35 0.369 0.35 0.984 z m -2.122 -0.408 h 1.579 q 0 -0.841 -0.75 -0.841 -0.758 0 -0.83 0.841 z"/><path d="m 138.9 234.27 v 1.13 q 0 0.48 0.565 0.48 0.471 0 0.937 -0.317 v -1.293 h 0.502 v 3.03 h -0.502 v -1.348 q -0.499 0.35 -1.05 0.35 -0.441 0 -0.697 -0.24 -0.256 -0.243 -0.256 -0.626 v -1.163 z"/><path d="m 143.83 237.3 l -0.102 -0.419 h -0.022 q -0.212 0.267 -0.435 0.372 -0.223 0.102 -0.576 0.102 -0.449 0 -0.706 -0.237 -0.254 -0.237 -0.254 -0.664 0 -0.915 1.406 -0.959 l 0.559 -0.019 v -0.19 q 0 -0.65 -0.672 -0.65 -0.405 0 -0.904 0.226 l -0.174 -0.378 q 0.54 -0.265 1.056 -0.265 0.626 0 0.904 0.24 0.281 0.24 0.281 0.769 v 2.073 z m -0.135 -1.48 l -0.446 0.019 q -0.54 0.022 -0.766 0.171 -0.226 0.146 -0.226 0.449 0 0.491 0.551 0.491 0.405 0 0.645 -0.223 0.243 -0.226 0.243 -0.634 z"/><path d="m 147.67 234.38 l -0.171 0.435 q -0.413 -0.157 -0.739 -0.157 -1.023 0 -1.023 1.138 0 1.119 0.995 1.119 0.433 0 0.885 -0.171 v 0.441 q -0.369 0.168 -0.907 0.168 -0.708 0 -1.1 -0.4 -0.391 -0.402 -0.391 -1.152 0 -0.774 0.4 -1.18 0.4 -0.405 1.124 -0.405 0.491 0 0.926 0.163 z"/><path d="m 151.18 234.69 h -1.105 v 2.602 h -0.504 v -2.602 h -1.105 v -0.424 h 2.715 z"/><path d="m 153.2 237.35 q -0.595 0 -0.981 -0.427 -0.383 -0.43 -0.383 -1.147 0 -0.725 0.372 -1.144 0.375 -0.419 1.01 -0.419 0.601 0 0.984 0.427 0.383 0.427 0.383 1.136 0 0.73 -0.378 1.152 -0.378 0.422 -1.01 0.422 z m 0.011 -0.416 q 0.854 0 0.854 -1.158 0 -1.147 -0.86 -1.147 -0.852 0 -0.852 1.147 0 1.158 0.857 1.158 z"/><path d="m 157.95 234.69 h -1.105 v 2.602 h -0.504 v -2.602 h -1.105 v -0.424 h 2.715 z"/><path d="m 159.23 234.27 v 1.254 h 1.502 v -1.254 h 0.502 v 3.03 h -0.502 v -1.348 h -1.502 v 1.348 h -0.502 v -3.03 z"/><path d="m 162.43 235.51 h 0.369 q 1.144 0 1.144 0.857 0 0.926 -1.158 0.926 h -0.799 v -3.03 h 0.444 z m 0 0.422 v 0.948 h 0.38 q 0.7 0 0.7 -0.474 0 -0.248 -0.163 -0.361 -0.163 -0.113 -0.548 -0.113 z m 2.315 1.362 h -0.446 v -3.03 h 0.446 z"/><path d="m 168.08 235.88 h -2.133 q 0.022 1.034 0.948 1.034 0.537 0 1.02 -0.209 v 0.441 q -0.458 0.207 -1 0.207 -0.675 0 -1.08 -0.411 -0.405 -0.413 -0.405 -1.136 0 -0.733 0.372 -1.16 0.375 -0.43 1 -0.43 0.584 0 0.932 0.369 0.35 0.369 0.35 0.984 z m -2.122 -0.408 h 1.579 q 0 -0.841 -0.75 -0.841 -0.758 0 -0.83 0.841 z"/></g><g aria-label="
запросы"><path d="m 132.72 241.41 q 0.474 0 0.672 -0.107 0.201 -0.11 0.201 -0.35 0 -0.424 -0.689 -0.424 -0.369 0 -0.852 0.198 l -0.174 -0.405 q 0.441 -0.209 1.02 -0.209 0.565 0 0.868 0.207 0.306 0.204 0.306 0.59 0 0.513 -0.529 0.67 v 0.03 q 0.626 0.179 0.626 0.75 0 0.416 -0.333 0.653 -0.331 0.237 -0.948 0.237 -0.648 0 -0.998 -0.19 v -0.458 q 0.496 0.237 1.01 0.237 0.78 0 0.78 -0.496 0 -0.51 -0.857 -0.51 h -0.413 v -0.422 z"/><path d="m 137.18 243.19 l -0.102 -0.419 h -0.022 q -0.212 0.267 -0.435 0.372 -0.223 0.102 -0.576 0.102 -0.449 0 -0.706 -0.237 -0.254 -0.237 -0.254 -0.664 0 -0.915 1.406 -0.959 l 0.559 -0.019 v -0.19 q 0 -0.65 -0.672 -0.65 -0.405 0 -0.904 0.226 l -0.174 -0.378 q 0.54 -0.265 1.056 -0.265 0.626 0 0.904 0.24 0.281 0.24 0.281 0.769 v 2.073 z m -0.135 -1.48 l -0.446 0.019 q -0.54 0.022 -0.766 0.171 -0.226 0.146 -0.226 0.449 0 0.491 0.551 0.491 0.405 0 0.645 -0.223 0.243 -0.226 0.243 -0.634 z"/><path d="m 139.04 243.19 h -0.502 v -3.03 h 2.505 v 3.03 h -0.502 v -2.602 h -1.502 z"/><path d="m 142.42 242.81 h -0.033 q 0.033 0.356 0.033 0.446 v 1.293 h -0.502 v -4.382 h 0.405 l 0.074 0.408 h 0.022 q 0.303 -0.463 0.887 -0.463 0.554 0 0.868 0.413 0.317 0.411 0.317 1.149 0 0.744 -0.317 1.16 -0.317 0.413 -0.868 0.413 -0.571 0 -0.887 -0.438 z m 0 -1.249 v 0.113 q 0 0.626 0.19 0.893 0.193 0.265 0.612 0.265 0.75 0 0.75 -1.163 0 -1.141 -0.755 -1.141 -0.419 0 -0.604 0.243 -0.182 0.243 -0.193 0.791 z"/><path d="m 146.55 243.25 q -0.595 0 -0.981 -0.427 -0.383 -0.43 -0.383 -1.147 0 -0.725 0.372 -1.144 0.375 -0.419 1.01 -0.419 0.601 0 0.984 0.427 0.383 0.427 0.383 1.136 0 0.73 -0.378 1.152 -0.378 0.422 -1.01 0.422 z m 0.011 -0.416 q 0.854 0 0.854 -1.158 0 -1.147 -0.86 -1.147 -0.852 0 -0.852 1.147 0 1.158 0.857 1.158 z"/><path d="m 151.18 240.27 l -0.171 0.435 q -0.413 -0.157 -0.739 -0.157 -1.023 0 -1.023 1.138 0 1.119 0.995 1.119 0.433 0 0.885 -0.171 v 0.441 q -0.369 0.168 -0.907 0.168 -0.708 0 -1.1 -0.4 -0.391 -0.402 -0.391 -1.152 0 -0.774 0.4 -1.18 0.4 -0.405 1.124 -0.405 0.491 0 0.926 0.163 z"/><path d="m 152.39 241.41 h 0.369 q 1.144 0 1.144 0.857 0 0.926 -1.158 0.926 h -0.799 v -3.03 h 0.444 z m 0 0.422 v 0.948 h 0.38 q 0.7 0 0.7 -0.474 0 -0.248 -0.163 -0.361 -0.163 -0.113 -0.548 -0.113 z m 2.315 1.362 h -0.446 v -3.03 h 0.446 z"/></g></g></g><g transform="translate(-18.348 -69.63)"><path d="m 109.82 309.81 h 2.785 v 0.847 h -2.785 z" fill="#002981" id="5"/><use xlink:href="#0"/><path d="m 117.47 309.81 h 2.785 v 0.847 h -2.785 z" fill="#002981"/><use xlink:href="#1"/><path d="m 125.11 309.81 h 2.785 v 0.847 h -2.785 z" fill="#002981"/><use xlink:href="#2"/><g fill="#002981"><path d="m 132.76 309.81 h 2.785 v 0.847 h -2.785 z"/><circle cx="138.03" cy="310.23" r="1.11" opacity="0.95"/></g></g></g><g><g transform="translate(3.95 2.381)"><ellipse cx="144.59" cy="273.75" rx="28.825" ry="13.996" opacity="0.9" fill="#6a73ac" stroke="#324772" stroke-width="0.445"/><g transform="translate(0.739 -1.058)" fill="#fff" stroke-width="0.265"><g aria-label="низкочастотные"><path d="m 121.07 271.79 v 1.254 h 1.502 v -1.254 h 0.502 v 3.03 h -0.502 v -1.348 h -1.502 v 1.348 h -0.502 v -3.03 z"/><path d="m 124.42 271.79 v 1.841 l -0.036 0.695 l 1.425 -2.536 h 0.642 v 3.03 h -0.474 v -1.783 l 0.028 -0.747 l -1.417 2.53 h -0.642 v -3.03 z"/><path d="m 128.29 273.03 q 0.474 0 0.672 -0.107 0.201 -0.11 0.201 -0.35 0 -0.424 -0.689 -0.424 -0.369 0 -0.852 0.198 l -0.174 -0.405 q 0.441 -0.209 1.02 -0.209 0.565 0 0.868 0.207 0.306 0.204 0.306 0.59 0 0.513 -0.529 0.67 v 0.03 q 0.626 0.179 0.626 0.75 0 0.416 -0.333 0.653 -0.331 0.237 -0.948 0.237 -0.648 0 -0.998 -0.19 v -0.458 q 0.496 0.237 1.01 0.237 0.78 0 0.78 -0.496 0 -0.51 -0.857 -0.51 h -0.413 v -0.422 z"/><path d="m 132.79 271.79 h 0.612 l -1.452 1.452 l 1.56 1.574 h -0.639 l -1.508 -1.535 v 1.535 h -0.496 v -3.03 h 0.496 v 1.469 z"/><path d="m 135.34 274.87 q -0.595 0 -0.981 -0.427 -0.383 -0.43 -0.383 -1.147 0 -0.725 0.372 -1.144 0.375 -0.419 1.01 -0.419 0.601 0 0.984 0.427 0.383 0.427 0.383 1.136 0 0.73 -0.378 1.152 -0.378 0.422 -1.01 0.422 z m 0.011 -0.416 q 0.854 0 0.854 -1.158 0 -1.147 -0.86 -1.147 -0.852 0 -0.852 1.147 0 1.158 0.857 1.158 z"/><path d="m 137.97 271.79 v 1.13 q 0 0.48 0.565 0.48 0.471 0 0.937 -0.317 v -1.293 h 0.502 v 3.03 h -0.502 v -1.348 q -0.499 0.35 -1.05 0.35 -0.441 0 -0.697 -0.24 -0.256 -0.243 -0.256 -0.626 v -1.163 z"/><path d="m 142.9 274.81 l -0.102 -0.419 h -0.022 q -0.212 0.267 -0.435 0.372 -0.223 0.102 -0.576 0.102 -0.449 0 -0.706 -0.237 -0.254 -0.237 -0.254 -0.664 0 -0.915 1.406 -0.959 l 0.559 -0.019 v -0.19 q 0 -0.65 -0.672 -0.65 -0.405 0 -0.904 0.226 l -0.174 -0.378 q 0.54 -0.265 1.056 -0.265 0.626 0 0.904 0.24 0.281 0.24 0.281 0.769 v 2.073 z m -0.135 -1.48 l -0.446 0.019 q -0.54 0.022 -0.766 0.171 -0.226 0.146 -0.226 0.449 0 0.491 0.551 0.491 0.405 0 0.645 -0.223 0.243 -0.226 0.243 -0.634 z"/><path d="m 146.74 271.9 l -0.171 0.435 q -0.413 -0.157 -0.739 -0.157 -1.023 0 -1.023 1.138 0 1.119 0.995 1.119 0.433 0 0.885 -0.171 v 0.441 q -0.369 0.168 -0.907 0.168 -0.708 0 -1.1 -0.4 -0.391 -0.402 -0.391 -1.152 0 -0.774 0.4 -1.18 0.4 -0.405 1.124 -0.405 0.491 0 0.926 0.163 z"/><path d="m 150.25 272.21 h -1.105 v 2.602 h -0.504 v -2.602 h -1.105 v -0.424 h 2.715 z"/><path d="m 152.26 274.87 q -0.595 0 -0.981 -0.427 -0.383 -0.43 -0.383 -1.147 0 -0.725 0.372 -1.144 0.375 -0.419 1.01 -0.419 0.601 0 0.984 0.427 0.383 0.427 0.383 1.136 0 0.73 -0.378 1.152 -0.378 0.422 -1.01 0.422 z m 0.011 -0.416 q 0.854 0 0.854 -1.158 0 -1.147 -0.86 -1.147 -0.852 0 -0.852 1.147 0 1.158 0.857 1.158 z"/><path d="m 157.02 272.21 h -1.105 v 2.602 h -0.504 v -2.602 h -1.105 v -0.424 h 2.715 z"/><path d="m 158.3 271.79 v 1.254 h 1.502 v -1.254 h 0.502 v 3.03 h -0.502 v -1.348 h -1.502 v 1.348 h -0.502 v -3.03 z"/><path d="m 161.49 273.03 h 0.369 q 1.144 0 1.144 0.857 0 0.926 -1.158 0.926 h -0.799 v -3.03 h 0.444 z m 0 0.422 v 0.948 h 0.38 q 0.7 0 0.7 -0.474 0 -0.248 -0.163 -0.361 -0.163 -0.113 -0.548 -0.113 z m 2.315 1.361 h -0.446 v -3.03 h 0.446 z"/><path d="m 167.14 273.4 h -2.133 q 0.022 1.034 0.948 1.034 0.537 0 1.02 -0.209 v 0.441 q -0.458 0.207 -1 0.207 -0.675 0 -1.08 -0.411 -0.405 -0.413 -0.405 -1.135 0 -0.733 0.372 -1.16 0.375 -0.43 1 -0.43 0.584 0 0.932 0.369 0.35 0.369 0.35 0.984 z m -2.122 -0.408 h 1.579 q 0 -0.841 -0.75 -0.841 -0.758 0 -0.83 0.841 z"/></g><g aria-label="
запросы"><path d="m 133.28 278.93 q 0.474 0 0.672 -0.107 0.201 -0.11 0.201 -0.35 0 -0.424 -0.689 -0.424 -0.369 0 -0.852 0.198 l -0.174 -0.405 q 0.441 -0.209 1.02 -0.209 0.565 0 0.868 0.207 0.306 0.204 0.306 0.59 0 0.513 -0.529 0.67 v 0.03 q 0.626 0.179 0.626 0.75 0 0.416 -0.333 0.653 -0.331 0.237 -0.948 0.237 -0.648 0 -0.998 -0.19 v -0.458 q 0.496 0.237 1.01 0.237 0.78 0 0.78 -0.496 0 -0.51 -0.857 -0.51 h -0.413 v -0.422 z"/><path d="m 137.74 280.71 l -0.102 -0.419 h -0.022 q -0.212 0.267 -0.435 0.372 -0.223 0.102 -0.576 0.102 -0.449 0 -0.706 -0.237 -0.254 -0.237 -0.254 -0.664 0 -0.915 1.406 -0.959 l 0.559 -0.019 v -0.19 q 0 -0.65 -0.672 -0.65 -0.405 0 -0.904 0.226 l -0.174 -0.378 q 0.54 -0.265 1.056 -0.265 0.626 0 0.904 0.24 0.281 0.24 0.281 0.769 v 2.073 z m -0.135 -1.48 l -0.446 0.019 q -0.54 0.022 -0.766 0.171 -0.226 0.146 -0.226 0.449 0 0.491 0.551 0.491 0.405 0 0.645 -0.223 0.243 -0.226 0.243 -0.634 z"/><path d="m 139.6 280.71 h -0.502 v -3.03 h 2.505 v 3.03 h -0.502 v -2.602 h -1.502 z"/><path d="m 142.98 280.33 h -0.033 q 0.033 0.356 0.033 0.446 v 1.293 h -0.502 v -4.382 h 0.405 l 0.074 0.408 h 0.022 q 0.303 -0.463 0.887 -0.463 0.554 0 0.868 0.413 0.317 0.411 0.317 1.149 0 0.744 -0.317 1.16 -0.317 0.413 -0.868 0.413 -0.571 0 -0.887 -0.438 z m 0 -1.248 v 0.113 q 0 0.626 0.19 0.893 0.193 0.265 0.612 0.265 0.75 0 0.75 -1.163 0 -1.141 -0.755 -1.141 -0.419 0 -0.604 0.243 -0.182 0.243 -0.193 0.791 z"/><path d="m 147.11 280.77 q -0.595 0 -0.981 -0.427 -0.383 -0.43 -0.383 -1.147 0 -0.725 0.372 -1.144 0.375 -0.419 1.01 -0.419 0.601 0 0.984 0.427 0.383 0.427 0.383 1.136 0 0.73 -0.378 1.152 -0.378 0.422 -1.01 0.422 z m 0.011 -0.416 q 0.854 0 0.854 -1.158 0 -1.147 -0.86 -1.147 -0.852 0 -0.852 1.147 0 1.158 0.857 1.158 z"/><path d="m 151.73 277.79 l -0.171 0.435 q -0.413 -0.157 -0.739 -0.157 -1.023 0 -1.023 1.138 0 1.119 0.995 1.119 0.433 0 0.885 -0.171 v 0.441 q -0.369 0.168 -0.907 0.168 -0.708 0 -1.1 -0.4 -0.391 -0.402 -0.391 -1.152 0 -0.774 0.4 -1.18 0.4 -0.405 1.124 -0.405 0.491 0 0.926 0.163 z"/><path d="m 152.95 278.93 h 0.369 q 1.144 0 1.144 0.857 0 0.926 -1.158 0.926 h -0.799 v -3.03 h 0.444 z m 0 0.422 v 0.948 h 0.38 q 0.7 0 0.7 -0.474 0 -0.248 -0.163 -0.361 -0.163 -0.113 -0.548 -0.113 z m 2.315 1.361 h -0.446 v -3.03 h 0.446 z"/></g></g></g><g><g transform="translate(-18.348 -34.1)"><use xlink:href="#3"/><use xlink:href="#2"/><g fill="#002981"><path d="m 132.76 309.81 h 2.785 v 0.847 h -2.785 z"/><circle r="1.11" cy="310.23" cx="138.03" opacity="0.95"/></g></g><g transform="matrix(0.70711 0.70711 0.70711 -0.70711 -209.28 399)"><use xlink:href="#1"/><use xlink:href="#3"/><use xlink:href="#2"/><use xlink:href="#4"/></g></g></g><g><g transform="translate(7.291 8.977)"><ellipse cx="141.25" cy="196.11" rx="28.825" ry="13.996" opacity="0.9" fill="#6a73ac" stroke="#324772" stroke-width="0.445"/><g transform="translate(-0.7)" fill="#fff" stroke-width="0.265"><g aria-label="высокочастотные "><path d="m 118.65 194.48 v 0.019 q 0.728 0.096 0.728 0.711 0 0.411 -0.292 0.642 -0.292 0.232 -0.865 0.232 h -1.411 v -3.03 h 1.406 q 1.067 0 1.067 0.763 0 0.543 -0.631 0.659 z m -1.339 -0.998 v 0.819 h 0.808 q 0.369 0 0.526 -0.099 0.157 -0.099 0.157 -0.331 0 -0.389 -0.598 -0.389 z m 0 1.24 v 0.948 h 0.876 q 0.7 0 0.7 -0.496 0 -0.254 -0.179 -0.353 -0.179 -0.099 -0.532 -0.099 z"/><path d="m 120.47 194.3 h 0.369 q 1.144 0 1.144 0.857 0 0.926 -1.158 0.926 h -0.799 v -3.03 h 0.444 z m 0 0.422 v 0.948 h 0.38 q 0.7 0 0.7 -0.474 0 -0.248 -0.163 -0.361 -0.163 -0.113 -0.548 -0.113 z m 2.315 1.362 h -0.446 v -3.03 h 0.446 z"/><path d="m 126.02 193.16 l -0.171 0.435 q -0.413 -0.157 -0.739 -0.157 -1.023 0 -1.023 1.138 0 1.119 0.995 1.119 0.433 0 0.885 -0.171 v 0.441 q -0.369 0.168 -0.907 0.168 -0.708 0 -1.1 -0.4 -0.391 -0.402 -0.391 -1.152 0 -0.774 0.4 -1.18 0.4 -0.405 1.124 -0.405 0.491 0 0.926 0.163 z"/><path d="m 128.16 196.14 q -0.595 0 -0.981 -0.427 -0.383 -0.43 -0.383 -1.147 0 -0.725 0.372 -1.144 0.375 -0.419 1.01 -0.419 0.601 0 0.984 0.427 0.383 0.427 0.383 1.136 0 0.73 -0.378 1.152 -0.378 0.422 -1.01 0.422 z m 0.011 -0.416 q 0.854 0 0.854 -1.158 0 -1.147 -0.86 -1.147 -0.852 0 -0.852 1.147 0 1.158 0.857 1.158 z"/><path d="m 132.38 193.05 h 0.612 l -1.452 1.452 l 1.56 1.574 h -0.639 l -1.508 -1.535 v 1.535 h -0.496 v -3.03 h 0.496 v 1.469 z"/><path d="m 134.93 196.14 q -0.595 0 -0.981 -0.427 -0.383 -0.43 -0.383 -1.147 0 -0.725 0.372 -1.144 0.375 -0.419 1.01 -0.419 0.601 0 0.984 0.427 0.383 0.427 0.383 1.136 0 0.73 -0.378 1.152 -0.378 0.422 -1.01 0.422 z m 0.011 -0.416 q 0.854 0 0.854 -1.158 0 -1.147 -0.86 -1.147 -0.852 0 -0.852 1.147 0 1.158 0.857 1.158 z"/><path d="m 137.55 193.05 v 1.13 q 0 0.48 0.565 0.48 0.471 0 0.937 -0.317 v -1.293 h 0.502 v 3.03 h -0.502 v -1.348 q -0.499 0.35 -1.05 0.35 -0.441 0 -0.697 -0.24 -0.256 -0.243 -0.256 -0.626 v -1.163 z"/><path d="m 142.48 196.08 l -0.102 -0.419 h -0.022 q -0.212 0.267 -0.435 0.372 -0.223 0.102 -0.576 0.102 -0.449 0 -0.706 -0.237 -0.254 -0.237 -0.254 -0.664 0 -0.915 1.406 -0.959 l 0.559 -0.019 v -0.19 q 0 -0.65 -0.672 -0.65 -0.405 0 -0.904 0.226 l -0.174 -0.378 q 0.54 -0.265 1.056 -0.265 0.626 0 0.904 0.24 0.281 0.24 0.281 0.769 v 2.073 z m -0.135 -1.48 l -0.446 0.019 q -0.54 0.022 -0.766 0.171 -0.226 0.146 -0.226 0.449 0 0.491 0.551 0.491 0.405 0 0.645 -0.223 0.243 -0.226 0.243 -0.634 z"/><path d="m 146.33 193.16 l -0.171 0.435 q -0.413 -0.157 -0.739 -0.157 -1.023 0 -1.023 1.138 0 1.119 0.995 1.119 0.433 0 0.885 -0.171 v 0.441 q -0.369 0.168 -0.907 0.168 -0.708 0 -1.1 -0.4 -0.391 -0.402 -0.391 -1.152 0 -0.774 0.4 -1.18 0.4 -0.405 1.124 -0.405 0.491 0 0.926 0.163 z"/><path d="m 149.83 193.48 h -1.105 v 2.602 h -0.504 v -2.602 h -1.105 v -0.424 h 2.715 z"/><path d="m 151.85 196.14 q -0.595 0 -0.981 -0.427 -0.383 -0.43 -0.383 -1.147 0 -0.725 0.372 -1.144 0.375 -0.419 1.01 -0.419 0.601 0 0.984 0.427 0.383 0.427 0.383 1.136 0 0.73 -0.378 1.152 -0.378 0.422 -1.01 0.422 z m 0.011 -0.416 q 0.854 0 0.854 -1.158 0 -1.147 -0.86 -1.147 -0.852 0 -0.852 1.147 0 1.158 0.857 1.158 z"/><path d="m 156.6 193.48 h -1.105 v 2.602 h -0.504 v -2.602 h -1.105 v -0.424 h 2.715 z"/><path d="m 157.88 193.05 v 1.254 h 1.502 v -1.254 h 0.502 v 3.03 h -0.502 v -1.348 h -1.502 v 1.348 h -0.502 v -3.03 z"/><path d="m 161.08 194.3 h 0.369 q 1.144 0 1.144 0.857 0 0.926 -1.158 0.926 h -0.799 v -3.03 h 0.444 z m 0 0.422 v 0.948 h 0.38 q 0.7 0 0.7 -0.474 0 -0.248 -0.163 -0.361 -0.163 -0.113 -0.548 -0.113 z m 2.315 1.362 h -0.446 v -3.03 h 0.446 z"/><path d="m 166.73 194.66 h -2.133 q 0.022 1.034 0.948 1.034 0.537 0 1.02 -0.209 v 0.441 q -0.458 0.207 -1 0.207 -0.675 0 -1.08 -0.411 -0.405 -0.413 -0.405 -1.136 0 -0.733 0.372 -1.16 0.375 -0.43 1 -0.43 0.584 0 0.932 0.369 0.35 0.369 0.35 0.984 z m -2.122 -0.408 h 1.579 q 0 -0.841 -0.75 -0.841 -0.758 0 -0.83 0.841 z"/></g><g aria-label="
запросы"><path d="m 131.38 200.19 q 0.474 0 0.672 -0.107 0.201 -0.11 0.201 -0.35 0 -0.424 -0.689 -0.424 -0.369 0 -0.852 0.198 l -0.174 -0.405 q 0.441 -0.209 1.02 -0.209 0.565 0 0.868 0.207 0.306 0.204 0.306 0.59 0 0.513 -0.529 0.67 v 0.03 q 0.626 0.179 0.626 0.75 0 0.416 -0.333 0.653 -0.331 0.237 -0.948 0.237 -0.648 0 -0.998 -0.19 v -0.458 q 0.496 0.237 1.01 0.237 0.78 0 0.78 -0.496 0 -0.51 -0.857 -0.51 h -0.413 v -0.422 z"/><path d="m 135.84 201.98 l -0.102 -0.419 h -0.022 q -0.212 0.267 -0.435 0.372 -0.223 0.102 -0.576 0.102 -0.449 0 -0.706 -0.237 -0.254 -0.237 -0.254 -0.664 0 -0.915 1.406 -0.959 l 0.559 -0.019 v -0.19 q 0 -0.65 -0.672 -0.65 -0.405 0 -0.904 0.226 l -0.174 -0.378 q 0.54 -0.265 1.056 -0.265 0.626 0 0.904 0.24 0.281 0.24 0.281 0.769 v 2.073 z m -0.135 -1.48 l -0.446 0.019 q -0.54 0.022 -0.766 0.171 -0.226 0.146 -0.226 0.449 0 0.491 0.551 0.491 0.405 0 0.645 -0.223 0.243 -0.226 0.243 -0.634 z"/><path d="m 137.7 201.98 h -0.502 v -3.03 h 2.505 v 3.03 h -0.502 v -2.602 h -1.502 z"/><path d="m 141.08 201.59 h -0.033 q 0.033 0.356 0.033 0.446 v 1.293 h -0.502 v -4.382 h 0.405 l 0.074 0.408 h 0.022 q 0.303 -0.463 0.887 -0.463 0.554 0 0.868 0.413 0.317 0.411 0.317 1.149 0 0.744 -0.317 1.16 -0.317 0.413 -0.868 0.413 -0.571 0 -0.887 -0.438 z m 0 -1.249 v 0.113 q 0 0.626 0.19 0.893 0.193 0.265 0.612 0.265 0.75 0 0.75 -1.163 0 -1.141 -0.755 -1.141 -0.419 0 -0.604 0.243 -0.182 0.243 -0.193 0.791 z"/><path d="m 145.21 202.03 q -0.595 0 -0.981 -0.427 -0.383 -0.43 -0.383 -1.147 0 -0.725 0.372 -1.144 0.375 -0.419 1.01 -0.419 0.601 0 0.984 0.427 0.383 0.427 0.383 1.136 0 0.73 -0.378 1.152 -0.378 0.422 -1.01 0.422 z m 0.011 -0.416 q 0.854 0 0.854 -1.158 0 -1.147 -0.86 -1.147 -0.852 0 -0.852 1.147 0 1.158 0.857 1.158 z"/><path d="m 149.83 199.06 l -0.171 0.435 q -0.413 -0.157 -0.739 -0.157 -1.023 0 -1.023 1.138 0 1.119 0.995 1.119 0.433 0 0.885 -0.171 v 0.441 q -0.369 0.168 -0.907 0.168 -0.708 0 -1.1 -0.4 -0.391 -0.402 -0.391 -1.152 0 -0.774 0.4 -1.18 0.4 -0.405 1.124 -0.405 0.491 0 0.926 0.163 z"/><path d="m 151.05 200.19 h 0.369 q 1.144 0 1.144 0.857 0 0.926 -1.158 0.926 h -0.799 v -3.03 h 0.444 z m 0 0.422 v 0.948 h 0.38 q 0.7 0 0.7 -0.474 0 -0.248 -0.163 -0.361 -0.163 -0.113 -0.548 -0.113 z m 2.315 1.362 h -0.446 v -3.03 h 0.446 z"/></g></g></g><g><g transform="translate(-18.348 -105.15)"><use xlink:href="#0"/><path d="m 117.47 309.81 h 2.785 v 0.847 h -2.785 z" fill="#002981"/><use xlink:href="#1"/><use xlink:href="#3"/><use xlink:href="#2"/><use xlink:href="#4"/><circle r="1.11" cy="310.23" cx="138.03" opacity="0.95" fill="#002981"/></g><g transform="translate(7.408)"><g transform="matrix(0.70711 -0.70711 0.70711 0.70711 -228.4 82.22)"><path d="m 105.99 309.81 h 2.785 v 0.847 h -2.785 z" fill="#002981"/><use xlink:href="#5"/><use xlink:href="#0"/><path d="m 117.47 309.81 h 2.785 v 0.847 h -2.785 z" fill="#002981" id="6"/><use xlink:href="#1"/><use xlink:href="#3"/><use xlink:href="#2"/><use xlink:href="#4"/></g><g transform="matrix(0.70711 -0.70711 0.70711 0.70711 -249.75 103.71)"><use xlink:href="#6"/><use xlink:href="#1"/><use xlink:href="#3"/><use xlink:href="#2"/><use xlink:href="#4"/></g></g></g></g></g></svg>