<svg xmlns="http://www.w3.org/2000/svg" width="700" height="500" viewBox="0 0 185.20834 132.29167" xmlns:xlink="http://www.w3.org/1999/xlink"><defs><path id="0" d="m 160.2 223.88 h 2.785 v 0.847 h -2.785 z" fill="#002981"/><path id="1" d="m 167.85 223.88 h 2.785 v 0.847 h -2.785 z" fill="#002981"/><path id="2" d="m 175.5 223.88 h 2.785 v 0.847 h -2.785 z" fill="#002981"/></defs><g transform="translate(0 -164.71)"><g><path opacity="0.95" fill="#bddae8" d="m 0 164.71 h 185.21 v 132.29 h -185.21 z"/><ellipse cx="92.6" cy="230.85" rx="52.629" ry="33.03" opacity="0.97" fill="#f7766f" fill-opacity="0.941"/><g fill="#f3f0cf"><path opacity="0.96" stroke="#6779a9" stroke-width="0.1" d="M 67.7481,188.358 H117.46 V273.35 H67.7481 z"/><path opacity="0.96" stroke="#4944ce" stroke-width="0.118" d="m 70.974 198.31 h 16.519 v 14.581 h -16.519 z"/></g><g fill="#829a9a"><path opacity="0.96" d="m 72 207.5 h 14.458 v 1.607 h -14.458 z"/><path opacity="0.96" d="m 72 204.8 h 14.458 v 1.607 h -14.458 z"/><path opacity="0.96" d="m 72 199.39 h 14.458 v 1.606 h -14.458 z"/><path opacity="0.96" d="m 72 202.09 h 14.458 v 1.606 h -14.458 z"/><path opacity="0.9" d="m 72 210.21 h 14.458 v 1.607 h -14.458 z"/></g><g fill="#7c90c2"><path opacity="0.9" d="m 89.61 198.64 h 25.494 v 0.735 h -25.494 z"/><path opacity="0.9" d="m 89.61 200.32 h 25.494 v 0.735 h -25.494 z"/><path opacity="0.9" d="m 89.61 202 h 25.494 v 0.735 h -25.494 z"/><path opacity="0.9" d="m 89.61 203.68 h 25.494 v 0.735 h -25.494 z"/><path opacity="0.9" d="m 89.61 205.36 h 25.494 v 0.735 h -25.494 z"/><path opacity="0.9" d="m 89.61 207.04 h 25.494 v 0.735 h -25.494 z"/><path opacity="0.9" d="m 89.61 208.72 h 25.494 v 0.735 h -25.494 z"/><path opacity="0.9" d="m 89.61 210.4 h 25.494 v 0.735 h -25.494 z"/><path opacity="0.9" d="m 89.61 212.07 h 25.494 v 0.735 h -25.494 z"/></g><path opacity="0.9" fill="#4a4951" d="m 79.86 194.46 h 25.494 v 1.963 h -25.494 z"/><path opacity="0.9" fill="#7c90c2" d="m 70.969 213.74 h 44.14 v 0.735 h -44.14 z"/><path opacity="0.96" fill="#829a9a" d="m 85.38 216.83 h 14.458 v 1.606 h -14.458 z"/><g fill="#7c90c2"><path opacity="0.9" d="m 70.969 233.1 h 18.407 v 0.735 h -18.407 z"/><path opacity="0.9" d="m 70.969 234.78 h 18.407 v 0.735 h -18.407 z"/><path opacity="0.9" d="m 70.969 236.46 h 18.407 v 0.735 h -18.407 z"/><path opacity="0.9" d="m 70.969 238.14 h 18.407 v 0.735 h -18.407 z"/><path opacity="0.9" d="m 70.969 239.82 h 18.407 v 0.735 h -18.407 z"/><path opacity="0.9" d="m 70.969 241.5 h 18.407 v 0.735 h -18.407 z"/><path opacity="0.9" d="m 70.969 243.18 h 18.407 v 0.735 h -18.407 z"/><path opacity="0.9" d="m 70.969 244.86 h 18.407 v 0.735 h -18.407 z"/><path opacity="0.9" d="m 70.969 246.54 h 18.407 v 0.735 h -18.407 z"/><path opacity="0.9" d="m 70.969 256.61 h 44.14 v 0.735 h -44.14 z"/><path opacity="0.9" d="m 70.969 258.29 h 44.14 v 0.735 h -44.14 z"/><path opacity="0.9" d="m 70.969 265.01 h 44.14 v 0.735 h -44.14 z"/><path opacity="0.9" d="m 70.969 266.69 h 44.14 v 0.735 h -44.14 z"/><path opacity="0.9" d="m 70.969 268.37 h 44.14 v 0.735 h -44.14 z"/><path opacity="0.9" d="m 70.969 270.05 h 44.14 v 0.735 h -44.14 z"/><path opacity="0.9" d="m 70.969 219.6 h 44.14 v 0.735 h -44.14 z"/><path opacity="0.9" d="m 70.969 221.28 h 44.14 v 0.735 h -44.14 z"/><path opacity="0.9" d="m 70.969 222.96 h 44.14 v 0.735 h -44.14 z"/><path opacity="0.9" d="m 70.969 224.64 h 44.14 v 0.735 h -44.14 z"/><path opacity="0.9" d="m 70.969 226.32 h 44.14 v 0.735 h -44.14 z"/><path opacity="0.9" d="m 70.969 228 h 44.14 v 0.735 h -44.14 z"/><path opacity="0.9" d="m 70.969 229.68 h 44.14 v 0.735 h -44.14 z"/><path opacity="0.9" d="m 70.969 231.36 h 44.14 v 0.735 h -44.14 z"/></g><g stroke-width="0.724"><path d="m 113.74 235.66 c 0.001 0.001 0.002 0.001 0.003 0.003 v 17.36 c -0.001 0.001 -0.001 0.002 -0.003 0.003 h -20.254 c -0.001 -0.001 -0.002 -0.001 -0.003 -0.003 v -17.36 c 0.001 -0.001 0.001 -0.002 0.003 -0.003 z m 0.003 -1.447 h -20.26 c -0.796 0 -1.447 0.651 -1.447 1.447 v 17.365 c 0 0.796 0.651 1.447 1.447 1.447 h 20.26 c 0.796 0 1.447 -0.651 1.447 -1.447 v -17.365 c 0 -0.796 -0.651 -1.447 -1.447 -1.447 z" fill="#8897c2"/><path d="m 110.85 239.27 c 0 1.199 -0.972 2.171 -2.171 2.171 -1.199 0 -2.171 -0.972 -2.171 -2.171 0 -1.199 0.972 -2.171 2.171 -2.171 1.199 0 2.171 0.972 2.171 2.171 z" fill="#edc77c"/><path d="m 112.3 251.57 h -17.365 v -2.894 l 5.065 -8.683 l 5.788 7.236 h 1.447 l 5.065 -4.341 z" fill="#43516c"/></g><g fill="#7c90c2"><path opacity="0.9" d="m 70.969 248.21 h 18.407 v 0.735 h -18.407 z"/><path opacity="0.9" d="m 70.969 249.89 h 18.407 v 0.735 h -18.407 z"/><path opacity="0.9" d="m 70.969 251.57 h 18.407 v 0.735 h -18.407 z"/><path opacity="0.9" d="m 70.969 253.25 h 18.407 v 0.735 h -18.407 z"/><path opacity="0.9" d="m 70.969 254.93 h 18.407 v 0.735 h -18.407 z"/></g><path opacity="0.96" fill="#829a9a" d="m 85.38 261.99 h 14.458 v 1.606 h -14.458 z"/><g stroke-opacity="0.941" fill="#00b6b6" stroke="#f7766f" stroke-width="0.265"><path d="m 64.727 175.41 v -0.92 q 1.09 0.444 2.139 0.444 1.809 0 1.809 -1.24 0 -0.537 -0.367 -0.827 -0.362 -0.289 -1.473 -0.687 -1.075 -0.377 -1.545 -0.899 -0.465 -0.527 -0.465 -1.364 0 -0.899 0.661 -1.406 0.667 -0.512 1.824 -0.512 1.183 0 2.15 0.403 l -0.331 0.847 q -0.997 -0.403 -1.86 -0.403 -1.514 0 -1.514 1.08 0 0.527 0.336 0.847 0.341 0.32 1.4 0.687 1.271 0.455 1.695 0.941 0.429 0.481 0.429 1.24 0 0.992 -0.718 1.561 -0.713 0.563 -2.031 0.563 -1.369 0 -2.139 -0.357 z"/><path d="m 75.82 175.66 h -4.351 v -7.555 h 4.351 v 0.847 h -3.39 v 2.336 h 3.188 v 0.837 h -3.188 v 2.687 h 3.39 z"/><path d="m 79.874 175.76 q -2.749 0 -2.749 -3.902 0 -3.876 2.76 -3.876 1.323 0 2.026 1.013 0.708 1.01 0.708 2.873 0 1.866 -0.713 2.878 -0.713 1.013 -2.031 1.013 z m 0 -0.842 q 0.894 0 1.307 -0.749 0.419 -0.749 0.419 -2.3 0 -1.566 -0.424 -2.3 -0.419 -0.739 -1.292 -0.739 -1.741 0 -1.741 3.039 0 3.049 1.731 3.049 z"/><path d="m 84.51 173.26 v -0.868 h 3.405 v 0.868 z"/><path d="m 95.1 170.78 h -2.072 v 4.878 h -0.946 v -4.878 h -2.072 v -0.796 h 5.09 z"/><path d="m 101.39 173 h -4 q 0.041 1.938 1.778 1.938 1.01 0 1.912 -0.393 v 0.827 q -0.858 0.388 -1.881 0.388 -1.266 0 -2.026 -0.77 -0.76 -0.775 -0.76 -2.129 0 -1.375 0.698 -2.176 0.703 -0.806 1.876 -0.806 1.096 0 1.747 0.692 0.656 0.692 0.656 1.845 z m -3.979 -0.765 h 2.961 q 0 -1.576 -1.406 -1.576 -1.421 0 -1.555 1.576 z"/><path d="m 106.79 169.99 h 1.147 l -2.723 2.723 l 2.925 2.951 h -1.199 l -2.827 -2.878 v 2.878 h -0.93 v -5.674 h 0.93 v 2.754 z"/><path d="m 113.9 170.19 l -0.32 0.816 q -0.775 -0.295 -1.385 -0.295 -1.917 0 -1.917 2.134 0 2.098 1.866 2.098 0.811 0 1.659 -0.32 v 0.827 q -0.692 0.315 -1.7 0.315 -1.328 0 -2.062 -0.749 -0.734 -0.754 -0.734 -2.16 0 -1.452 0.749 -2.212 0.749 -0.76 2.108 -0.76 0.92 0 1.736 0.305 z"/><path d="m 120.48 170.78 h -2.072 v 4.878 h -0.946 v -4.878 h -2.072 v -0.796 h 5.09 z"/></g><ellipse cx="150.4" cy="278.11" rx="19.276" ry="9.524" opacity="0.9" fill="#6a73ac" stroke="#324772" stroke-width="0.3"/><text x="141.81" y="279.44" font-family="&apos;WenQuanYi Micro Hei Mono&apos;" word-spacing="0" line-height="1.25" letter-spacing="0" font-size="10.583"><tspan x="141.81" y="279.44" fill="#fff" stroke-width="0.265" font-size="5.644">Image</tspan></text><g transform="translate(83.45 -38.759)" aria-label="-----------------------------" fill="#002981" stroke-width="0.265"><path d="m 32.671 281.65 h 2.785 v 0.847 h -2.785 z"/><path d="m 36.495 281.65 h 2.785 v 0.847 h -2.785 z"/><path d="m 40.32 281.65 h 2.785 v 0.847 h -2.785 z"/><path d="m 44.14 281.65 h 2.785 v 0.847 h -2.785 z"/><path d="m 47.968 281.65 h 2.785 v 0.847 h -2.785 z"/><path d="m 51.792 281.65 h 2.785 v 0.847 h -2.785 z"/><path d="m 55.616 281.65 h 2.785 v 0.847 h -2.785 z"/><path d="m 59.44 281.65 h 2.785 v 0.847 h -2.785 z"/><path d="m 63.26 281.65 h 2.785 v 0.847 h -2.785 z"/></g><g transform="matrix(0 1 -1 0 374.23 84.57)"><use xlink:href="#0"/><path d="m 164.03 223.88 h 2.785 v 0.847 h -2.785 z" fill="#002981"/><use xlink:href="#1"/><path d="m 171.68 223.88 h 2.785 v 0.847 h -2.785 z" fill="#002981"/><use xlink:href="#2"/><path d="m 179.32 223.88 h 2.785 v 0.847 h -2.785 z" fill="#002981"/></g><circle cx="149.92" cy="268.58" r="1.11" opacity="0.95" fill="#002981"/><ellipse cx="153.71" cy="217.37" rx="19.276" ry="9.524" opacity="0.9" fill="#6a73ac" stroke="#324772" stroke-width="0.3"/><g transform="translate(5.127 18.06)" fill="#fff"><g aria-label="Заголовок H2"><path d="m 135.17 196.94 v 0.017 q 0.491 0.063 0.752 0.314 0.265 0.251 0.265 0.645 0 0.559 -0.391 0.882 -0.391 0.32 -1.111 0.32 -0.667 0 -1.067 -0.218 v -0.469 q 0.507 0.265 1.056 0.265 0.978 0 0.978 -0.78 0 -0.728 -1.086 -0.728 h -0.524 v -0.416 h 0.485 q 0.496 0 0.772 -0.204 0.278 -0.204 0.278 -0.548 0 -0.284 -0.193 -0.452 -0.193 -0.168 -0.518 -0.168 -0.513 0 -0.976 0.333 l -0.256 -0.345 q 0.535 -0.413 1.254 -0.413 0.576 0 0.898 0.273 0.325 0.273 0.325 0.728 0 0.378 -0.248 0.634 -0.245 0.256 -0.695 0.331 z" fill="#fff" stroke-width="0.265" id="B"/><path d="m 139.09 199.06 l -0.102 -0.419 h -0.022 q -0.212 0.267 -0.435 0.372 -0.223 0.102 -0.576 0.102 -0.449 0 -0.706 -0.237 -0.254 -0.237 -0.254 -0.664 0 -0.915 1.406 -0.959 l 0.559 -0.019 v -0.19 q 0 -0.65 -0.672 -0.65 -0.405 0 -0.904 0.226 l -0.174 -0.378 q 0.54 -0.265 1.056 -0.265 0.626 0 0.904 0.24 0.281 0.24 0.281 0.769 v 2.073 z m -0.135 -1.48 l -0.446 0.019 q -0.54 0.022 -0.766 0.171 -0.226 0.146 -0.226 0.449 0 0.491 0.551 0.491 0.405 0 0.645 -0.223 0.243 -0.226 0.243 -0.634 z" fill="#fff" stroke-width="0.265" id="C"/><path d="m 142.87 196.46 h -1.557 v 2.602 h -0.502 v -3.03 h 2.059 z" fill="#fff" stroke-width="0.265" id="D"/><path d="m 145.07 199.12 q -0.595 0 -0.981 -0.427 -0.383 -0.43 -0.383 -1.147 0 -0.725 0.372 -1.144 0.375 -0.419 1.01 -0.419 0.601 0 0.984 0.427 0.383 0.427 0.383 1.136 0 0.73 -0.378 1.152 -0.378 0.422 -1.01 0.422 z m 0.011 -0.416 q 0.854 0 0.854 -1.158 0 -1.147 -0.86 -1.147 -0.852 0 -0.852 1.147 0 1.158 0.857 1.158 z" fill="#fff" stroke-width="0.265" id="E"/><path d="m 149.64 199.06 h -0.502 v -2.602 h -0.937 q -0.102 1.359 -0.347 2 -0.245 0.639 -0.741 0.639 -0.171 0 -0.254 -0.033 v -0.361 q 0.058 0.017 0.135 0.017 0.306 0 0.491 -0.653 0.187 -0.656 0.287 -2.034 h 1.869 z" fill="#fff" stroke-width="0.265" id="F"/><path d="m 151.84 199.12 q -0.595 0 -0.981 -0.427 -0.383 -0.43 -0.383 -1.147 0 -0.725 0.372 -1.144 0.375 -0.419 1.01 -0.419 0.601 0 0.984 0.427 0.383 0.427 0.383 1.136 0 0.73 -0.378 1.152 -0.378 0.422 -1.01 0.422 z m 0.011 -0.416 q 0.854 0 0.854 -1.158 0 -1.147 -0.86 -1.147 -0.852 0 -0.852 1.147 0 1.158 0.857 1.158 z" fill="#fff" stroke-width="0.265" id="G"/><path d="m 155.87 197.46 v 0.019 q 0.728 0.096 0.728 0.711 0 0.411 -0.292 0.642 -0.292 0.232 -0.865 0.232 h -1.411 v -3.03 h 1.406 q 1.067 0 1.067 0.763 0 0.543 -0.631 0.659 z m -1.339 -0.998 v 0.819 h 0.808 q 0.369 0 0.526 -0.099 0.157 -0.099 0.157 -0.331 0 -0.389 -0.598 -0.389 z m 0 1.24 v 0.948 h 0.876 q 0.7 0 0.7 -0.496 0 -0.254 -0.179 -0.353 -0.179 -0.099 -0.532 -0.099 z" fill="#fff" stroke-width="0.265" id="H"/><path d="m 158.61 199.12 q -0.595 0 -0.981 -0.427 -0.383 -0.43 -0.383 -1.147 0 -0.725 0.372 -1.144 0.375 -0.419 1.01 -0.419 0.601 0 0.984 0.427 0.383 0.427 0.383 1.136 0 0.73 -0.378 1.152 -0.378 0.422 -1.01 0.422 z m 0.011 -0.416 q 0.854 0 0.854 -1.158 0 -1.147 -0.86 -1.147 -0.852 0 -0.852 1.147 0 1.158 0.857 1.158 z" fill="#fff" stroke-width="0.265" id="I"/><path d="m 162.83 196.04 h 0.612 l -1.452 1.452 l 1.56 1.574 h -0.639 l -1.508 -1.535 v 1.535 h -0.496 v -3.03 h 0.496 v 1.469 z" fill="#fff" stroke-width="0.265" id="J"/></g><g transform="translate(-21.849 6.71)"><path d="m 170.1 199.06 h -0.515 v -1.88 h -1.612 v 1.88 h -0.515 v -4.03 h 0.515 v 1.698 h 1.612 v -1.698 h 0.515 z" fill="#fff" stroke-width="0.265" id="K"/><path d="m 173.42 199.06 h -2.511 v -0.43 l 0.965 -1.05 q 0.537 -0.587 0.708 -0.874 0.171 -0.289 0.171 -0.637 0 -0.311 -0.176 -0.491 -0.174 -0.182 -0.471 -0.182 -0.441 0 -0.876 0.378 l -0.281 -0.328 q 0.529 -0.474 1.163 -0.474 0.535 0 0.843 0.292 0.309 0.292 0.309 0.785 0 0.328 -0.163 0.672 -0.163 0.345 -0.802 1.034 l -0.774 0.824 v 0.022 h 1.896 z" fill="#fff" stroke-width="0.265" id="L"/></g></g><g transform="translate(-74.73 14.684)"><path d="m 177.19 202.27 h 2.785 v 0.847 h -2.785 z" fill="#002981" id="3"/><path d="m 181.01 202.27 h 2.785 v 0.847 h -2.785 z" fill="#002981" id="4"/><path d="m 184.84 202.27 h 2.785 v 0.847 h -2.785 z" fill="#002981" id="5"/><path d="m 188.66 202.27 h 2.785 v 0.847 h -2.785 z" fill="#002981" id="6"/><path d="m 192.49 202.27 h 2.785 v 0.847 h -2.785 z" fill="#002981" id="7"/><path d="m 196.31 202.27 h 2.785 v 0.847 h -2.785 z" fill="#002981" id="8"/><path d="m 200.14 202.27 h 2.785 v 0.847 h -2.785 z" fill="#002981" id="9"/><path d="m 203.96 202.27 h 2.785 v 0.847 h -2.785 z" fill="#002981" id="A"/></g><circle cx="134.49" cy="217.38" r="1.11" opacity="0.95" fill="#002981"/><ellipse cx="30.424" cy="184.51" rx="19.276" ry="9.524" opacity="0.9" fill="#6a73ac" stroke="#324772" stroke-width="0.3"/><g transform="translate(8.09 -6.209)" fill="#fff" fill-opacity="1" stroke-width="0.265"><g aria-label="Table of  contents"><path d="m 10.728 189.77 h -0.515 v -3.577 h -1.152 v -0.452 h 2.817 v 0.452 h -1.149 z"/><path d="m 14.631 189.77 l -0.102 -0.419 h -0.022 q -0.212 0.267 -0.435 0.372 -0.223 0.102 -0.576 0.102 -0.449 0 -0.706 -0.237 -0.254 -0.237 -0.254 -0.664 0 -0.915 1.406 -0.959 l 0.559 -0.019 v -0.19 q 0 -0.65 -0.672 -0.65 -0.405 0 -0.904 0.226 l -0.174 -0.378 q 0.54 -0.265 1.056 -0.265 0.626 0 0.904 0.24 0.281 0.24 0.281 0.769 v 2.073 z m -0.135 -1.48 l -0.446 0.019 q -0.54 0.022 -0.766 0.171 -0.226 0.146 -0.226 0.449 0 0.491 0.551 0.491 0.405 0 0.645 -0.223 0.243 -0.226 0.243 -0.634 z"/><path d="m 16.485 189.39 h -0.033 l -0.102 0.383 h -0.367 v -4.288 h 0.502 v 1.036 q 0 0.223 -0.022 0.623 h 0.022 q 0.295 -0.452 0.887 -0.452 0.554 0 0.868 0.413 0.317 0.411 0.317 1.149 0 0.744 -0.317 1.16 -0.317 0.413 -0.868 0.413 -0.571 0 -0.887 -0.438 z m 0 -1.136 q 0 0.626 0.19 0.893 0.193 0.265 0.612 0.265 0.75 0 0.75 -1.163 0 -1.141 -0.755 -1.141 -0.427 0 -0.612 0.259 -0.185 0.259 -0.185 0.887 z"/><path d="m 20.399 185.88 l -0.739 -0.058 v -0.336 h 1.243 v 3.894 l 0.97 0.055 v 0.339 h -2.423 v -0.339 l 0.948 -0.055 z"/><path d="m 25.338 188.36 h -2.133 q 0.022 1.034 0.948 1.034 0.537 0 1.02 -0.209 v 0.441 q -0.458 0.207 -1 0.207 -0.675 0 -1.08 -0.411 -0.405 -0.413 -0.405 -1.136 0 -0.733 0.372 -1.16 0.375 -0.43 1 -0.43 0.584 0 0.932 0.369 0.35 0.369 0.35 0.984 z m -2.122 -0.408 h 1.579 q 0 -0.841 -0.75 -0.841 -0.758 0 -0.83 0.841 z"/><path d="m 30.767 189.83 q -0.595 0 -0.981 -0.427 -0.383 -0.43 -0.383 -1.147 0 -0.725 0.372 -1.144 0.375 -0.419 1.01 -0.419 0.601 0 0.984 0.427 0.383 0.427 0.383 1.136 0 0.73 -0.378 1.152 -0.378 0.422 -1.01 0.422 z m 0.011 -0.416 q 0.854 0 0.854 -1.158 0 -1.147 -0.86 -1.147 -0.852 0 -0.852 1.147 0 1.158 0.857 1.158 z"/><path d="m 35.35 187.12 h -1.072 v 2.649 h -0.502 v -2.649 h -0.874 v -0.303 l 0.874 -0.091 v -0.265 q 0 -0.532 0.248 -0.772 0.248 -0.24 0.824 -0.24 0.356 0 0.695 0.096 l -0.113 0.394 q -0.287 -0.077 -0.571 -0.077 -0.339 0 -0.46 0.138 -0.121 0.138 -0.121 0.455 v 0.287 h 1.072 z"/></g><g transform="translate(0.308 -7.078)"><path d="m 11.704 200.08 l -0.171 0.435 q -0.413 -0.157 -0.739 -0.157 -1.023 0 -1.023 1.138 0 1.119 0.995 1.119 0.433 0 0.885 -0.171 v 0.441 q -0.369 0.168 -0.907 0.168 -0.708 0 -1.1 -0.4 -0.391 -0.402 -0.391 -1.152 0 -0.774 0.4 -1.18 0.4 -0.405 1.124 -0.405 0.491 0 0.926 0.163 z"/><path d="m 13.845 203.06 q -0.595 0 -0.981 -0.427 -0.383 -0.43 -0.383 -1.147 0 -0.725 0.372 -1.144 0.375 -0.419 1.01 -0.419 0.601 0 0.984 0.427 0.383 0.427 0.383 1.136 0 0.73 -0.378 1.152 -0.378 0.422 -1.01 0.422 z m 0.011 -0.416 q 0.854 0 0.854 -1.158 0 -1.147 -0.86 -1.147 -0.852 0 -0.852 1.147 0 1.158 0.857 1.158 z"/><path d="m 17.993 203 v -1.949 q 0 -0.717 -0.656 -0.717 -0.846 0 -0.846 1.097 v 1.568 h -0.502 v -3.03 h 0.405 l 0.074 0.408 h 0.028 q 0.284 -0.463 0.926 -0.463 1.072 0 1.072 1.105 v 1.976 z"/><path d="m 21.744 202.59 v 0.38 q -0.358 0.088 -0.695 0.088 -0.998 0 -0.998 -0.948 v -1.756 h -0.736 v -0.259 l 0.736 -0.135 l 0.212 -0.791 h 0.289 v 0.808 h 1.207 v 0.378 h -1.207 v 1.756 q 0 0.537 0.529 0.537 0.256 0 0.661 -0.058 z"/><path d="m 25.338 201.59 h -2.133 q 0.022 1.034 0.948 1.034 0.537 0 1.02 -0.209 v 0.441 q -0.458 0.207 -1 0.207 -0.675 0 -1.08 -0.411 -0.405 -0.413 -0.405 -1.136 0 -0.733 0.372 -1.16 0.375 -0.43 1 -0.43 0.584 0 0.932 0.369 0.35 0.369 0.35 0.984 z m -2.122 -0.408 h 1.579 q 0 -0.841 -0.75 -0.841 -0.758 0 -0.83 0.841 z"/><path d="m 28.15 203 v -1.949 q 0 -0.717 -0.656 -0.717 -0.846 0 -0.846 1.097 v 1.568 h -0.502 v -3.03 h 0.405 l 0.074 0.408 h 0.028 q 0.284 -0.463 0.926 -0.463 1.072 0 1.072 1.105 v 1.976 z"/><path d="m 31.897 202.59 v 0.38 q -0.358 0.088 -0.695 0.088 -0.998 0 -0.998 -0.948 v -1.756 h -0.736 v -0.259 l 0.736 -0.135 l 0.212 -0.791 h 0.289 v 0.808 h 1.207 v 0.378 h -1.207 v 1.756 q 0 0.537 0.529 0.537 0.256 0 0.661 -0.058 z"/><path d="m 33.03 202.87 v -0.458 q 0.532 0.237 1.02 0.237 0.758 0 0.758 -0.446 0 -0.157 -0.135 -0.273 -0.135 -0.116 -0.623 -0.292 -0.642 -0.24 -0.81 -0.438 -0.165 -0.201 -0.165 -0.474 0 -0.375 0.306 -0.587 0.309 -0.215 0.852 -0.215 0.546 0 1.017 0.204 l -0.165 0.411 q -0.502 -0.198 -0.879 -0.198 -0.65 0 -0.65 0.367 0 0.168 0.138 0.27 0.141 0.099 0.642 0.278 0.582 0.212 0.772 0.419 0.193 0.204 0.193 0.502 0 0.413 -0.322 0.65 -0.322 0.234 -0.912 0.234 -0.684 0 -1.034 -0.19 z"/></g></g><g fill="#002981"><g transform="matrix(0 1 -1 0 310.94 90.17)" stroke-width="0.265"><path d="m 105.33 281.65 h 2.785 v 0.847 h -2.785 z"/><path d="m 109.15 281.65 h 2.785 v 0.847 h -2.785 z"/><path d="m 112.98 281.65 h 2.785 v 0.847 h -2.785 z"/></g><g transform="translate(-153.53 16.943)"><path d="m 182.1 190.36 h 2.785 v 0.847 h -2.785 z"/><path d="m 185.93 190.36 h 2.785 v 0.847 h -2.785 z"/><path d="m 189.75 190.36 h 2.785 v 0.847 h -2.785 z"/><path d="m 193.58 190.36 h 2.785 v 0.847 h -2.785 z"/><path d="m 197.4 190.36 h 2.785 v 0.847 h -2.785 z"/><path d="m 201.22 190.36 h 2.785 v 0.847 h -2.785 z"/><path d="m 205.05 190.36 h 2.785 v 0.847 h -2.785 z"/><path d="m 208.87 190.36 h 2.785 v 0.847 h -2.785 z"/><path d="m 212.7 190.36 h 2.785 v 0.847 h -2.785 z"/><path d="m 216.52 190.36 h 2.785 v 0.847 h -2.785 z"/></g><circle cx="28.865" cy="193.83" r="1.11" opacity="0.95"/><path d="m 66.965 207.31 h 2.785 v 0.847 h -2.785 z"/></g><ellipse cx="150.4" cy="184.51" rx="19.276" ry="9.524" opacity="0.9" fill="#6a73ac" stroke="#324772" stroke-width="0.3"/><g transform="translate(62.3 9.07)" fill="#fff" stroke-width="0.265"><g aria-label="Заголовок H1"><path d="m 74.69 173.27 v 0.017 q 0.491 0.063 0.752 0.314 0.265 0.251 0.265 0.645 0 0.559 -0.391 0.882 -0.391 0.32 -1.111 0.32 -0.667 0 -1.067 -0.218 v -0.469 q 0.507 0.265 1.056 0.265 0.978 0 0.978 -0.78 0 -0.728 -1.086 -0.728 h -0.524 v -0.416 h 0.485 q 0.496 0 0.772 -0.204 0.278 -0.204 0.278 -0.548 0 -0.284 -0.193 -0.452 -0.193 -0.168 -0.518 -0.168 -0.513 0 -0.976 0.333 l -0.256 -0.345 q 0.535 -0.413 1.254 -0.413 0.576 0 0.898 0.273 0.325 0.273 0.325 0.728 0 0.378 -0.248 0.634 -0.245 0.256 -0.695 0.331 z"/><path d="m 78.6 175.39 l -0.102 -0.419 h -0.022 q -0.212 0.267 -0.435 0.372 -0.223 0.102 -0.576 0.102 -0.449 0 -0.706 -0.237 -0.254 -0.237 -0.254 -0.664 0 -0.915 1.406 -0.959 l 0.559 -0.019 v -0.19 q 0 -0.65 -0.672 -0.65 -0.405 0 -0.904 0.226 l -0.174 -0.378 q 0.54 -0.265 1.056 -0.265 0.626 0 0.904 0.24 0.281 0.24 0.281 0.769 v 2.073 z m -0.135 -1.48 l -0.446 0.019 q -0.54 0.022 -0.766 0.171 -0.226 0.146 -0.226 0.449 0 0.491 0.551 0.491 0.405 0 0.645 -0.223 0.243 -0.226 0.243 -0.634 z"/><path d="m 82.38 172.79 h -1.557 v 2.602 h -0.502 v -3.03 h 2.059 z"/><path d="m 84.59 175.45 q -0.595 0 -0.981 -0.427 -0.383 -0.43 -0.383 -1.147 0 -0.725 0.372 -1.144 0.375 -0.419 1.01 -0.419 0.601 0 0.984 0.427 0.383 0.427 0.383 1.136 0 0.73 -0.378 1.152 -0.378 0.422 -1.01 0.422 z m 0.011 -0.416 q 0.854 0 0.854 -1.158 0 -1.147 -0.86 -1.147 -0.852 0 -0.852 1.147 0 1.158 0.857 1.158 z"/><path d="m 89.16 175.39 h -0.502 v -2.602 h -0.937 q -0.102 1.359 -0.347 2 -0.245 0.639 -0.741 0.639 -0.171 0 -0.254 -0.033 v -0.361 q 0.058 0.017 0.135 0.017 0.306 0 0.491 -0.653 0.187 -0.656 0.287 -2.034 h 1.869 z"/><path d="m 91.36 175.45 q -0.595 0 -0.981 -0.427 -0.383 -0.43 -0.383 -1.147 0 -0.725 0.372 -1.144 0.375 -0.419 1.01 -0.419 0.601 0 0.984 0.427 0.383 0.427 0.383 1.136 0 0.73 -0.378 1.152 -0.378 0.422 -1.01 0.422 z m 0.011 -0.416 q 0.854 0 0.854 -1.158 0 -1.147 -0.86 -1.147 -0.852 0 -0.852 1.147 0 1.158 0.857 1.158 z"/><path d="m 95.39 173.79 v 0.019 q 0.728 0.096 0.728 0.711 0 0.411 -0.292 0.642 -0.292 0.232 -0.865 0.232 h -1.411 v -3.03 h 1.406 q 1.067 0 1.067 0.763 0 0.543 -0.631 0.659 z m -1.339 -0.998 v 0.819 h 0.808 q 0.369 0 0.526 -0.099 0.157 -0.099 0.157 -0.331 0 -0.389 -0.598 -0.389 z m 0 1.24 v 0.948 h 0.876 q 0.7 0 0.7 -0.496 0 -0.254 -0.179 -0.353 -0.179 -0.099 -0.532 -0.099 z"/><path d="m 98.13 175.45 q -0.595 0 -0.981 -0.427 -0.383 -0.43 -0.383 -1.147 0 -0.725 0.372 -1.144 0.375 -0.419 1.01 -0.419 0.601 0 0.984 0.427 0.383 0.427 0.383 1.136 0 0.73 -0.378 1.152 -0.378 0.422 -1.01 0.422 z m 0.011 -0.416 q 0.854 0 0.854 -1.158 0 -1.147 -0.86 -1.147 -0.852 0 -0.852 1.147 0 1.158 0.857 1.158 z"/><path d="m 102.35 172.37 h 0.612 l -1.452 1.452 l 1.56 1.574 h -0.639 l -1.508 -1.535 v 1.535 h -0.496 v -3.03 h 0.496 v 1.469 z"/></g><g transform="translate(-21.42 6.302)"><path d="m 109.61 175.39 h -0.515 v -1.88 h -1.612 v 1.88 h -0.515 v -4.03 h 0.515 v 1.698 h 1.612 v -1.698 h 0.515 z"/><path d="m 112.07 175.39 h -0.485 v -2.516 q 0 -0.336 0.022 -0.995 -0.107 0.119 -0.333 0.311 l -0.405 0.333 l -0.267 -0.339 l 1.056 -0.824 h 0.413 z"/></g></g><g transform="translate(-3.458 -32.869)"><g transform="translate(-74.73 14.684)"><use xlink:href="#3"/><use xlink:href="#4"/><use xlink:href="#5"/><use xlink:href="#6"/><use xlink:href="#7"/><use xlink:href="#8"/><use xlink:href="#9"/><use xlink:href="#A"/></g><circle r="1.11" cy="217.38" cx="134.49" opacity="0.95" fill="#002981"/></g><g fill="#002981"><path d="m 99 185.97 v 2.785 h -0.847 v -2.785 z"/><path d="m 99 189.8 v 2.785 h -0.847 v -2.785 z"/></g><ellipse cx="29.17" cy="241.07" rx="19.276" ry="9.524" opacity="0.9" fill="#6a73ac" stroke="#324772" stroke-width="0.3"/><g aria-label="Content" transform="translate(25.576 36.3)" fill="#fff" stroke-width="0.265"><path d="m -5.056 206.24 v 0.446 q -0.402 0.163 -0.987 0.163 -0.852 0 -1.304 -0.54 -0.452 -0.54 -0.452 -1.535 0 -0.954 0.493 -1.51 0.493 -0.557 1.348 -0.557 0.606 0 1.056 0.237 l -0.215 0.43 q -0.424 -0.215 -0.841 -0.215 -0.593 0 -0.945 0.438 -0.353 0.435 -0.353 1.182 0 0.791 0.331 1.207 0.331 0.413 0.967 0.413 0.358 0 0.901 -0.16 z"/><path d="m -3.089 206.85 q -0.595 0 -0.981 -0.427 -0.383 -0.43 -0.383 -1.147 0 -0.725 0.372 -1.144 0.375 -0.419 1.01 -0.419 0.601 0 0.984 0.427 0.383 0.427 0.383 1.136 0 0.73 -0.378 1.152 -0.378 0.422 -1.01 0.422 z m 0.011 -0.416 q 0.854 0 0.854 -1.158 0 -1.147 -0.86 -1.147 -0.852 0 -0.852 1.147 0 1.158 0.857 1.158 z"/><path d="m 1.059 206.79 v -1.949 q 0 -0.717 -0.656 -0.717 -0.846 0 -0.846 1.097 v 1.568 h -0.502 v -3.03 h 0.405 l 0.074 0.408 h 0.028 q 0.284 -0.463 0.926 -0.463 1.072 0 1.072 1.105 v 1.976 z"/><path d="m 4.81 206.38 v 0.38 q -0.358 0.088 -0.695 0.088 -0.998 0 -0.998 -0.948 v -1.756 h -0.736 v -0.259 l 0.736 -0.135 l 0.212 -0.791 h 0.289 v 0.808 h 1.207 v 0.378 h -1.207 v 1.756 q 0 0.537 0.529 0.537 0.256 0 0.661 -0.058 z"/><path d="m 8.404 205.37 h -2.133 q 0.022 1.034 0.948 1.034 0.537 0 1.02 -0.209 v 0.441 q -0.458 0.207 -1 0.207 -0.675 0 -1.08 -0.411 -0.405 -0.413 -0.405 -1.136 0 -0.733 0.372 -1.16 0.375 -0.43 1 -0.43 0.584 0 0.932 0.369 0.35 0.369 0.35 0.984 z m -2.122 -0.408 h 1.579 q 0 -0.841 -0.75 -0.841 -0.758 0 -0.83 0.841 z"/><path d="m 11.213 206.79 v -1.949 q 0 -0.717 -0.656 -0.717 -0.846 0 -0.846 1.097 v 1.568 h -0.502 v -3.03 h 0.405 l 0.074 0.408 h 0.028 q 0.284 -0.463 0.926 -0.463 1.072 0 1.072 1.105 v 1.976 z"/><path d="m 14.964 206.38 v 0.38 q -0.358 0.088 -0.695 0.088 -0.998 0 -0.998 -0.948 v -1.756 h -0.736 v -0.259 l 0.736 -0.135 l 0.212 -0.791 h 0.289 v 0.808 h 1.207 v 0.378 h -1.207 v 1.756 q 0 0.537 0.529 0.537 0.256 0 0.661 -0.058 z"/></g><g><circle cx="2.281" cy="241.29" r="1.11" opacity="0.95" fill="#002981" transform="translate(26.299 -9.893)"/><g><g transform="translate(-112.73 0.758)"><path d="m 144.91 223.88 h 2.785 v 0.847 h -2.785 z" fill="#002981" id="N"/><path d="m 148.73 223.88 h 2.785 v 0.847 h -2.785 z" fill="#002981" id="O"/><path d="m 152.56 223.88 h 2.785 v 0.847 h -2.785 z" fill="#002981" id="P"/><path d="m 156.38 223.88 h 2.785 v 0.847 h -2.785 z" fill="#002981" id="Q"/><use xlink:href="#0"/><path d="m 164.03 223.88 h 2.785 v 0.847 h -2.785 z" fill="#002981" id="R"/><use xlink:href="#1"/><path d="m 171.68 223.88 h 2.785 v 0.847 h -2.785 z" fill="#002981" id="S"/><use xlink:href="#2"/><path d="m 179.32 223.88 h 2.785 v 0.847 h -2.785 z" fill="#002981" id="T"/></g><path d="m 28.317 224.64 h 2.785 v 0.847 h -2.785 z" fill="#002981" id="M"/></g></g><ellipse cx="30.424" cy="278.64" rx="19.276" ry="9.524" opacity="0.9" fill="#6a73ac" stroke="#324772" stroke-width="0.3"/><g transform="translate(-118.16 79.32)" fill="#fff"><g aria-label="Заголовок H2"><use xlink:href="#B"/><use xlink:href="#C"/><use xlink:href="#D"/><use xlink:href="#E"/><use xlink:href="#F"/><use xlink:href="#G"/><use xlink:href="#H"/><use xlink:href="#I"/><use xlink:href="#J"/></g><g transform="translate(-21.849 6.71)"><use xlink:href="#K"/><use xlink:href="#L"/></g></g><g transform="translate(1.588 37.4)"><circle cx="2.281" cy="241.29" r="1.11" opacity="0.95" fill="#002981" transform="translate(26.299 -9.893)"/><g><g transform="translate(-112.73 0.758)"><use xlink:href="#N"/><use xlink:href="#O"/><use xlink:href="#P"/><use xlink:href="#Q"/><use xlink:href="#0"/><use xlink:href="#R"/><use xlink:href="#1"/><use xlink:href="#S"/><use xlink:href="#2"/><use xlink:href="#T"/></g><use xlink:href="#M"/></g></g><g fill="#002981"><path d="m 72.03 262.04 h 2.785 v 0.847 h -2.785 z"/><path d="m 75.851 262.04 h 2.785 v 0.847 h -2.785 z"/><path d="m 79.68 262.04 h 2.785 v 0.847 h -2.785 z"/></g></g><g fill="#002981"><path d="m 29.16 226.54 v 2.785 h -0.847 v -2.785 z"/><path d="m 30.752 263.95 v 2.785 h -0.847 v -2.785 z"/></g></g></svg>