<svg xmlns="http://www.w3.org/2000/svg" viewBox="0 0 916.507 544.507">
  <path fill="#e7e8e5" d="M4.65 424.71s-6.949 2.815 1.067 17.567c8.015 14.754 13.491 22.02 13.491 22.02s1.443 3.435-1.465 4.05c-2.907.614-9.367-.244-10.576 3.364-1.254 3.744 1.53 7.172 7.07 10.098 5.54 2.927 17.444 9.786 18.518 10.41 1.054.613 2.137 2.201.223 2.937-1.913.736-16.345 2.621-15.04 9.416 1.304 6.795 18.079 12.412 19.9 13.061 1.822.65 2.274 1.403 2.153 2.398-.122.993-5.033 1.17-9.115 1.874-4.083.704-8.693 2.237-7.612 6.094 1.081 3.857 11.136 11.758 35.099 13.481l11.156.072 5.822-9.575c11.21-21.247 9.822-33.961 7.12-36.918-2.702-2.958-6.44.145-9.197 3.238-2.757 3.092-5.504 7.167-6.411 6.743-.908-.421-1.31-1.204-.897-3.093.413-1.89 4.516-19.098-.56-23.798-5.077-4.701-14.31 6.55-15.946 7.786-1.637 1.234-2.413-.524-2.375-1.744.039-1.242.513-14.97.96-21.222.445-6.249-.992-10.425-4.832-11.34-3.702-.882-6.39 5.054-8.45 7.196-2.059 2.143-4.211-.899-4.211-.899s-3.27-8.49-11.552-23.094c-8.282-14.606-14.476-10.055-14.476-10.055"/>
  <path fill="#dadbd8" d="M70.164 544.159c-6.04-10.75-16.455-30.036-25.483-46.55-9.024-16.506-17.208-31.444-23.194-42.222-2.992-5.379-5.417-9.735-7.1-12.759-.832-1.497-1.48-2.665-1.93-3.47-.21-.39-.375-.691-.493-.909a5.433 5.433 0 0 1-.158-.314s.069.098.189.297l.524.89c.46.8 1.128 1.955 1.985 3.44 1.72 2.987 4.18 7.329 7.198 12.705 6.04 10.75 14.26 25.67 23.283 42.177 9.028 16.512 19.408 35.816 25.393 46.596"/>
  <path fill="#dadbd8" d="M16.155 473.277c.008-.022.287.048.784.196.497.146 1.21.379 2.09.674 1.756.593 4.16 1.474 6.796 2.495 2.597 1.014 4.944 1.933 6.74 2.635l2.046.786c.484.184.748.296.741.318-.007.023-.286-.046-.785-.19a49.833 49.833 0 0 1-2.087-.684c-1.75-.61-4.144-1.523-6.779-2.543l-6.755-2.587-2.051-.776c-.484-.186-.747-.301-.74-.324m19.94 6.373c-.09-.031 1.508-5.07 3.57-11.253 2.062-6.185 3.807-11.173 3.898-11.142.09.03-1.507 5.068-3.57 11.252-2.061 6.184-3.807 11.172-3.898 11.142m12.718 25.977c-.02-.013.136-.262.435-.7l1.273-1.84a177.81 177.81 0 0 0 4.084-6.148 173.824 173.824 0 0 0 3.808-6.322l1.118-1.94c.267-.456.425-.704.446-.692.02.01-.096.279-.327.756-.23.476-.577 1.16-1.023 1.995a99.66 99.66 0 0 1-3.73 6.389 101.746 101.746 0 0 1-4.176 6.104 59.863 59.863 0 0 1-1.365 1.779c-.331.413-.524.635-.543.62m-19.305-1.794c.002-.024.274-.025.762-.007l2.067.111c1.745.108 4.153.282 6.81.494 2.658.213 5.063.425 6.802.595l2.059.22c.485.06.752.104.75.127-.001.024-.272.026-.761.007l-2.067-.11a392.023 392.023 0 0 1-6.81-.494 395.32 395.32 0 0 1-6.802-.595l-2.059-.22c-.485-.06-.752-.104-.75-.128m8.313 24.36c.001-.024.349-.021.975.002l2.65.131c2.236.126 5.323.324 8.732.565 3.41.24 6.495.476 8.727.665 1.065.098 1.953.177 2.641.241.623.064.967.111.966.135-.002.024-.349.023-.975 0l-2.65-.132a668.992 668.992 0 0 1-8.733-.564 662.13 662.13 0 0 1-8.726-.665l-2.642-.241c-.623-.065-.967-.112-.965-.137m24.112 1.531c-.02-.013.17-.333.529-.9l1.53-2.392c1.29-2.021 3.062-4.82 4.93-7.965a283.012 283.012 0 0 0 4.652-8.131l1.374-2.486c.327-.586.518-.905.539-.894.021.012-.13.35-.42.956-.29.605-.723 1.475-1.277 2.54a162.287 162.287 0 0 1-4.57 8.192 164.618 164.618 0 0 1-5.023 7.923 95.135 95.135 0 0 1-1.624 2.333c-.393.544-.62.838-.64.824"/>
  <path fill="#fff" d="M153.243 109.612H61.035a7.877 7.877 0 0 1-7.877-7.877V19.2a7.877 7.877 0 0 1 7.877-7.877h92.208a7.877 7.877 0 0 1 7.877 7.877v82.534a7.877 7.877 0 0 1-7.877 7.877"/>
  <path fill="#e7e8e5" d="M161.12 28.05H53.158v-8.633a8.093 8.093 0 0 1 8.093-8.093h92.414a7.454 7.454 0 0 1 7.455 7.455v9.272"/>
  <path fill="#fff" d="M68.702 21.321c0 1.376-1.184 2.492-2.646 2.492s-2.647-1.116-2.647-2.492 1.185-2.49 2.647-2.49c1.462 0 2.646 1.114 2.646 2.49m7.213 0c0 1.376-1.185 2.492-2.646 2.492-1.462 0-2.647-1.116-2.647-2.492s1.185-2.49 2.647-2.49c1.461 0 2.646 1.114 2.646 2.49m7.213 0c0 1.376-1.185 2.492-2.647 2.492-1.461 0-2.646-1.116-2.646-2.492s1.185-2.49 2.646-2.49c1.462 0 2.647 1.114 2.647 2.49"/>
  <path fill="#e7e8e5" d="M153.243 109.612c0-.023.35-.019 1.022-.11a7.594 7.594 0 0 0 2.819-.975c1.125-.656 2.42-1.778 3.213-3.54.396-.872.66-1.89.691-2.991.021-1.11-.004-2.308-.003-3.568l-.11-42.752-.043-29.521-.004-4.014c-.033-1.333.072-2.746-.092-4.032-.337-2.628-2.24-5.018-4.79-5.974-.629-.262-1.307-.382-1.983-.467-.671-.05-1.398-.033-2.114-.035l-4.33.004-8.835.007-77.64.027c-3.319-.043-6.462 2.352-7.263 5.536-.236.789-.284 1.581-.277 2.428v7.587l-.006 19.809-.02 37.449-.006 17.43c.023 2.74 1.683 5.294 4.02 6.523a7.79 7.79 0 0 0 3.79.887l4.014.004 29.523.043 42.749.11 11.623.066 3.022.033c.682.012 1.03.036 1.03.036s-.348.024-1.03.035l-3.022.036-11.623.064-42.749.11-29.523.043-4.014.004a8.378 8.378 0 0 1-4.07-.945c-2.52-1.319-4.319-4.074-4.35-7.034l-.024-17.445-.02-37.45-.005-19.809-.002-5.049v-2.537c-.008-.846.045-1.767.301-2.612.876-3.479 4.308-6.094 7.933-6.046l77.639.027 8.835.007 4.33.004c.719.004 1.422-.014 2.171.041.732.092 1.464.227 2.144.51 2.756 1.038 4.799 3.622 5.159 6.458.174 1.437.057 2.756.09 4.117l-.005 4.014-.043 29.521-.109 42.752c-.012 1.264.003 2.45-.03 3.576a7.941 7.941 0 0 1-4.073 6.645c-1.176.651-2.204.858-2.878.924-.682.068-1.032.039-1.032.039"/>
  <path fill="#f3f2f1" d="M147.047 100.997H66.974a5.942 5.942 0 0 1-5.942-5.941V41.529a5.942 5.942 0 0 1 5.942-5.941h80.073a5.941 5.941 0 0 1 5.941 5.941v53.527a5.941 5.941 0 0 1-5.941 5.941"/>
  <path fill="#e7e8e5" d="m68.754 96.907 22.445-31.948a2.542 2.542 0 0 1 4.059-.134l15.424 19.126a2.54 2.54 0 0 0 3.739.237l9.036-8.676a2.542 2.542 0 0 1 3.704.196l17.711 21.021c1.393 1.654.219 4.18-1.943 4.18H70.833c-2.058 0-3.263-2.32-2.08-4.002m51.197-41.403a7.822 7.822 0 0 1-8.955 8.953c-3.29-.502-5.979-3.192-6.483-6.482a7.822 7.822 0 0 1 8.954-8.955c3.29.504 5.98 3.193 6.483 6.484"/>
  <path fill="#fff" d="M908.333 327.603h-59.216a7.877 7.877 0 0 1-7.877-7.878v-52.498a7.877 7.877 0 0 1 7.877-7.878h59.216a7.877 7.877 0 0 1 7.878 7.878v52.498a7.877 7.877 0 0 1-7.878 7.878"/>
  <path fill="#dadbd8" d="M916.21 270.965h-74.97v-3.522a8.093 8.093 0 0 1 8.093-8.094h59.424a7.454 7.454 0 0 1 7.454 7.455v4.161"/>
  <path fill="#fff" d="M852.033 266.292c0 .956-.822 1.73-1.837 1.73-1.015 0-1.837-.774-1.837-1.73 0-.955.822-1.73 1.837-1.73 1.015 0 1.837.775 1.837 1.73m5.01 0c0 .956-.823 1.73-1.838 1.73-1.016 0-1.838-.774-1.838-1.73 0-.955.822-1.73 1.838-1.73 1.015 0 1.838.775 1.838 1.73m5.007 0c0 .956-.822 1.73-1.837 1.73-1.014 0-1.837-.774-1.837-1.73 0-.955.823-1.73 1.837-1.73 1.015 0 1.838.775 1.838 1.73"/>
  <path fill="#dadbd8" d="M908.333 327.603c-.013-.076.991.082 2.691-.556a7.993 7.993 0 0 0 2.77-1.791 7.919 7.919 0 0 0 2.113-3.924c.173-.833.162-1.73.153-2.693l-.015-3.014-.028-6.834-.052-16.663-.042-20.195c-.022-1.8.037-3.693-.051-5.504a7.605 7.605 0 0 0-2.44-4.788c-2.808-2.822-7.204-1.78-11.2-1.972l-53.108.028a7.594 7.594 0 0 0-5.861 2.798 7.613 7.613 0 0 0-1.458 2.956c-.282 1.064-.209 2.192-.22 3.353l-.005 13.55c-.008 8.885-.015 17.454-.02 25.618l-.007 11.923c.016 1.865.786 3.662 2.012 4.981 1.227 1.323 2.906 2.184 4.646 2.38 7.185.13 14.001.06 20.158.101l29.243.111 7.95.065 2.067.035c.466.01.704.035.704.035s-.238.024-.704.036l-2.068.034-7.949.066-29.243.109c-6.188-.012-12.905.093-20.228-.02-1.872-.205-3.685-1.125-5.01-2.548-1.328-1.417-2.164-3.359-2.188-5.372l-.023-11.936-.021-25.617-.004-13.551c.012-1.124-.071-2.33.237-3.516a8.305 8.305 0 0 1 1.592-3.23c1.52-1.897 3.935-3.063 6.4-3.055l53.108.026 6.044.008c2.067-.01 4.096.788 5.568 2.154a8.206 8.206 0 0 1 2.619 5.177c.088 1.935.018 3.737.036 5.565l-.043 20.195-.05 16.663-.03 6.834c-.004 1.051-.01 2.055-.015 3.014-.001.95 0 1.889-.19 2.749a8.092 8.092 0 0 1-2.231 4.015 8.02 8.02 0 0 1-2.868 1.776 7.398 7.398 0 0 1-2.032.424c-.468.012-.707 0-.707 0"/>
  <path fill="#f3f2f1" d="M904.623 321.621h-51.974a5.941 5.941 0 0 1-5.941-5.941v-33.54a5.941 5.941 0 0 1 5.941-5.941h51.974a5.941 5.941 0 0 1 5.941 5.941v33.54a5.941 5.941 0 0 1-5.941 5.941"/>
  <path fill="#e7e8e5" d="m852.07 318.78 15.586-22.185a1.766 1.766 0 0 1 2.819-.094l10.71 13.283a1.767 1.767 0 0 0 2.598.164l6.273-6.024a1.766 1.766 0 0 1 2.573.136l12.299 14.597c.968 1.148.152 2.903-1.35 2.903h-50.065c-1.429 0-2.265-1.61-1.444-2.78m35.552-28.75a5.432 5.432 0 0 1-6.218 6.217c-2.284-.35-4.152-2.218-4.502-4.502a5.431 5.431 0 0 1 6.218-6.218c2.285.349 4.152 2.217 4.502 4.502"/>
  <path fill="#fff" d="M89.398 376.31H8.224a7.878 7.878 0 0 1-7.878-7.877V278.66a7.878 7.878 0 0 1 7.878-7.878h81.174a7.878 7.878 0 0 1 7.878 7.878v89.774a7.878 7.878 0 0 1-7.878 7.878"/>
  <path fill="#dadbd8" d="M97.276 288.74H.346v-9.865a8.094 8.094 0 0 1 8.094-8.094h81.38a7.455 7.455 0 0 1 7.455 7.455v10.504"/>
  <path fill="#fff" d="M17.036 281.516c0 1.477-1.272 2.675-2.841 2.675-1.57 0-2.842-1.198-2.842-2.675 0-1.477 1.273-2.675 2.842-2.675 1.569 0 2.841 1.198 2.841 2.675m7.744 0c0 1.477-1.272 2.675-2.841 2.675-1.57 0-2.842-1.198-2.842-2.675 0-1.477 1.273-2.675 2.842-2.675 1.569 0 2.841 1.198 2.841 2.675m7.744 0c0 1.477-1.272 2.675-2.841 2.675-1.57 0-2.841-1.198-2.841-2.675 0-1.477 1.272-2.675 2.84-2.675 1.57 0 2.842 1.198 2.842 2.675"/>
  <path fill="#dadbd8" d="M89.398 376.31c0-.02.345-.02 1.003-.106.656-.085 1.64-.312 2.773-.939a7.848 7.848 0 0 0 3.206-3.429 7.719 7.719 0 0 0 .752-2.916c.044-1.081.003-2.261.01-3.496l-.111-41.939-.043-28.96-.03-16.124c-.042-2.678-1.709-5.278-4.168-6.496-1.233-.638-2.596-.853-4.032-.806l-4.362.002c-23.412.01-49.149.019-76.163.028-3.262-.046-6.33 2.267-7.218 5.355-.476 1.513-.28 3.19-.322 4.855l-.001 4.952c-.002 6.58-.003 13.062-.006 19.433l-.02 36.737-.014 17.107-.009 8.196c-.172 2.64.968 5.21 3.008 6.715a7.35 7.35 0 0 0 3.393 1.446c1.202.175 2.505.078 3.752.107l7.393.01 13.897.022c17.693.047 32.013.085 41.936.11l11.401.066 2.966.035c.668.012 1.01.036 1.01.036s-.342.022-1.01.034l-2.966.035-11.401.065-41.936.111c-4.427.007-9.065.015-13.897.021l-7.393.011c-1.26-.028-2.505.08-3.84-.103a7.95 7.95 0 0 1-3.653-1.546c-2.196-1.591-3.435-4.434-3.254-7.175l-.008-8.196-.014-17.107-.02-36.737L0 286.291v-7.442c.008-.849.093-1.734.352-2.565.966-3.375 4.319-5.9 7.881-5.85 27.014.01 52.75.02 76.163.027l4.362.004c1.448-.05 3.002.188 4.313.88 2.661 1.323 4.455 4.14 4.497 7.036l-.004 16.144-.043 28.96-.11 41.939c-.016 1.241.015 2.4-.04 3.51a7.958 7.958 0 0 1-4.128 6.453c-1.165.618-2.168.824-2.833.886-.667.064-1.012.038-1.012.038"/>
  <path fill="#f3f2f1" d="M45.047 331.432 20.68 306.693a34.71 34.71 0 0 1 10.072-6.905c17.359-7.841 38.096-.01 45.938 17.35 7.842 17.36.01 38.097-17.35 45.938-17.36 7.843-38.097.01-45.939-17.35a34.78 34.78 0 0 1-1.498-3.938l33.143-10.356"/>
  <path fill="#f3f2f1" d="m39.428 330.25-28.924 8.669a30.207 30.207 0 0 1 7.45-29.897l21.474 21.227M581.352 77.428h-58.436a9.494 9.494 0 0 1-9.495-9.495V9.497a9.494 9.494 0 0 1 9.495-9.494h58.436a9.494 9.494 0 0 1 9.495 9.494v58.436a9.494 9.494 0 0 1-9.495 9.495"/>
  <path fill="#fff" d="m525.4 39.83 7.8-7.8 15.041 13.37 25.118-25.213 7.242 7.798-33.474 32.458L525.4 39.829"/>
  <path fill="#e7e8e5" d="m785.804 60.468-.936-52.916c.312-.005.624-.008.936-.008 29.033 0 52.925 23.89 52.925 52.924 0 29.033-23.892 52.924-52.925 52.924-23.085 0-43.63-15.104-50.516-37.14l50.516-15.784"/>
  <path fill="#e7e8e5" d="m780.39 56.67-45.34 14.385a46.012 46.012 0 0 1-2.926-16.151c0-25.247 20.776-46.023 46.024-46.023.404 0 .81.006 1.215.016l1.028 47.774"/>
  <path fill="#17282f" d="M894.945 544.159c0 .191-196.493.348-438.824.348-242.414 0-438.866-.157-438.866-.348 0-.19 196.452-.347 438.866-.347 242.331 0 438.824.156 438.824.347"/>
  <path fill="#fff" d="M331.021 158.413H210.073a7.877 7.877 0 0 1-7.877-7.877V41.837a7.878 7.878 0 0 1 7.877-7.877h120.948a7.878 7.878 0 0 1 7.878 7.877v108.699a7.877 7.877 0 0 1-7.878 7.877"/>
  <path fill="#dadbd8" d="M338.899 55.14H202.196V42.053a8.094 8.094 0 0 1 8.093-8.093h121.156a7.454 7.454 0 0 1 7.454 7.455V55.14"/>
  <path fill="#fff" d="M221.879 46.62c0 1.741-1.5 3.153-3.351 3.153-1.85 0-3.35-1.412-3.35-3.153 0-1.743 1.5-3.155 3.35-3.155s3.35 1.412 3.35 3.155m9.132 0c0 1.741-1.5 3.153-3.35 3.153s-3.35-1.412-3.35-3.153c0-1.743 1.5-3.155 3.35-3.155s3.35 1.412 3.35 3.155m9.134 0c0 1.741-1.5 3.153-3.35 3.153-1.851 0-3.351-1.412-3.351-3.153 0-1.743 1.5-3.155 3.35-3.155 1.851 0 3.351 1.412 3.351 3.155M217.23 66.31v76.126c0-.705 109.882 0 109.882 0"/>
  <path fill="#17282f" d="M327.112 142.436c0 .012-.163.023-.48.032l-1.41.025-5.42.034-19.934.004-65.763-.044-9.509.057-4.65.072c-.766.021-1.538.037-2.28.09l-.257.027-.033.006.004-.003c.79-.02-.616-.397-.492-.305v-.143l.001-.572v-1.137c.008-6.055.015-11.896.02-17.462l.075-29.566.11-19.934.066-5.418c.015-.591.025-1.056.035-1.41.012-.317.022-.48.034-.48.012 0 .024.163.036.48.01.354.02.819.035 1.41l.065 5.418.111 19.934.073 29.566.02 17.462.002 1.137v.715c.117.125-1.256-.304-.451-.327l.072-.023.107-.021.312-.035c.782-.057 1.544-.073 2.317-.094l4.66-.078 9.515-.061c25.684-.056 48.936.113 65.766.248l19.934.216c2.321.043 4.138.075 5.42.097.59.019 1.056.034 1.409.044.317.014.48.027.48.039"/>
  <path fill="#33535f" d="M251.867 133.887H228.42v-30.539h23.446v30.539m31.844 0h-23.446V87.015h23.445v46.872m31.843 0h-23.445V73.333h23.445v60.554"/>
  <path fill="#17282f" d="M331.021 158.413c-.001-.034.451.006 1.302-.152.836-.161 2.13-.497 3.458-1.545a7.839 7.839 0 0 0 2.956-5.261c.107-2.448.011-5.328.027-8.54-.025-12.89-.064-31.511-.11-54.519l-.042-37.648a4304.99 4304.99 0 0 1-.005-5.117l-.003-2.591c-.01-.877.041-1.732-.13-2.552-.537-3.347-3.647-6.141-7.157-6.207l-22.224-.001c-30.433.01-63.89.017-99.008.028-2.108-.016-4.176.916-5.574 2.467-1.431 1.552-2.098 3.641-1.968 5.773l-.002 12.921-.005 25.263-.02 47.756-.005 22.23c.021 1.74.701 3.425 1.8 4.729 1.1 1.313 2.657 2.19 4.302 2.526.823.172 1.668.139 2.546.146l2.592.002 5.117.004 37.65.043 54.515.11 14.822.066 3.854.035c.868.01 1.312.034 1.312.034s-.444.024-1.312.036l-3.854.035-14.822.065-54.516.11c-11.509.013-24.116.028-37.649.042l-5.117.006-2.592.001c-.852-.005-1.764.033-2.66-.152-1.776-.357-3.458-1.304-4.647-2.719-1.19-1.402-1.925-3.226-1.952-5.104l-.024-22.245-.02-47.756-.005-25.263-.002-12.921c-.142-2.196.587-4.577 2.148-6.24 1.526-1.693 3.791-2.713 6.088-2.695l99.008.027 22.248.03c3.795.08 7.144 3.1 7.719 6.713.181.901.123 1.804.133 2.657l-.001 2.59-.005 5.118-.042 37.648c-.046 23.008-.085 41.63-.11 54.519-.038 3.222.038 6.068-.092 8.564a7.967 7.967 0 0 1-3.076 5.348c-1.367 1.048-2.686 1.364-3.532 1.505a5.68 5.68 0 0 1-.982.083 4.377 4.377 0 0 1-.332-.002"/>
  <path fill="#fff" d="m849.48 219.07-1.756-12.16c-6.04-5.463-10.537-12.8-12.472-21.47-4.443-19.91 6.81-40.384 26.004-47.297 23.25-8.375 48.452 5.462 53.863 29.577 4.517 20.13-7.031 40.795-26.531 47.528-9.677 3.341-19.657 2.848-28.39-.6l.02.013-10.738 4.408"/>
  <path fill="#f2575d" d="m853.415 175.604 6.166-6.165 11.894 10.57 19.86-19.936 5.726 6.167-26.468 25.663-17.178-16.299"/>
  <path fill="#17282f" d="M849.48 219.07s.25-.122.717-.325l2.064-.888 7.894-3.346-.035.281-.019-.013-.036-.228.194-.055c4.738 1.824 11.504 3.427 19.549 2.49 2-.242 4.064-.642 6.16-1.227 1.052-.278 2.079-.704 3.148-1.058 1.08-.33 2.117-.814 3.167-1.321a40.259 40.259 0 0 0 11.994-8.535 40.69 40.69 0 0 0 8.714-13.717 40.908 40.908 0 0 0 2.608-17.365c-.396-6.091-2.334-12.258-5.602-17.799-1.568-2.821-3.685-5.332-5.913-7.747-2.377-2.268-4.907-4.469-7.82-6.148-2.807-1.797-5.883-3.05-8.964-4.11-3.136-.884-6.308-1.623-9.505-1.742-6.367-.409-12.69.647-18.259 3.03a40.727 40.727 0 0 0-22.568 23.875c-3.481 9.81-2.723 19.663-.03 27.195a40.766 40.766 0 0 0 10.943 16.511l1.207 9.063c.13 1.008.23 1.788.301 2.353.067.533.091.825.091.825s-.053-.24-.137-.75l-.371-2.3-1.413-9.084.053.1a40.72 40.72 0 0 1-11.167-16.54c-2.781-7.607-3.612-17.611-.11-27.598a41.344 41.344 0 0 1 22.905-24.358c5.67-2.438 12.112-3.526 18.605-3.114 3.262.119 6.498.868 9.695 1.77 3.143 1.077 6.28 2.357 9.141 4.189 2.971 1.713 5.551 3.956 7.974 6.272 2.273 2.463 4.428 5.027 6.025 7.904 3.328 5.655 5.29 11.941 5.685 18.148a41.58 41.58 0 0 1-2.697 17.681 41.256 41.256 0 0 1-8.91 13.923 40.744 40.744 0 0 1-12.223 8.613c-1.067.508-2.123.992-3.22 1.323-1.087.352-2.13.777-3.198 1.052-2.128.58-4.222.972-6.25 1.201a41.006 41.006 0 0 1-19.728-2.702l.156-.283.018.013.038.227-.072.056-8.067 3.207-2.053.802c-.458.176-.686.262-.679.248"/>
  <path fill="#fff" d="m73.42 236.068.295-12.152c10.553-12.124 14.196-30.848 3.499-50.996-37.339-39.54-93.573.72-68.168 48.812 17.052 18.119 37.967 19.55 53.324 11.253l-.017.015 11.067 3.068"/>
  <path fill="#17282f" d="M73.42 236.068s-.26-.09-.743-.235l-2.132-.629c-1.89-.548-4.623-1.337-8.149-2.359l.068.272.016-.014.01-.228-.197-.032c-4.44 2.35-10.9 4.721-18.913 4.748a40.882 40.882 0 0 1-6.197-.482c-1.066-.148-2.125-.445-3.217-.668-1.1-.197-2.176-.55-3.267-.925a39.821 39.821 0 0 1-12.788-6.973 40.244 40.244 0 0 1-10.176-12.451 40.474 40.474 0 0 1-4.606-16.753c-.327-6.031.85-12.318 3.409-18.147 1.208-2.956 2.992-5.67 4.897-8.307 2.069-2.508 4.294-4.968 6.96-6.96 2.545-2.096 5.42-3.689 8.323-5.093 2.976-1.237 6.005-2.337 9.133-2.83 6.207-1.151 12.543-.858 18.295.827a40.283 40.283 0 0 1 24.982 20.799c4.575 9.23 4.99 18.999 3.23 26.716a40.357 40.357 0 0 1-8.807 17.51l-.12 9.045a2883.45 2883.45 0 0 0-.019 2.348c-.003.532.008.821.008.821s.024-.243.047-.755l.093-2.302.32-9.091-.04.104a40.295 40.295 0 0 0 9.023-17.564c1.838-7.8 1.476-17.727-3.14-27.127a40.915 40.915 0 0 0-25.37-21.235c-5.857-1.726-12.314-2.038-18.646-.869-3.19.502-6.28 1.619-9.315 2.88-2.961 1.43-5.893 3.055-8.489 5.191-2.717 2.035-4.988 4.541-7.095 7.101-1.943 2.687-3.758 5.46-4.99 8.475-2.603 5.947-3.791 12.353-3.448 18.499a41.12 41.12 0 0 0 4.73 17.053 40.824 40.824 0 0 0 10.393 12.63 40.318 40.318 0 0 0 13.023 7.023c1.108.374 2.202.726 3.319.92 1.109.219 2.184.514 3.266.658 2.158.32 4.262.457 6.28.445a40.587 40.587 0 0 0 19.065-4.977l-.187-.26-.016.016-.01.226.077.047 8.303 2.201 2.111.547c.47.12.705.176.696.164"/>
  <path fill="#17282f" d="M56.66 194.372c-4.016 5.275 1.945 11.236 7.22 7.219 4.017-5.274-1.946-11.236-7.22-7.219m-17.148 0c-4.016 5.275 1.946 11.236 7.22 7.219 4.017-5.274-1.946-11.236-7.22-7.219m-17.147 0c-4.017 5.275 1.944 11.236 7.219 7.219 4.017-5.274-1.944-11.236-7.219-7.219"/>
  <path fill="#f2575d" d="m257.216 342.608-26.087-7.033-5.192 23.609-13.022-35.608c-6.072-17.023-14.38-22.887-20.111-24.473l-2.072 2.696 5.488 94.181 17.392 21.632c8.133 10.116 24.544 8.128 29.245-3.97 9.768-25.133 13.084-63.383 14.359-71.034"/>
  <path fill="#17282f" d="M73.464 543.792h130.517L190.3 450.09l-83.184-5.954S92.767 458.2 88.015 474.713c-4.753 16.512-14.551 69.08-14.551 69.08m21.949-310.84c3.08-27.797 9.143-58.404 48.767-56.874 0 0 29.844 1.041 39.341 22.253 5.143 11.485 3.696 55.116 6.051 91.084l5.792 46.159-119.832-18.516s17.964-66.819 19.88-84.106"/>
  <path fill="#f9a78d" d="m149.807 187.087-2.551-2.276-26.372 11.649a7.464 7.464 0 0 0-6.807 7.453l6.03 88.45c.16 5.906-1.424 9.604 2.296 14.193l25.558 30.576c8.93 11.017 7.323-13.833 13.69-26.505.445-.886-1.712-4.06-1.59-4.683.118-.781.312-1.299.334-1.961.565-7.032.412-13.108.412-13.108.222-7.708.276-10.87.28-10.798 0 0 16.308-2.418 20.042-23.576 1.858-10.522.971-24.885-.113-39.014-1.499-19.554-15.47-30.936-31.21-30.4"/>
  <path fill="#17282f" d="M150 233.597c.027 1.438-1.17 2.646-2.67 2.7-1.5.055-2.737-1.064-2.763-2.501-.026-1.439 1.17-2.647 2.668-2.701 1.501-.056 2.74 1.065 2.765 2.502m26.219-.265c.025 1.437-1.171 2.644-2.671 2.699-1.499.054-2.736-1.063-2.763-2.502-.026-1.437 1.171-2.646 2.668-2.701 1.502-.055 2.739 1.065 2.766 2.504m2.185-10.156c-.343.348-2.377-1.212-5.307-1.256-2.924-.084-5.098 1.385-5.409 1.021-.155-.161.201-.796 1.148-1.461.933-.663 2.516-1.295 4.339-1.256 1.824.041 3.346.74 4.216 1.443.888.705 1.182 1.352 1.013 1.509m-29.654 1.276c-.378.312-2.243-1.45-5.15-1.792-2.9-.385-5.213.852-5.487.459-.134-.176.28-.771 1.294-1.335.996-.564 2.634-1.03 4.445-.804 1.81.228 3.252 1.079 4.045 1.867.808.794 1.038 1.468.854 1.605m10.912 20.943c-.012-.166 1.813-.448 4.769-.776.75-.064 1.459-.2 1.595-.708.185-.538-.114-1.348-.462-2.224-.672-1.822-1.374-3.731-2.113-5.732-2.93-8.159-5.037-14.862-4.708-14.976.33-.116 2.973 6.404 5.903 14.562.704 2.011 1.378 3.928 2.018 5.763.27.855.739 1.828.338 2.941-.211.556-.767.951-1.248 1.072-.482.139-.903.139-1.272.155-2.971.108-4.812.09-4.82-.077"/>
  <path fill="#f57f62" d="M161.087 280.077s-14.288.675-28.283-8.069c0 0 6.89 14.81 28.159 13.19l.124-5.12"/>
  <path fill="#17282f" d="M151.175 212.965c-.382.758-3.239.034-6.699.036-3.461-.066-6.332.602-6.699-.161-.161-.364.407-1.05 1.611-1.681 1.193-.632 3.04-1.148 5.115-1.131 2.074.021 3.91.572 5.093 1.225 1.19.656 1.748 1.352 1.579 1.712m26.397-2.335c-.527.655-2.532-.069-4.957-.143-2.422-.159-4.487.369-4.947-.334-.203-.341.133-1.002 1.041-1.616.895-.612 2.383-1.1 4.05-1.02 1.665.082 3.098.71 3.93 1.404.846.699 1.115 1.388.883 1.71"/>
  <path fill="#17282f" d="M115.83 241.059s15.125 4.168 22.383-33.06c2.482-12.731 13.859-23.347 13.859-23.347l-4.797-1.272s-29.25 9.287-29.734 9.676c-.485.388-6.947 15.513-6.947 15.513l5.237 32.49"/>
  <path fill="#f9a78d" d="M119.475 239.561c.023-1.58-1.739-5.336-3.295-5.606-4.155-.722-11.671-.516-11.923 10.064-.346 14.464 14.247 11.826 14.282 11.412.028-.323.855-10.414.936-15.87"/>
  <path fill="#f57f62" d="M114.252 249.845c-.063-.048-.257.171-.687.356-.42.18-1.137.295-1.884-.006-1.515-.596-2.744-3.054-2.752-5.662a8.326 8.326 0 0 1 .791-3.592c.467-1.046 1.169-1.77 1.942-1.888a1.284 1.284 0 0 1 1.47.726c.185.409.086.696.162.722.04.038.316-.234.214-.834a1.603 1.603 0 0 0-.548-.92c-.34-.291-.846-.447-1.385-.403-1.117.052-2.145 1.053-2.684 2.181a8.541 8.541 0 0 0-.97 4.01c.023 2.917 1.45 5.68 3.526 6.334 1.01.29 1.868.003 2.314-.328.457-.345.54-.668.49-.696"/>
  <path fill="#17282f" d="M125.753 233.659c-.007-.048.794-.078 2.149-.508 1.346-.424 3.226-1.375 5.043-3.152a17.92 17.92 0 0 0 2.578-3.228c.777-1.27 1.465-2.716 2.042-4.292 1.176-3.152 1.876-6.804 2.766-10.6.89-3.8 1.873-7.392 2.976-10.592a60.198 60.198 0 0 1 3.494-8.282c1.182-2.272 2.307-4.017 3.139-5.18.408-.589.765-1.016.993-1.314.234-.296.36-.447.371-.439.01.008-.096.175-.31.484-.206.315-.543.755-.93 1.353a49.474 49.474 0 0 0-3.021 5.22 62.967 62.967 0 0 0-3.4 8.271c-1.08 3.193-2.05 6.775-2.938 10.567-.888 3.784-1.6 7.453-2.808 10.636-.593 1.59-1.301 3.052-2.104 4.337a17.874 17.874 0 0 1-2.66 3.255c-1.873 1.782-3.808 2.713-5.187 3.1-1.388.39-2.193.364-2.193.364"/>
  <path fill="#33535f" d="M108.045 295.905c-.015.003-.076-.232-.179-.692l-.432-2.041-1.556-7.795.347-.061.293 1.697-.017-.053.324.639-.358.144a139.156 139.156 0 0 1-5.393-23.088c-.694-4.672-1.165-9.711-1.377-15.004-.122-5.279-.344-10.882.886-16.527a26.026 26.026 0 0 1 2.41-6.64c1.09-2.06 2.406-3.945 3.81-5.69 2.826-3.489 5.892-6.509 8.684-9.5 5.638-5.923 10.72-11.26 14.999-15.758l10.153-10.584 2.785-2.855c.301-.3.544-.54.736-.73.17-.163.26-.242.268-.234.008.008-.067.102-.219.279l-.688.776c-.649.71-1.55 1.692-2.696 2.94l-10 10.73-14.896 15.854c-2.781 3.003-5.842 6.037-8.62 9.485-2.78 3.434-5.139 7.466-6.082 12.071-1.207 5.52-1.001 11.101-.89 16.36.198 5.27.649 10.287 1.316 14.944 1.3 9.325 3.362 17.193 5.182 23.053l-.357.146-.314-.643-.014-.027-.004-.026-.268-1.702.347-.061 1.393 7.827.342 2.056c.072.466.1.708.085.71"/>
  <path fill="#33535f" d="M108.214 259.013a5.948 5.948 0 1 0 11.89-.39 5.948 5.948 0 0 0-11.89.39"/>
  <path fill="#17282f" d="M195.524 322.02c.037-.003.112.467.22 1.365l.421 3.936c.376 3.419.719 8.384 1.04 14.523.631 12.283.616 29.284.002 48.02-.611 18.743-1.114 35.697-.946 47.973.064 6.136.182 11.105.339 14.534l.125 3.953c.018.904.01 1.381-.028 1.384-.037.003-.1-.47-.186-1.37l-.327-3.945c-.285-3.426-.517-8.397-.68-14.543-.363-12.293.023-29.282.632-48.018.615-18.73.75-35.69.313-47.957-.224-6.132-.452-11.096-.698-14.52a3319.62 3319.62 0 0 1-.222-3.95c-.038-.904-.042-1.381-.005-1.385"/>
  <path fill="#fff" d="m97.58 328.83 14.589 115.305 78.907 5.654 5.108 2.604-5.21-95.272-27.395-65.136-2.751-1.676s-2.299 19.254-9.713 18.931c-5.052-.221-24.147-9.287-28.346-12.104l-4.212-12.261L97.58 328.83"/>
  <path fill="#f2575d" d="m80.801 466.216 16.78-38.484-16.255-123.176 28.298-11.86 9.27-10s8.601 31.776 11.288 42.905c2.687 11.13 10.366 35.6 13.794 57.536 3.428 21.936-1.01 63.472-4.416 77.51-3.408 14.037-17.195 83.512-17.195 83.512H59.021s10.235-53.587 21.78-77.943m80.286-182.746 6.712 6.84 25.005 8.793s7.363 28.841 7.655 37.729c.292 8.887-.136 107.525.016 112.161.153 4.638 17.724 90.884 16.305 94.8h-17.141s-9.208-70.873-9.818-89.421c-.609-18.547-2.88-64.117-7.48-86.401-4.601-22.286-21.534-77.096-21.534-77.096l.28-7.406"/>
  <path fill="#17282f" d="M190.577 464.715c-.017 0-.034-.156-.05-.461l-.05-1.354-.097-5.207-.193-19.146c-.152-16.166-.234-38.503-.642-63.159-.072-3.081-.129-6.128-.254-9.121-.08-2.968-.508-5.898-.826-8.795-.656-5.78-1.301-11.35-2.016-16.64-.713-5.29-1.486-10.305-2.436-14.947-.937-4.637-2.437-8.784-4.017-12.492-3.193-7.4-6.425-13.101-8.664-17.018l-2.636-4.484-.688-1.167c-.15-.265-.224-.404-.21-.415.014-.008.115.112.295.36l.771 1.115c.663.99 1.621 2.461 2.799 4.393 2.345 3.867 5.677 9.526 8.974 16.94 1.63 3.704 3.196 7.915 4.179 12.599.99 4.667 1.796 9.692 2.536 14.992.741 5.299 1.407 10.875 2.076 16.653.323 2.882.757 5.82.845 8.863.13 3.01.188 6.059.26 9.144.408 24.673.379 47.008.352 63.177-.05 8.02-.09 14.54-.12 19.148-.037 2.196-.066 3.935-.089 5.207l-.048 1.354c-.017.305-.033.46-.05.46m-47.021-35.584c-.034.003-.129-.471-.262-1.382a98.316 98.316 0 0 1-.474-3.994 181.576 181.576 0 0 1-.824-14.77 200.56 200.56 0 0 1 .099-10.22c.036-3.61-.785-7.448-1.825-11.416-2.282-7.91-5.767-16.34-9.723-25.039-4.007-8.689-8.131-16.836-11.946-24.217-1.859-3.707-3.862-7.143-5.113-10.667-1.26-3.49-2.114-6.818-2.847-9.862-1.44-6.094-2.28-11.084-2.833-14.532-.269-1.726-.456-3.07-.567-3.982-.111-.913-.148-1.396-.114-1.4.034-.004.137.468.311 1.371l.75 3.95c.67 3.423 1.611 8.389 3.133 14.438.773 3.019 1.663 6.324 2.94 9.752 1.246 3.417 3.27 6.839 5.155 10.541 3.862 7.364 8.018 15.514 12.037 24.224 3.966 8.726 7.442 17.195 9.697 25.196 1.026 4.023 1.838 7.918 1.764 11.671a219.05 219.05 0 0 0-.218 10.184c.008 6.23.287 11.268.508 14.747l.288 4.003c.068.917.098 1.4.064 1.404m53.406-112.52c.03-.017.268.387.69 1.174.444.776 1.01 1.967 1.71 3.513 1.372 3.104 3.02 7.766 4.278 13.715 1.263 5.945 2.054 13.175 2.066 21.207-.03 8.03-.656 16.825-1.458 26.026-1.705 18.4-2.78 35.072-3.141 47.17-.213 6.045-.335 10.941-.407 14.323l-.117 3.897c-.037.89-.075 1.358-.11 1.358-.033 0-.065-.468-.091-1.358-.018-.99-.04-2.286-.07-3.9-.046-3.385-.033-8.286.091-14.34.181-12.11 1.147-28.838 2.852-47.234.801-9.196 1.453-17.965 1.532-25.944.037-7.974-.673-15.152-1.837-21.065-1.16-5.917-2.692-10.575-3.946-13.705-.642-1.56-1.148-2.771-1.532-3.575-.364-.812-.541-1.248-.51-1.263"/>
  <path fill="#f57f62" d="M149.737 250.565c-.894 1.358-.985 3.312-.902 4.936.049.97.31 1.979.99 2.672.647.659 1.604.95 2.527.932.923-.016 1.819-.312 2.663-.688 1.586-.886 2.688-2.582 3.596-4.601-2.327-.805-6.424-2.475-8.874-3.25"/>
  <path fill="#17282f" d="M155.46 258.17c.09.018-.948 1.217-3.243 1.158a4.713 4.713 0 0 1-1.756-.492c-.613-.293-1.149-.864-1.488-1.53-.352-.669-.505-1.485-.485-2.274.005-.79.108-1.59.267-2.4.16-.77.341-1.504.677-2.219l.13-.276.28.103a247.51 247.51 0 0 1 6.3 2.435c1.569.638 2.497 1.061 2.469 1.141-.027.08-1.007-.196-2.611-.72a242.666 242.666 0 0 1-6.365-2.205l.408-.174c-.274.595-.46 1.324-.608 2.051-.282 1.541-.474 3.099.11 4.253.535 1.211 1.739 1.672 2.723 1.819.985.121 1.827-.123 2.356-.312.539-.203.801-.401.836-.359"/>
  <path fill="#fff" d="M657.981 544.159H245.23c-11.265 0-20.397-9.133-20.397-20.398V220.905c0-11.265 9.132-20.397 20.397-20.397h412.752c11.266 0 20.398 9.132 20.398 20.397v302.856c0 11.265-9.132 20.398-20.398 20.398"/>
  <path fill="#dadbd8" d="M678.553 246.9H224.832v-26.292c0-11.101 8.999-20.1 20.1-20.1h412.604c11.608 0 21.017 9.41 21.017 21.017V246.9"/>
  <path fill="#17282f" d="M657.981 544.16s.34-.03 1.012-.07c.335-.027.756-.024 1.254-.09l1.728-.274c.645-.15 1.368-.34 2.161-.563.765-.307 1.644-.547 2.512-1.016a19.728 19.728 0 0 0 5.577-3.893 19.926 19.926 0 0 0 4.699-7.21c.136-.375.275-.753.413-1.137.123-.39.21-.794.318-1.198.242-.8.333-1.652.469-2.513.19-1.73.159-3.558.15-5.458l-.031-26.218-.11-167.093-.022-55.366-.011-29.453-.005-15.148c-.026-2.54.054-5.123-.059-7.659a19.992 19.992 0 0 0-1.832-7.357c-2.139-4.641-6.156-8.44-11.017-10.29-2.427-.943-5.034-1.36-7.666-1.351l-8.005.002-32.65.008c-22.093.006-44.831.01-68.149.015l-303.45.027a20.709 20.709 0 0 0-9.516 2.382 20.673 20.673 0 0 0-7.227 6.59c-1.79 2.753-2.947 5.922-3.25 9.189-.115 1.624-.098 3.296-.095 4.961v4.988c-.002 13.292-.002 26.495-.002 39.602l-.005 77.426a12686728.234 12686728.234 0 0 1-.024 163.75l-.001 8.606c.048 2.855-.15 5.736.257 8.488.827 5.538 4.09 10.608 8.705 13.65a20.066 20.066 0 0 0 7.603 3.038c1.975.358 4.004.343 6.036.327.736-.005 1.473-.01 2.208.002l64.287.018c41.48.015 80.117.03 115.39.041 70.543.047 127.627.086 167.083.11 19.721.029 35.036.052 45.427.066l11.813.035c2.661.012 4.025.036 4.025.036s-1.364.023-4.025.035l-11.813.035-45.427.065-167.083.11-115.39.042c-20.74.007-42.192.012-64.287.017-.735-.012-1.47-.005-2.21 0-2.033.017-4.085.033-6.14-.334a20.672 20.672 0 0 1-7.84-3.129c-4.757-3.132-8.125-8.357-8.98-14.068-.422-2.876-.218-5.728-.269-8.584l-.002-8.606-.003-17.382-.02-146.368c-.003-25.381-.004-51.212-.005-77.426-.002-13.107-.002-26.31-.002-39.602v-4.988c-.002-1.664-.022-3.322.099-5.026.312-3.379 1.508-6.662 3.361-9.508a21.378 21.378 0 0 1 7.476-6.818 21.413 21.413 0 0 1 9.846-2.464l303.45.027 68.15.015 32.649.008 8.005.002c2.682-.01 5.384.422 7.875 1.395 5.004 1.907 9.132 5.816 11.33 10.593a20.576 20.576 0 0 1 1.88 7.57c.114 2.597.031 5.136.055 7.689-.001 5.096-.002 10.145-.005 15.148l-.01 29.453-.022 55.366-.11 167.093-.033 26.218c.002 1.897.03 3.729-.169 5.48-.139.87-.233 1.729-.481 2.537-.11.405-.199.813-.324 1.205l-.422 1.147a20.034 20.034 0 0 1-4.761 7.245 19.744 19.744 0 0 1-5.63 3.89c-.875.466-1.76.702-2.531 1.005-.799.22-1.526.403-2.175.55l-1.736.255c-.499.06-.921.052-1.257.074-.674.029-1.014.034-1.014.034"/>
  <path fill="#fff" d="M254.576 226.488a5.314 5.314 0 1 1-10.628-.002 5.314 5.314 0 0 1 10.628.002m15.937 0a5.314 5.314 0 1 1-10.628-.002 5.314 5.314 0 0 1 10.628.002m15.937 0a5.313 5.313 0 1 1-10.626 0 5.313 5.313 0 0 1 10.627 0"/>
  <path fill="#e7e8e5" d="M280.61 318.953c-5.026 5.207-4.88 13.503.327 18.531 5.207 5.027 13.503 4.881 18.53-.327 5.026-5.206 4.882-13.502-.326-18.53-5.206-5.027-13.502-4.88-18.53.326zm-6.51-16.272a29.943 29.943 0 0 1 7.304-3.173l1.504-7.23 12.215-.214 1.757 7.17a29.924 29.924 0 0 1 7.412 2.917l6.173-4.047 8.788 8.487-3.826 6.309a29.899 29.899 0 0 1 3.174 7.305l7.23 1.506.213 12.213-7.17 1.759a29.95 29.95 0 0 1-2.917 7.41l4.046 6.174-8.484 8.789-6.311-3.827a29.923 29.923 0 0 1-7.305 3.174l-1.506 7.229-12.213.215-1.759-7.172a29.95 29.95 0 0 1-7.41-2.916l-6.174 4.046-8.788-8.485 3.827-6.31a29.883 29.883 0 0 1-3.175-7.306l-7.229-1.504-.215-12.215 7.172-1.758a29.92 29.92 0 0 1 2.916-7.41l-4.046-6.173 8.485-8.79 6.312 3.827m346.235 147.561a7.917 7.917 0 1 0 11.39 10.996 7.917 7.917 0 0 0-11.39-10.996zm-3.934-9.83a18.1 18.1 0 0 1 4.412-1.919l.908-4.367 7.379-.129 1.063 4.333c1.545.38 3.053.967 4.477 1.76l3.728-2.443 5.31 5.125-2.311 3.812a18.093 18.093 0 0 1 1.917 4.413l4.367.91.129 7.378-4.332 1.062a18.1 18.1 0 0 1-1.761 4.477l2.444 3.73-5.126 5.309-3.813-2.312a18.094 18.094 0 0 1-4.412 1.917l-.91 4.367-7.378.129-1.061-4.332a18.09 18.09 0 0 1-4.478-1.761l-3.729 2.444-5.308-5.126 2.31-3.812a18.096 18.096 0 0 1-1.917-4.413l-4.366-.908-.13-7.379 4.332-1.062a18.091 18.091 0 0 1 1.762-4.477l-2.444-3.729 5.125-5.31 3.813 2.313"/>
  <path fill="#dadbd8" d="M429.839 454.307c-5.027 5.206-4.882 13.504.326 18.53 5.207 5.027 13.503 4.882 18.53-.326 5.026-5.207 4.882-13.503-.326-18.53-5.206-5.027-13.502-4.881-18.53.326zm-6.511-16.272a29.933 29.933 0 0 1 7.304-3.174l1.504-7.23 12.215-.213 1.757 7.171c2.56.63 5.055 1.602 7.412 2.915l6.173-4.047 8.788 8.487-3.826 6.31a29.88 29.88 0 0 1 3.174 7.306l7.228 1.504.215 12.213-7.17 1.759a29.925 29.925 0 0 1-2.917 7.41l4.046 6.174-8.484 8.79-6.311-3.827a29.939 29.939 0 0 1-7.305 3.173l-1.506 7.23-12.213.214-1.759-7.172a29.94 29.94 0 0 1-7.41-2.916l-6.174 4.047-8.788-8.486 3.827-6.31a29.9 29.9 0 0 1-3.175-7.304l-7.229-1.505-.215-12.216 7.172-1.757a29.929 29.929 0 0 1 2.916-7.41l-4.046-6.174 8.485-8.789 6.312 3.827"/>
  <path fill="#e7e8e5" d="M494.741 492.873a7.518 7.518 0 1 0 10.817 10.44 7.518 7.518 0 0 0-10.817-10.44zm-3.734-9.335a17.201 17.201 0 0 1 4.189-1.82l.864-4.147 7.007-.123 1.008 4.113c1.468.363 2.898.92 4.252 1.674l3.54-2.322 5.042 4.868-2.196 3.62a17.15 17.15 0 0 1 1.822 4.191l4.146.863.123 7.006-4.113 1.008a17.17 17.17 0 0 1-1.672 4.252l2.32 3.542-4.867 5.041-3.62-2.195a17.217 17.217 0 0 1-4.19 1.82l-.865 4.148-7.006.123-1.008-4.115a17.168 17.168 0 0 1-4.251-1.672l-3.541 2.322-5.042-4.868 2.195-3.62a17.163 17.163 0 0 1-1.821-4.19l-4.147-.864-.123-7.006 4.114-1.01a17.19 17.19 0 0 1 1.673-4.25l-2.321-3.542 4.866-5.04 3.622 2.193"/>
  <path fill="#f3f2f1" d="M341.364 487.14a4.74 4.74 0 1 0 6.82 6.585 4.74 4.74 0 0 0-6.82-6.585zm-2.356-5.885a10.797 10.797 0 0 1 2.643-1.148l.544-2.616 4.417-.078.636 2.595c.927.228 1.828.579 2.681 1.055l2.234-1.464 3.178 3.07-1.384 2.281a10.81 10.81 0 0 1 1.148 2.643l2.615.544.077 4.418-2.593.636a10.81 10.81 0 0 1-1.055 2.68l1.463 2.234-3.068 3.179-2.284-1.384c-.835.504-1.724.887-2.641 1.148l-.546 2.615-4.417.077-.636-2.593a10.89 10.89 0 0 1-2.68-1.055l-2.233 1.463-3.179-3.07 1.384-2.282a10.819 10.819 0 0 1-1.15-2.642l-2.614-.544-.077-4.418 2.594-.636a10.81 10.81 0 0 1 1.055-2.68l-1.464-2.234 3.07-3.178 2.282 1.384"/>
  <path fill="#e7e8e5" d="M561.119 315.324c-5.027 5.207-4.882 13.503.326 18.53 5.207 5.027 13.503 4.882 18.53-.326 5.026-5.207 4.882-13.503-.326-18.53-5.206-5.027-13.502-4.88-18.53.326zm-6.511-16.272a29.943 29.943 0 0 1 7.304-3.173l1.504-7.231 12.215-.213 1.757 7.17a29.96 29.96 0 0 1 7.412 2.916l6.173-4.046 8.788 8.486-3.826 6.31a29.899 29.899 0 0 1 3.174 7.305l7.228 1.505.215 12.214-7.17 1.758a29.95 29.95 0 0 1-2.917 7.411l4.046 6.173-8.484 8.79-6.311-3.827a29.923 29.923 0 0 1-7.305 3.173l-1.506 7.23-12.213.214-1.759-7.172a29.95 29.95 0 0 1-7.41-2.916l-6.174 4.047-8.788-8.485 3.827-6.311a29.883 29.883 0 0 1-3.175-7.305l-7.229-1.504-.215-12.215 7.172-1.759a29.92 29.92 0 0 1 2.916-7.409l-4.046-6.173 8.485-8.79 6.312 3.827"/>
  <path fill="#f3f2f1" d="M298.41 465.315a6.86 6.86 0 1 0 9.701-.17 6.86 6.86 0 0 0-9.7.17zm-3.409-8.519a15.683 15.683 0 0 1 3.824-1.663l.788-3.784 6.395-.112.92 3.754c1.34.33 2.647.839 3.88 1.526l3.232-2.118 4.601 4.444-2.002 3.302a15.682 15.682 0 0 1 1.661 3.826l3.784.788.113 6.395-3.754.92a15.69 15.69 0 0 1-1.527 3.88l2.117 3.231-4.441 4.602-3.304-2.003a15.666 15.666 0 0 1-3.825 1.661l-.787 3.786-6.395.112-.921-3.755c-1.34-.33-2.645-.84-3.88-1.527l-3.232 2.12-4.601-4.444 2.004-3.304a15.69 15.69 0 0 1-1.663-3.825l-3.784-.787-.112-6.396 3.755-.92a15.66 15.66 0 0 1 1.525-3.88l-2.117-3.232 4.441-4.6 3.305 2.003"/>
  <path fill="#f2575d" d="M288.11 466.05c-9.853-2.398-17.946-5.627-24.275-9.686l13.616-31.738c5.97 3.57 12.658 6.431 20.066 8.58 7.404 2.154 14.512 3.23 21.32 3.23 5.851 0 10.034-.582 12.542-1.753 2.508-1.168 3.762-2.92 3.762-5.258 0-2.704-1.644-4.734-4.926-6.09-3.288-1.351-8.69-2.827-16.215-4.428-9.675-2.09-17.737-4.336-24.187-6.734-6.449-2.398-12.065-6.333-16.841-11.809-4.779-5.47-7.167-12.884-7.167-22.235 0-8.118 2.208-15.498 6.63-22.14 4.417-6.644 11.017-11.869 19.797-15.684 8.779-3.81 19.439-5.72 31.98-5.72 8.6 0 17.048.955 25.35 2.86 8.302 1.908 15.617 4.706 21.949 8.396l-12.72 31.552c-12.304-6.394-23.95-9.596-34.938-9.596-10.869 0-16.302 2.708-16.302 8.119 0 2.584 1.612 4.521 4.837 5.813 3.224 1.291 8.537 2.674 15.945 4.151 9.555 1.845 17.616 3.967 24.187 6.365 6.567 2.399 12.272 6.306 17.11 11.716 4.837 5.415 7.255 12.796 7.255 22.143 0 8.119-2.212 15.47-6.629 22.05-4.419 6.58-11.017 11.807-19.797 15.683-8.779 3.874-19.439 5.81-31.98 5.81-10.392 0-20.514-1.198-30.368-3.596M493.7 433.852v32.844H389.427V337.537h101.942v32.844h-60.377v15.13h53.033v31.368h-53.033v16.973H493.7m81.685-32.762-46.702-48.835a66.509 66.509 0 0 1 19.304-13.631c33.273-15.48 73.022-.019 88.053 34.25 15.03 34.267.017 75.202-33.257 90.682-33.274 15.479-73.023.019-88.054-34.25a70.147 70.147 0 0 1-2.872-7.774l63.528-20.443"/>
  <path fill="#f2575d" d="m575.385 401.203-63.528 20.442a70.46 70.46 0 0 1-3.028-20.442c0-18.711 7.439-36.63 20.575-49.556l45.981 49.556"/>
  <path fill="#cc4341" d="M511.857 421.645a70.46 70.46 0 0 1-3.028-20.442c0-18.711 7.439-36.63 20.575-49.556l45.981 49.556-63.496 20.433-.032.01"/>
  <path fill="#dadbd8" d="m575.385 401.203-49.268 45.912s-10.317-11.108-14.26-25.47l63.528-20.442"/>
  <path fill="#e7e8e5" d="M383.336 284.321a6.861 6.861 0 1 0 9.872 9.53 6.861 6.861 0 0 0-9.872-9.53m-3.408-8.52a15.663 15.663 0 0 1 3.823-1.661l.788-3.785 6.394-.112.922 3.754c1.34.331 2.645.839 3.88 1.527l3.232-2.119 4.601 4.443-2.004 3.304a15.699 15.699 0 0 1 1.663 3.824l3.784.788.112 6.395-3.755.921a15.604 15.604 0 0 1-1.527 3.879l2.119 3.233-4.443 4.601-3.304-2.004a15.621 15.621 0 0 1-3.824 1.662l-.788 3.785-6.394.112-.92-3.755a15.665 15.665 0 0 1-3.88-1.526l-3.232 2.118-4.602-4.442 2.003-3.304a15.672 15.672 0 0 1-1.661-3.824l-3.786-.788-.112-6.395 3.755-.92c.33-1.34.84-2.647 1.527-3.88l-2.119-3.232 4.443-4.601 3.305 2.002"/>
  <path fill="#f9a78d" d="M229.901 402.377s3.978-4.372-2.464-5.624c-6.442-1.25-39.137-.673-50.76 3.094l-15.772 2.68 2.768 25.916 9.848-2.271 23.502 3.559c2.701.407 10.961-3.039 4.428-7.344 0 0 7.76-3.8 1.889-8.832 0 0 5.705-3.006 1.08-8.956l25.481-2.222"/>
  <path fill="#e7e8e5" d="m158.217 401.584 6.118-.495-.682 27.802-5.96 1.23.524-28.537"/>
  <path fill="#f2575d" d="M81.784 303.924s-14.925 5.133-18.025 25.608c-3.375 22.299 5.425 61.181 5.793 75.281.273 10.415 7.108 34.42 29.336 33.592 31.106-1.158 59.693-7.96 59.693-7.96l-.1-29.192-52.864.036-5.25-49.541"/>
  <path fill="#17282f" d="M100.367 351.748s.055.29.127.861l.304 2.542 1.105 9.805 3.959 36.308-.245-.221 52.863-.112.321-.002.002.323.122 29.192.002.276-.266.059c-13.356 2.998-27.778 5.334-42.743 6.82-6.031.566-11.989.986-17.9 1.16-2.976.021-5.955-.396-8.735-1.37-2.768-.993-5.355-2.45-7.549-4.332-4.44-3.741-7.426-8.76-9.433-13.88-1.99-5.146-3.066-10.549-3.156-15.805-.318-5.203-1.07-10.267-1.73-15.181l-1.978-14.307c-1.212-9.241-2.184-17.883-2.522-25.813-.334-7.919-.126-15.156 1.19-21.352.127-.782.358-1.524.573-2.256.22-.731.404-1.459.642-2.152.556-1.362.982-2.716 1.635-3.907 1.128-2.47 2.58-4.5 3.932-6.259 2.841-3.437 5.666-5.525 7.683-6.692a20.582 20.582 0 0 1 2.364-1.216c.55-.236.85-.313.85-.313s-.281.123-.82.38a23.4 23.4 0 0 0-2.32 1.272c-1.984 1.2-4.76 3.31-7.541 6.741-1.325 1.758-2.745 3.779-3.844 6.232-.638 1.184-1.05 2.531-1.59 3.88-.232.69-.41 1.411-.624 2.136-.208.726-.432 1.463-.553 2.239-1.267 6.144-1.441 13.35-1.076 21.243.368 7.906 1.368 16.53 2.603 25.76l2.013 14.298c.671 4.919 1.434 9.976 1.765 15.232.1 5.227 1.166 10.51 3.134 15.594 1.983 5.042 4.926 9.96 9.25 13.594 2.137 1.831 4.647 3.24 7.332 4.203 2.698.943 5.593 1.348 8.499 1.327 5.858-.175 11.829-.598 17.837-1.162 14.928-1.481 29.344-3.808 42.654-6.782l-.264.336-.08-29.192.322.32-52.864-.039h-.223l-.023-.22-3.737-36.332-.975-9.819-.236-2.548a17.348 17.348 0 0 1-.056-.869"/>
  <path fill="#17282f" d="M100.105 415.268c-.165.045-.542-3.58 1.085-7.648 1.585-4.085 4.337-6.476 4.427-6.33.172.143-2.25 2.663-3.769 6.59-1.567 3.905-1.518 7.401-1.743 7.388m-5.444-78.729c-.109.017-.38-1.351-.951-3.519a58.418 58.418 0 0 0-2.849-8.261 58.427 58.427 0 0 0-4.096-7.72c-1.196-1.898-2.011-3.03-1.924-3.098.066-.052 1.025.974 2.34 2.819 1.317 1.843 2.945 4.539 4.33 7.716 1.378 3.18 2.238 6.21 2.687 8.43.451 2.22.547 3.62.463 3.633"/>
  <path fill="#ba6258" d="m493.355 160.977-21.806-79.865c-4.777-20.044-20.424-33.97-40.328-28.64l-1.812.599c-18.221 6.038-28.758 25.053-24.204 43.701 4.238 17.35 9.142 36.465 12.258 45.495 6.452 18.69 26.19 15.389 26.19 15.389.043-.012 3.424 11.521 5.01 17.103l-.732 14.308 14.538-8.279 30.886-19.81"/>
  <path fill="#6f3530" d="M443.653 157.656s12.059-3.227 22.043-15.323c0 0-1.204 16.059-20.49 20.575l-1.553-5.252"/>
  <path fill="#17282f" d="M417.796 113.003c.417 1.432 1.976 2.257 3.48 1.846 1.5-.409 2.381-1.898 1.961-3.33-.418-1.434-1.977-2.26-3.477-1.852-1.504.41-2.384 1.904-1.964 3.336m-5.853-9.264c.448.238 1.98-1.938 4.866-2.884 2.871-.99 5.479-.208 5.674-.664.102-.207-.446-.727-1.588-1.092-1.13-.367-2.892-.506-4.687.098-1.792.607-3.085 1.767-3.73 2.732-.66.975-.751 1.706-.535 1.81m30.044 1.449c.418 1.433 1.977 2.259 3.48 1.848 1.501-.41 2.381-1.899 1.962-3.332-.42-1.432-1.977-2.259-3.478-1.85-1.504.41-2.383 1.903-1.964 3.334m-1.552-10.151c.449.24 1.985-1.936 4.869-2.884 2.87-.988 5.477-.206 5.675-.664.1-.206-.443-.725-1.591-1.09-1.13-.368-2.892-.504-4.685.098-1.794.606-3.086 1.768-3.731 2.732-.659.974-.75 1.706-.537 1.808m-3.002 25.591c-.041-.168-1.936.116-4.964.707-.762.169-1.508.253-1.797-.208-.35-.475-.305-1.371-.232-2.347l.319-6.33c.378-8.986.393-16.277.03-16.289-.362-.012-.962 7.262-1.341 16.248-.075 2.212-.15 4.319-.217 6.334 0 .929-.166 2.037.576 3.017.381.485 1.054.705 1.568.675.52-.012.937-.142 1.309-.24 2.975-.812 4.792-1.399 4.75-1.567m-.922-34.303c.636.607 3.179-1.094 6.561-2.297 3.359-1.27 6.398-1.616 6.491-2.49.032-.411-.763-.883-2.16-1.082-1.387-.203-3.37-.064-5.393.676-2.02.744-3.623 1.92-4.551 2.97-.937 1.055-1.239 1.93-.948 2.223M409 95.301c.81.47 2.955-.957 5.781-1.882 2.799-1.01 5.379-1.208 5.716-2.072.136-.41-.449-.95-1.694-1.243-1.231-.295-3.12-.257-5.055.407-1.933.666-3.435 1.794-4.21 2.78-.789.992-.905 1.773-.538 2.01"/>
  <path fill="#ba6258" d="M474.621 95.516c.275-.244 11.632-8.087 15.475 4.88 3.841 12.967-9.97 14.15-10.101 13.784-.134-.365-5.374-18.664-5.374-18.664"/>
  <path fill="#6f3530" d="M482.5 108.095c.044-.059.272.09.705.152a2.354 2.354 0 0 0 1.699-.466c1.221-.908 1.73-3.425 1.101-5.781a7.8 7.8 0 0 0-1.59-3.047c-.678-.83-1.487-1.312-2.214-1.23a1.2 1.2 0 0 0-1.149 1.014c-.067.415.093.648.03.692-.026.043-.342-.136-.397-.701a1.502 1.502 0 0 1 .27-.964c.236-.345.656-.61 1.152-.7 1.02-.228 2.192.425 2.954 1.31a8 8 0 0 1 1.855 3.382c.69 2.639.077 5.48-1.636 6.577-.841.508-1.684.459-2.168.268-.496-.201-.65-.47-.612-.506"/>
  <path fill="#17282f" d="M447.119 119.812c-.456.1.38 3.09-1.583 5.933-1.955 2.847-5.236 3.407-5.143 3.832.012.199.874.382 2.23.039 1.332-.325 3.138-1.29 4.34-3.03 1.194-1.74 1.377-3.665 1.134-4.92-.237-1.282-.78-1.929-.978-1.854m-73.051-32.636c-.021-.824.347-1.619.907-2.224 1.224-1.319 2.968-1.713 4.613-2.233 4.092-1.294 7.857-3.563 10.968-6.518-1.47-.266-2.9-.697-4.216-1.406-2.719-1.464-4.879-4.306-4.755-7.39.023-.58.166-1.221.647-1.542.764-.511 1.748.096 2.53.577 2.574 1.581 4.633 1.973 7.426.824 1.733-.715 3.347-1.632 4.49-2.928l.11-.23c.467-.895.925-1.757 1.383-2.593l.001-.006v.004c3.432-6.291 6.624-10.892 10.423-13.919 5.566-4.436 15.838-8.627 22.952-8.865 7.114-.239 14.636 3.345 17.57 9.829 2.766-4.23 8.328-5.863 13.375-5.397l.099-.083c5.552.29 9.985 4.743 12.993 9.417.164.256.32.519.48.778 2.499 2.182 5.493 3.798 8.721 4.578.57.139 1.23.319 1.455.859.224.536-.107 1.135-.463 1.593a10.422 10.422 0 0 1-3.557 2.899c.823 1.08 1.713 2.101 2.716 3.03.853.791 1.87 1.738 1.672 2.883-.152.887-1.037 1.498-1.927 1.627-.89.13-1.786-.116-2.652-.36l2.879 3.52c-1.72.857-3.644 1.273-5.567 1.264.363 5.104 2.207 14.207 1.943 17.817-3.423 1.087-4.37.963-5.933 2.056-2.022 1.415.021 5.132-3.236 4.875-1.659-.13-5.623-5.084-6.572-6.45a77.2 77.2 0 0 1-12.554-30.365 24.819 24.819 0 0 0-8.928-3.109l.286.135c-5.848-.258-12.383-.28-16.667 3.709-3.324 3.093-4.41 7.824-6.36 11.924-3.7 7.77-8.98 12.903-17.112 15.716.965 5.943 3.539 15.365 4.852 20.787l-7.748-9.326.01.046a23.222 23.222 0 0 1-1.531-1.602l-.159-.162-.007-.024c-.769-.876-1.517-1.76-2.408-2.59l-.037.063c-2.13 3.415-7.557.785-6.205-3.007a7.83 7.83 0 0 1 1.129-2.102c-.952 1.636-2.745 2.82-4.639 2.804-1.892-.015-3.76-1.368-4.149-3.22-.265-1.264.287-2.631 1.256-3.451-2.283.877-4.824 1.083-7.208.528-1.563-.363-3.247-1.225-3.296-3.04"/>
  <path fill="#33535f" d="M443.799 52.516c-.023.06.944.264 2.422 1.172 1.466.905 3.336 2.683 4.791 5.428a25.11 25.11 0 0 1 1.924 4.676c.528 1.744.947 3.656 1.401 5.667.46 2.009.942 4.133 1.714 6.262a22.91 22.91 0 0 0 1.408 3.154c.561 1.008 1.194 2.097 2.288 2.782.876.564 2.061.575 2.945.102a4.44 4.44 0 0 0 2.001-2.08c.796-1.788.562-3.686.39-5.368l-.384.166c1.077 1.238 2.166 2.452 3.493 3.286 1.312.845 2.883 1.193 4.29.908.7-.143 1.355-.458 1.853-.927.51-.47.796-1.095.937-1.705.125-.618.099-1.247-.099-1.802-.2-.553-.58-1.021-1.049-1.293l-.148.239a12.749 12.749 0 0 0 4.987 1.841c.613.088 1.089.107 1.409.113.32 0 .485-.009.485-.022.002-.014-.164-.03-.481-.055-.317-.032-.787-.076-1.39-.185a13.148 13.148 0 0 1-4.857-1.928l-.148.24c.84.485 1.231 1.661.967 2.78-.136.554-.403 1.113-.855 1.517-.446.412-1.044.695-1.686.817-1.295.251-2.762-.078-3.995-.886-1.255-.8-2.312-1.984-3.383-3.226l-.454-.525.07.693c.172 1.68.366 3.511-.365 5.127-.368.781-1.004 1.468-1.79 1.86a2.519 2.519 0 0 1-2.505-.083c-.952-.59-1.574-1.614-2.124-2.609a22.602 22.602 0 0 1-1.384-3.087c-.766-2.09-1.253-4.198-1.725-6.201-.465-2.008-.899-3.924-1.45-5.685a24.852 24.852 0 0 0-2.003-4.722c-1.514-2.768-3.464-4.552-4.984-5.422-1.534-.876-2.516-1.019-2.516-1.019m-53.164 35.968c-.003.007.062.036.192.084.154.055.344.123.576.204.253.093.57.196.957.276.384.09.825.207 1.335.263 2.012.31 5.085.3 8.554-.963 3.439-1.241 7.268-3.735 10.184-7.644 2.976-3.856 5.104-8.861 6.451-14.27.695-2.709 1.116-5.398 1.705-7.942.583-2.543 1.342-4.96 2.516-7.039 1.151-2.082 2.688-3.825 4.474-4.949.885-.579 1.844-.935 2.782-1.192.951-.23 1.894-.304 2.791-.28 1.799.06 3.387.57 4.665 1.2a11.392 11.392 0 0 1 2.97 2.137c1.382 1.486 1.764 2.591 1.826 2.552.008-.004-.017-.069-.074-.194l-.263-.555c-.244-.48-.683-1.15-1.359-1.927a11.277 11.277 0 0 0-2.984-2.244c-1.294-.666-2.916-1.213-4.768-1.297a10.877 10.877 0 0 0-2.886.261c-.976.255-1.984.623-2.903 1.215-1.86 1.148-3.455 2.94-4.643 5.064-1.212 2.123-1.993 4.584-2.584 7.145-.601 2.564-1.025 5.248-1.714 7.932-1.336 5.367-3.428 10.314-6.34 14.124-2.855 3.866-6.584 6.33-9.959 7.595-3.4 1.281-6.421 1.345-8.416 1.092-2.013-.261-3.067-.712-3.085-.648"/>
  <path fill="#33535f" d="M386.421 80.665c-.008.031.284.126.822.271.534.155 1.329.305 2.32.421.989.126 2.181.162 3.501.095a23.157 23.157 0 0 0 4.24-.676 23.24 23.24 0 0 0 4.021-1.504c1.18-.595 2.199-1.213 2.999-1.81.803-.591 1.42-1.114 1.808-1.513.396-.39.604-.617.581-.64-.058-.064-.945.788-2.577 1.883-.81.555-1.828 1.135-2.996 1.696-1.177.54-2.51 1.05-3.956 1.441a25.617 25.617 0 0 1-4.15.699c-1.291.087-2.463.085-3.442.004-1.959-.15-3.15-.452-3.17-.367"/>
  <path fill="#f2575d" d="M393.468 200.575s-1.928-5.455 4.619-12.799c6.548-7.344 47.733-22.845 47.733-22.845s15.276 14.876 32.564 5.469c13.453-7.32 12.412-18.793 12.412-18.793l52.332 8.76 1.781 39.542-18.752.11-132.689.556"/>
  <path fill="#ba6258" d="m484.568 267.704 64.553-20.243-21.085-51.081 40.707.779s29.372 57.31 18.261 74.038c-10.12 15.236-93.432 18.308-93.432 18.308l-9.004-21.801"/>
  <path fill="#33535f" d="m502.817 300.921-.273 3.483c-.243 3.107-4.012 5.25-7.564 4.405l-66.108-6.696 1.217-10.462 66.743 2.3c4.436-.036 6.299 2.97 5.985 6.97"/>
  <path fill="#17282f" d="M375.643 257.81c-10.986 4.32-19.81 13.686-22.92 25.978-2.482 9.812-.995 20.005 4.189 28.7 5.183 8.695 13.443 14.85 23.256 17.332 9.813 2.483 20.007.996 28.7-4.19 8.695-5.182 14.85-13.44 17.332-23.255 2.483-9.812.996-20.006-4.188-28.699-5.183-8.696-13.443-14.85-23.256-17.333a37.7 37.7 0 0 0-23.113 1.466m28.632 73.076a40.405 40.405 0 0 1-24.775 1.572c-10.516-2.66-19.368-9.257-24.924-18.576-5.556-9.318-7.15-20.242-4.49-30.76 5.493-21.712 27.625-34.906 49.338-29.414 10.517 2.66 19.37 9.257 24.925 18.576 5.555 9.318 7.15 20.241 4.488 30.76-3.333 13.172-12.792 23.212-24.562 27.842"/>
  <path fill="#33535f" d="M375.41 255.393c-10.985 4.322-19.809 13.687-22.92 25.978-2.48 9.813-.994 20.006 4.19 28.7 5.183 8.694 13.443 14.85 23.256 17.332 9.813 2.484 20.007.996 28.7-4.188 8.695-5.184 14.85-13.443 17.333-23.256 2.483-9.814.995-20.007-4.189-28.7-5.183-8.695-13.443-14.851-23.256-17.332a37.68 37.68 0 0 0-23.113 1.466m28.632 73.075a40.385 40.385 0 0 1-24.775 1.572c-10.516-2.66-19.368-9.257-24.924-18.576-5.556-9.319-7.15-20.243-4.49-30.76 5.493-21.712 27.625-34.907 49.338-29.415 10.517 2.662 19.37 9.259 24.924 18.576 5.556 9.319 7.15 20.243 4.49 30.76-3.333 13.174-12.793 23.212-24.563 27.843"/>
  <path fill="#fff" d="M410.972 264.804c-.01.01-.197-.124-.544-.39-.359-.249-.828-.695-1.528-1.14-1.34-.969-3.424-2.185-6.17-3.278-1.369-.553-2.922-1.021-4.605-1.45-1.697-.362-3.522-.727-5.472-.866a37.475 37.475 0 0 0-6.12-.056c-2.116.152-4.305.445-6.485 1.012a33.369 33.369 0 0 0-6.165 2.236 36.122 36.122 0 0 0-5.228 3.17c-3.128 2.338-5.568 4.926-7.294 7.323-1.734 2.394-2.864 4.523-3.525 6.039-.368.743-.56 1.36-.741 1.759-.167.404-.262.613-.275.609-.015-.005.052-.225.192-.64.156-.408.323-1.037.67-1.795.615-1.545 1.711-3.713 3.43-6.152 1.708-2.442 4.15-5.081 7.303-7.466 1.594-1.164 3.352-2.278 5.281-3.23a33.443 33.443 0 0 1 6.245-2.276c2.208-.573 4.423-.866 6.564-1.014 2.143-.159 4.22-.1 6.184.081 1.97.152 3.811.535 5.522.916 1.696.448 3.258.937 4.634 1.515 2.758 1.14 4.836 2.408 6.154 3.426.689.468 1.144.939 1.485 1.211.33.288.497.444.488.456m-1.062 53.743c-.058-.087 1.647-1.091 3.951-3.25l.89-.86c.306-.301.589-.649.904-.99.641-.67 1.226-1.47 1.868-2.29a34.62 34.62 0 0 0 3.397-5.846 34.55 34.55 0 0 0 2.073-6.438c.182-1.024.383-1.996.452-2.921.044-.46.114-.904.132-1.333.015-.428.031-.842.044-1.238.063-3.156-.33-5.094-.228-5.108.031-.005.123.476.264 1.355.08.439.158.979.186 1.61.037.631.121 1.35.086 2.147-.005.402-.01.819-.017 1.252-.01.435-.07.884-.107 1.352-.056.939-.246 1.923-.42 2.964a33.178 33.178 0 0 1-2.068 6.535 33.198 33.198 0 0 1-3.473 5.908c-.657.825-1.263 1.625-1.923 2.293-.322.34-.616.687-.933.986l-.919.849c-.569.559-1.16.977-1.653 1.372-.49.403-.941.705-1.321.94-.748.483-1.168.736-1.184.71m-2.571-38.091c.01.118-7.44.886-16.64 1.714-9.204.827-16.67 1.402-16.681 1.282-.011-.12 7.438-.888 16.641-1.715 9.201-.828 16.67-1.401 16.68-1.281m4.316 11.558c0 .015-.184.036-.535.062l-1.538.093-5.656.283c-4.776.233-11.374.573-18.655 1.028-7.283.457-13.87.944-18.639 1.309l-5.648.425c-.63.042-1.14.074-1.537.1-.352.018-.537.02-.539.006-.001-.015.182-.047.531-.094l1.53-.181c1.33-.148 3.255-.341 5.637-.563a638.488 638.488 0 0 1 18.638-1.436 640.211 640.211 0 0 1 18.67-.902c2.389-.078 4.325-.126 5.662-.144l1.542-.011c.352.001.537.01.537.025"/>
  <path fill="#fff" d="M351.932 297.483c-.016-.084-.03-.168-.045-.254a28.489 28.489 0 0 1-.311-2.696c-.1-2.714.095-5.452.588-8.173l.003-.007 20.721-1.282c-.041.146-.079.293-.116.441l-3.755.92.112 6.395 3.786.788c.029.104.06.206.092.31-2.371.192-4.527.382-6.4.556a337.87 337.87 0 0 0-5.636.563l-1.531.181c-.35.047-.532.079-.53.094 0 .006.037.009.109.009.089 0 .233-.005.429-.015.397-.026.907-.058 1.537-.1l5.648-.425c1.899-.145 4.088-.31 6.494-.485.21.628.46 1.244.75 1.845l-21.945 1.335m33.725-2.051a6.831 6.831 0 0 1-2.538-1.816l2.153-.137c3.032-.19 5.945-.359 8.657-.51a6.843 6.843 0 0 1-2.293 2.099l-5.979.364m17.331-1.055c.147-.428.273-.861.38-1.297l3.079-.755 3.136-.157 1.538-.093c.351-.026.535-.047.535-.062 0-.014-.185-.024-.537-.025-.399.003-.91.007-1.542.01-.673.01-1.498.027-2.456.051l-.11-6.285-3.784-.788a15.942 15.942 0 0 0-.61-1.747l23.038-1.426s1.476 5.376 1.477 9.672c-.01.45-.03.901-.056 1.353l-.008.085-3.13.191c.007-.685-.063-1.31-.095-1.865a11.805 11.805 0 0 0-.186-1.611c-.14-.873-.232-1.355-.262-1.355h-.002c-.1.014.27 1.847.232 4.85l-20.637 1.254m-20.205-1.173a6.863 6.863 0 0 1 .45-8.775l9.466-.585a6.863 6.863 0 0 1 1.501 8.701 658.96 658.96 0 0 0-11.417.659"/>
  <path fill="#eeeeec" d="M373.877 296.148c-.29-.601-.54-1.217-.75-1.845 3.033-.219 6.41-.455 9.992-.687a6.831 6.831 0 0 0 2.539 1.816l-11.78.716m17.758-1.08a6.843 6.843 0 0 0 2.293-2.099c3.803-.21 7.21-.382 9.998-.518l2.52-.126-3.079.755c-.107.436-.233.87-.38 1.297l-11.352.691m-18.63-1.143a13.686 13.686 0 0 1-.091-.31l-3.786-.788-.112-6.395 3.755-.92c.037-.148.075-.295.116-.441l10.345-.642a6.863 6.863 0 0 0-.45 8.775c-3.504.233-6.808.48-9.776.721m21.193-1.38a6.863 6.863 0 0 0-1.501-8.701l9.918-.615c.238.572.442 1.156.61 1.747l3.784.788.11 6.285c-.945.024-2.02.055-3.206.094-2.72.088-6.028.22-9.715.402"/>
  <path fill="#57666b" d="M351.576 294.533c-.15-2.142-.148-5.178.588-8.173a37.962 37.962 0 0 0-.588 8.173"/>
  <path fill="#6a858c" d="M351.932 297.483s-.017-.088-.045-.254c.014.086.029.17.045.254m75.144-4.655c.027-.452.045-.903.056-1.353 0 .466-.017.92-.056 1.353"/>
  <path fill="#fff" d="M423.625 293.123c.038-3.003-.332-4.836-.232-4.85h.002c.03 0 .122.482.262 1.355.08.439.158.979.186 1.61.032.557.102 1.18.094 1.866l-.312.019m-64.606 2.205c-.072 0-.108-.003-.11-.01-.001-.014.182-.046.531-.093l1.53-.181c1.33-.148 3.255-.341 5.637-.563a531.91 531.91 0 0 1 6.4-.556 674.332 674.332 0 0 1 12.238-.88 658.96 658.96 0 0 1 18.67-.902 431.02 431.02 0 0 1 3.206-.094c.958-.024 1.783-.041 2.456-.05l1.542-.011c.352.001.537.01.537.025 0 .015-.184.036-.535.062l-1.538.093-3.136.157-2.52.126c-2.788.136-6.195.308-9.998.518-2.712.151-5.625.32-8.657.51l-2.153.137a1375.468 1375.468 0 0 0-16.486 1.172l-5.648.425c-.63.042-1.14.074-1.537.1-.196.01-.34.015-.43.015m-3.734 12.187-.003-.003a38.086 38.086 0 0 1-1.157-2.555 4.76 4.76 0 0 1-.045-.208l21.182-1.412 1.914 1.848 3.232-2.118a15.665 15.665 0 0 0 3.88 1.526l.242.995-29.245 1.927m36.975-2.436.13-.628a15.621 15.621 0 0 0 3.824-1.662l3.018 1.83-6.972.46m7.458-.492 2.971-3.078 19.995-1.332c-.25.963-.547 1.954-.903 2.956l-22.063 1.454"/>
  <path fill="#eeeeec" d="m384.53 305.588-.243-.995a15.665 15.665 0 0 1-3.88-1.526l-3.232 2.118-1.914-1.848 27.427-1.828-2.97 3.078-.487.032-3.018-1.83a15.621 15.621 0 0 1-3.824 1.662l-.13.628-7.73.509"/>
  <path fill="#6a858c" d="M355.281 307.512c-.042-.052-.782-.968-1.157-2.555.353.863.739 1.715 1.157 2.555"/>
  <path fill="#fff" d="M422.248 303.103c.345-1.003.632-1.992.868-2.955l2.853-.19a38.686 38.686 0 0 1-.586 2.071c-.114.263-.247.559-.403.894l-2.732.18"/>
  <path fill="#6a858c" d="M425.383 302.03c.214-.683.409-1.374.586-2.071 0 0 .006-.003.014-.003.06 0 .25.12-.6 2.073"/>
  <path fill="#fff" d="M421.78 303.133c.356-1.002.653-1.993.903-2.956l.433-.029a33.772 33.772 0 0 1-.868 2.955l-.468.03"/>
  <path fill="#ba6258" d="M484.568 267.704s-37.021 10.744-38.076 11.352c-1.053.607-15.635 10.987-15.91 14.736-.277 3.75 4.64 20.53 4.64 20.53s4.994.715 5.363-8.25l.368-8.964 6.144-5.504s-2.266 10.372-1.693 13.303c.573 2.932 5.443 10.34 8.168 9.753 2.727-.587 4.22-2.439 4.22-2.439s2.385 6.608 9.34 2.72c0 0 4.556 1.911 8.135.098 3.58-1.815 6.812-7.599 6.812-7.599s.272-3.541-3.486-3.4c-3.758.141-7.144 2.793-7.144 2.793l-.35-3.762s4.48-5.458 9.12-8.239c2.924-1.753 15.046-2.037 18.81-5.868 3.192-3.247-2.833-10.401-6.836-12.57a6.914 6.914 0 0 0-1.922-.7l-5.703-7.99"/>
  <path fill="#6f3530" d="M463.556 297.57c-.021-.01-.175.218-.405.658a11.8 11.8 0 0 0-.787 1.955c-.536 1.689-.876 4.22-.287 6.904.591 2.685 1.962 4.84 3.158 6.149.597.661 1.138 1.14 1.533 1.443.395.302.63.445.644.426.047-.056-.848-.701-1.972-2.046-1.121-1.331-2.415-3.447-2.988-6.055-.572-2.605-.287-5.07.173-6.747.455-1.693.996-2.654.931-2.686m-6.961-5.295c-.024-.013-.174.239-.426.708a7.943 7.943 0 0 0-.42.872c-.145.35-.332.74-.473 1.195-.33.894-.615 1.998-.83 3.241a21.589 21.589 0 0 0-.238 4.093c.075 1.458.305 2.831.61 4.056.326 1.219.711 2.291 1.12 3.152.182.442.405.812.58 1.147.174.336.347.61.498.83.293.445.465.682.488.667.064-.04-.587-1.02-1.317-2.752-.372-.862-.724-1.928-1.027-3.129a23.082 23.082 0 0 1-.568-3.988c-.057-1.43-.104-3.064.064-4.292.192-1.224.585-2.047.877-2.939.57-1.792 1.13-2.828 1.062-2.861m-7.383-6.959c-.028-.033-.39.21-.825.754-.439.538-.914 1.405-1.138 2.452-.298 1.42-.112 2.125.043 2.704.179.674.41 1.042.45 1.024.117-.028-.565-1.643-.118-3.648.405-2.014 1.684-3.214 1.588-3.286M571.21 257.47c-.113.057-.766-1.463-2.395-3.509-1.604-2.038-4.344-4.545-8.03-6.042-3.678-1.538-7.428-1.288-9.957-.766-2.564.527-4.077 1.18-4.121 1.064-.018-.04.341-.242 1.024-.541a19.498 19.498 0 0 1 2.99-.999c2.55-.657 6.471-1.006 10.324.603 3.828 1.555 6.615 4.22 8.156 6.385.786 1.084 1.308 2.035 1.616 2.714.31.678.432 1.073.394 1.09"/>
  <path fill="#f2575d" d="M518.879 183.081c-.64-21.565 27.47-31.158 40.074-13.648l.214.3c11.877 16.922 26.233 56.928 26.233 56.928l-50.856 7.899-12.692-34.721c-1.716-5.603-2.812-11.34-2.973-16.758"/>
  <path fill="#ba6258" d="M360.347 198.21c.081.18.156.365.224.551.309.852.476 1.75.538 2.652.03.415-.032.874.06 1.278.062.274.246.497.352.753.679 1.63.523 3.56.467 5.28-.061 1.941-.037 4 .977 5.656 1.014 1.657 3.372 2.64 4.97 1.533-.244 1.212.705 2.463 1.9 2.775 1.196.31 2.502-.187 3.385-1.05.884-.866 1.393-2.047 1.697-3.245-.085 1.45 1.344 2.694 2.796 2.714 1.451.02 2.783-.944 3.55-2.178.766-1.232 1.054-2.7 1.222-4.141.168-1.441.5-4.143.878-5.545 0 0 1.822.293 2.653.372l.244.025s1.07-1.645 1.743-3.027c1.162-2.39 2.048-3.905 2.936-6.074.665-1.626 1.097-3.25.092-4.307-2.42-2.545-7.151 2.632-7.151 2.632-.668-1.803-6.165-2.096-7.235.305-.436-1.322-.269-2.089-1.341-2.977-1.07-.89-2.553-1.348-3.896-.981-1.343.366-2.44 1.662-2.365 3.053-1.131-1.824-3.474-2.803-5.566-2.325-1.258.286-2.37 1.088-3.104 2.141a5.4 5.4 0 0 0-.794 1.744c-.058.223-.155.484-.13.717l.114.318c.245.46.565.868.784 1.35"/>
  <path fill="#ba6258" d="M354.541 194.696c-1.197-.043-2.501.205-3.3 1.097-.946 1.059-1.137 3.158-1.029 4.574 1.659.313 2.517.376 4.176.689.35.065.643-.023.932.184.765.543.641 2.373.95 3.26.534 1.539 2.503 2.29 4.03 1.724 1.527-.565 2.51-2.19 2.588-3.816.077-1.625-.639-3.216-1.687-4.463a9.254 9.254 0 0 0-6.66-3.249"/>
  <path fill="#6f3530" d="M369.065 193.783c.311.016.31 4.981-.002 11.09-.312 6.11-.818 11.05-1.128 11.034-.311-.016-.31-4.982.002-11.092.312-6.108.818-11.048 1.128-11.032m7.625 1.052c.298-.014.703 4.508.215 10.065-.47 5.561-1.641 9.947-1.933 9.881-.317-.064.348-4.492.812-9.977.48-5.483.583-9.961.907-9.97m7.452 1.022c.317 0 .449 3.759-.135 8.315-.58 4.548-1.281 8.176-1.575 8.149-.325-.03-.121-3.76.456-8.284.58-4.52.948-8.183 1.254-8.18m-27.21-.384c-.009-.133.796-.312 1.944.213 1.135.491 2.434 1.818 3.051 3.568.61 1.767.808 3.287.757 4.568-.136 1.375-1.133 1.775-1.156 1.598-.088-.126.452-.602.36-1.622a22.43 22.43 0 0 0-1.014-4.145c-.558-1.553-1.518-2.677-2.392-3.275-.864-.609-1.566-.733-1.55-.905"/>
  <path fill="#17282f" d="M543.59 161.855c.042.133-2.217.602-5.463 2.285-3.228 1.648-7.406 4.74-10.447 9.408-3.039 4.672-4.173 9.744-4.373 13.363-.223 3.65.261 5.905.122 5.921-.04.008-.193-.544-.36-1.567-.168-1.02-.304-2.521-.253-4.377.077-3.688 1.159-8.917 4.283-13.719 3.125-4.798 7.466-7.905 10.808-9.469 1.677-.797 3.104-1.28 4.106-1.54 1.002-.263 1.568-.345 1.578-.305"/>
  <path fill="#f9a78d" d="M221.505 317.093c-1.22-.43-1.936-.29-2.741-1.304-.804-1.014-1.201-2.4-.833-3.64.368-1.241 1.593-2.236 2.884-2.137-1.672-1.088-2.536-3.285-2.051-5.22.292-1.163 1.06-2.18 2.052-2.841a5.01 5.01 0 0 1 1.636-.704c.21-.048.453-.135.67-.106l.293.111c.422.239.796.544 1.238.756.168.079.338.152.51.22a9.119 9.119 0 0 0 2.454.553c.384.035.811-.012 1.186.08.253.063.457.239.693.343 1.5.663 3.297.556 4.897.539 1.806-.019 3.718.045 5.238 1.02 1.518.974 2.385 3.186 1.325 4.648 1.132-.202 2.275.705 2.54 1.822.267 1.118-.223 2.322-1.044 3.126-.82.802-1.928 1.253-3.047 1.512 1.348-.051 2.475 1.302 2.466 2.652-.011 1.349-.934 2.568-2.094 3.256-1.161.688-2.53.926-3.873 1.053-1.343.128-5.597.737-6.907 1.06l-4.954.065c-2.878.038-5.04-2.928-3.815-5.53.288-.611.713-1.096 1.277-1.334"/>
  <path fill="#f9a78d" d="M221.505 296.543c-.016-1.112.24-2.319 1.086-3.044 1.001-.859 1.669-1.027 2.982-.899.382 1.49.803 2.475 1.458 4.019.129.305.354.505.54.778.489.722 2.193.643 3.01.947 1.419.527 2.078 2.373 1.523 3.78-.556 1.408-1.375 1.9-2.888 1.94-1.512.039-4.004-.743-5.141-1.74-1.778-1.56-2.536-3.416-2.57-5.781"/>
  <path fill="#f57f62" d="M220.37 310.023c.005.128 4.615.094 10.298-.075 5.685-.168 10.29-.41 10.285-.537-.004-.128-4.613-.095-10.298.074-5.683.168-10.288.41-10.284.538m.822 7.107c-.002.06 1.039.169 2.728.226a69.58 69.58 0 0 0 6.603-.117 68.643 68.643 0 0 0 6.564-.735c1.67-.273 2.687-.515 2.676-.575-.01-.066-1.047.06-2.72.251-1.673.19-3.987.43-6.55.596-2.562.164-4.886.225-6.57.252-1.684.027-2.728.033-2.73.101m2.416 7.072c-.003.031.765.026 2.011-.045 1.246-.07 2.97-.212 4.866-.415 1.897-.201 3.609-.41 4.848-.564 1.238-.154 2.004-.26 2.001-.293-.001-.033-.772.01-2.017.123-1.244.109-2.96.292-4.854.493-1.892.201-3.604.37-4.844.483-1.24.114-2.009.182-2.012.218m-1.43-25.42c-.046-.01-.148.708.34 1.714.462.997 1.62 2.141 3.184 2.733.772.31 1.537.496 2.232.632.693.125 1.32.252 1.886.228.564-.02 1.006-.23 1.239-.439.24-.21.292-.388.27-.398-.037-.054-.473.557-1.511.509-.5-.016-1.116-.17-1.796-.317-.676-.158-1.414-.351-2.147-.646-1.483-.565-2.56-1.568-3.068-2.46-.525-.888-.548-1.566-.63-1.556"/>
  <path fill="#fff" d="M710.863 220.604h-105.67a7.877 7.877 0 0 1-7.877-7.876V117.94a7.878 7.878 0 0 1 7.877-7.879h105.67a7.88 7.88 0 0 1 7.877 7.879v94.788a7.878 7.878 0 0 1-7.877 7.876"/>
  <path fill="#dadbd8" d="M718.74 128.873H597.316v-10.718a8.094 8.094 0 0 1 8.093-8.094h105.876a7.456 7.456 0 0 1 7.455 7.455v11.357"/>
  <path fill="#fff" d="M614.799 121.307c0 1.546-1.334 2.801-2.976 2.801-1.644 0-2.978-1.255-2.978-2.801 0-1.548 1.334-2.803 2.978-2.803 1.642 0 2.976 1.255 2.976 2.803m8.111 0c0 1.546-1.331 2.801-2.975 2.801-1.644 0-2.978-1.255-2.978-2.801 0-1.548 1.334-2.803 2.978-2.803 1.644 0 2.976 1.255 2.976 2.803m8.112 0c0 1.546-1.334 2.801-2.976 2.801-1.644 0-2.978-1.255-2.978-2.801 0-1.548 1.334-2.803 2.978-2.803 1.642 0 2.976 1.255 2.976 2.803"/>
  <path fill="#17282f" d="M710.863 220.604c-.003-.027.396-.008 1.152-.13.749-.115 1.881-.407 3.13-1.223 1.216-.822 2.574-2.235 3.174-4.338.324-1.042.321-2.214.301-3.481l-.016-4.032c-.025-11.415-.064-27.899-.11-48.263l-.042-33.328c-.003-1.497-.004-3.008-.005-4.53l-.003-2.294c-.007-.776.028-1.53-.108-2.258-.437-2.959-2.847-5.571-5.877-6.187-1.015-.2-2.11-.184-3.215-.17a34.4 34.4 0 0 1-1.53 0 429358.297 429358.297 0 0 1-14.862.013l-87.648.026a7.56 7.56 0 0 0-7.503 6.775c-.077 3.768-.022 7.633-.04 11.404l-.005 22.363-.02 42.276c-.003 6.734-.004 13.3-.005 19.68.026 3.096 2.148 5.946 4.969 6.936 1.157.478 2.403.473 3.67.468.258 0 .517-.002.777.001l4.532.005 33.328.042c20.365.046 36.846.085 48.26.11l13.121.066 3.412.034a31.25 31.25 0 0 1 1.163.035s-.395.024-1.163.036l-3.412.035-13.121.065c-11.414.025-27.895.064-48.26.11l-33.328.042c-1.499.003-3.01.004-4.532.005-.251-.002-.506-.001-.763 0-1.275.01-2.627.018-3.888-.497-3.044-1.061-5.34-4.132-5.376-7.479l-.024-19.694-.02-42.276-.005-22.363c.017-3.801-.043-7.567.04-11.472a8.261 8.261 0 0 1 2.662-5.261 8.259 8.259 0 0 1 5.531-2.14c31.088.009 60.705.018 87.648.028l9.975.006 4.888.004 2.42.002c.788-.012 1.646.018 2.452.188 3.277.673 5.869 3.496 6.336 6.689.144.799.105 1.597.112 2.353l-.003 2.294-.004 4.53-.043 33.328-.11 48.263-.016 4.032c.009 1.252.001 2.475-.342 3.539-.638 2.153-2.045 3.58-3.294 4.397-1.286.812-2.438 1.083-3.198 1.177-.766.1-1.162.059-1.162.059"/>
  <path fill="#f2575d" d="M703.652 210.917h-91.539a5.942 5.942 0 0 1-5.941-5.942v-61.683a5.941 5.941 0 0 1 5.941-5.941h91.539a5.941 5.941 0 0 1 5.941 5.941v61.683a5.942 5.942 0 0 1-5.941 5.942"/>
  <path fill="#cc4341" d="M698.28 210.816h-81.085c-2.315 0-3.67-2.608-2.339-4.501l25.245-35.931a2.842 2.842 0 0 1 2.34-1.215c.824 0 1.65.352 2.224 1.064l17.347 21.511a2.852 2.852 0 0 0 2.227 1.064 2.84 2.84 0 0 0 1.978-.796l10.163-9.759a2.847 2.847 0 0 1 1.979-.796c.812 0 1.62.343 2.186 1.016l19.92 23.643c1.567 1.859.246 4.7-2.185 4.7m-34.525-40.889a8.788 8.788 0 1 1 0-17.577 8.788 8.788 0 0 1 0 17.577"/>
  <path fill="#17282f" d="m724.339 543.85-2.302-55.34 132.734.53 15.772 54.81H724.339"/>
  <path fill="#33535f" d="M757.421 544.267c-.045.013-.218-.443-.494-1.28a65.994 65.994 0 0 1-1.003-3.588c-.783-3.047-1.707-7.288-2.676-11.98l-2.475-12.01-.786-3.632c-.194-.854-.28-1.334-.234-1.347.046-.015.219.44.495 1.278a65.91 65.91 0 0 1 1.003 3.588c.782 3.047 1.706 7.29 2.677 11.983l2.473 12.008.787 3.63c.195.855.28 1.337.233 1.35m96.416-30.446c.01.022-.136.109-.425.252-.29.135-.71.37-1.284.58-1.132.47-2.836 1.008-5 1.39-4.321.805-10.539.569-16.96-1.36-6.42-1.93-11.816-4.714-15.699-6.671l-4.576-2.386c-1.076-.572-1.662-.905-1.642-.949.021-.042.648.208 1.761.707 1.113.497 2.708 1.25 4.675 2.187 3.937 1.845 9.34 4.542 15.678 6.446 6.334 1.9 12.419 2.207 16.687 1.54 4.29-.621 6.733-1.882 6.785-1.736m-87.758-1.969a4.33 4.33 0 1 1-8.66 0 4.33 4.33 0 0 1 8.66 0"/>
  <path fill="#17282f" d="M809.88 236.435c3.23-7.992 6.432-16.051 8.237-24.48 1.807-8.43 2.17-17.324-.264-25.595-.369-1.253-3.668-9.723-4.974-9.685-.935.026.917 7.841.392 8.614-5.012 7.372-6.875 16.53-6.779 25.444.095 8.914 1.381 17.016 3.388 25.702"/>
  <path fill="#f9a78d" d="M758.31 280.73c.36-6.08.626-10.88.58-10.883 0 0-20.695-3.562-20.617-24.31.039-10.02 1.798-30.644 3.606-49.292 1.945-20.054 18.961-35.254 39.106-34.926l2.002.032c21.562 1.61 32.24 20.822 30.033 42.33l-5.323 75.482-15.856 16.422c-12.64 13.09-34.736 3.3-33.532-14.856"/>
  <path fill="#f57f62" d="M758.89 269.848s13.062.979 27.138-7.548c0 0-6.83 14.98-27.499 12.777l.36-5.229"/>
  <path fill="#17282f" d="M746.785 214.535c-.08 1.564 1.178 2.921 2.808 3.036 1.628.113 3.016-1.059 3.098-2.623.08-1.563-1.178-2.921-2.806-3.036-1.63-.115-3.018 1.06-3.1 2.623m-.61-9.625c.361.391 2.632-1.233 5.82-1.173 3.185.015 5.498 1.692 5.85 1.308.172-.17-.19-.874-1.197-1.632-.99-.754-2.69-1.501-4.676-1.525-1.985-.02-3.668.683-4.64 1.416-.992.736-1.336 1.43-1.157 1.607m29.028 11.388c-.082 1.562 1.176 2.92 2.808 3.034 1.628.114 3.016-1.057 3.097-2.621.08-1.564-1.177-2.923-2.805-3.037-1.632-.115-3.02 1.06-3.1 2.624m.63-9.783c.363.392 2.636-1.23 5.822-1.172 3.184.015 5.497 1.693 5.85 1.308.172-.17-.186-.873-1.198-1.63-.99-.757-2.688-1.502-4.675-1.526-1.985-.021-3.668.683-4.64 1.415-.99.737-1.335 1.43-1.159 1.605m-10.286 24.5c.018-.181-1.958-.556-5.162-1.019-.813-.097-1.581-.27-1.709-.829-.181-.59.173-1.463.583-2.404l2.508-6.16c3.486-8.77 6.024-15.987 5.669-16.125-.356-.136-3.468 6.86-6.955 15.632-.838 2.162-1.641 4.225-2.406 6.198-.323.92-.87 1.96-.474 3.188.21.612.799 1.063 1.319 1.211.519.168.977.185 1.38.215 3.228.226 5.232.273 5.247.093m10.734-35.235c.443.81 3.527-.081 7.292-.204 3.764-.198 6.911.426 7.283-.417.163-.403-.481-1.128-1.815-1.772-1.321-.645-3.349-1.139-5.606-1.045-2.256.098-4.235.764-5.496 1.518-1.274.755-1.854 1.534-1.658 1.92m-28.98-2.008c.548.734 2.758.016 5.399.024 2.64-.085 4.868.566 5.395-.184.232-.362-.108-1.094-1.075-1.796-.95-.698-2.553-1.282-4.368-1.257-1.816.028-3.399.659-4.33 1.387-.945.728-1.262 1.469-1.02 1.826"/>
  <path fill="#f9a78d" d="M811.077 219.015c.356-.147 14.322-3.986 13.639 10.189-.683 14.175-14.772 10.565-14.777 10.157-.006-.406 1.138-20.346 1.138-20.346"/>
  <path fill="#f57f62" d="M814.528 234.2c.064-.041.237.185.645.397a2.474 2.474 0 0 0 1.844.127c1.524-.477 2.9-2.795 3.092-5.345a8.178 8.178 0 0 0-.521-3.57c-.383-1.057-1.019-1.814-1.767-1.985a1.259 1.259 0 0 0-1.489.607c-.21.386-.132.674-.21.696-.04.033-.291-.254-.149-.832.072-.28.254-.606.6-.862.354-.261.86-.377 1.383-.294 1.09.126 2.025 1.18 2.473 2.321.51 1.148.776 2.545.667 3.992-.23 2.852-1.82 5.455-3.897 5.948-1.01.212-1.827-.13-2.24-.484-.423-.372-.482-.692-.431-.716"/>
  <path fill="#17282f" d="M752.385 173.28c-2.221-1.396 5.084-8.43 10.864-10.664 8.738-3.379 21.878-5.016 29.603-2.341 9.301 3.218 16.887 8.37 21.143 17.245 4.256 8.875 5.469 19.003 4.632 28.81-.254 2.993-.743 6.098-2.488 8.542-2.159 3.02-6.068 4.776-6.148 9.107-.03 1.582-.571 3.15-1.718 4.241-2.749 2.61-5.773-.163-7.082-2.843-2.799-5.726-2.768-12.372-2.679-18.745.063-4.53.143-9.156 1.664-13.424.828-2.321 2.068-4.49 2.767-6.853.697-2.366.78-5.088-.602-7.131-.224-.332-.601-.756-1.084-1.23-3.81-3.745-9.368-5.118-14.5-3.626-8.138 2.368-22.004 5.807-25.408 2.896-4.897-4.187-5.977-6.797-5.977-6.797l-2.987 2.813m13.736 68.756c-.014.25.703.568 1.932.532 1.219-.028 2.92-.513 4.44-1.635 1.519-1.125 2.48-2.61 2.864-3.766.396-1.166.302-1.944.058-2.003-.54-.133-1.534 2.375-4.083 4.197-2.49 1.904-5.18 2.119-5.21 2.675"/>
  <path fill="#f9a78d" d="M635.596 347.033c-2.901-4.772-6.348-9.977-6.348-9.977l-2.816-4.785c-.243.277-.45.597-.64.913-.361.603-.736 1.24-1.347 1.59-1.158.66-2.656.013-3.652-.886-2.086-1.881-3.057-4.91-2.446-7.632.588-2.615 2.618-4.832 5.157-5.697.34-.62.805-1.218 1.465-1.754 4.046-3.288 11.288-1.052 11.288-1.052l-.752-1.812s-4.318-4.269-13.852-.928c-1.422.499-3.009.523-4.409-.057-.857-.355-1.637-.932-1.94-1.87-.755-2.338.707-3.469 6.63-5.637 5.922-2.166 12.363-2.297 15.914.024 3.55 2.323 4.79 3.458 4.79 3.458s-5.825-16.74-6.151-17.814c-.943-3.108-.343-6.124 1.67-6.94 1.292-.525 3.312-.23 4.522 3.354 1.048 3.101 15.817 33.542 15.817 33.542l5.744 13.846 2.881 12.188-20.742 5.845-1.499-.505a17.341 17.341 0 0 1-9.284-7.414"/>
  <path fill="#f9a78d" d="M661.09 336.675c-1.598 1.062-3.84.37-5.32-.874-1.478-1.242-2.493-2.945-3.878-4.292-4.144-4.024-10.972-4.344-14.919-8.558-.549-.588-1.044-1.484-.589-2.14.423-.608 1.332-.536 2.064-.399l18.785 3.528"/>
  <path fill="#f57f62" d="M657.233 323.94c.014-.073-.697-.28-1.993-.59-1.297-.309-3.179-.72-5.51-1.209l-8.194-1.657-2.372-.464c-.763-.09-1.72-.545-2.857.12-.552.359-.75 1.15-.583 1.699.14.56.43.986.756 1.368.656.69 1.35 1.312 2.14 1.838 3.153 2.12 6.585 2.974 9.332 4.375 1.384.679 2.617 1.461 3.595 2.384.98.921 1.754 1.973 2.57 2.87 1.558 1.886 3.607 2.803 5.007 2.73 1.437-.04 2.01-.719 1.965-.73-.045-.1-.676.403-1.953.309-1.279-.08-3.01-.946-4.437-2.808-.752-.894-1.492-1.983-2.527-3.015-1.035-1.033-2.343-1.9-3.772-2.63-2.84-1.498-6.256-2.403-9.165-4.375-.727-.482-1.374-1.068-1.94-1.654-.535-.588-.731-1.3-.356-1.5.373-.282 1.237-.121 2.04.038l2.378.428 8.236 1.428c2.348.392 4.251.689 5.571.872 1.32.181 2.056.246 2.07.173m-20.722-6.173c-.123.073-.4-1.486-2.196-2.867-.883-.672-2.164-1.14-3.639-1.153-1.477-.034-3.09.333-4.76.844-1.672.504-3.309 1.018-4.882 1.15-1.563.128-3.016-.054-4.124-.596-1.132-.532-1.679-1.518-1.787-2.168-.121-.665-.023-1.028.004-1.025.068-.003.07.363.26.956.188.584.707 1.37 1.73 1.79 1.006.427 2.38.558 3.849.402 1.477-.159 3.056-.67 4.745-1.181 1.685-.516 3.392-.89 4.981-.816 1.588.046 3.011.622 3.928 1.409a5.702 5.702 0 0 1 1.667 2.257c.241.62.263.988.224.998m-.369-25.854c.097-.024.514 1.255 1.18 3.322l2.636 8.06 2.756 8.021c.716 2.05 1.153 3.321 1.061 3.359-.087.036-.69-1.174-1.525-3.187-.839-2.01-1.902-4.827-2.959-7.977-1.055-3.15-1.905-6.035-2.447-8.143-.545-2.107-.793-3.432-.702-3.455m-2.139 30.886c-.01.053-.405.001-1.104-.056-.667-.042-1.79-.091-2.623.728-.405.394-.553 1.005-.397 1.681.135.673.516 1.352.893 2.117.37.746.767 1.718.492 2.758-.281 1.008-1.102 1.813-2.108 2.172-1.03.369-2.144.178-3.014-.271-.878-.459-1.586-1.11-2.032-1.924-.795-1.563-1.152-3.048-1.388-4.316-.215-1.27-.222-2.328-.084-3.043.141-.718.38-1.06.406-1.042.059.025-.084.389-.134 1.077-.05.69.03 1.699.298 2.917.284 1.203.703 2.676 1.467 4.096.745 1.295 2.579 2.423 4.24 1.846.812-.284 1.472-.947 1.685-1.698.215-.757-.062-1.564-.413-2.301-.344-.743-.744-1.484-.88-2.287-.173-.782.068-1.673.62-2.137 1.097-.952 2.34-.756 3.005-.644.71.143 1.078.285 1.071.327"/>
  <path fill="#f57f62" d="M626.247 331.33c.029-.017.242.309.228.977-.018.642-.338 1.67-1.366 2.366-1.006.679-2.629.819-4.062.078-1.435-.728-2.562-2.183-3.139-3.874-.577-1.702-.55-3.482-.083-4.953a7.631 7.631 0 0 1 2.183-3.39 7.238 7.238 0 0 1 2.305-1.42c.603-.218.959-.255.97-.217.06.124-1.374.45-2.93 1.996-.758.767-1.522 1.851-1.908 3.219-.394 1.357-.4 2.99.128 4.544.526 1.547 1.542 2.868 2.771 3.524 1.22.67 2.619.599 3.5.072a2.877 2.877 0 0 0 1.359-1.973c.094-.592-.016-.936.044-.95m15.368 7.401c-.026-.06.537-.38 1.61-.507 1.055-.127 2.668.01 4.214.96l-.508.35a19.573 19.573 0 0 1-.387-2.358c-.492-4.642.935-8.239 1.088-8.146.21.046-.868 3.614-.39 8.08.082.806.205 1.579.346 2.288l.157.783-.665-.432c-1.365-.888-2.827-1.112-3.827-1.105-1.013.004-1.612.176-1.638.088m-9.999-28.458c.185.027-.055 1.444-1.317 2.562-1.252 1.129-2.694 1.216-2.699 1.03-.045-.2 1.144-.564 2.227-1.553 1.104-.967 1.596-2.104 1.789-2.039"/>
  <path fill="#dadbd8" d="M753.025 285.057s-10.554 1.275-11.706 1.346c-8.906.548-23.432 5.806-30.256 18.55-4.978 9.295-14.458 47.14-16.998 57.367l-3.676 12.048-22.241-35.295-31.62 18.035s32.852 79.483 54.115 79.475c21.282-.01 31.124-21.228 31.124-21.228l-.328-47.802 31.586-82.496"/>
  <path fill="#17282f" d="M713.139 318.276c-.036.001-.067.37-.092 1.07l-.059 3.071c-.037 2.667-.008 6.524.081 11.29.174 9.533.754 22.693 1.566 37.208.812 14.521 1.508 27.661 1.866 37.178l.408 11.274.135 3.066c.043.702.081 1.07.117 1.068.036 0 .066-.368.091-1.069l.059-3.07c.038-2.666.008-6.524-.08-11.29-.174-9.532-.754-22.693-1.567-37.213-.812-14.516-1.507-27.655-1.867-37.174l-.408-11.273c-.053-1.236-.098-2.25-.134-3.067-.042-.701-.082-1.069-.116-1.069"/>
  <path fill="#dadbd8" d="M877.833 324.305c-5.4-24.154-32.096-30.86-32.096-30.86l-9.066 87.183 5.62 14.15 47.765-10.314s-5.45-29.87-12.223-60.159"/>
  <path fill="#dadbd8" d="m833.952 373.521 17.85 17.203-5.767-32.903 36.23-11.46s9.622 45.155 11.295 55.835c3.004 19.164-.684 46.404-18.541 48.321-19.319 2.074-33.907-16.98-43.191-29.484-7.136-9.613-18.655-26.42-18.655-26.42l20.779-21.092"/>
  <path fill="#dadbd8" d="m851.808 431.799-1.407-40.956 2.135-94.91-38.053-17.304-5.043-14.89-42.55 18.96-8.533-8.944-4.926 9.565-15.158 3.427-12.373 35.01-10.499 27.568s3.031 95.61 5.642 130.68c.342 4.6-5.642 6.602.994 11.73 0 0 9.96 5.85 31.551 6.412 61.435 1.604 99.176-8.205 101.183-9.107 2.816-2.759 4.229-6.668 3.738-10.58-.182-1.45-.485-3.013-.766-4.99l-5.935-41.671"/>
  <path fill="#17282f" d="M751.536 501.01c-.02.002-.047-.175-.079-.523l-.116-1.547-.336-5.953-.969-21.906c-.688-18.502-1.565-44.081-1.275-72.362.172-14.142.647-27.631 2-39.846 1.41-12.201 3.507-23.049 5.396-32.116 1.92-9.062 3.675-16.344 4.899-21.37l1.452-5.78.407-1.495c.097-.336.157-.505.176-.5.02.004-.002.183-.063.528l-.295 1.523-1.241 5.83c-1.09 5.059-2.724 12.367-4.539 21.438-1.784 9.07-3.794 19.918-5.138 32.064-1.288 12.145-1.731 25.612-1.903 39.73-.29 28.243.457 53.815.937 72.32l.604 21.92.119 5.963.003 1.552c-.006.35-.019.53-.039.53m28.003-159.11c-.031-.044.842-.015 2.522.075l7.354.44 26.796 1.832.508.034-.039.515-3.232 42.841-.021.284-.23.167a97.381 97.381 0 0 1-4.002 2.735c-2.463 1.597-4.966 3.076-7.536 4.366-2.58 1.228-5.231 2.458-8.168 2.628-2.904.174-5.678-.685-8.1-1.877-2.422-1.227-4.586-2.753-6.552-4.381a61.819 61.819 0 0 1-2.839-2.492c-.42-.378-.992-.946-1.27-1.536-.349-.583-.525-1.199-.714-1.8-.613-2.43-.673-4.799-.657-7.067.088-4.537.592-8.717 1.13-12.512 1.106-7.588 2.422-13.647 3.366-17.821.478-2.087.881-3.699 1.172-4.788.29-1.087.472-1.658.512-1.643.041.013-.056.59-.27 1.699-.238 1.225-.552 2.83-.944 4.832-.796 4.197-1.978 10.273-2.968 17.84-.481 3.78-.929 7.944-.972 12.401.003 2.219.098 4.545.68 6.767.338 1.133.755 2.037 1.691 2.808a62.76 62.76 0 0 0 2.805 2.429c1.935 1.581 4.043 3.047 6.352 4.204 2.311 1.124 4.884 1.895 7.507 1.725 2.601-.144 5.18-1.31 7.69-2.518 2.509-1.264 4.978-2.724 7.41-4.303a96.573 96.573 0 0 0 3.945-2.693l-.25.45 3.448-42.825.469.548-26.467-2.32-7.436-.713-1.98-.216c-.453-.055-.694-.095-.71-.115"/>
  <path fill="#17282f" d="M815.887 355.865c-.027.342-8.723-.058-19.42-.893-10.702-.835-19.352-1.787-19.327-2.128.027-.341 8.721.059 19.423.893 10.697.835 19.35 1.788 19.324 2.128"/>
  <path fill="#8f9192" d="M793.521 403.733c-.249 0-.497-.006-.746-.021-4.024-.239-7.735-2.425-10.592-5.27-2.314-2.303-4.031-5.846-5.712-8.94a62.95 62.95 0 0 0 2.368 2.057c1.966 1.628 4.13 3.154 6.552 4.381 2.212 1.09 4.716 1.9 7.346 1.9.25 0 .502-.008.754-.023 2.937-.17 5.588-1.4 8.168-2.628 2.57-1.29 5.073-2.769 7.536-4.366 1.092-.711 2.161-1.43 3.177-2.146-2.13 4.87-5.028 9.218-9.553 12.048-2.798 1.751-6.012 3.008-9.298 3.008m-.905-7.105c-.116 0-.232-.003-.348-.007.117.003.233.006.348.007"/>
  <path fill="#0f191d" d="M792.737 397.84c-2.63 0-5.134-.81-7.346-1.9-2.422-1.227-4.586-2.753-6.552-4.381a62.95 62.95 0 0 1-2.368-2.056 50.452 50.452 0 0 0-1.186-2.083c4.428 3.832 9.662 8.644 15.499 9.117a30.311 30.311 0 0 0 1.832.091c.107.003.212.003.317.003 3.28 0 5.738-.75 9.006-2.488 3.792-2.018 10.65-6.576 10.896-6.576.009 0 .009.008-.003.022-.15.366-.303.728-.46 1.088a104.349 104.349 0 0 1-3.177 2.146c-2.463 1.597-4.966 3.076-7.536 4.366-2.58 1.228-5.231 2.458-8.168 2.628a12.99 12.99 0 0 1-.754.023"/>
  <path fill="#8f9192" d="m769.167 305.4-1.555-19.948 3.05 16.147 40.854-21.556-42.35 25.357"/>
  <path fill="#f2575d" d="M758.704 309.473s-11.287 45.474-15.501 101.194c-1.79 23.642-3.114 54.975-3.114 54.975l13.719 16.99 16.397-16.276s-3.337-68.007-3.265-90.797c.057-18.348-.687-65.703-.687-65.703l-7.549-.383"/>
  <path fill="#17282f" d="M840.639 339.073c.044-.008.194.668.43 1.894l.943 5.204 2.955 17.189c1.169 6.71 2.166 12.801 2.82 17.219.33 2.208.584 3.997.742 5.236.16 1.238.228 1.926.184 1.934-.044.007-.194-.668-.43-1.894l-.946-5.203-3.005-17.183a772.986 772.986 0 0 1-2.77-17.225l-.74-5.237c-.16-1.239-.227-1.927-.183-1.934m13.778-40.392c.071.091-1.256 1.123-3.133 3.058-1.879 1.925-4.235 4.837-6.185 8.452-1.939 3.622-3.068 7.193-3.638 9.824-.577 2.632-.708 4.308-.822 4.298-.044-.004-.046-.424-.01-1.185.024-.761.15-1.86.386-3.204.461-2.685 1.542-6.35 3.517-10.039 1.985-3.68 4.447-6.602 6.432-8.47.99-.938 1.837-1.648 2.459-2.088.616-.451.968-.682.994-.646"/>
  <path fill="#f2575d" d="m767.26 291.917-4.25-.94-4.133 7.442-.173 11.054 7.55.383 4.68-8.767-3.674-9.172"/>
  <path fill="#17282f" d="M763.69 311.737c-.095.151-1.147-.342-2.349-1.101-1.201-.759-2.098-1.495-2.002-1.645.094-.151 1.145.342 2.346 1.101 1.202.759 2.099 1.496 2.004 1.645m.984-3.358c-.162.072-1.421-2.434-2.809-5.596-1.39-3.164-2.384-5.786-2.221-5.856.162-.072 1.42 2.433 2.81 5.597 1.39 3.161 2.383 5.784 2.22 5.855"/>
  <path fill="#a7a9a8" d="m853.732 445.31-.136-.951c.001 0 0 0 0 0l.136.952"/>
  <path fill="#8f9192" d="M855.132 455.147c-5.463-1.086-15.053-8.187-18.752-12.352-3.7-4.165-7.6-8.52-10.32-13.382-4.981-8.904-11.821-17.46-13.57-27.512l4.635 6.076s10.41 9.855 14.788 17.496c3.087 5.39 11.823 12.586 21.683 18.886l.136.952 1.4 9.836"/>
  <path fill="#17282f" d="M852.215 443.264c.014-.027-.302-.268-.92-.703-.608-.452-1.566-1.028-2.711-1.907a101.657 101.657 0 0 1-9.3-8.106c-7.51-7.35-17.221-18.5-27.207-32.059l.058.487 6.04-14.63 7.242-17.626-.782.19c23.744 20.086 39.073 33.051 42.601 36.035.025.006-.195-.317-.707-.822a74.56 74.56 0 0 0-2.269-2.142c-2.004-1.84-4.963-4.47-8.699-7.742-7.469-6.544-18.038-15.651-30.282-26.088l-.522-.446-.261.635c-2.292 5.55-4.744 11.488-7.275 17.612l-6.018 14.64-.108.264.165.224c10.07 13.587 19.899 24.676 27.573 31.939 3.832 3.637 7.176 6.24 9.546 7.92 1.184.84 2.18 1.373 2.82 1.776.653.388 1 .576 1.016.549M707.921 337.59l14.898 56.282a7 7 0 0 0 6.904 5.208l77.148-1.516c4.389-.087 7.616-4.145 6.71-8.441l-11.361-53.904a7 7 0 0 0-6.85-5.556h-81.347c-4.143 0-7.162 3.922-6.102 7.928"/>
  <path fill="#33535f" d="M809.47 394.088c-.011.001-.05-.121-.114-.367-.07-.282-.159-.641-.268-1.088l-.964-4.197-3.419-15.467-4.984-22.957-2.918-13.563a3.139 3.139 0 0 0-1.99-2.436c-.524-.206-1.056-.205-1.697-.194l-1.856.001-7.556.001-52.267-.101-15.838-.11-4.306-.066c-.46-.013-.828-.025-1.12-.035-.252-.012-.381-.022-.381-.034 0-.012.13-.024.381-.036l1.12-.035 4.306-.065 15.838-.11 52.267-.102 7.556.002h1.856c.587-.012 1.31-.013 1.936.24 1.272.455 2.216 1.666 2.415 2.939l2.88 13.57 4.838 22.989 3.203 15.512.836 4.225c.083.453.15.816.201 1.103.042.249.056.378.046.381"/>
  <path fill="#dadbd8" d="M760.627 348.763c.824 2.244-.187 4.678-2.259 5.44-2.072.761-4.42-.44-5.244-2.683-.825-2.244.187-4.68 2.259-5.441 2.072-.762 4.42.44 5.244 2.684"/>
  <path fill="#f9a78d" d="m827.56 372.727-3.665-3.424s-2.43-8.082-3.962-9.611c-1.532-1.528-5.64-2.67-5.64-2.67l-9.21-8.46 1.678 7.547-13.365-.098c-1.568-.012-3.09.865-3.637 2.334-.099.266-.148.518-.116.732.38 2.491 2.673 3.499 2.673 3.499l1.92.907s-2.801.812-3.15 3.28c-.478 3.41 2.785 4.506 2.785 4.506s-3.286 1.47-1.398 5.408c0 0-3.058 3.626-1.289 6.079 1.768 2.453 11.905 6.563 11.905 6.563l5.62 2.552a9.53 9.53 0 0 0 4.214.237l2.194.307 2.343 1.942s13.41-7.324 10.1-21.63"/>
  <path fill="#f57f62" d="M813.16 366.93c-.007.106-1.167.147-3.037.029-1.868-.118-4.446-.42-7.25-.986-2.805-.568-5.297-1.288-7.066-1.905-1.77-.616-2.823-1.104-2.787-1.204.079-.225 4.457 1.215 10.012 2.323 5.548 1.133 10.143 1.505 10.128 1.744m3.67 10.536c-.058.214-5.245-1-11.583-2.712-6.342-1.711-11.434-3.272-11.376-3.486.057-.214 5.244 1 11.584 2.711 6.34 1.712 11.432 3.273 11.374 3.487m-1.076 7.873c-.017.1-1.441-.03-3.705-.481-2.261-.448-5.356-1.259-8.664-2.483-3.305-1.228-6.181-2.63-8.19-3.765-2.01-1.134-3.174-1.963-3.122-2.051.061-.103 1.324.552 3.384 1.548a95.418 95.418 0 0 0 8.208 3.516 95.27 95.27 0 0 0 8.513 2.683c2.212.588 3.596.914 3.576 1.033m2.499-10.185c-.221-.079.21-1.57-.11-3.378-.283-1.816-1.175-3.085-.993-3.232.135-.164 1.451 1.036 1.784 3.1.354 2.06-.501 3.622-.681 3.51m.14-9.696c-.15-.171.543-.995.65-2.238.149-1.238-.362-2.186-.18-2.322.082-.062.351.108.606.534.255.422.45 1.112.372 1.871-.08.759-.41 1.395-.747 1.755-.336.366-.633.477-.701.4m-.899 19.413c-.17-.153.354-.981.671-2.099.337-1.11.344-2.09.57-2.126.207-.055.59 1.04.2 2.353-.382 1.316-1.295 2.03-1.44 1.872m-20.651-28.789c.013.296 3.52.333 7.816.642 4.298.296 7.774.751 7.83.46.056-.268-3.388-1.188-7.758-1.488-4.368-.314-7.907.114-7.888.386"/>
  <path fill="#17282f" d="M754.204 285.164c.024-.007.153.312.38.93l.957 2.709c.83 2.437 1.987 5.844 3.411 10.033l-.453-.04 7.942-14.972.41-.772.193.855c1.161 5.117 2.43 10.718 3.759 16.57l.202.903-.5-.23 29.782-15.597 9.032-4.641 2.468-1.23c.568-.274.872-.407.882-.386.011.02-.27.195-.817.51l-2.41 1.342c-2.173 1.179-5.206 2.82-8.929 4.836l-29.684 15.78-.401.213-.1-.444-.203-.902-3.714-16.582.602.083-8.078 14.899-.278.512-.174-.552-3.2-10.103a1518.73 1518.73 0 0 0-.834-2.75c-.182-.631-.268-.966-.245-.974"/>
</svg>
