<svg xmlns="http://www.w3.org/2000/svg" width="700" height="500" viewBox="0 0 185.20834 132.29167"><g transform="translate(0 -164.71)"><path opacity="0.95" fill="#bddae8" d="m 0 164.71 h 185.21 v 132.29 h -185.21 z"/><text x="64.48" y="178.66" opacity="0.95" stroke-opacity="0.941" font-family="&apos;WenQuanYi Micro Hei Mono&apos;" fill="#00b6b6" stroke="#f7766f" word-spacing="0" line-height="1.25" stroke-width="0.265" letter-spacing="0" font-size="10.583"><tspan x="64.48" y="178.66" stroke-opacity="0.941" stroke-width="0.265">Аналитика</tspan></text><g transform="matrix(0 1 -1 0 300.7 180.51)"><g><circle cx="-246.65" cy="-25.818" r="49.61" transform="matrix(-0.34202 -0.93969 0.93969 -0.34202 0 0)" opacity="0.95" fill="#f7766f" stroke="#6a73ac" fill-opacity="0.941" stroke-width="0.261"/><path d="m 38.715 227.72 c -11.391 -6.622 -20.802 -12.13 -20.915 -12.244 -0.113 -0.113 0.548 -1.304 1.467 -2.647 7.831 -11.44 19.756 -18.919 33.61 -21.08 3.368 -0.525 10.377 -0.592 13.631 -0.13 10.114 1.436 19.15 5.6 26.599 12.254 0 0 1.569 1.402 1.569 1.402 0 0 -17.329 17.17 -17.329 17.17 c -9.531 9.445 -17.462 17.204 -17.625 17.242 -0.163 0.038 -9.616 -5.349 -21.01 -11.971 z" opacity="0.95" fill="#ce2c8f" stroke="#ce2c8f" stroke-width="0.303"/><g fill="#002981"><path d="m 59.867 241.14 l -42.935 -24.962 l 0.424 -0.734 l 42.935 24.962 z"/><path d="m 59.58 240.34 l 46.984 -17.1 l 0.29 0.796 l -46.984 17.1 z"/></g></g><path d="m 59.27 240.54 l 35.602 -35.3 l 0.599 0.599 l -35.602 35.3 z" fill="#002981"/></g><g transform="translate(0 -0.53)"><g transform="translate(3.933 4.271)"><ellipse ry="13.996" rx="28.825" cy="236.86" cx="142.72" opacity="0.9" fill="#ce2c8f" stroke="#324772" stroke-width="0.445"/><g transform="translate(0.584 -0.877)" font-family="&apos;WenQuanYi Micro Hei Mono&apos;" word-spacing="0" line-height="1.25" letter-spacing="0" font-size="10.583"><text x="131.98" y="236.09"><tspan x="131.98" y="236.09" fill="#fff" line-height="0" stroke-width="0.265" font-size="5.644">Прямые</tspan></text><text x="131.86" y="242.37" fill="#000"><tspan x="131.86" y="242.37" fill="#fff" line-height="0" stroke-width="0.265" font-size="5.644">заходы</tspan></text></g></g><g stroke="#324772" stroke-width="0.445"><ellipse ry="13.996" rx="28.825" cy="273.75" cx="144.59" opacity="0.9" fill="#6a73ac" transform="translate(2.062 2.91)"/><ellipse ry="13.996" rx="28.825" cy="196.11" cx="141.25" opacity="0.9" fill="#f7766f" fill-opacity="0.941" transform="translate(5.403 9.507)"/></g></g><g transform="translate(-0.368 -0.87)" font-family="&apos;WenQuanYi Micro Hei Mono&apos;" word-spacing="0" line-height="1.25" letter-spacing="0" font-size="10.583"><g transform="translate(4.703 8.977)"><text y="192.38" x="123.52" xml:space="preserve"><tspan y="192.38" x="123.52" fill="#fff" line-height="0" stroke-width="0.265" font-size="5.644">Переходы из </tspan></text><text y="199.08" x="127" fill="#000"><tspan y="199.08" x="127" fill="#fff" line-height="0" stroke-width="0.265" font-size="5.644">поисковых</tspan></text></g><text y="214.53" x="136.79" fill="#000"><tspan y="214.53" x="136.79" fill="#fff" line-height="0" stroke-width="0.265" font-size="5.644">систем</tspan><tspan y="227.76" x="136.79" fill="#fff" line-height="0" stroke-width="0.265" font-size="5.644"/></text></g><g transform="translate(-0.368 70.18)" font-family="&apos;WenQuanYi Micro Hei Mono&apos;" word-spacing="0" line-height="1.25" letter-spacing="0" font-size="10.583"><text xml:space="preserve" x="123.52" y="192.38" transform="translate(4.703 8.977)"><tspan x="123.52" y="192.38" fill="#fff" line-height="0" stroke-width="0.265" font-size="5.644">Переходы из </tspan></text><g fill="#000"><text x="130" y="208.06"><tspan x="130" y="208.06" fill="#fff" line-height="0" stroke-width="0.265" font-size="5.644">социальных</tspan></text><text x="138.54" y="214.53"><tspan x="138.54" y="214.53" fill="#fff" line-height="0" stroke-width="0.265" font-size="5.644">сетей</tspan></text></g></g><path d="m 63.59 244.51 c 1.235 1.247 8.725 8.805 16.643 16.796 l 14.397 14.529 l -0.532 0.563 c -1.12 1.186 -4.224 3.645 -6.626 5.249 -3.53 2.358 -9.677 5.409 -10.04 4.985 -0.169 -0.196 -16.09 -43.941 -16.09 -44.21 0 -0.099 1.01 0.84 2.246 2.087 z" opacity="0.95" fill="#6a73ac" stroke="#6a73ac" stroke-width="0.214"/></g></svg>