<svg xmlns="http://www.w3.org/2000/svg" width="700" height="500" viewBox="0 0 185.20834 132.29167"><path d="M 0,0 H 185.21 V 132.29 H 0 Z" opacity="0.95" fill="#bddae8"/><text font-size="10.583" letter-spacing="0" line-height="1.25" word-spacing="0" y="13.95" x="57.764" opacity="0.95" stroke-opacity="0.941" font-family="&apos;WenQuanYi Micro Hei Mono&apos;" fill="#00b6b6" stroke="#f7766f" stroke-width="0.265"><tspan y="13.95" x="57.764" stroke-opacity="0.941" stroke-width="0.265">Выход в топ</tspan></text><path d="m 112.22 48.33 h -12.303 c -1.132 0 -2.051 1.038 -2.051 2.318 v 69.53 c 0 1.279 0.919 2.318 2.051 2.318 h 12.303 c 1.132 0 2.051 -1.038 2.051 -2.318 v -69.53 c 0 -1.28 -0.919 -2.318 -2.051 -2.318 z" fill="#f7766f" fill-opacity="0.941" stroke-width="0.204"/><path d="m 34.17 67.833 c -4.524 0 -8.202 3.269 -8.202 7.289 0 4.02 3.679 7.289 8.202 7.289 4.524 0 8.202 -3.269 8.202 -7.289 0 -4.02 -3.679 -7.289 -8.202 -7.289" fill="#6a73ac" stroke-width="0.182"/><g transform="matrix(0.10365 0 0 0.10365 121.13 24.49)" fill="#ff8e02"><path d="M 466.45,49.37 C 459.39,41.062 449.082,36.3 438.18,36.3 H 402.407 V 25.11 C 402.407,11.263 391.14,0 377.297,0 h -242.59 c -13.848,0 -25.11,11.266 -25.11,25.11 V 36.3 H 73.82 c -10.899,0 -21.2,4.764 -28.27,13.07 -6.992,8.221 -10.01,19.02 -8.289,29.624 9.4,57.8 45.775,108.86 97.4,136.87 4.717,11.341 10.06,22.08 16.01,32.09 19,31.975 42.625,54.07 68.63,64.76 2.635,26.644 -15.09,51.885 -41.794,57.9 -0.057,0.013 -0.097,0.033 -0.153,0.046 -5.211,1.245 -9.09,5.921 -9.09,11.513 v 54.36 h -21.986 c -19.602,0 -35.549,15.947 -35.549,35.549 v 28.06 c 0,6.545 5.305,11.85 11.85,11.85 h 267.99 c 6.545,0 11.85,-5.305 11.85,-11.85 v -28.06 c 0,-19.602 -15.947,-35.549 -35.549,-35.549 h -21.988 v -54.36 c 0,-5.603 -3.893,-10.286 -9.118,-11.52 -0.049,-0.012 -0.096,-0.028 -0.145,-0.04 -26.902,-6.06 -44.664,-31.55 -41.752,-58.39 25.548,-10.86 48.757,-32.761 67.48,-64.26 5.949,-10.01 11.29,-20.752 16.01,-32.09 51.622,-28.01 87.995,-79.07 97.39,-136.87 1.725,-10.605 -1.297,-21.402 -8.29,-29.623 z M 60.65,75.188 c -0.616,-3.787 0.431,-7.504 2.949,-10.466 2.555,-3 6.277,-4.726 10.214,-4.726 h 35.777 v 21.802 c 0,34.19 4.363,67.3 12.632,97.58 -32.496,-25.679 -54.87,-62.982 -61.57,-104.19 m 306.21,385.05 c 6.534,0 11.85,5.316 11.85,11.85 v 16.208 h -244.29 v -16.208 c 0,-6.534 5.316,-11.85 11.85,-11.85 z m -45.688,-66.21 v 42.513 h -129.21 v -42.513 m 31.08,-23.699 c 2.929,-3.224 5.607,-6.719 8,-10.46 7.897,-12.339 12.04,-26.357 12.228,-40.674 4.209,0.573 8.457,0.88 12.741,0.88 4.661,0 9.279,-0.358 13.852,-1.036 0.27,19.239 7.758,37.45 20.349,51.29 h -67.17 m 155.67,-288.53 c 0,58.38 -13.406,113.09 -37.747,154.05 -23.19,39.03 -53.36,60.53 -84.956,60.53 -31.597,0 -61.771,-21.494 -84.966,-60.52 -24.342,-40.961 -37.748,-95.67 -37.748,-154.05 V 25.116 c 0,-0.78 0.634,-1.413 1.412,-1.413 h 242.59 c 0.78,0 1.414,0.634 1.414,1.413 z m 72.64,-6.611 c -6.702,41.21 -29.07,78.51 -61.57,104.19 8.268,-30.28 12.631,-63.4 12.631,-97.58 V 59.996 h 35.773 c 3.938,0 7.66,1.723 10.214,4.726 2.518,2.961 3.566,6.678 2.951,10.465 z"/><path d="m 327.941,121.658 c -1.395,-4.288 -5.103,-7.414 -9.566,-8.064 L 282.617,108.398 266.626,75.996 C 264.629,71.952 260.51,69.391 256,69.391 c -4.511,0 -8.63,2.561 -10.626,6.605 l -15.991,32.402 -35.758,5.196 c -4.464,0.648 -8.172,3.775 -9.566,8.065 -1.393,4.291 -0.231,8.999 2.999,12.148 l 25.875,25.221 -6.109,35.613 c -0.763,4.446 1.064,8.938 4.714,11.59 3.648,2.651 8.487,3 12.479,0.902 L 256,190.32 l 31.982,16.813 c 1.734,0.911 3.627,1.36 5.512,1.36 2.456,0 4.902,-0.763 6.966,-2.263 3.65,-2.652 5.477,-7.144 4.714,-11.59 l -6.109,-35.613 25.875,-25.221 c 3.232,-3.148 4.394,-7.857 3.001,-12.148 z m -49.877,24.747 c -2.793,2.722 -4.068,6.644 -3.408,10.489 l 3.102,18.09 -16.245,-8.541 c -1.725,-0.908 -3.62,-1.36 -5.514,-1.36 -1.894,0 -3.788,0.454 -5.514,1.36 l -16.245,8.541 3.102,-18.09 c 0.66,-3.844 -0.615,-7.766 -3.408,-10.489 l -13.141,-12.81 18.162,-2.64 c 3.859,-0.56 7.196,-2.985 8.922,-6.482 l 8.123,-16.458 8.122,16.458 c 1.727,3.497 5.062,5.921 8.922,6.482 l 18.162,2.64 z"/></g><path d="m 146.29 55.02 c -4.514 -0.926 -8.421 -5.984 -10.253 -13.274 -0.796 -3.17 -0.995 -5.134 -1.058 -10.465 l -0.051 -4.276 h 12.734 h 12.734 l -0.051 4.276 c -0.036 2.962 -0.097 4.681 -0.2 5.593 -0.934 8.26 -4.227 14.745 -8.781 17.293 -1.555 0.869 -3.445 1.187 -5.072 0.854 z m -0.391 -9.842 l 1.757 -0.914 l 1.763 0.914 c 1.499 0.778 1.829 0.914 2.208 0.914 0.379 0 0.493 -0.047 0.761 -0.316 0.174 -0.174 0.346 -0.436 0.383 -0.584 0.042 -0.168 -0.058 -0.996 -0.268 -2.212 l -0.335 -1.944 l 1.502 -1.518 l 1.502 -1.518 v -0.447 c 0 -0.56 -0.201 -0.957 -0.584 -1.155 -0.223 -0.115 -3.584 -0.691 -4.077 -0.699 -0.043 -0.001 -0.454 -0.777 -0.914 -1.726 -0.997 -2.056 -1.196 -2.292 -1.938 -2.292 -0.742 0 -0.941 0.235 -1.938 2.292 -0.46 0.949 -0.871 1.725 -0.914 1.726 -0.493 0.007 -3.853 0.583 -4.077 0.699 -0.384 0.198 -0.584 0.595 -0.584 1.155 v 0.447 l 1.503 1.518 l 1.503 1.518 l -0.317 1.795 c -0.174 0.987 -0.319 1.927 -0.321 2.089 -0.005 0.348 0.332 0.885 0.66 1.051 0.529 0.267 0.887 0.163 2.725 -0.793 z" opacity="0.95" fill="#fccc00" stroke="#deecf1" stroke-width="0.107"/><g fill="#6a73ac"><path d="m 88.59 80.68 h -12.303 c -1.132 0 -2.051 0.585 -2.051 1.307 v 39.2 c 0 0.721 0.919 1.307 2.051 1.307 h 12.303 c 1.132 0 2.051 -0.585 2.051 -1.307 v -39.2 c 0 -0.721 -0.919 -1.307 -2.051 -1.307 z" stroke-width="0.153"/><path d="m 82.44 58.85 c -4.524 0 -8.202 3.269 -8.202 7.289 0 4.02 3.679 7.289 8.202 7.289 4.524 0 8.202 -3.269 8.202 -7.289 0 -4.02 -3.679 -7.289 -8.202 -7.289"/></g><path d="m 63.95 73.07 h -12.303 c -1.132 0 -2.051 0.692 -2.051 1.545 v 46.34 c 0 0.853 0.919 1.545 2.051 1.545 h 12.303 c 1.132 0 2.051 -0.692 2.051 -1.545 v -46.34 c 0 -0.853 -0.919 -1.545 -2.051 -1.545 z" fill="#f7766f" fill-opacity="0.941" stroke-width="0.167"/><g fill="#6a73ac"><path d="m 40.32 88.61 h -12.303 c -1.132 0 -2.051 0.474 -2.051 1.059 v 31.771 c 0 0.585 0.919 1.059 2.051 1.059 h 12.303 c 1.132 0 2.051 -0.474 2.051 -1.059 v -31.771 c 0 -0.585 -0.919 -1.059 -2.051 -1.059 z" stroke-width="0.138"/><path d="m 55.752 60.871 c -0.705 -0.787 -1.993 -0.915 -2.879 -0.292 l -15.461 10.955 c -0.886 0.631 -1.033 1.775 -0.324 2.562 0.406 0.452 1 0.685 1.603 0.685 0.447 0 0.898 -0.131 1.275 -0.394 l 15.461 -10.955 c 0.886 -0.631 1.033 -1.775 0.324 -2.562 z" stroke-width="0.181"/><path d="m 103.2 38.502 c -0.738 -0.905 -2.092 -0.66 -3.03 0.54 l -16.313 21.05 c -0.935 1.21 -1.095 2.918 -0.353 3.822 0.425 0.519 1.053 0.657 1.683 0.457 0.47 -0.149 0.945 -0.49 1.343 -0.997 l 16.313 -21.05 c 0.935 -1.21 1.095 -2.918 0.353 -3.822 z" stroke-width="0.224"/></g><g stroke-width="0.181"><path d="m 106.07 27.04 c -4.524 0 -8.202 3.269 -8.202 7.289 0 4.02 3.679 7.289 8.202 7.289 4.524 0 8.202 -3.269 8.202 -7.289 0 -4.02 -3.679 -7.289 -8.202 -7.289 z" fill="#f7766f" fill-opacity="0.941"/><path d="m 80.23 66.35 c -0.423 0.969 -1.605 1.494 -2.642 1.18 l -18.12 -5.55 c -1.039 -0.321 -1.538 -1.361 -1.111 -2.331 0.244 -0.556 0.739 -0.966 1.307 -1.154 0.424 -0.14 0.894 -0.157 1.335 -0.027 l 18.12 5.55 c 1.039 0.321 1.538 1.361 1.111 2.331 z" fill="#6a73ac"/><path d="m 57.799 52.4 c -4.524 0 -8.202 3.269 -8.202 7.289 0 4.02 3.679 7.289 8.202 7.289 4.524 0 8.202 -3.269 8.202 -7.289 0 -4.02 -3.679 -7.289 -8.202 -7.289 z" fill="#f7766f" fill-opacity="0.941"/></g></svg>